<svg width="34" height="40" viewBox="0 0 34 40" fill="none" xmlns="http://www.w3.org/2000/svg"><g clip-path="url(#clip0)"><path fill-rule="evenodd" clip-rule="evenodd" d="M3.566 0h21.36a2.91 2.91 0 0 1 2.91 2.91V31a2.91 2.91 0 0 1-2.91 2.91H3.566A2.911 2.911 0 0 1 .646 31V2.91A2.91 2.91 0 0 1 3.566 0z" fill="#C36E36"/><path d="M28.626 3.83a2.88 2.88 0 0 1 2.86 2.91v28.14a2.881 2.881 0 0 1-2.86 2.91h-21a2.88 2.88 0 0 1-2.86-2.91V6.74a2.88 2.88 0 0 1 2.86-2.91h21zm0-2H5.846c-2.68 0-3.08 2.17-3.08 4.91v28.14a4.89 4.89 0 0 0 4.86 4.91h21a4.89 4.89 0 0 0 4.86-4.91V6.74a4.89 4.89 0 0 0-4.86-4.91z" fill="#F3C84E"/><path fill-rule="evenodd" clip-rule="evenodd" d="M3.616 2.38l1 .48a5.38 5.38 0 0 1 2.91 4.33v28.16c0 1.61 1.67 3.59-2.93 1.5a11.833 11.833 0 0 1-2-1.22 5 5 0 0 1-2-3.52C.206 25.08.626 4 .626 4c0-1.66 1.38-2.4 2.99-1.62z" fill="#C36E36"/><path fill-rule="evenodd" clip-rule="evenodd" d="M7.496 3.83h21.35a2.91 2.91 0 0 1 2.91 2.91v28.18a2.911 2.911 0 0 1-2.91 2.92H8.356a6.14 6.14 0 0 1-2.21-.36c-1.33-.48-1.55-1.29-1.55-2.55V6.74c0-1.61.37-2.91 2.9-2.91z" fill="#C36E36"/><path d="M18.556 13.63h-3.32a1.56 1.56 0 0 0-1.56 1.56v11.44c0 .862.698 1.56 1.56 1.56h3.32a1.56 1.56 0 0 0 1.56-1.56V15.19a1.56 1.56 0 0 0-1.56-1.56z" fill="#F3C84E"/><path d="M9.616 19.25v3.32c0 .862.698 1.56 1.56 1.56h11.44a1.56 1.56 0 0 0 1.56-1.56v-3.32a1.56 1.56 0 0 0-1.56-1.56h-11.44a1.56 1.56 0 0 0-1.56 1.56z" fill="#F3C84E"/></g><defs><clipPath id="clip0"><path fill="#fff" transform="translate(.436)" d="M0 0h33.05v39.79H0z"/></clipPath></defs></svg>