<svg width="73" height="63" viewBox="0 0 73 63" fill="none" xmlns="http://www.w3.org/2000/svg"><g clip-path="url(#clip0)" fill="#C06D3A"><path d="M58.75 0H13.34A13.34 13.34 0 0 0 0 13.34v25.6a13.33 13.33 0 0 0 9.93 12.88c-.95 2.77-3.06 5.8-7.14 8.87-1.07.81.39 1.7 3.33 1.7 4.55 0 12.67-2.15 20.47-10.11h32.16a13.33 13.33 0 0 0 13.33-13.34v-25.6A13.33 13.33 0 0 0 58.75 0zm7.36 38.94a7.37 7.37 0 0 1-7.36 7.36H24.08l-1.76 1.79a32.117 32.117 0 0 1-6.6 5.25l1.93-5.66-6.2-1.68A7.35 7.35 0 0 1 6 38.94v-25.6A7.37 7.37 0 0 1 13.34 6h45.41a7.37 7.37 0 0 1 7.36 7.36v25.58z"/><path d="M55.01 15.88H17.07v5.98h37.94v-5.98zM55.01 30.32H17.07v5.98h37.94v-5.98z"/></g><defs><clipPath id="clip0"><path fill="#fff" d="M0 0h72.08v62.39H0z"/></clipPath></defs></svg>