<svg width="34" height="40" viewBox="0 0 34 40" fill="none" xmlns="http://www.w3.org/2000/svg"><path d="M10.248 39.988h4.59v-3.663c5.24-1.067 8.347-4.916 8.347-10.016 0-9.924-13.54-9.46-13.54-13.865 0-1.252 1.02-2.18 2.55-2.18 2.458 0 3.431 1.763 4.08 3.2l6.585-3.014c-.742-2.133-2.875-6.26-8.022-7.28V.48h-4.59v2.644c-5.24.742-8.533 4.312-8.533 9.46 0 10.386 13.448 10.015 13.448 14.328 0 1.437-.974 2.272-2.875 2.272-2.226 0-3.988-1.716-4.869-3.617l-6.63 3.292c.741 2.272 3.291 6.956 9.459 7.651v3.478z" fill="#C06D3A"/></svg>