<svg width="50" height="57" viewBox="0 0 50 57" fill="none" xmlns="http://www.w3.org/2000/svg"><g clip-path="url(#clip0)" fill="#C16C37"><path d="M32.79 35.543l-2.375-.518a11.461 11.461 0 0 0-.464-2.566l2.016-1.3c.272-.169.5-.4.668-.673a1.976 1.976 0 0 0-.037-2.07l-1.412-2.208a1.96 1.96 0 0 0-2-.875 1.96 1.96 0 0 0-.714.283l-2.048 1.327a11.52 11.52 0 0 0-2.135-1.5l.52-2.385a1.972 1.972 0 0 0-.265-1.482 1.957 1.957 0 0 0-1.232-.859l-2.554-.556a1.957 1.957 0 0 0-1.478.267 1.972 1.972 0 0 0-.858 1.238l-.52 2.385c-.869.059-1.729.216-2.563.469l-1.311-2.06a1.959 1.959 0 0 0-2.714-.59L9.118 23.29a1.972 1.972 0 0 0-.593 2.718l1.31 2.065a11.468 11.468 0 0 0-1.492 2.146l-2.331-.508a1.954 1.954 0 0 0-1.873.547 1.974 1.974 0 0 0-.506.943l-.559 2.564a1.972 1.972 0 0 0 .265 1.482c.28.44.724.748 1.232.859l2.376.518c.056.87.212 1.731.464 2.566l-2.016 1.3a1.97 1.97 0 0 0-.669.673 1.976 1.976 0 0 0 .037 2.07l1.412 2.208a1.96 1.96 0 0 0 2 .875 1.96 1.96 0 0 0 .714-.283l2.048-1.32a11.856 11.856 0 0 0 2.137 1.486l-.521 2.392a1.972 1.972 0 0 0 .265 1.482c.28.44.723.748 1.232.859l2.554.556c.508.111 1.04.015 1.477-.267.438-.283.747-.728.858-1.238l.521-2.391c.869-.06 1.728-.215 2.563-.463l1.312 2.053a1.961 1.961 0 0 0 2 .874 1.96 1.96 0 0 0 .714-.283l2.196-1.421a1.972 1.972 0 0 0 .593-2.719l-1.312-2.052a11.609 11.609 0 0 0 1.491-2.146l2.331.508c.31.074.634.073.944-.002a1.963 1.963 0 0 0 1.436-1.494l.56-2.564a1.972 1.972 0 0 0-.266-1.482 1.957 1.957 0 0 0-1.231-.859zm-14.401 6.84a6.514 6.514 0 0 1-3.8-1.432 6.548 6.548 0 0 1-2.22-3.408 6.583 6.583 0 0 1 2.782-7.23 6.514 6.514 0 0 1 7.705.46 6.55 6.55 0 0 1 2.165 3.443 6.584 6.584 0 0 1-2.808 7.128 6.528 6.528 0 0 1-3.825 1.039zM46.492 16.543l-1.616-.352a7.82 7.82 0 0 0-.29-1.742l1.37-.883c.174-.123.318-.282.423-.466a1.317 1.317 0 0 0-.027-1.409l-.95-1.503a1.344 1.344 0 0 0-1.846-.403l-1.393.899a8.308 8.308 0 0 0-1.463-.99l.365-1.674c.074-.34.01-.695-.177-.988a1.305 1.305 0 0 0-.82-.573l-1.764-.384a1.305 1.305 0 0 0-.985.179 1.315 1.315 0 0 0-.571.825l-.36 1.654a7.93 7.93 0 0 0-1.743.292l-.923-1.383a1.344 1.344 0 0 0-1.846-.403l-1.496.97a1.312 1.312 0 0 0-.6 1.362c.033.173.1.338.198.485l.891 1.403c-.383.449-.714.94-.988 1.463l-1.609-.35a1.4 1.4 0 0 0-.668-.005 1.349 1.349 0 0 0-.956 1.04l-.38 1.744c-.074.34-.01.696.177.989.187.292.482.498.82.572l1.616.352c.03.59.128 1.174.29 1.742l-1.322.907a1.313 1.313 0 0 0-.408 1.872l.958 1.498a1.307 1.307 0 0 0 1.36.604c.174-.034.339-.102.485-.201l1.394-.899c.45.384.94.716 1.463.99l-.354 1.623a1.317 1.317 0 0 0 .517 1.384c.142.1.304.171.474.209l1.737.378a1.303 1.303 0 0 0 1.367-.554c.097-.146.164-.31.197-.482l.348-1.596a7.961 7.961 0 0 0 1.742-.292l.892 1.404a1.344 1.344 0 0 0 1.846.402l1.495-.97a1.313 1.313 0 0 0 .404-1.853l-.893-1.397a7.82 7.82 0 0 0 .988-1.463l1.584.345a1.4 1.4 0 0 0 .668.005 1.355 1.355 0 0 0 .973-1.024l.381-1.75a1.317 1.317 0 0 0-.503-1.39 1.302 1.302 0 0 0-.472-.213zm-9.799 4.627a4.435 4.435 0 0 1-2.587-.978 4.459 4.459 0 0 1-1.51-2.323 4.483 4.483 0 0 1 1.902-4.922 4.437 4.437 0 0 1 5.247.322 4.46 4.46 0 0 1 1.47 2.348 4.483 4.483 0 0 1-1.92 4.85 4.445 4.445 0 0 1-2.602.703z"/></g><defs><clipPath id="clip0"><path fill="#fff" transform="rotate(12.298 5.218 48.431)" d="M0 0h40.086v48.994H0z"/></clipPath></defs></svg>