<svg width="37" height="32" viewBox="0 0 37 32" fill="none" xmlns="http://www.w3.org/2000/svg"><g clip-path="url(#clip0)"><path d="M34.32 15.923L18.5 32 5.505 18.795l-2.83-2.884A9.414 9.414 0 0 1-.017 9.31c0-2.477.968-4.852 2.692-6.603A9.115 9.115 0 0 1 9.172-.029c2.437 0 4.774.984 6.497 2.735l2.838 2.884 2.838-2.876a9.115 9.115 0 0 1 6.497-2.735c2.437 0 4.774.984 6.497 2.735a9.415 9.415 0 0 1 2.692 6.602 9.415 9.415 0 0 1-2.692 6.603l-.019.004z" fill="#C16C37"/></g><defs><clipPath id="clip0"><path fill="#fff" d="M0 0h37v32H0z"/></clipPath></defs></svg>