<svg width="37" height="32" viewBox="0 0 37 32" fill="none" xmlns="http://www.w3.org/2000/svg">
<g clip-path="url(#clip0)">
<path d="M34.32 15.9234L18.4996 32L5.50506 18.7951L2.67465 15.9112C0.95147 14.1601 -0.0166016 11.7852 -0.0166016 9.30875C-0.0166016 6.83234 0.95147 4.45736 2.67465 2.70627C4.39783 0.955185 6.73496 -0.0285645 9.1719 -0.0285645C11.6088 -0.0285645 13.946 0.955185 15.6692 2.70627L18.507 5.59011L21.3449 2.71386C23.0681 0.962774 25.4052 -0.0209753 27.8422 -0.0209753C30.2791 -0.0209753 32.6162 0.962774 34.3394 2.71386C36.0626 4.46494 37.0307 6.83993 37.0307 9.31633C37.0307 11.7927 36.0626 14.1677 34.3394 15.9188L34.32 15.9234Z" fill="#C16C37"/>
</g>
<defs>
<clipPath id="clip0">
<rect width="37" height="32" fill="white"/>
</clipPath>
</defs>
</svg>
