<svg width="43" height="38" viewBox="0 0 43 38" fill="none" xmlns="http://www.w3.org/2000/svg"><g clip-path="url(#clip0)" fill="#C06D3A"><path d="M41.942 21.526l-.035-.065a9.008 9.008 0 0 0-1.518-2.04l-8.121-8.06-.096-.084a8.82 8.82 0 0 0-3.65-2.146 11.537 11.537 0 0 1 2.987 5.98c.121.68.183 1.37.185 2.062 0 .275 0 .568-.035.885l5.043 5.053c.444.447.768.998.944 1.602.215.732.215 1.51 0 2.243a3.678 3.678 0 0 1-.908 1.5l-3.275 3.295a3.853 3.853 0 0 1-5.378 0l-3.137-3.139-2.032-2.033-2.928-2.936a3.463 3.463 0 0 1-.717-1.022 3.854 3.854 0 0 1-.203-2.805.662.662 0 0 1 .054-.083v-.054c.04-.116.085-.23.137-.341 0-.06.054-.12.084-.174.03-.053.12-.209.191-.317V18.8l.066-.096c.107-.15.227-.29.358-.419l1.255-1.255a1.126 1.126 0 0 0-.107-.395.808.808 0 0 0-.192-.28l-2.928-2.937-.215-.215-1.446 1.447c-.143.137-.28.293-.43.46l-.066.078-.042.06c-.101.12-.197.233-.286.359l-.09.12v.03c-.09.125-.18.25-.263.382v.03a7.575 7.575 0 0 0-.335.574 8.78 8.78 0 0 0-.699 1.794 5.391 5.391 0 0 0-.15.598 9.162 9.162 0 0 0-.04 3.384 8.828 8.828 0 0 0 2.461 4.736l1.685 1.692 2.468 2.463 3.944 3.953a8.96 8.96 0 0 0 12.638 0l3.293-3.295a8.876 8.876 0 0 0 2.324-4.126c.183-.71.28-1.442.287-2.176a9.004 9.004 0 0 0-.986-4.084v-.078l-.096-.078z"/><path d="M26.639 10.721L24.948 9.03l-2.462-2.451-3.962-3.965a8.96 8.96 0 0 0-12.638 0l-3.28 3.295a8.97 8.97 0 0 0-2.325 4.12A9.19 9.19 0 0 0 0 12.234a9.034 9.034 0 0 0 .98 4.078V16.396l.03.06.042.066a8.826 8.826 0 0 0 1.553 2.015l8.103 8.126c.027.03.057.059.09.084a8.82 8.82 0 0 0 3.65 2.14 11.543 11.543 0 0 1-3.017-5.98c-.119-.68-.179-1.37-.18-2.062 0-.275 0-.598.037-.885l-5.05-5.011a3.75 3.75 0 0 1-.938-1.603 3.883 3.883 0 0 1 .03-2.278 3.678 3.678 0 0 1 .908-1.5l3.323-3.32a3.853 3.853 0 0 1 5.378 0l3.107 3.14 2.026 2.033 2.934 2.93c.297.296.54.642.717 1.022.404.883.467 1.884.18 2.81l-.037.102v.054c-.041.117-.089.23-.143.341-.024.06-.052.118-.084.174-.055.11-.12.216-.191.317v.041l-.072.102a3.24 3.24 0 0 1-.352.419l-1.255 1.255c.01.137.044.27.102.395.047.104.112.199.19.281l2.935 2.936.215.215 1.446-1.447c.137-.137.275-.287.424-.46a.804.804 0 0 0 .066-.084l.048-.054.287-.359c.037-.047.07-.097.101-.15a5.41 5.41 0 0 0 .263-.382v-.042l.054-.083c.095-.156.185-.317.275-.479.295-.571.53-1.173.699-1.794.06-.209.107-.412.15-.598a9.162 9.162 0 0 0 .041-3.384 8.87 8.87 0 0 0-2.426-4.778z"/></g><defs><clipPath id="clip0"><path fill="#fff" d="M0 0h43v38H0z"/></clipPath></defs></svg>