<svg width="127" height="133" viewBox="0 0 127 133" fill="none" xmlns="http://www.w3.org/2000/svg"><g clip-path="url(#clip0)"><path d="M102.607 49.608C116.079 49.608 127 38.73 127 25.31c0-13.418-10.921-24.296-24.393-24.296-13.472 0-24.394 10.878-24.394 24.296 0 13.419 10.922 24.297 24.394 24.297z" fill="#F8EEC8"/><path opacity=".53" d="M119.754 7.947a24.229 24.229 0 0 1 5.042 17.142 24.263 24.263 0 0 1-8.089 15.943 24.453 24.453 0 0 1-16.847 6.125 24.442 24.442 0 0 1-16.5-7.003 24.367 24.367 0 0 0 7.546 6.393 24.49 24.49 0 0 0 19.32 1.765 24.422 24.422 0 0 0 8.587-4.919 24.29 24.29 0 0 0 5.915-7.915 24.207 24.207 0 0 0 .513-19.316 24.28 24.28 0 0 0-5.487-8.215z" fill="#F3C74A"/><path d="M82.87 11.432l36.704 31.024c.967-.817.82-.408 1.639-1.404.82-.996.468-.76 1.132-1.846L85.64 8.183C84.672 9 84.82 8.6 84 9.596s-.467.759-1.13 1.836z" fill="#F8EEC8"/><path d="M41.656 117.771c23.006 0 41.656-18.637 41.656-41.626 0-22.99-18.65-41.626-41.656-41.626S0 53.156 0 76.145c0 22.99 18.65 41.626 41.656 41.626z" fill="#C0D5D0"/><path d="M71.25 46.298a41.552 41.552 0 0 1 8.756 29.44 41.612 41.612 0 0 1-13.872 27.422 41.938 41.938 0 0 1-28.965 10.511 41.92 41.92 0 0 1-28.33-12.106 41.801 41.801 0 0 0 12.95 10.897 41.985 41.985 0 0 0 33.07 2.952 41.876 41.876 0 0 0 14.69-8.43 41.68 41.68 0 0 0 10.124-13.543 41.52 41.52 0 0 0 .928-33.057 41.656 41.656 0 0 0-9.35-14.086z" fill="#9FB7B2" opacity=".45"/><path opacity=".6" d="M51.62 34.95L17.02 109.581c1.814 1.214 1.048 1.113 3.087 2.055 2.04.942 1.47.42 3.572 1.012l34.606-74.633c-1.814-1.214-1.048-1.113-3.126-2.055-2.08-.942-1.438-.42-3.54-1.012z" fill="#6A9A9B"/></g><defs><clipPath id="clip0"><path fill="#fff" d="M0 0h127v133H0z"/></clipPath></defs></svg>