<svg width="257" height="184" viewBox="0 0 257 184" fill="none" xmlns="http://www.w3.org/2000/svg"><g clip-path="url(#clip0)"><path d="M63.557 99.063c12.153 3.485 24.823-3.517 28.299-15.638 3.476-12.121-3.558-24.773-15.71-28.258-12.153-3.485-24.823 3.516-28.299 15.638-3.476 12.12 3.558 24.772 15.71 28.257z" fill="#966891"/><path d="M89.82 65.86a22.791 22.791 0 0 1-11.31 29.128 22.927 22.927 0 0 1-16.8 1.169 22.92 22.92 0 0 1-13.068-10.619 22.878 22.878 0 0 0 5.155 7.716 22.932 22.932 0 0 0 16.96 6.576 22.906 22.906 0 0 0 9.013-2.221 22.838 22.838 0 0 0 7.382-5.614A22.784 22.784 0 0 0 89.82 65.86z" fill="#966891" opacity=".48"/><path d="M83.663 59.103L51.18 90.35c.678 1.004.313.778 1.147 1.656a7.23 7.23 0 0 0 1.62 1.225L86.43 61.983c-.677-1.003-.312-.777-1.147-1.655-.835-.879-.672-.485-1.62-1.225z" fill="#966891" opacity=".6"/><path d="M17.744 44.493c12.144 2.633 24.118-5.051 26.745-17.164C47.116 15.216 39.4 3.262 27.256.628 15.112-2.006 3.138 5.679.511 17.792c-2.627 12.113 5.089 24.067 17.233 26.7z" fill="#C0D5D0"/><path d="M41.35 10.227a22.393 22.393 0 0 1-9.209 29.279 22.526 22.526 0 0 1-16.388 2.235 22.52 22.52 0 0 1-13.5-9.556 22.476 22.476 0 0 0 5.552 7.236 22.535 22.535 0 0 0 25.755 2.595 22.44 22.44 0 0 0 6.875-5.984 22.387 22.387 0 0 0 .916-25.804z" fill="#9FB7B2" opacity=".44"/><path opacity=".6" d="M32.335 2.023L5.631 37.356c.82.845.422.695 1.393 1.43.54.395 1.134.71 1.763.938L35.484 4.389c-.812-.843-.422-.695-1.394-1.43a7.064 7.064 0 0 0-1.755-.936z" fill="#6A9A9B"/><path d="M212.135 177.436c17.131 3.562 33.899-7.403 37.451-24.491 3.553-17.087-7.455-33.827-24.587-37.388-17.132-3.562-33.899 7.403-37.452 24.491-3.552 17.087 7.456 33.827 24.588 37.388z" fill="#F8EEC8"/><path opacity=".33" d="M244.971 128.909a31.543 31.543 0 0 1-12.639 41.321 31.73 31.73 0 0 1-23.043 3.345 31.722 31.722 0 0 1-19.125-13.277 31.668 31.668 0 0 0 7.901 10.139 31.748 31.748 0 0 0 36.325 3.366 31.598 31.598 0 0 0 9.619-8.516 31.526 31.526 0 0 0 5.766-24.465 31.596 31.596 0 0 0-4.804-11.913z" fill="#F3C74A"/><path d="M197.146 123.605l38.481 49.188c1.445-.8 1.109-.316 2.453-1.365 1.345-1.049.798-.836 1.946-2.039L201.545 120.2c-1.445.8-1.109.316-2.453 1.365-1.345 1.049-.82.832-1.946 2.04z" fill="#F8EEC8"/></g><defs><clipPath id="clip0"><path fill="#fff" d="M0 0h257v184H0z"/></clipPath></defs></svg>