<svg width="100" height="137" viewBox="0 0 100 137" fill="none" xmlns="http://www.w3.org/2000/svg"><g clip-path="url(#clip0)"><path d="M13.47 17.168h73.054c1.156 0 2.266.457 3.083 1.271a4.33 4.33 0 0 1 1.278 3.069v107.725c0 2.06-.823 4.036-2.286 5.492A7.822 7.822 0 0 1 83.08 137H16.92a7.822 7.822 0 0 1-5.519-2.275 7.747 7.747 0 0 1-2.286-5.492V21.508a4.33 4.33 0 0 1 1.275-3.066 4.371 4.371 0 0 1 3.08-1.274z" fill="#F3C74A"/><path d="M11.04 111.591h32.84a10.686 10.686 0 0 0 7.52-3.117 10.583 10.583 0 0 0 3.113-7.492v-57.87c0-2.81-1.12-5.504-3.113-7.493a10.687 10.687 0 0 0-7.52-3.117H11.04a2.765 2.765 0 0 0-1.886.903 2.739 2.739 0 0 0-.708 1.96v73.363a2.739 2.739 0 0 0 .708 1.961c.485.536 1.163.86 1.887.902z" fill="#F8EEC8"/><path d="M8.97 42.357v-22.05a4.33 4.33 0 0 1 1.275-3.067 4.371 4.371 0 0 1 3.08-1.274H86.35a4.38 4.38 0 0 1 3.084 1.271 4.337 4.337 0 0 1 1.277 3.07v7.848L8.97 42.357z" fill="#F3C74A" opacity=".67"/><path d="M96.964 0H3.036A3.029 3.029 0 0 0 0 3.022v17.84a3.029 3.029 0 0 0 3.036 3.022h93.928A3.029 3.029 0 0 0 100 20.863V3.021A3.029 3.029 0 0 0 96.964 0z" fill="#F8F6E8"/><path d="M7.625 24.674V9.044a.793.793 0 0 0-.493-.742.802.802 0 0 0-1.108.735v15.637h1.6zM22.288 24.674V9.044a.792.792 0 0 0-.492-.742.803.803 0 0 0-.308-.062.802.802 0 0 0-.787.804v15.63h1.587zM36.952 24.674V9.044a.794.794 0 0 0-.493-.742.802.802 0 0 0-1.108.735v15.637h1.6zM51.615 24.674V9.044a.794.794 0 0 0-.493-.742.802.802 0 0 0-1.108.735v15.637h1.6zM66.278 24.674V9.044a.792.792 0 0 0-.493-.742.803.803 0 0 0-1.108.735v15.637h1.6zM80.941 24.674V9.044a.794.794 0 0 0-.492-.742.804.804 0 0 0-.308-.062.803.803 0 0 0-.787.804v15.63h1.587zM95.605 24.674V9.044a.794.794 0 0 0-.493-.742.802.802 0 0 0-1.108.735v15.637h1.6z" fill="#C0D5D0"/><path d="M.483 15.856H99.51a.484.484 0 0 1 .483.48v5.639c0 .801-.32 1.57-.89 2.136a3.044 3.044 0 0 1-2.146.885H3.037a3.043 3.043 0 0 1-2.148-.885A3.014 3.014 0 0 1 0 21.975v-5.631a.479.479 0 0 1 .483-.488z" fill="#F8F6E8"/></g><defs><clipPath id="clip0"><path fill="#fff" d="M0 0h100v137H0z"/></clipPath></defs></svg>