<svg width="451" height="143" viewBox="0 0 451 143" fill="none" xmlns="http://www.w3.org/2000/svg">
<g clip-path="url(#clip0)">
<path d="M433.895 1.64684L6.08927 56.3915C2.78855 56.8138 0.4552 59.832 0.87758 63.1327L10.2639 136.483C10.6863 139.784 13.7045 142.117 17.0052 141.695L444.811 86.9499C448.111 86.5275 450.445 83.5094 450.022 80.2086L440.636 6.85853C440.214 3.55781 437.195 1.22446 433.895 1.64684Z" fill="#F8F6E8"/>
<path opacity="0.17" d="M142.653 82.144L142.64 82.1457C139.724 82.5157 137.66 85.1794 138.03 88.0952L140.473 107.344C140.843 110.259 143.507 112.323 146.422 111.953L146.436 111.951C149.351 111.581 151.415 108.918 151.045 106.002L148.602 86.7535C148.232 83.8378 145.569 81.774 142.653 82.144Z" fill="#C16C37"/>
<path d="M141.542 81.2951L141.529 81.2968C138.613 81.6668 136.549 84.3305 136.919 87.2463L139.362 106.495C139.732 109.41 142.396 111.474 145.312 111.104L145.325 111.103C148.241 110.733 150.304 108.069 149.934 105.153L147.492 85.9047C147.122 82.9889 144.458 80.9251 141.542 81.2951Z" fill="#F8EEC8"/>
<path d="M138.114 96.1862L148.646 94.8385L149.968 105.172C150.147 106.569 149.763 107.979 148.902 109.093C148.041 110.207 146.773 110.933 145.376 111.112C143.98 111.29 142.569 110.907 141.455 110.046C140.341 109.185 139.615 107.916 139.437 106.52L138.114 96.1862Z" fill="#F3C74A"/>
<g style="mix-blend-mode:multiply">
<g style="mix-blend-mode:multiply">
<path d="M144.902 82.3126C145.716 83.4393 146.23 84.755 146.394 86.1355L148.478 102.419C148.953 106.132 146.96 109.477 144.075 109.833C142.914 109.952 141.751 109.622 140.826 108.911C141.316 109.679 142.003 110.302 142.816 110.713C143.629 111.125 144.538 111.31 145.447 111.25C148.356 110.878 150.324 107.535 149.849 103.823L147.761 87.5126C147.66 86.4978 147.354 85.5141 146.863 84.6205C146.371 83.7269 145.704 82.9418 144.902 82.3126Z" fill="#F8EEC8"/>
</g>
</g>
<path opacity="0.17" d="M205.76 72.4907L205.748 72.4977C203.248 74.0418 202.472 77.3209 204.016 79.8218L214.209 96.3313C215.754 98.8322 219.033 99.6078 221.534 98.0637L221.545 98.0567C224.046 96.5126 224.821 93.2335 223.277 90.7326L213.084 74.2231C211.54 71.7223 208.261 70.9466 205.76 72.4907Z" fill="#C16C37"/>
<path d="M204.4 72.1669L204.389 72.1739C201.888 73.718 201.112 76.9971 202.656 79.498L212.85 96.0074C214.394 98.5083 217.673 99.284 220.174 97.7398L220.185 97.7329C222.686 96.1888 223.461 92.9096 221.917 90.4088L211.724 73.8993C210.18 71.3984 206.901 70.6228 204.4 72.1669Z" fill="#F8EEC8"/>
<path d="M207.479 87.3029L216.513 81.7251L221.959 90.5444C222.698 91.7424 222.932 93.1851 222.608 94.5553C222.284 95.9254 221.429 97.1106 220.231 97.8503C219.033 98.5899 217.59 98.8234 216.22 98.4993C214.85 98.1753 213.664 97.3202 212.925 96.1222L207.479 87.3029Z" fill="#F3C74A"/>
<g style="mix-blend-mode:multiply">
<g style="mix-blend-mode:multiply">
<path d="M207.875 71.712C209.089 72.3905 210.109 73.3706 210.834 74.5578L219.46 88.5329C221.433 91.7189 221.003 95.5738 218.512 97.1234C217.509 97.7146 216.319 97.9051 215.182 97.6566C215.953 98.1365 216.839 98.4026 217.747 98.4274C218.656 98.4522 219.554 98.235 220.351 97.7979C222.83 96.2631 223.272 92.3934 221.299 89.2073L212.673 75.2322C212.154 74.351 211.46 73.5846 210.635 72.9794C209.81 72.3743 208.871 71.9431 207.875 71.712Z" fill="#F8EEC8"/>
</g>
</g>
<path opacity="0.17" d="M231.323 37.5657L231.318 37.5535C230.122 34.8685 226.976 33.6611 224.291 34.8567L206.566 42.7492C203.881 43.9448 202.674 47.0906 203.869 49.7756L203.875 49.7877C205.07 52.4728 208.216 53.6802 210.901 52.4846L228.626 44.5921C231.311 43.3965 232.519 40.2507 231.323 37.5657Z" fill="#C16C37"/>
<path d="M232.424 36.6566L232.419 36.6445C231.215 33.9539 228.058 32.7484 225.368 33.952L207.606 41.8976C204.915 43.1013 203.71 46.2581 204.913 48.9487L204.919 48.9609C206.122 51.6515 209.279 52.8569 211.97 51.6533L229.732 43.7077C232.422 42.504 233.628 39.3472 232.424 36.6566Z" fill="#F8EEC8"/>
<path d="M216.408 37.2341L220.727 46.9332L211.258 51.1494C209.972 51.7221 208.511 51.7604 207.197 51.2559C205.882 50.7514 204.822 49.7454 204.249 48.4592C203.677 47.173 203.638 45.712 204.143 44.3976C204.647 43.0832 205.653 42.023 206.94 41.4503L216.408 37.2341Z" fill="#F3C74A"/>
<g style="mix-blend-mode:multiply">
<g style="mix-blend-mode:multiply">
<path d="M231.805 39.7766C230.968 40.8864 229.859 41.7611 228.584 42.3161L213.586 49.0119C210.168 50.533 206.396 49.5975 205.196 46.9145C204.746 45.8445 204.717 44.6441 205.114 43.5534C204.534 44.2518 204.151 45.0925 204.004 45.9886C203.858 46.8848 203.953 47.8038 204.281 48.6506C205.466 51.322 209.24 52.2707 212.671 50.7479L227.669 44.0522C228.612 43.6573 229.466 43.0746 230.177 42.3396C230.888 41.6046 231.442 40.7325 231.805 39.7766Z" fill="#F8EEC8"/>
</g>
</g>
<path opacity="0.17" d="M271.832 69.9646L271.82 69.9709C269.23 71.3603 268.257 74.5863 269.647 77.1763L278.819 94.2741C280.209 96.8641 283.435 97.8373 286.025 96.4478L286.036 96.4416C288.626 95.0521 289.6 91.8261 288.21 89.2361L279.038 72.1383C277.648 69.5483 274.422 68.5751 271.832 69.9646Z" fill="#C16C37"/>
<path d="M270.496 69.5617L270.484 69.568C267.894 70.9575 266.921 74.1835 268.31 76.7735L277.483 93.8712C278.872 96.4612 282.098 97.4345 284.688 96.045L284.7 96.0387C287.29 94.6493 288.263 91.4233 286.874 88.8333L277.701 71.7355C276.312 69.1455 273.086 68.1723 270.496 69.5617Z" fill="#F8EEC8"/>
<path d="M272.643 84.8562L281.999 79.8371L286.899 88.9707C287.564 90.2114 287.71 91.6656 287.303 93.0135C286.897 94.3614 285.971 95.4926 284.73 96.1582C283.49 96.8238 282.036 96.9692 280.688 96.5626C279.34 96.1559 278.209 95.2305 277.543 93.9898L272.643 84.8562Z" fill="#F3C74A"/>
<g style="mix-blend-mode:multiply">
<g style="mix-blend-mode:multiply">
<path d="M274.005 69.3773C275.171 70.1294 276.124 71.1684 276.773 72.3948L284.525 86.7626C286.287 90.0694 285.639 93.8986 283.061 95.2855C282.024 95.8176 280.823 95.933 279.703 95.6081C280.442 96.1357 281.308 96.4569 282.212 96.5387C283.116 96.6206 284.026 96.4601 284.847 96.0737C287.439 94.6851 288.1 90.8543 286.325 87.5491L278.548 73.0909C278.078 72.1992 277.434 71.411 276.654 70.7731C275.873 70.1352 274.973 69.6605 274.005 69.3773Z" fill="#F8EEC8"/>
</g>
</g>
<path opacity="0.17" d="M291.159 30.4123L291.149 30.421C288.905 32.3378 288.64 35.7106 290.557 37.9544L303.211 52.7663C305.128 55.0101 308.501 55.2751 310.745 53.3582L310.755 53.3496C312.998 51.4327 313.263 48.0599 311.347 45.8162L298.693 31.0042C296.776 28.7605 293.403 28.4955 291.159 30.4123Z" fill="#C16C37"/>
<path d="M288.422 30.5599L288.412 30.5686C286.182 32.4826 285.925 35.8424 287.839 38.0729L300.474 52.7978C302.388 55.0284 305.748 55.285 307.979 53.371L307.989 53.3623C310.219 51.4483 310.476 48.0885 308.562 45.858L295.927 31.1331C294.013 28.9026 290.653 28.646 288.422 30.5599Z" fill="#F8EEC8"/>
<path d="M293.8 45.0399L301.858 38.126L308.607 45.992C309.524 47.0605 309.979 48.4494 309.872 49.8533C309.765 51.2571 309.104 52.5608 308.036 53.4777C306.967 54.3945 305.578 54.8494 304.174 54.7421C302.771 54.6349 301.467 53.9744 300.55 52.9059L293.8 45.0399Z" fill="#F3C74A"/>
<g style="mix-blend-mode:multiply">
<g style="mix-blend-mode:multiply">
<path d="M291.774 29.5469C293.068 30.0365 294.22 30.8411 295.125 31.8878L305.816 44.3407C308.267 47.1847 308.443 51.069 306.212 52.9735C305.32 53.7207 304.176 54.097 303.015 54.0248C303.849 54.3815 304.764 54.5088 305.664 54.3936C306.565 54.2784 307.418 53.9248 308.136 53.3695C310.365 51.4519 310.19 47.5675 307.738 44.7236L297.047 32.2706C296.396 31.4853 295.594 30.8392 294.688 30.3712C293.782 29.9032 292.791 29.6228 291.774 29.5469Z" fill="#F8EEC8"/>
</g>
</g>
<path opacity="0.17" d="M412.793 15.828L412.783 15.8367C410.552 17.7506 410.296 21.1105 412.21 23.341L424.845 38.0659C426.759 40.2964 430.119 40.553 432.349 38.639L432.359 38.6304C434.59 36.7164 434.846 33.3566 432.932 31.1261L420.297 16.4012C418.383 14.1706 415.024 13.914 412.793 15.828Z" fill="#C16C37"/>
<path d="M411.394 15.7269L411.384 15.7356C409.153 17.6496 408.897 21.0094 410.811 23.2399L423.446 37.9648C425.36 40.1953 428.72 40.4519 430.95 38.538L430.96 38.5293C433.191 36.6153 433.448 33.2555 431.534 31.025L418.898 16.3001C416.984 14.0696 413.625 13.8129 411.394 15.7269Z" fill="#F8EEC8"/>
<path d="M418.693 29.8993L426.798 22.9751L433.567 30.8978C434.485 31.9726 434.939 33.3681 434.828 34.7774C434.717 36.1866 434.051 37.4942 432.976 38.4124C431.902 39.3306 430.506 39.7842 429.097 39.6735C427.688 39.5628 426.38 38.8968 425.462 37.822L418.693 29.8993Z" fill="#F3C74A"/>
<g style="mix-blend-mode:multiply">
<g style="mix-blend-mode:multiply">
<path d="M414.8 14.7002C416.101 15.1835 417.255 15.9943 418.152 17.0542L428.802 29.4991C431.24 32.3447 431.416 36.2291 429.198 38.1319C428.3 38.8963 427.144 39.2883 425.966 39.2277C426.801 39.5844 427.716 39.7117 428.616 39.5965C429.516 39.4813 430.369 39.1278 431.087 38.5724C433.305 36.6696 433.129 32.7853 430.692 29.9397L419.987 17.4884C419.353 16.6994 418.568 16.0459 417.677 15.5669C416.786 15.0878 415.807 14.7931 414.8 14.7002Z" fill="#F8EEC8"/>
</g>
</g>
<path opacity="0.17" d="M337.437 77.1063L337.45 77.1089C340.331 77.6913 343.138 75.8279 343.72 72.947L347.565 53.9289C348.147 51.048 346.284 48.2405 343.403 47.6581L343.39 47.6555C340.509 47.0731 337.701 48.9365 337.119 51.8174L333.275 70.8355C332.692 73.7164 334.556 76.5239 337.437 77.1063Z" fill="#C16C37"/>
<path d="M338.209 78.2636L338.222 78.2663C341.103 78.8486 343.91 76.9852 344.492 74.1043L348.337 55.0862C348.919 52.2053 347.056 49.3978 344.175 48.8155L344.162 48.8128C341.281 48.2305 338.473 50.0938 337.891 52.9747L334.047 71.9929C333.464 74.8738 335.328 77.6813 338.209 78.2636Z" fill="#F8EEC8"/>
<path d="M345.326 65.4475L334.89 63.3578L336.93 53.1697C337.207 51.7858 338.022 50.5687 339.197 49.7861C340.372 49.0035 341.809 48.7195 343.193 48.9966C344.577 49.2737 345.794 50.0892 346.576 51.2637C347.359 52.4382 347.643 53.8755 347.366 55.2594L345.326 65.4475Z" fill="#F3C74A"/>
<g style="mix-blend-mode:multiply">
<g style="mix-blend-mode:multiply">
<path d="M335.347 76.2454C334.942 74.9064 334.884 73.4864 335.18 72.1191L338.471 56.017C339.219 52.3489 342.173 49.8167 345.044 50.3993C346.176 50.6506 347.171 51.3218 347.827 52.2777C347.594 51.4005 347.132 50.601 346.489 49.9615C345.845 49.322 345.042 48.8655 344.163 48.6389C341.293 48.0563 338.339 50.5885 337.59 54.2565L334.301 70.3718C334.07 71.3708 334.044 72.4061 334.224 73.4155C334.403 74.4248 334.785 75.3874 335.347 76.2454Z" fill="#F8EEC8"/>
</g>
</g>
<path opacity="0.17" d="M407.255 86.2193L407.267 86.2147C410.023 85.1915 411.427 82.1284 410.404 79.3731L403.649 61.184C402.626 58.4286 399.563 57.0245 396.808 58.0476L396.795 58.0523C394.04 59.0754 392.636 62.1385 393.659 64.8938L400.413 83.083C401.437 85.8383 404.5 87.2425 407.255 86.2193Z" fill="#C16C37"/>
<path d="M408.519 86.8041L408.532 86.7995C411.287 85.7763 412.691 82.7133 411.668 79.9579L404.913 61.7688C403.89 59.0135 400.827 57.6093 398.072 58.6325L398.059 58.6371C395.304 59.6603 393.9 62.7233 394.923 65.4787L401.678 83.6678C402.701 86.4231 405.764 87.8273 408.519 86.8041Z" fill="#F8EEC8"/>
<path d="M408.476 71.3673L398.523 75.0633L394.915 65.3467C394.425 64.0268 394.479 62.5664 395.066 61.2865C395.652 60.0067 396.723 59.0123 398.043 58.5222C399.363 58.0321 400.824 58.0863 402.104 58.673C403.383 59.2597 404.378 60.3308 404.868 61.6507L408.476 71.3673Z" fill="#F3C74A"/>
<g style="mix-blend-mode:multiply">
<g style="mix-blend-mode:multiply">
<path d="M405.026 86.582C403.969 85.6818 403.165 84.5209 402.695 83.2143L396.964 67.8118C395.659 64.2995 396.845 60.6021 399.591 59.5817C400.685 59.1937 401.886 59.2361 402.951 59.7003C402.29 59.0784 401.476 58.644 400.592 58.442C399.707 58.24 398.785 58.2777 397.92 58.5512C395.174 59.5716 393.99 63.2821 395.294 66.7812L401.025 82.1837C401.358 83.1502 401.884 84.0386 402.572 84.7948C403.26 85.551 404.095 86.1591 405.026 86.582Z" fill="#F8EEC8"/>
</g>
</g>
<path opacity="0.17" d="M355.139 51.3614C358.442 53.7239 363.032 52.9642 365.393 49.6645C367.753 46.3649 366.989 41.7749 363.687 39.4124L349.277 29.1044C345.974 26.7419 341.383 27.5016 339.023 30.8012C336.663 34.1008 337.427 38.6908 340.729 41.0533L355.139 51.3614Z" fill="#C16C37"/>
<path d="M356.793 50.87C360.095 53.2325 364.686 52.4728 367.047 49.1732C369.407 45.8736 368.643 41.2836 365.34 38.9211L350.93 28.613C347.628 26.2505 343.037 27.0102 340.677 30.3099C338.317 33.6095 339.08 38.1995 342.383 40.562L356.793 50.87Z" fill="#BFA6C2"/>
<path d="M358.602 34.1048L350.055 46.0538L342.25 40.4712C340.665 39.3367 339.594 37.6186 339.275 35.695C338.956 33.7713 339.414 31.7996 340.548 30.2137C341.11 29.4284 341.821 28.7614 342.64 28.2509C343.46 27.7404 344.372 27.3962 345.324 27.2381C346.277 27.0801 347.251 27.1112 348.192 27.3297C349.132 27.5481 350.021 27.9497 350.806 28.5114L358.61 34.094L358.602 34.1048Z" fill="#783361"/>
<g style="mix-blend-mode:multiply">
<g style="mix-blend-mode:multiply" opacity="0.16">
<path d="M363.206 51.9018C361.658 51.896 360.152 51.4002 358.903 50.4856L344.487 40.2888C342.908 39.1518 341.843 37.4361 341.524 35.5164C341.206 33.5968 341.66 31.6292 342.788 30.0433C343.691 28.777 344.978 27.834 346.457 27.3527C344.921 27.3707 343.429 27.8702 342.192 28.781C340.955 29.6917 340.035 30.9677 339.561 32.4292C339.088 33.8907 339.085 35.4639 339.553 36.9271C340.021 38.3904 340.936 39.6698 342.17 40.5852L356.551 50.9204C357.501 51.6027 358.602 52.0477 359.759 52.2185C360.917 52.3892 362.098 52.2806 363.206 51.9018Z" fill="#473654"/>
</g>
</g>
<path opacity="0.17" d="M94.2074 93.8158C95.1947 97.7546 99.1852 100.148 103.12 99.1614C107.056 98.175 109.445 94.1824 108.458 90.2437L104.15 73.058C103.163 69.1193 99.1722 66.726 95.237 67.7124C91.3019 68.6988 88.9122 72.6915 89.8995 76.6302L94.2074 93.8158Z" fill="#C16C37"/>
<path d="M95.7811 94.5202C96.7684 98.4589 100.759 100.852 104.694 99.8658C108.629 98.8794 111.019 94.8867 110.032 90.948L105.724 73.7624C104.736 69.8236 100.746 67.4303 96.8108 68.4168C92.8756 69.4032 90.4859 73.3958 91.4732 77.3345L95.7811 94.5202Z" fill="#BFA6C2"/>
<path d="M108.035 82.9039L93.7717 86.4793L91.4387 77.1721C90.9646 75.2806 91.2612 73.2783 92.2634 71.6056C93.2656 69.9329 94.8913 68.7268 96.7827 68.2526C98.6742 67.7785 100.676 68.0752 102.349 69.0774C104.022 70.0796 105.228 71.7052 105.702 73.5967L108.035 82.9039Z" fill="#783361"/>
<g style="mix-blend-mode:multiply">
<g style="mix-blend-mode:multiply" opacity="0.16">
<path d="M100.011 99.443C98.83 98.4514 97.9934 97.1111 97.6212 95.6146L93.3076 78.4252C92.8392 76.5342 93.1391 74.5347 94.1415 72.8643C95.1439 71.1939 96.7672 69.9886 98.6562 69.5123C100.151 69.1413 101.725 69.2537 103.153 69.8333C101.967 68.8298 100.493 68.2285 98.9433 68.116C97.3937 68.0035 95.8485 68.3857 94.53 69.2075C93.2115 70.0293 92.1878 71.2482 91.6063 72.6889C91.0248 74.1296 90.9155 75.7177 91.2942 77.2245L95.6078 94.4138C95.8912 95.5409 96.4381 96.5845 97.2036 97.4588C97.9691 98.3332 98.9314 99.0132 100.011 99.443Z" fill="#473654"/>
</g>
</g>
<path opacity="0.17" d="M155.707 93.5674C153.671 97.0806 154.866 101.578 158.376 103.612C161.886 105.647 166.382 104.448 168.418 100.935L177.303 85.6063C179.339 82.0932 178.144 77.596 174.635 75.5616C171.125 73.5271 166.628 74.7258 164.592 78.2389L155.707 93.5674Z" fill="#C16C37"/>
<path d="M156.358 95.1682C154.321 98.6813 155.516 103.178 159.026 105.213C162.536 107.247 167.032 106.049 169.068 102.536L177.953 87.207C179.989 83.6939 178.795 79.1967 175.285 77.1623C171.775 75.1278 167.279 76.3265 165.243 79.8396L156.358 95.1682Z" fill="#BFA6C2"/>
<path d="M173.238 95.3412L160.527 87.9738L165.319 79.7068C165.803 78.8714 166.447 78.1396 167.214 77.5532C167.981 76.9667 168.856 76.537 169.789 76.2887C170.722 76.0404 171.695 75.9783 172.652 76.106C173.609 76.2337 174.531 76.5486 175.367 77.0328C177.054 78.0106 178.283 79.6186 178.785 81.503C179.286 83.3874 179.019 85.3938 178.041 87.0808L173.249 95.3479L173.238 95.3412Z" fill="#783361"/>
<g style="mix-blend-mode:multiply">
<g style="mix-blend-mode:multiply" opacity="0.16">
<path d="M155.953 101.65C155.793 100.121 156.12 98.581 156.888 97.2491L165.773 81.8895C166.762 80.214 168.373 78.9977 170.256 78.5062C172.138 78.0146 174.138 78.2877 175.82 79.2659C177.157 80.0362 178.213 81.2138 178.833 82.6267C178.688 81.0765 178.054 79.6125 177.022 78.4471C175.99 77.2817 174.613 76.4754 173.092 76.1452C171.57 75.815 169.983 75.9781 168.561 76.6109C167.138 77.2436 165.954 78.313 165.181 79.664L156.292 94.9973C155.713 96.0001 155.38 97.1262 155.321 98.2828C155.262 99.4395 155.478 100.594 155.953 101.65Z" fill="#473654"/>
</g>
</g>
<path opacity="0.17" d="M295.681 93.0115C296.668 96.9502 300.659 99.3436 304.594 98.3571C308.529 97.3707 310.919 93.3781 309.932 89.4393L305.624 72.2537C304.636 68.315 300.646 65.9217 296.711 66.9081C292.776 67.8945 290.386 71.8871 291.373 75.8259L295.681 93.0115Z" fill="#C16C37"/>
<path d="M297.281 93.7108C298.268 97.6496 302.259 100.043 306.194 99.0565C310.129 98.07 312.519 94.0774 311.532 90.1387L307.224 72.9531C306.236 69.0143 302.246 66.621 298.311 67.6074C294.376 68.5939 291.986 72.5865 292.973 76.5252L297.281 93.7108Z" fill="#BFA6C2"/>
<path d="M309.509 82.0997L295.259 85.6718L292.925 76.3646C292.451 74.4731 292.748 72.4708 293.75 70.7981C294.752 69.1254 296.378 67.9193 298.27 67.4452C300.161 66.971 302.163 67.2677 303.836 68.2699C305.509 69.2721 306.715 70.8977 307.189 72.7892L309.522 82.0964L309.509 82.0997Z" fill="#783361"/>
<g style="mix-blend-mode:multiply">
<g style="mix-blend-mode:multiply" opacity="0.16">
<path d="M301.497 98.6261C300.317 97.6394 299.481 96.3034 299.109 94.8107L294.795 77.6214C294.331 75.7306 294.632 73.7328 295.634 72.0633C296.636 70.3938 298.257 69.1879 300.144 68.7084C301.639 68.3374 303.213 68.4498 304.641 69.0295C303.455 68.0259 301.981 67.4246 300.431 67.3121C298.882 67.1997 297.336 67.5819 296.018 68.4036C294.699 69.2254 293.676 70.4444 293.094 71.8851C292.513 73.3258 292.403 74.9139 292.782 76.4206L297.082 93.6117C297.369 94.7372 297.919 95.7786 298.686 96.6503C299.454 97.5221 300.417 98.1992 301.497 98.6261Z" fill="#473654"/>
</g>
</g>
<g style="mix-blend-mode:multiply" opacity="0.29">
<path d="M169.833 66.037C173.773 65.5327 176.559 61.9295 176.054 57.989C175.55 54.0485 171.947 51.2629 168.006 51.7671C164.066 52.2714 161.28 55.8746 161.785 59.8151C162.289 63.7556 165.892 66.5412 169.833 66.037Z" fill="#C0D5D0"/>
</g>
<path d="M169.872 64.7743C173.812 64.27 176.598 60.6668 176.093 56.7263C175.589 52.7858 171.986 50.0002 168.046 50.5045C164.105 51.0087 161.319 54.6119 161.824 58.5524C162.328 62.4929 165.931 65.2785 169.872 64.7743Z" fill="#C0D5D0"/>
<g style="mix-blend-mode:multiply">
<path d="M175.887 55.3211C176.012 57.0546 175.503 58.7745 174.456 60.1615C173.408 61.5486 171.894 62.5086 170.192 62.8636C168.491 63.2186 166.718 62.9444 165.204 62.0918C163.689 61.2393 162.535 59.8663 161.956 58.2277C162.03 59.2489 162.32 60.2427 162.809 61.1423C163.298 62.042 163.974 62.8266 164.791 63.4436C165.608 64.0606 166.548 64.4956 167.547 64.7196C168.546 64.9435 169.582 64.9512 170.584 64.7421C171.586 64.533 172.532 64.1119 173.359 63.5071C174.185 62.9023 174.872 62.1278 175.374 61.2355C175.877 60.3432 176.182 59.3539 176.271 58.3338C176.359 57.3137 176.228 56.2865 175.887 55.3211Z" fill="#9FB7B2"/>
</g>
<path opacity="0.6" d="M175.735 59.8895L162.696 54.1859C162.483 54.5075 162.506 54.3708 162.351 54.7252C162.265 54.9232 162.211 55.1332 162.189 55.3479L175.207 60.9874C175.408 60.6806 175.384 60.8041 175.54 60.4497C175.632 60.2738 175.698 60.0849 175.735 59.8895Z" fill="#6A9A9B"/>
<g style="mix-blend-mode:multiply" opacity="0.29">
<path d="M152.899 76.4324C156.84 75.9281 159.626 72.3249 159.121 68.3844C158.617 64.4439 155.014 61.6583 151.073 62.1625C147.133 62.6668 144.347 66.27 144.852 70.2105C145.356 74.151 148.959 76.9366 152.899 76.4324Z" fill="#C0D5D0"/>
</g>
<path d="M152.925 75.1714C156.866 74.6671 159.652 71.0639 159.147 67.1234C158.643 63.1829 155.04 60.3973 151.099 60.9015C147.159 61.4058 144.373 65.009 144.877 68.9495C145.382 72.89 148.985 75.6756 152.925 75.1714Z" fill="#C0D5D0"/>
<g style="mix-blend-mode:multiply">
<path d="M158.941 65.7182C159.053 67.4442 158.539 69.1528 157.492 70.5298C156.445 71.9067 154.936 72.8595 153.243 73.2129C151.55 73.5663 149.786 73.2966 148.276 72.4533C146.765 71.6101 145.61 70.2499 145.023 68.6231C145.09 69.6489 145.376 70.6484 145.862 71.554C146.349 72.4596 147.024 73.2502 147.842 73.8724C148.661 74.4945 149.603 74.9336 150.606 75.1601C151.609 75.3866 152.648 75.3951 153.655 75.185C154.661 74.975 155.61 74.5513 156.439 73.9427C157.267 73.334 157.955 72.5546 158.456 71.657C158.958 70.7595 159.26 69.7648 159.344 68.7402C159.427 67.7156 159.29 66.685 158.941 65.7182Z" fill="#9FB7B2"/>
</g>
<path opacity="0.6" d="M156.235 73.7444L148.865 61.6291C148.656 61.6824 148.455 61.7621 148.266 61.8662C147.944 62.068 148.074 62.038 147.785 62.289L155.155 74.4044C155.366 74.3525 155.568 74.2681 155.752 74.1541C156.13 73.9719 155.949 74.0218 156.235 73.7444Z" fill="#6A9A9B"/>
<g style="mix-blend-mode:multiply" opacity="0.29">
<path d="M233.113 85.4476C237.054 84.9434 239.839 81.3402 239.335 77.3997C238.831 73.4592 235.228 70.6735 231.287 71.1778C227.347 71.682 224.561 75.2852 225.065 79.2257C225.57 83.1662 229.173 85.9519 233.113 85.4476Z" fill="#C0D5D0"/>
</g>
<path d="M234.369 85.4341C238.31 84.9298 241.095 81.3266 240.591 77.3861C240.087 73.4456 236.484 70.66 232.543 71.1642C228.603 71.6685 225.817 75.2717 226.321 79.2122C226.825 83.1527 230.429 85.9383 234.369 85.4341Z" fill="#C0D5D0"/>
<g style="mix-blend-mode:multiply">
<path d="M236.031 85.1412C234.794 85.2801 233.543 85.096 232.399 84.6066C231.255 84.1173 230.257 83.3396 229.504 82.3494C228.75 81.3592 228.266 80.1905 228.099 78.9574C227.933 77.7243 228.089 76.4691 228.552 75.3143C228.92 74.4137 229.467 73.5969 230.159 72.9128C230.851 72.2288 231.674 71.6917 232.578 71.3337C231.559 71.4412 230.574 71.7658 229.69 72.2857C228.806 72.8056 228.044 73.5088 227.455 74.3478C226.866 75.1869 226.463 76.1424 226.274 77.1501C226.085 78.1578 226.114 79.1943 226.359 80.1899C226.604 81.1855 227.06 82.117 227.695 82.9219C228.33 83.7267 229.13 84.3862 230.042 84.8559C230.953 85.3256 231.954 85.5947 232.978 85.6451C234.002 85.6955 235.025 85.5259 235.978 85.1479L236.031 85.1412Z" fill="#9FB7B2"/>
</g>
<path opacity="0.6" d="M231.455 85.1381L236.641 71.9244C236.31 71.7393 236.445 71.7488 236.092 71.6066C235.89 71.5296 235.676 71.4847 235.46 71.4735L230.285 84.6724C230.603 84.8591 230.468 84.8496 230.834 84.9901C231.035 85.0634 231.243 85.1131 231.455 85.1381Z" fill="#6A9A9B"/>
<g style="mix-blend-mode:multiply" opacity="0.29">
<path d="M222.123 68.8851C226.064 68.3809 228.849 64.7777 228.345 60.8372C227.841 56.8967 224.238 54.111 220.297 54.6153C216.357 55.1195 213.571 58.7227 214.075 62.6632C214.579 66.6037 218.183 69.3894 222.123 68.8851Z" fill="#C0D5D0"/>
</g>
<path d="M223.379 68.8717C227.32 68.3674 230.106 64.7643 229.601 60.8238C229.097 56.8833 225.494 54.0976 221.553 54.6019C217.613 55.1061 214.827 58.7093 215.331 62.6498C215.836 66.5903 219.439 69.376 223.379 68.8717Z" fill="#C0D5D0"/>
<g style="mix-blend-mode:multiply">
<path d="M225.016 68.5953C223.283 68.7931 221.537 68.3528 220.104 67.3568C218.671 66.3609 217.651 64.8773 217.232 63.1834C216.814 61.4895 217.027 59.7012 217.831 58.1528C218.635 56.6043 219.975 55.4017 221.601 54.7696C220.576 54.8725 219.584 55.1947 218.694 55.7142C217.804 56.2337 217.036 56.9384 216.442 57.7807C215.848 58.623 215.442 59.5831 215.251 60.596C215.06 61.6089 215.09 62.6509 215.337 63.6516C215.584 64.6522 216.043 65.588 216.683 66.3957C217.324 67.2033 218.13 67.8639 219.048 68.3327C219.966 68.8015 220.974 69.0676 222.004 69.1129C223.033 69.1582 224.061 68.9817 225.016 68.5953Z" fill="#9FB7B2"/>
</g>
<path opacity="0.6" d="M216.892 66.1695L228.738 58.3652C228.587 58.0233 228.704 58.1019 228.476 57.7833C228.248 57.4646 228.304 57.5912 228.042 57.317L216.194 65.1081C216.26 65.311 216.348 65.5061 216.456 65.6901C216.658 66.0122 216.643 65.8937 216.892 66.1695Z" fill="#6A9A9B"/>
<g style="mix-blend-mode:multiply" opacity="0.29">
<path d="M284.743 63.6818C288.684 63.1775 291.469 59.5743 290.965 55.6338C290.461 51.6933 286.858 48.9077 282.917 49.4119C278.977 49.9162 276.191 53.5194 276.695 57.4599C277.2 61.4004 280.803 64.186 284.743 63.6818Z" fill="#C0D5D0"/>
</g>
<path d="M285.999 63.6681C289.94 63.1638 292.725 59.5606 292.221 55.6201C291.717 51.6796 288.114 48.894 284.173 49.3982C280.233 49.9025 277.447 53.5057 277.951 57.4462C278.455 61.3867 282.059 64.1723 285.999 63.6681Z" fill="#C0D5D0"/>
<g style="mix-blend-mode:multiply">
<path d="M287.661 63.3752C285.935 63.5601 284.2 63.1133 282.778 62.1174C281.355 61.1216 280.342 59.6441 279.926 57.9586C279.509 56.2731 279.718 54.4938 280.512 52.9502C281.307 51.4065 282.634 50.2031 284.248 49.5627C283.229 49.6718 282.245 49.9979 281.362 50.5189C280.48 51.0399 279.719 51.7438 279.131 52.5832C278.544 53.4227 278.142 54.3783 277.954 55.3857C277.767 56.3932 277.797 57.4291 278.042 58.424C278.288 59.4189 278.744 60.3496 279.38 61.1536C280.015 61.9577 280.815 62.6163 281.727 63.0853C282.638 63.5544 283.639 63.8229 284.662 63.8729C285.686 63.9229 286.708 63.7532 287.661 63.3752Z" fill="#9FB7B2"/>
</g>
<path opacity="0.6" d="M283.083 63.359L288.218 50.1652C287.9 49.9784 288.035 49.9879 287.669 49.8474C287.47 49.7696 287.261 49.7198 287.048 49.6994L281.875 62.9115C282.193 63.0982 282.058 63.0887 282.424 63.2292C282.79 63.3697 282.712 63.286 283.083 63.359Z" fill="#6A9A9B"/>
<g style="mix-blend-mode:multiply" opacity="0.29">
<path d="M273.74 47.1208C277.68 46.6166 280.466 43.0134 279.962 39.0729C279.457 35.1324 275.854 32.3468 271.914 32.851C267.973 33.3553 265.188 36.9584 265.692 40.899C266.196 44.8395 269.799 47.6251 273.74 47.1208Z" fill="#C0D5D0"/>
</g>
<path d="M275.009 47.1057C278.949 46.6015 281.735 42.9983 281.231 39.0578C280.726 35.1173 277.123 32.3316 273.183 32.8359C269.242 33.3401 266.457 36.9433 266.961 40.8838C267.465 44.8243 271.068 47.61 275.009 47.1057Z" fill="#C0D5D0"/>
<g style="mix-blend-mode:multiply">
<path d="M276.671 46.8128C274.944 46.9978 273.21 46.5509 271.787 45.5551C270.365 44.5592 269.352 43.0817 268.936 41.3962C268.519 39.7108 268.727 37.9315 269.522 36.3878C270.317 34.8441 271.644 33.6407 273.257 33.0003C272.238 33.1095 271.255 33.4355 270.372 33.9565C269.49 34.4775 268.729 35.1814 268.141 36.0209C267.553 36.8603 267.152 37.8159 266.964 38.8233C266.776 39.8308 266.806 40.8668 267.052 41.8617C267.298 42.8565 267.754 43.7873 268.389 44.5913C269.025 45.3953 269.825 46.0539 270.736 46.523C271.648 46.992 272.649 47.2605 273.672 47.3105C274.696 47.3605 275.718 47.1908 276.671 46.8128Z" fill="#9FB7B2"/>
</g>
<path opacity="0.6" d="M268.522 44.4036L280.367 36.5993C280.305 36.3949 280.218 36.1994 280.106 36.0174C279.891 35.697 279.921 35.827 279.67 35.538L267.824 43.3423C267.975 43.6842 267.858 43.6055 268.086 43.9242C268.314 44.2429 268.258 44.1163 268.522 44.4036Z" fill="#6A9A9B"/>
<g style="mix-blend-mode:multiply" opacity="0.29">
<path d="M419.544 78.5427C423.485 78.0385 426.271 74.4353 425.766 70.4948C425.262 66.5543 421.659 63.7686 417.718 64.2729C413.778 64.7771 410.992 68.3803 411.497 72.3208C412.001 76.2613 415.604 79.047 419.544 78.5427Z" fill="#C0D5D0"/>
</g>
<path d="M420.8 78.5292C424.741 78.0249 427.526 74.4217 427.022 70.4812C426.518 66.5407 422.915 63.7551 418.974 64.2593C415.034 64.7636 412.248 68.3668 412.752 72.3073C413.257 76.2478 416.86 79.0334 420.8 78.5292Z" fill="#C0D5D0"/>
<g style="mix-blend-mode:multiply">
<path d="M422.462 78.2363C420.737 78.4182 419.003 77.969 417.583 76.9718C416.163 75.9746 415.152 74.4969 414.738 72.812C414.323 71.127 414.533 69.3489 415.328 67.8066C416.123 66.2642 417.449 65.0619 419.062 64.4221C418.042 64.5296 417.058 64.8542 416.174 65.3741C415.29 65.894 414.528 66.5971 413.939 67.4362C413.35 68.2753 412.947 69.2308 412.758 70.2385C412.569 71.2462 412.598 72.2827 412.843 73.2783C413.088 74.2739 413.544 75.2054 414.179 76.0102C414.814 76.8151 415.614 77.4745 416.525 77.9443C417.437 78.414 418.438 78.6831 419.462 78.7335C420.486 78.7839 421.509 78.6143 422.462 78.2363Z" fill="#9FB7B2"/>
</g>
<path opacity="0.6" d="M417.884 78.2201L423.072 65.0195C422.741 64.8345 422.876 64.844 422.523 64.7018C422.318 64.6272 422.106 64.5781 421.889 64.5555L416.716 77.7676C417.034 77.9543 416.899 77.9448 417.265 78.0853C417.464 78.1606 417.672 78.206 417.884 78.2201Z" fill="#6A9A9B"/>
<g style="mix-blend-mode:multiply" opacity="0.29">
<path d="M408.554 61.9803C412.495 61.4761 415.28 57.8729 414.776 53.9324C414.272 49.9919 410.669 47.2063 406.728 47.7105C402.788 48.2148 400.002 51.8179 400.506 55.7584C401.011 59.699 404.614 62.4846 408.554 61.9803Z" fill="#C0D5D0"/>
</g>
<path d="M409.81 61.9668C413.751 61.4625 416.536 57.8593 416.032 53.9188C415.528 49.9783 411.925 47.1927 407.984 47.697C404.044 48.2012 401.258 51.8044 401.762 55.7449C402.266 59.6854 405.87 62.471 409.81 61.9668Z" fill="#C0D5D0"/>
<g style="mix-blend-mode:multiply">
<path d="M411.446 61.6773C409.719 61.8623 407.984 61.4154 406.562 60.4196C405.14 59.4237 404.127 57.9462 403.71 56.2607C403.294 54.5753 403.502 52.796 404.297 51.2523C405.092 49.7086 406.419 48.5052 408.032 47.8648C407.013 47.974 406.03 48.3 405.147 48.821C404.265 49.342 403.504 50.0459 402.916 50.8854C402.328 51.7248 401.927 52.6804 401.739 53.6878C401.551 54.6953 401.581 55.7313 401.827 56.7262C402.073 57.721 402.529 58.6518 403.164 59.4558C403.8 60.2598 404.6 60.9184 405.511 61.3875C406.422 61.8565 407.423 62.125 408.447 62.175C409.471 62.225 410.493 62.0553 411.446 61.6773Z" fill="#9FB7B2"/>
</g>
<path opacity="0.6" d="M403.324 59.2647L415.169 51.4604C415.019 51.1185 415.136 51.1971 414.907 50.8785C414.679 50.5598 414.736 50.6864 414.472 50.3991L402.626 58.2033C402.694 58.4055 402.781 58.6004 402.888 58.7853C403.089 59.1074 403.072 58.9757 403.324 59.2647Z" fill="#6A9A9B"/>
<g style="mix-blend-mode:multiply" opacity="0.29">
<path d="M355.499 89.9629C359.44 89.4586 362.225 85.8554 361.721 81.9149C361.217 77.9744 357.614 75.1888 353.673 75.693C349.733 76.1973 346.947 79.8005 347.451 83.741C347.955 87.6815 351.559 90.4671 355.499 89.9629Z" fill="#C0D5D0"/>
</g>
<path d="M356.459 90.7766C360.4 90.2724 363.186 86.6692 362.681 82.7287C362.177 78.7882 358.574 76.0025 354.633 76.5068C350.693 77.011 347.907 80.6142 348.412 84.5547C348.916 88.4952 352.519 91.2809 356.459 90.7766Z" fill="#C0D5D0"/>
<g style="mix-blend-mode:multiply">
<path d="M353.068 90.5149C351.618 89.5393 350.574 88.0685 350.131 86.3782C349.688 84.6879 349.877 82.8941 350.662 81.333C351.447 79.7718 352.774 78.5505 354.395 77.898C356.016 77.2454 357.819 77.2064 359.467 77.7881C358.621 77.219 357.664 76.8365 356.659 76.666C355.654 76.4955 354.625 76.541 353.639 76.7994C352.652 77.0577 351.733 77.5231 350.941 78.1645C350.148 78.8059 349.502 79.6087 349.044 80.5194C348.586 81.4301 348.327 82.4278 348.285 83.4463C348.242 84.4647 348.417 85.4805 348.798 86.4261C349.179 87.3717 349.756 88.2253 350.493 88.9303C351.229 89.6353 352.107 90.1755 353.068 90.5149Z" fill="#9FB7B2"/>
</g>
<path opacity="0.6" d="M349.596 87.534L362.119 80.8471C362.075 80.6383 362.004 80.436 361.909 80.2453C361.799 80.0606 361.669 79.8888 361.522 79.7328L348.998 86.4197C349.124 86.7782 349.032 86.683 349.209 87.0216C349.386 87.3602 349.371 87.2417 349.596 87.534Z" fill="#6A9A9B"/>
<g style="mix-blend-mode:multiply" opacity="0.29">
<path d="M357.871 70.2322C361.812 69.7279 364.597 66.1247 364.093 62.1842C363.589 58.2437 359.986 55.4581 356.045 55.9623C352.105 56.4666 349.319 60.0698 349.823 64.0103C350.327 67.9508 353.931 70.7364 357.871 70.2322Z" fill="#C0D5D0"/>
</g>
<path d="M358.843 71.0309C362.784 70.5266 365.569 66.9234 365.065 62.9829C364.561 59.0424 360.958 56.2568 357.017 56.761C353.077 57.2653 350.291 60.8685 350.795 64.809C351.3 68.7495 354.903 71.5351 358.843 71.0309Z" fill="#C0D5D0"/>
<g style="mix-blend-mode:multiply">
<path d="M355.44 70.7841C353.99 69.8085 352.946 68.3377 352.503 66.6474C352.06 64.9571 352.249 63.1633 353.034 61.6021C353.819 60.041 355.146 58.8197 356.767 58.1671C358.388 57.5146 360.191 57.4755 361.839 58.0573C360.993 57.4882 360.036 57.1057 359.031 56.9352C358.026 56.7647 356.997 56.8102 356.011 57.0685C355.024 57.3269 354.105 57.7923 353.313 58.4337C352.52 59.0751 351.874 59.8778 351.416 60.7885C350.958 61.6992 350.699 62.697 350.657 63.7154C350.614 64.7339 350.789 65.7497 351.17 66.6952C351.551 67.6408 352.128 68.4945 352.865 69.1995C353.601 69.9045 354.479 70.4447 355.44 70.7841Z" fill="#9FB7B2"/>
</g>
<path opacity="0.6" d="M350.808 63.6568L364.893 65.4001C364.994 65.0393 365.024 65.1692 365.069 64.7889C365.074 64.5753 365.047 64.3622 364.988 64.157L350.916 62.412C350.815 62.7728 350.785 62.6429 350.74 63.0233C350.737 63.2364 350.76 63.4491 350.808 63.6568Z" fill="#6A9A9B"/>
<g opacity="0.63">
<path opacity="0.63" d="M433.769 0.766386L127.046 40.0165L137.962 125.32L444.685 86.0695C446.269 85.8631 447.708 85.0383 448.687 83.7751C449.666 82.5118 450.105 80.9126 449.91 79.3265L440.523 5.9764C440.313 4.39209 439.486 2.95508 438.22 1.97899C436.955 1.00291 435.354 0.566993 433.769 0.766386V0.766386Z" fill="#F3C74A"/>
<path opacity="0.63" d="M5.97648 55.5094C4.39293 55.7156 2.95553 56.5406 1.9788 57.804C1.00208 59.0674 0.565567 60.6662 0.764787 62.2507L10.1511 135.601C10.3573 137.184 11.1823 138.622 12.4457 139.598C13.7091 140.575 15.308 141.012 16.8924 140.812L73.9454 133.512L63.0295 48.2085L5.97648 55.5094Z" fill="#F3C74A"/>
</g>
<path d="M76.0789 122.896L68.7882 65.9221C68.5826 64.3161 67.7313 63.1005 66.8888 63.2083C66.0464 63.3161 65.5303 64.7201 65.7341 66.3129L73.0248 123.287L76.0789 122.896Z" fill="#F8EEC8"/>
<path d="M135.58 115.282L128.29 58.3079C128.084 56.7019 127.233 55.4862 126.39 55.594C125.548 55.7018 125.032 57.1058 125.236 58.6987L132.526 115.673L135.58 115.282Z" fill="#F8EEC8"/>
<path d="M199.032 107.162L191.741 50.1884C191.535 48.5823 190.684 47.3667 189.841 47.4745C188.999 47.5823 188.483 48.9863 188.687 50.5792L195.977 107.553L199.032 107.162Z" fill="#F8EEC8"/>
<path d="M262.482 99.0429L255.191 42.0689C254.986 40.4628 254.135 39.2472 253.292 39.355C252.45 39.4628 251.934 40.8668 252.137 42.4597L259.428 99.4337L262.482 99.0429Z" fill="#F8EEC8"/>
<path d="M325.933 90.9234L318.642 33.9493C318.437 32.3433 317.585 31.1277 316.743 31.2355C315.9 31.3433 315.384 32.7473 315.588 34.3402L322.879 91.3142L325.933 90.9234Z" fill="#F8EEC8"/>
<path d="M389.384 82.8038L382.093 25.8297C381.887 24.2237 381.036 23.0081 380.193 23.1159C379.351 23.2237 378.835 24.6277 379.039 26.2205L386.33 83.1946L389.384 82.8038Z" fill="#F8EEC8"/>
<path d="M44.2167 87.3028L38.9194 90.6566C38.6044 89.9175 38.0631 89.2974 37.3732 88.8856C36.6834 88.4738 35.8806 88.2915 35.0806 88.3649C34.8078 88.3662 34.5384 88.4243 34.2893 88.5355C34.0403 88.6467 33.8171 88.8085 33.6341 89.0106C33.451 89.2128 33.312 89.4508 33.226 89.7096C33.14 89.9685 33.1089 90.2423 33.1345 90.5139C33.6163 94.2788 45.1501 92.4014 46.235 100.879C46.8903 106 43.7172 110.166 37.6354 110.944C35.5704 111.27 33.4553 110.923 31.6019 109.956C29.7485 108.989 28.2549 107.452 27.3413 105.571L32.605 101.954C33.0498 102.766 33.7141 103.437 34.522 103.89C35.3299 104.342 36.2489 104.559 37.1738 104.514C38.793 104.307 39.5445 103.488 39.3862 102.251C38.9128 98.5515 27.4364 100.355 26.2976 91.4556C25.6575 86.4533 28.8467 82.727 34.3756 82.0195C36.3684 81.6982 38.4116 82.0414 40.1901 82.9961C41.9685 83.9509 43.3835 85.4643 44.2167 87.3028Z" fill="#F8EEC8"/>
<path d="M168.189 71.5991L170.962 93.2671L164.169 94.1363L161.397 72.4683L155.394 73.2365L154.617 67.1678L173.402 64.764L174.179 70.8326L168.189 71.5991Z" fill="#F8EEC8"/>
<path d="M226.34 68.4795L224.093 86.4683L216.392 87.4537L205.608 60.5892L212.875 59.6594L219.625 78.7445L222.004 58.5446L228.113 57.763L235.422 76.7231L237.13 56.6091L244.396 55.6792L240.771 84.3339L233.07 85.3194L226.34 68.4795Z" fill="#F8EEC8"/>
<path d="M290.22 55.9833L292.993 77.6514L286.2 78.5206L283.427 56.8526L277.438 57.619L276.661 51.5504L295.446 49.1466L296.223 55.2152L290.22 55.9833Z" fill="#F8EEC8"/>
<path d="M354.359 59.0949L355.707 69.6261L348.914 70.4953L345.365 42.7587L360.056 40.8787L360.832 46.9473L352.934 47.9581L353.584 53.0394L360.482 52.1567L361.257 58.2121L354.359 59.0949Z" fill="#F8EEC8"/>
<path d="M420.893 39.101L415.595 42.4548C415.279 41.7137 414.736 41.0924 414.043 40.6807C413.351 40.269 412.545 40.0883 411.743 40.1648C411.472 40.168 411.204 40.2273 410.957 40.3392C410.709 40.4511 410.488 40.613 410.306 40.8148C410.124 41.0165 409.987 41.2538 409.901 41.5115C409.816 41.7692 409.785 42.0418 409.81 42.3121C410.292 46.077 421.826 44.1997 422.911 52.6773C423.566 57.7981 420.393 61.9638 414.311 62.7421C412.246 63.0679 410.131 62.7217 408.278 61.7544C406.424 60.7871 404.931 59.25 404.017 57.3696L409.344 53.8248C409.788 54.6369 410.453 55.3077 411.261 55.7603C412.069 56.2129 412.987 56.4291 413.912 56.3843C415.532 56.1771 416.283 55.3584 416.125 54.121C415.651 50.4219 404.175 52.225 403.036 43.3261C402.396 38.3238 405.585 34.5975 411.114 33.89C413.089 33.5777 415.112 33.9174 416.876 34.8577C418.641 35.798 420.051 37.2876 420.893 39.101Z" fill="#F8EEC8"/>
</g>
<defs>
<clipPath id="clip0">
<rect width="443.344" height="86.8879" fill="white" transform="translate(0 56.2742) rotate(-7.29229)"/>
</clipPath>
</defs>
</svg>
