<svg width="451" height="143" viewBox="0 0 451 143" fill="none" xmlns="http://www.w3.org/2000/svg"><g clip-path="url(#clip0)"><path d="M433.895 1.647L6.089 56.392a6.025 6.025 0 0 0-5.211 6.74l9.386 73.351a6.026 6.026 0 0 0 6.741 5.212L444.811 86.95a6.025 6.025 0 0 0 5.211-6.741l-9.386-73.35a6.025 6.025 0 0 0-6.741-5.212z" fill="#F8F6E8"/><path opacity=".17" d="M142.653 82.144l-.013.002a5.322 5.322 0 0 0-4.61 5.95l2.443 19.248a5.322 5.322 0 0 0 5.949 4.609l.014-.002a5.321 5.321 0 0 0 4.609-5.949l-2.443-19.248a5.321 5.321 0 0 0-5.949-4.61z" fill="#C16C37"/><path d="M141.542 81.295l-.013.002a5.322 5.322 0 0 0-4.61 5.95l2.443 19.248a5.322 5.322 0 0 0 5.95 4.609l.013-.001a5.322 5.322 0 0 0 4.609-5.95l-2.442-19.248a5.322 5.322 0 0 0-5.95-4.61z" fill="#F8EEC8"/><path d="M138.114 96.186l10.532-1.348 1.322 10.334a5.308 5.308 0 0 1-10.531 1.348l-1.323-10.334z" fill="#F3C74A"/><path d="M144.902 82.313a8.176 8.176 0 0 1 1.492 3.822l2.084 16.284c.475 3.713-1.518 7.058-4.403 7.414a4.568 4.568 0 0 1-3.249-.922 5.08 5.08 0 0 0 4.621 2.339c2.909-.372 4.877-3.715 4.402-7.427l-2.088-16.31a7.562 7.562 0 0 0-2.859-5.2z" fill="#F8EEC8"/><path opacity=".17" d="M205.76 72.49l-.012.008a5.323 5.323 0 0 0-1.732 7.324l10.193 16.51a5.323 5.323 0 0 0 7.325 1.732l.011-.007a5.322 5.322 0 0 0 1.732-7.324l-10.193-16.51a5.322 5.322 0 0 0-7.324-1.732z" fill="#C16C37"/><path d="M204.4 72.167l-.011.007a5.322 5.322 0 0 0-1.733 7.324l10.194 16.51a5.322 5.322 0 0 0 7.324 1.732l.011-.007a5.322 5.322 0 0 0 1.732-7.324l-10.193-16.51a5.322 5.322 0 0 0-7.324-1.732z" fill="#F8EEC8"/><path d="M207.479 87.303l9.034-5.578 5.446 8.82a5.312 5.312 0 0 1-1.728 7.305 5.31 5.31 0 0 1-7.306-1.728l-5.446-8.82z" fill="#F3C74A"/><path d="M207.875 71.712a8.094 8.094 0 0 1 2.959 2.846l8.626 13.975c1.973 3.186 1.543 7.04-.948 8.59a4.618 4.618 0 0 1-3.33.534 5.12 5.12 0 0 0 5.169.14c2.479-1.534 2.921-5.404.948-8.59l-8.626-13.975a7.542 7.542 0 0 0-4.798-3.52z" fill="#F8EEC8"/><path opacity=".17" d="M231.323 37.566l-.005-.013a5.323 5.323 0 0 0-7.027-2.696l-17.725 7.892a5.322 5.322 0 0 0-2.697 7.027l.006.012a5.321 5.321 0 0 0 7.026 2.697l17.725-7.893a5.322 5.322 0 0 0 2.697-7.026z" fill="#C16C37"/><path d="M232.424 36.657l-.005-.012a5.337 5.337 0 0 0-7.051-2.693l-17.762 7.946a5.337 5.337 0 0 0-2.693 7.05l.006.013a5.337 5.337 0 0 0 7.051 2.692l17.762-7.945a5.337 5.337 0 0 0 2.692-7.051z" fill="#F8EEC8"/><path d="M216.408 37.234l4.319 9.7-9.469 4.215a5.307 5.307 0 0 1-7.115-6.751 5.305 5.305 0 0 1 2.797-2.948l9.468-4.216z" fill="#F3C74A"/><path d="M231.805 39.777a8.066 8.066 0 0 1-3.221 2.54l-14.998 6.695c-3.418 1.521-7.19.585-8.39-2.098a4.606 4.606 0 0 1-.082-3.36 5.105 5.105 0 0 0-.833 5.097c1.185 2.671 4.959 3.62 8.39 2.097l14.998-6.696a7.545 7.545 0 0 0 4.136-4.275z" fill="#F8EEC8"/><path opacity=".17" d="M271.832 69.965l-.012.006a5.321 5.321 0 0 0-2.173 7.205l9.172 17.098a5.323 5.323 0 0 0 7.206 2.174l.011-.006a5.322 5.322 0 0 0 2.174-7.206l-9.172-17.098a5.323 5.323 0 0 0-7.206-2.173z" fill="#C16C37"/><path d="M270.496 69.562l-.012.006a5.322 5.322 0 0 0-2.174 7.206l9.173 17.097a5.321 5.321 0 0 0 7.205 2.174l.012-.006a5.322 5.322 0 0 0 2.174-7.206l-9.173-17.097a5.321 5.321 0 0 0-7.205-2.174z" fill="#F8EEC8"/><path d="M272.643 84.856l9.356-5.019 4.9 9.134a5.31 5.31 0 0 1-9.356 5.019l-4.9-9.134z" fill="#F3C74A"/><path d="M274.005 69.377a8.098 8.098 0 0 1 2.768 3.018l7.752 14.368c1.762 3.306 1.114 7.136-1.464 8.522a4.567 4.567 0 0 1-3.358.323 5.11 5.11 0 0 0 5.144.466c2.592-1.389 3.253-5.22 1.478-8.525l-7.777-14.458a7.53 7.53 0 0 0-4.543-3.714z" fill="#F8EEC8"/><path opacity=".17" d="M291.159 30.412l-.01.009a5.343 5.343 0 0 0-.592 7.533l12.654 14.812a5.344 5.344 0 0 0 7.534.592l.01-.008a5.345 5.345 0 0 0 .592-7.534l-12.654-14.812a5.344 5.344 0 0 0-7.534-.592z" fill="#C16C37"/><path d="M288.422 30.56l-.01.009a5.322 5.322 0 0 0-.573 7.504l12.635 14.725a5.323 5.323 0 0 0 7.505.573l.01-.009a5.322 5.322 0 0 0 .573-7.504l-12.635-14.725a5.323 5.323 0 0 0-7.505-.573z" fill="#F8EEC8"/><path d="M293.8 45.04l8.058-6.914 6.749 7.866a5.31 5.31 0 1 1-8.057 6.914l-6.75-7.866z" fill="#F3C74A"/><path d="M291.774 29.547a8.324 8.324 0 0 1 3.351 2.34l10.691 12.454c2.451 2.844 2.627 6.728.396 8.633a4.54 4.54 0 0 1-3.197 1.05 5.093 5.093 0 0 0 5.121-.654c2.229-1.918 2.054-5.802-.398-8.646L297.047 32.27a7.587 7.587 0 0 0-5.273-2.724z" fill="#F8EEC8"/><path opacity=".17" d="M412.793 15.828l-.01.009a5.321 5.321 0 0 0-.573 7.504l12.635 14.725a5.321 5.321 0 0 0 7.504.573l.01-.009a5.321 5.321 0 0 0 .573-7.504l-12.635-14.725a5.321 5.321 0 0 0-7.504-.573z" fill="#C16C37"/><path d="M411.394 15.727l-.01.009a5.321 5.321 0 0 0-.573 7.504l12.635 14.725a5.322 5.322 0 0 0 7.504.573l.01-.009a5.321 5.321 0 0 0 .574-7.504L418.898 16.3a5.321 5.321 0 0 0-7.504-.573z" fill="#F8EEC8"/><path d="M418.693 29.9l8.105-6.925 6.769 7.923a5.33 5.33 0 0 1-8.105 6.924l-6.769-7.923z" fill="#F3C74A"/><path d="M414.8 14.7a8.075 8.075 0 0 1 3.352 2.354l10.65 12.445c2.438 2.846 2.614 6.73.396 8.633a4.62 4.62 0 0 1-3.232 1.096 5.099 5.099 0 0 0 5.121-.656c2.218-1.902 2.042-5.787-.395-8.632l-10.705-12.452A7.549 7.549 0 0 0 414.8 14.7z" fill="#F8EEC8"/><path opacity=".17" d="M337.437 77.106l.013.003a5.32 5.32 0 0 0 6.27-4.162l3.845-19.018a5.322 5.322 0 0 0-4.162-6.27l-.013-.003a5.322 5.322 0 0 0-6.271 4.161l-3.844 19.018a5.321 5.321 0 0 0 4.162 6.271z" fill="#C16C37"/><path d="M338.209 78.264l.013.002a5.32 5.32 0 0 0 6.27-4.162l3.845-19.018a5.322 5.322 0 0 0-4.162-6.27l-.013-.003a5.322 5.322 0 0 0-6.271 4.162l-3.844 19.018a5.321 5.321 0 0 0 4.162 6.27z" fill="#F8EEC8"/><path d="M345.326 65.448l-10.436-2.09 2.04-10.188a5.319 5.319 0 0 1 6.263-4.173 5.318 5.318 0 0 1 4.173 6.262l-2.04 10.189z" fill="#F3C74A"/><path d="M335.347 76.245a8.234 8.234 0 0 1-.167-4.126l3.291-16.102c.748-3.668 3.702-6.2 6.573-5.618a4.579 4.579 0 0 1 2.783 1.879 5.112 5.112 0 0 0-3.664-3.639c-2.87-.583-5.824 1.95-6.573 5.617l-3.289 16.116a7.593 7.593 0 0 0 1.046 5.873z" fill="#F8EEC8"/><path opacity=".17" d="M407.255 86.22l.012-.005a5.322 5.322 0 0 0 3.137-6.842l-6.755-18.189a5.321 5.321 0 0 0-6.841-3.136l-.013.004a5.322 5.322 0 0 0-3.136 6.842l6.754 18.189a5.323 5.323 0 0 0 6.842 3.136z" fill="#C16C37"/><path d="M408.519 86.804l.013-.005a5.322 5.322 0 0 0 3.136-6.841l-6.755-18.19a5.321 5.321 0 0 0-6.841-3.136l-.013.005a5.322 5.322 0 0 0-3.136 6.842l6.755 18.189a5.321 5.321 0 0 0 6.841 3.136z" fill="#F8EEC8"/><path d="M408.476 71.367l-9.953 3.696-3.608-9.716a5.308 5.308 0 1 1 9.953-3.696l3.608 9.716z" fill="#F3C74A"/><path d="M405.026 86.582a7.966 7.966 0 0 1-2.331-3.368l-5.731-15.402c-1.305-3.513-.119-7.21 2.627-8.23a4.579 4.579 0 0 1 3.36.118 5.1 5.1 0 0 0-5.031-1.149c-2.746 1.02-3.93 4.731-2.626 8.23l5.731 15.403a7.519 7.519 0 0 0 4.001 4.398z" fill="#F8EEC8"/><path opacity=".17" d="M355.139 51.361a7.35 7.35 0 0 0 10.254-1.697 7.35 7.35 0 0 0-1.706-10.252l-14.41-10.308c-3.303-2.362-7.894-1.602-10.254 1.697a7.35 7.35 0 0 0 1.706 10.252l14.41 10.308z" fill="#C16C37"/><path d="M356.793 50.87a7.35 7.35 0 0 0 10.254-1.697 7.35 7.35 0 0 0-1.707-10.252l-14.41-10.308a7.348 7.348 0 0 0-10.253 1.697 7.349 7.349 0 0 0 1.706 10.252l14.41 10.308z" fill="#BFA6C2"/><path d="M358.602 34.105l-8.547 11.949-7.805-5.583a7.355 7.355 0 0 1 .39-12.22 7.36 7.36 0 0 1 5.552-.921c.94.218 1.829.62 2.614 1.181l7.804 5.583-.008.01z" fill="#783361"/><path d="M363.206 51.902a7.33 7.33 0 0 1-4.303-1.416l-14.416-10.197a7.365 7.365 0 0 1-1.699-10.246 7.27 7.27 0 0 1 3.669-2.69 7.339 7.339 0 0 0-4.287 13.232l14.381 10.335a7.338 7.338 0 0 0 6.655.982z" fill="#473654" opacity=".16"/><path opacity=".17" d="M94.207 93.816c.988 3.939 4.978 6.332 8.913 5.345a7.349 7.349 0 0 0 5.338-8.917l-4.308-17.186a7.349 7.349 0 0 0-8.913-5.346A7.35 7.35 0 0 0 89.9 76.63l4.307 17.186z" fill="#C16C37"/><path d="M95.781 94.52a7.35 7.35 0 0 0 8.913 5.346 7.35 7.35 0 0 0 5.338-8.918l-4.308-17.186c-.988-3.938-4.978-6.332-8.913-5.345a7.349 7.349 0 0 0-5.338 8.918l4.308 17.185z" fill="#BFA6C2"/><path d="M108.035 82.904l-14.263 3.575-2.333-9.307a7.352 7.352 0 1 1 14.263-3.575l2.333 9.307z" fill="#783361"/><path d="M100.011 99.443a7.3 7.3 0 0 1-2.39-3.828l-4.313-17.19a7.366 7.366 0 0 1 5.348-8.913 7.288 7.288 0 0 1 4.497.321 7.34 7.34 0 0 0-11.859 7.392l4.314 17.189a7.34 7.34 0 0 0 4.403 5.029z" fill="#473654" opacity=".16"/><path opacity=".17" d="M155.707 93.567a7.35 7.35 0 0 0 2.669 10.045 7.348 7.348 0 0 0 10.042-2.677l8.885-15.329a7.35 7.35 0 0 0-2.668-10.044 7.35 7.35 0 0 0-10.043 2.677l-8.885 15.328z" fill="#C16C37"/><path d="M156.358 95.168a7.348 7.348 0 0 0 2.668 10.045 7.349 7.349 0 0 0 10.042-2.677l8.885-15.329c2.036-3.513.842-8.01-2.668-10.045a7.349 7.349 0 0 0-10.042 2.678l-8.885 15.328z" fill="#BFA6C2"/><path d="M173.238 95.341l-12.711-7.367 4.792-8.267a7.348 7.348 0 0 1 7.333-3.601 7.358 7.358 0 0 1 6.133 5.397 7.354 7.354 0 0 1-.744 5.578l-4.792 8.267-.011-.007z" fill="#783361"/><path d="M155.953 101.65a7.29 7.29 0 0 1 .935-4.4l8.885-15.36a7.365 7.365 0 0 1 10.047-2.624 7.234 7.234 0 0 1 3.013 3.36 7.326 7.326 0 0 0-13.652-2.963l-8.889 15.334a7.317 7.317 0 0 0-.339 6.653z" fill="#473654" opacity=".16"/><path opacity=".17" d="M295.681 93.011a7.349 7.349 0 0 0 8.913 5.346 7.35 7.35 0 0 0 5.338-8.918l-4.308-17.185c-.988-3.939-4.978-6.332-8.913-5.346a7.35 7.35 0 0 0-5.338 8.918l4.308 17.186z" fill="#C16C37"/><path d="M297.281 93.71a7.349 7.349 0 0 0 8.913 5.347 7.35 7.35 0 0 0 5.338-8.918l-4.308-17.186c-.988-3.939-4.978-6.332-8.913-5.346a7.35 7.35 0 0 0-5.338 8.918l4.308 17.186z" fill="#BFA6C2"/><path d="M309.509 82.1l-14.25 3.572-2.334-9.307a7.354 7.354 0 0 1 10.911-8.095 7.35 7.35 0 0 1 3.353 4.52l2.333 9.306-.013.004z" fill="#783361"/><path d="M301.497 98.626a7.262 7.262 0 0 1-2.388-3.815l-4.314-17.19a7.382 7.382 0 0 1 5.349-8.913 7.288 7.288 0 0 1 4.497.322 7.34 7.34 0 0 0-11.859 7.39l4.3 17.192a7.35 7.35 0 0 0 4.415 5.014z" fill="#473654" opacity=".16"/><path d="M169.833 66.037a7.192 7.192 0 0 0 6.221-8.048 7.193 7.193 0 1 0-6.221 8.048z" fill="#C0D5D0" opacity=".29"/><path d="M169.872 64.774a7.192 7.192 0 0 0 6.221-8.048 7.192 7.192 0 0 0-8.047-6.221 7.193 7.193 0 1 0 1.826 14.27z" fill="#C0D5D0"/><path d="M175.887 55.321a7.178 7.178 0 0 1-10.683 6.77 7.178 7.178 0 0 1-3.248-3.863 7.19 7.19 0 0 0 2.835 5.216 7.18 7.18 0 0 0 11.096-8.123z" fill="#9FB7B2"/><path opacity=".6" d="M175.735 59.89l-13.039-5.704c-.213.322-.19.185-.345.54-.086.197-.14.407-.162.622l13.018 5.64c.201-.307.177-.184.333-.538a2.02 2.02 0 0 0 .195-.56z" fill="#6A9A9B"/><path d="M152.899 76.432a7.193 7.193 0 1 0-8.047-6.222 7.192 7.192 0 0 0 8.047 6.222z" fill="#C0D5D0" opacity=".29"/><path d="M152.925 75.171a7.193 7.193 0 1 0-8.048-6.222 7.194 7.194 0 0 0 8.048 6.222z" fill="#C0D5D0"/><path d="M158.941 65.718a7.18 7.18 0 0 1-13.918 2.905 7.189 7.189 0 0 0 2.819 5.25 7.185 7.185 0 0 0 8.597.07 7.18 7.18 0 0 0 2.502-8.225z" fill="#9FB7B2"/><path opacity=".6" d="M156.235 73.744l-7.37-12.115c-.209.053-.41.133-.599.237-.322.202-.192.172-.481.423l7.37 12.115c.211-.051.413-.136.597-.25.378-.182.197-.132.483-.41z" fill="#6A9A9B"/><path d="M233.113 85.448a7.193 7.193 0 1 0-1.825-14.27 7.193 7.193 0 0 0 1.825 14.27z" fill="#C0D5D0" opacity=".29"/><path d="M234.369 85.434a7.193 7.193 0 1 0-1.826-14.27 7.193 7.193 0 0 0 1.826 14.27z" fill="#C0D5D0"/><path d="M236.031 85.141a7.192 7.192 0 0 1-7.479-9.827 7.215 7.215 0 0 1 4.026-3.98 7.184 7.184 0 0 0-6.304 5.816 7.181 7.181 0 0 0 9.704 7.998l.053-.007z" fill="#9FB7B2"/><path opacity=".6" d="M231.455 85.138l5.186-13.214c-.331-.185-.196-.175-.549-.317a2.08 2.08 0 0 0-.632-.133l-5.175 13.198c.318.187.183.178.549.318.201.073.409.123.621.148z" fill="#6A9A9B"/><path d="M222.123 68.885a7.193 7.193 0 1 0-1.825-14.27 7.193 7.193 0 0 0 1.825 14.27z" fill="#C0D5D0" opacity=".29"/><path d="M223.379 68.872a7.192 7.192 0 0 0 6.222-8.048 7.193 7.193 0 1 0-14.27 1.826 7.194 7.194 0 0 0 8.048 6.222z" fill="#C0D5D0"/><path d="M225.016 68.595a7.18 7.18 0 0 1-3.415-13.825 7.194 7.194 0 1 0 3.415 13.825z" fill="#9FB7B2"/><path opacity=".6" d="M216.892 66.17l11.846-7.805c-.151-.342-.034-.263-.262-.582-.228-.318-.172-.192-.434-.466l-11.848 7.791c.066.203.154.398.262.582.202.322.187.204.436.48z" fill="#6A9A9B"/><path d="M284.743 63.682a7.193 7.193 0 1 0-1.826-14.27 7.193 7.193 0 0 0 1.826 14.27z" fill="#C0D5D0" opacity=".29"/><path d="M285.999 63.668a7.193 7.193 0 1 0-1.826-14.27A7.193 7.193 0 0 0 286 63.668z" fill="#C0D5D0"/><path d="M287.661 63.375a7.18 7.18 0 0 1-3.413-13.812 7.184 7.184 0 0 0-5.117 3.02 7.196 7.196 0 0 0-1.177 2.803 7.175 7.175 0 0 0 3.773 7.7 7.177 7.177 0 0 0 5.934.29z" fill="#9FB7B2"/><path opacity=".6" d="M283.083 63.359l5.135-13.194c-.318-.187-.183-.177-.549-.318a2.31 2.31 0 0 0-.621-.148l-5.173 13.212c.318.187.183.178.549.318.366.14.288.057.659.13z" fill="#6A9A9B"/><path d="M273.74 47.12a7.194 7.194 0 1 0-1.827-14.27 7.194 7.194 0 0 0 1.827 14.27z" fill="#C0D5D0" opacity=".29"/><path d="M275.009 47.106a7.194 7.194 0 1 0-1.827-14.271 7.194 7.194 0 0 0 1.827 14.27z" fill="#C0D5D0"/><path d="M276.671 46.813a7.182 7.182 0 0 1-7.735-5.417A7.175 7.175 0 0 1 273.257 33a7.181 7.181 0 0 0-4.868 11.591 7.189 7.189 0 0 0 5.283 2.72 7.182 7.182 0 0 0 2.999-.498z" fill="#9FB7B2"/><path opacity=".6" d="M268.522 44.404l11.845-7.805a2.485 2.485 0 0 0-.261-.582c-.215-.32-.185-.19-.436-.479l-11.846 7.804c.151.342.034.264.262.582.228.319.172.192.436.48z" fill="#6A9A9B"/><path d="M419.544 78.543a7.192 7.192 0 0 0 6.222-8.048 7.193 7.193 0 1 0-14.269 1.826 7.192 7.192 0 0 0 8.047 6.222z" fill="#C0D5D0" opacity=".29"/><path d="M420.8 78.53a7.193 7.193 0 1 0-1.826-14.27 7.193 7.193 0 0 0 1.826 14.27z" fill="#C0D5D0"/><path d="M422.462 78.236a7.181 7.181 0 0 1-7.134-10.43 7.178 7.178 0 0 1 3.734-3.384 7.18 7.18 0 1 0 3.4 13.814z" fill="#9FB7B2"/><path opacity=".6" d="M417.884 78.22l5.188-13.2c-.331-.185-.196-.176-.549-.318a2.654 2.654 0 0 0-.634-.147l-5.173 13.213c.318.186.183.177.549.317.199.076.407.121.619.135z" fill="#6A9A9B"/><path d="M408.554 61.98a7.193 7.193 0 1 0-1.825-14.27 7.193 7.193 0 0 0 1.825 14.27z" fill="#C0D5D0" opacity=".29"/><path d="M409.81 61.967a7.193 7.193 0 1 0-1.826-14.27 7.193 7.193 0 0 0 1.826 14.27z" fill="#C0D5D0"/><path d="M411.446 61.677a7.18 7.18 0 0 1-3.414-13.812 7.181 7.181 0 0 0-4.868 11.59 7.189 7.189 0 0 0 5.283 2.72 7.182 7.182 0 0 0 2.999-.498z" fill="#9FB7B2"/><path opacity=".6" d="M403.324 59.265l11.845-7.805c-.15-.342-.033-.263-.262-.581-.228-.32-.171-.193-.435-.48l-11.846 7.804c.068.203.155.397.262.582.201.322.184.19.436.48z" fill="#6A9A9B"/><path d="M355.499 89.963a7.193 7.193 0 1 0-1.826-14.27 7.193 7.193 0 0 0 1.826 14.27z" fill="#C0D5D0" opacity=".29"/><path d="M356.459 90.777a7.192 7.192 0 0 0 6.222-8.048 7.193 7.193 0 1 0-14.269 1.826 7.192 7.192 0 0 0 8.047 6.222z" fill="#C0D5D0"/><path d="M353.068 90.515a7.18 7.18 0 0 1 6.399-12.727 7.183 7.183 0 0 0-8.526.377 7.172 7.172 0 0 0-2.656 5.281 7.164 7.164 0 0 0 2.208 5.484 7.179 7.179 0 0 0 2.575 1.585z" fill="#9FB7B2"/><path opacity=".6" d="M349.596 87.534l12.523-6.687a2.513 2.513 0 0 0-.21-.602 2.945 2.945 0 0 0-.387-.512l-12.524 6.687c.126.358.034.263.211.602.177.338.162.22.387.512z" fill="#6A9A9B"/><path d="M357.871 70.232a7.193 7.193 0 1 0-1.826-14.27 7.193 7.193 0 0 0 1.826 14.27z" fill="#C0D5D0" opacity=".29"/><path d="M358.843 71.03a7.193 7.193 0 1 0-1.826-14.269 7.193 7.193 0 0 0 1.826 14.27z" fill="#C0D5D0"/><path d="M355.44 70.784a7.18 7.18 0 0 1 6.399-12.727 7.183 7.183 0 0 0-8.526.377 7.172 7.172 0 0 0-2.656 5.281 7.164 7.164 0 0 0 2.208 5.484 7.179 7.179 0 0 0 2.575 1.585z" fill="#9FB7B2"/><path opacity=".6" d="M350.808 63.657l14.085 1.743c.101-.36.131-.23.176-.611a2.108 2.108 0 0 0-.081-.632l-14.072-1.745c-.101.36-.131.23-.176.611-.003.213.02.426.068.634z" fill="#6A9A9B"/><g opacity=".63" fill="#F3C74A"><path opacity=".63" d="M433.769.766l-306.723 39.25 10.916 85.304 306.723-39.25a6.053 6.053 0 0 0 5.225-6.743l-9.387-73.35a6.05 6.05 0 0 0-6.754-5.21zM5.976 55.51a6.039 6.039 0 0 0-5.211 6.74l9.386 73.351a6.037 6.037 0 0 0 6.741 5.211l57.053-7.3L63.03 48.209l-57.054 7.3z"/></g><path d="M76.079 122.896l-7.29-56.974c-.206-1.606-1.058-2.822-1.9-2.714-.843.108-1.359 1.512-1.155 3.105l7.29 56.974 3.055-.391zM135.58 115.282l-7.29-56.974c-.206-1.606-1.057-2.822-1.9-2.714-.842.108-1.358 1.512-1.154 3.105l7.29 56.974 3.054-.391zM199.032 107.162l-7.291-56.974c-.206-1.606-1.057-2.821-1.9-2.714-.842.108-1.358 1.512-1.154 3.105l7.29 56.974 3.055-.391zM262.482 99.043l-7.291-56.974c-.205-1.606-1.056-2.822-1.899-2.714-.842.108-1.358 1.512-1.155 3.105l7.291 56.974 3.054-.391zM325.933 90.923l-7.291-56.974c-.205-1.606-1.057-2.821-1.899-2.713-.843.107-1.359 1.511-1.155 3.104l7.291 56.974 3.054-.39zM389.384 82.804l-7.291-56.974c-.206-1.606-1.057-2.822-1.9-2.714-.842.108-1.358 1.512-1.154 3.105l7.291 56.974 3.054-.391zM44.217 87.303l-5.298 3.354a3.795 3.795 0 0 0-3.838-2.292 1.964 1.964 0 0 0-1.947 2.149c.482 3.765 12.016 1.887 13.101 10.365.655 5.121-2.518 9.287-8.6 10.065a9.755 9.755 0 0 1-10.294-5.373l5.264-3.617a4.942 4.942 0 0 0 4.569 2.56c1.619-.207 2.37-1.026 2.212-2.263-.473-3.7-11.95-1.896-13.088-10.795-.64-5.003 2.549-8.729 8.078-9.437a9.198 9.198 0 0 1 9.84 5.284zM168.189 71.6l2.773 21.667-6.793.87-2.772-21.669-6.003.769-.777-6.07 18.785-2.403.777 6.069-5.99.766zM226.34 68.48l-2.247 17.988-7.701.986-10.784-26.865 7.267-.93 6.75 19.086 2.379-20.2 6.109-.782 7.309 18.96 1.708-20.114 7.266-.93-3.625 28.655-7.701.985-6.73-16.84zM290.22 55.983l2.773 21.668-6.793.87-2.773-21.668-5.989.766-.777-6.069 18.785-2.403.777 6.068-6.003.768zM354.359 59.095l1.348 10.531-6.793.87-3.549-27.737 14.691-1.88.776 6.068-7.898 1.011.65 5.081 6.898-.882.775 6.055-6.898.883zM420.893 39.101l-5.298 3.354a3.793 3.793 0 0 0-3.852-2.29 1.962 1.962 0 0 0-1.842 1.346c-.085.258-.116.53-.091.801.482 3.765 12.016 1.888 13.101 10.365.655 5.121-2.518 9.287-8.6 10.065a9.753 9.753 0 0 1-10.294-5.372l5.327-3.545a4.931 4.931 0 0 0 4.568 2.56c1.62-.208 2.371-1.027 2.213-2.264-.474-3.7-11.95-1.896-13.089-10.795-.64-5.002 2.549-8.729 8.078-9.436a9.196 9.196 0 0 1 9.779 5.211z" fill="#F8EEC8"/></g><defs><clipPath id="clip0"><path fill="#fff" transform="rotate(-7.292 441.551 28.137)" d="M0 0h443.344v86.888H0z"/></clipPath></defs></svg>