<svg width="162" height="174" viewBox="0 0 162 174" fill="none" xmlns="http://www.w3.org/2000/svg"><path d="M151.85 93.698c-10.86-7.987-26.898-4.562-35.818 7.657-8.92 12.22-7.355 28.58 3.516 36.579 10.871 7.998 26.892 4.562 35.818-7.652 8.926-12.214 7.343-28.592-3.516-36.584zm-7.021 28.84c-4.149 5.682-11.602 7.27-16.649 3.557-5.047-3.713-5.754-11.324-1.628-17.001 4.126-5.677 11.601-7.271 16.648-3.558 5.047 3.714 5.778 11.325 1.629 17.002z" fill="#F3C74A"/><g style="mix-blend-mode:multiply" opacity=".53"><path d="M128.37 126.292a10.295 10.295 0 0 1-2.601-2.83l-.201 17.723a24.008 24.008 0 0 0 13.811.45l3.424-16.504c-4.264 3.649-10.191 4.279-14.433 1.161zM126.742 109.285c4.149-5.677 11.601-7.271 16.654-3.558a10.274 10.274 0 0 1 2.774 3.113l3.418-16.505c-7.153-3.927-15.952-3.551-23.473.514l-.202 17.723c.253-.433.541-.849.829-1.287z" fill="#F3C74A" opacity=".53"/></g><path d="M93.508 161.605H37.082c-2.86 0-5.18 2.327-5.18 5.198 0 2.87 2.32 5.197 5.18 5.197h56.426c2.86 0 5.179-2.327 5.179-5.197 0-2.871-2.319-5.198-5.18-5.198z" fill="#F3C74A"/><path d="M129.424 93.317c.057-1.253.126-2.5.166-3.76a9.607 9.607 0 0 0-.623-3.778 9.573 9.573 0 0 0-8.924-6.178H10.553a9.543 9.543 0 0 0-6.883 2.943A9.608 9.608 0 0 0 1 89.557c.215 6.268.63 12.413 1.243 18.434V92.918c5.496.07 9.852 1.26 9.852 16.06 0 8.859-2.25 20.64-4.868 29.037a45.574 45.574 0 0 0 16.44 23.352 45.309 45.309 0 0 0 27.066 8.929H79.84a45.344 45.344 0 0 0 24.723-7.307 45.57 45.57 0 0 0 16.791-19.621c-3.32-7.946-6.779-23.417-6.779-34.39 0-14.8 4.362-15.99 9.852-16.06v40.696c.438-2.117.848-4.262 1.232-6.433V92.889a14.62 14.62 0 0 1 3.764.428z" fill="#F3C74A"/><path d="M39.5 108.949c0 14.542 6.07 36.989 9.852 39.339V92.889c-5.49.087-9.852 1.242-9.852 16.06zM60.435 108.949c0-14.8-4.356-15.99-9.852-16.06v55.399c3.78-2.35 9.852-24.797 9.852-39.339zM15.041 108.949c0 14.542 6.072 36.989 9.853 39.339V92.889c-5.479.087-9.852 1.242-9.852 16.06zM35.978 108.949c0-14.8-4.357-15.99-9.853-16.06v55.399c3.781-2.35 9.853-24.797 9.853-39.339zM65.396 108.949c0 14.542 6.071 36.989 9.852 39.339V92.889c-5.49.087-9.852 1.242-9.852 16.06zM86.332 108.949c0-14.8-4.357-15.99-9.852-16.06v55.399c3.78-2.35 9.852-24.797 9.852-39.339zM90.142 108.949c0 14.542 6.07 36.989 9.852 39.339V92.889c-5.49.087-9.852 1.242-9.852 16.06zM111.077 108.949c0-14.8-4.356-15.99-9.852-16.06v55.399c3.781-2.35 9.852-24.797 9.852-39.339zM2.243 92.89v15.101a250.096 250.096 0 0 0 4.029 26.299c.264 1.264.575 2.506.949 3.725 2.618-8.397 4.869-20.178 4.869-29.037.005-14.847-4.351-16.002-9.847-16.089zM114.599 108.949c0 10.973 3.453 26.444 6.779 34.39a45.147 45.147 0 0 0 2.941-9.078c.046-.225.086-.456.132-.676V92.889c-5.478.087-9.852 1.242-9.852 16.06zM125.683 92.89v34.262a263.03 263.03 0 0 0 3.741-33.835 14.62 14.62 0 0 0-3.741-.428zM68.09 9.557a13.995 13.995 0 0 1 6.525-6.352 1.654 1.654 0 0 0 .945-1.784A1.658 1.658 0 0 0 74.086.046a11.599 11.599 0 0 0-7.144 1.701 11.661 11.661 0 0 0-4.705 5.657 11.71 11.71 0 0 0-.39 7.357 11.674 11.674 0 0 0 4.078 6.127 1.814 1.814 0 0 0 2.88-1.006A1.83 1.83 0 0 0 68.7 18.7a14.026 14.026 0 0 1-.61-9.142z" fill="#F8EEC8"/><path d="M66.604 16.464c.591.43 1.144.912 1.652 1.438a11.744 11.744 0 0 1 1.467 14.362 11.933 11.933 0 0 1-1.68 2.08 1.237 1.237 0 0 0 1.15 2.078 11.566 11.566 0 0 0 6.676-4.515 11.701 11.701 0 0 0 1.2-11.543 11.669 11.669 0 0 0-3.745-4.683 11.613 11.613 0 0 0-5.569-2.196 1.641 1.641 0 0 0-1.722 1.043 1.657 1.657 0 0 0 .571 1.936z" fill="#F8EEC8"/><path d="M62.576 39.731a14.058 14.058 0 0 1 6.526-6.323 1.654 1.654 0 0 0 .995-1.791 1.66 1.66 0 0 0-1.502-1.391 11.475 11.475 0 0 0-6.226 1.19A11.642 11.642 0 0 0 58 35.236a11.697 11.697 0 0 0-1.104 11.21 11.665 11.665 0 0 0 3.538 4.604 1.81 1.81 0 0 0 2.877-1 1.824 1.824 0 0 0-.109-1.183 14.12 14.12 0 0 1-.627-9.136z" fill="#F8EEC8"/><path d="M63.03 47.984c.602.426 1.163.907 1.675 1.438a11.722 11.722 0 0 1 1.468 14.357 12.232 12.232 0 0 1-1.675 2.084 1.238 1.238 0 0 0 .371 2.006c.245.109.52.135.78.073a11.629 11.629 0 0 0 6.605-4.434 11.7 11.7 0 0 0-.965-14.956 11.615 11.615 0 0 0-7.119-3.542 1.636 1.636 0 0 0-1.716 1.044 1.651 1.651 0 0 0 .577 1.93z" fill="#F8EEC8"/><path d="M66.104 157.655c-31.968-6.728-56.42-26.201-63.377-47.874.345 4.764 1.605 19.011 4.88 28.395a45.575 45.575 0 0 0 16.438 23.356 45.314 45.314 0 0 0 27.068 8.932h29.13a45.445 45.445 0 0 0 32.164-13.335c-13.725 3.587-29.775 4.031-46.303.526z" fill="#F3C74A" opacity=".53"/></svg>