<svg width="281" height="304" viewBox="0 0 281 304" fill="none" xmlns="http://www.w3.org/2000/svg"><g clip-path="url(#clip0)"><path d="M109.653 121.813c-21.094-8.832-44.567-13.248-65.459-3.413-17.072 8.075-31.241 25.781-37.782 47.371a198.808 198.808 0 0 0-4.694 20.896C.747 191.861-.224 197.12 0 202.4a49.64 49.64 0 0 0 3.02 13.739c10.968 31.562 36.031 52.437 62.28 61.706 26.247 9.27 53.978 8.534 81.228 7.84 16.496-.448 33.077-.896 49.199-5.632 33.29-9.792 61.554-37.237 84.291-69.952a5.43 5.43 0 0 0-1.204-7.51 5.431 5.431 0 0 0-2.584-1.023h-.138c-18.555-1.749-32.746-21.131-43.64-40.213-10.894-19.083-21.563-40.363-38.699-49.515a48.637 48.637 0 0 0-21.158-5.333 71.78 71.78 0 0 0-31.007 5.717" fill="#194151"/><path d="M128.603 127.904c-13.977-9.504 45.005 114.752 47.449 126.709 4.577 22.006 23.953 20.95 33.194-9.472 7.927-26.122 9.261-37.856 5.121-76.085-1.91-17.621-13.668-31.275-24.754-40.608a31.352 31.352 0 0 0-14.415-6.592 45.495 45.495 0 0 0-22.759 1.493M101.662 130.88c-15.28-8.832-32.234-13.248-47.31-3.392-12.377 8.075-22.588 25.781-27.304 47.371-1.483 6.773-2.443 13.866-3.404 20.917a92.627 92.627 0 0 0-1.237 15.691 66.789 66.789 0 0 0 2.134 13.738c7.938 31.563 26.045 52.438 45.026 61.707" fill="#194151" opacity=".42"/><path d="M46.232 222.219c8.25 0 14.938-6.686 14.938-14.934 0-8.247-6.688-14.933-14.938-14.933s-14.938 6.686-14.938 14.933c0 8.248 6.688 14.934 14.938 14.934z" fill="#E8C488"/><path d="M77.856 122.323l8.272 2.106a26.568 26.568 0 0 1 16.284 12.174 26.552 26.552 0 0 1 2.904 20.12l-14.33 56.241a3.403 3.403 0 0 1-4.138 2.458l-53.115-13.525a3.405 3.405 0 0 1-2.458-4.137l14.33-56.242a26.57 26.57 0 0 1 32.303-19.182l-.052-.013z" fill="#ADC4BE"/><path d="M30.686 197.739a3.41 3.41 0 0 0 2.454 4.149l53.115 13.579a3.424 3.424 0 0 0 4.14-2.464l.693-2.699a3.438 3.438 0 0 1-3.2.896L34.74 197.621a3.412 3.412 0 0 1-2.454-4.149" fill="#194151"/><path d="M188.589 222.219c8.249 0 14.937-6.686 14.937-14.934 0-8.247-6.688-14.933-14.937-14.933-8.25 0-14.938 6.686-14.938 14.933 0 8.248 6.688 14.934 14.938 14.934z" fill="#E8C488"/><path d="M201.148 201.882l-53.105 13.522a3.402 3.402 0 0 1-4.138-2.458l-14.335-56.262a26.557 26.557 0 0 1 19.188-32.294l8.272-2.106a26.576 26.576 0 0 1 20.126 2.903 26.566 26.566 0 0 1 12.177 16.279l14.333 56.252a3.406 3.406 0 0 1-2.459 4.138l-.059.026z" fill="#ADC4BE"/><path d="M135.229 217.6l53.114-13.525a3.412 3.412 0 0 0 2.454-4.15l-13.155-32.757a59.217 59.217 0 0 0-1.174-23.467c-3.265-12.085-18.139-22.784-32.298-19.2l-8.226 2.134a26.666 26.666 0 0 0-19.206 32.298l14.33 56.235a3.426 3.426 0 0 0 4.161 2.432z" fill="#C0D5D0" opacity=".66"/><path d="M79.8 101.493h-3.201c-10.67 2.038-17.872-5.034-19.91-15.712l-6.402-16.864a19.824 19.824 0 0 1 3.084-14.79 19.835 19.835 0 0 1 12.611-8.324 19.84 19.84 0 0 1 14.8 3.091 19.829 19.829 0 0 1 8.322 12.62l3.2 16.875c2.05 10.678-1.824 21.078-12.505 23.104z" fill="#C16C37"/><path d="M60.826 47.775l-1.429.873c-9.311 5.691-12.245 17.85-6.552 27.16L64.087 94.19c5.692 9.309 17.855 12.241 27.166 6.551l1.43-.874c9.311-5.69 12.244-17.85 6.552-27.158L87.993 54.325c-5.693-9.308-17.856-12.24-27.167-6.55z" fill="#C16C37" opacity=".55"/><path d="M96.924 217.6L43.81 204.021a3.412 3.412 0 0 1-2.454-4.149l13.156-32.757a59.197 59.197 0 0 1 1.174-23.467c3.265-12.085 18.138-22.784 32.297-19.2l8.227 2.133a26.672 26.672 0 0 1 16.259 12.194 26.656 26.656 0 0 1 2.946 20.105l-14.351 56.203a3.41 3.41 0 0 1-1.548 2.116 3.416 3.416 0 0 1-2.592.401z" fill="#C0D5D0" opacity=".66"/><path d="M204.135 197.739a3.413 3.413 0 0 1-2.454 4.149l-53.115 13.579a3.425 3.425 0 0 1-4.14-2.464l-.693-2.699a3.437 3.437 0 0 0 3.201.896l53.114-13.525a3.414 3.414 0 0 0 2.454-4.15" fill="#194151"/><path d="M198.309 298.933a4.447 4.447 0 0 1-4.108 4.704H38.785a4.447 4.447 0 0 1-4.119-4.725c0-15.563 2.764-64.235 2.796-64.48 2.272-23.285 7.628-42.261 19.707-57.685a101.596 101.596 0 0 1 2.913-3.51 39.188 39.188 0 0 1-3.82-17.002v-.299c0-19.424 13.87-35.317 30.718-35.317h55.707c16.891 0 30.719 15.893 30.719 35.317v.299a39.354 39.354 0 0 1-2.689 14.304 84.538 84.538 0 0 1 4.801 5.493c12.559 15.712 19.366 35.787 20.273 59.264l2.518 63.637z" fill="#C0D5D0"/><path d="M197.946 299.296a4.44 4.44 0 0 1-4.108 4.704H43.746c32.874-6.933 134.898-34.635 151.309-77.952l2.891 73.248z" fill="#C0D5D0" opacity=".5"/><path d="M120.366 171.637c16.005-6.485 42.338-42.485 42.338-42.485a37.92 37.92 0 0 1 10.669 27.733 40.342 40.342 0 0 1-2.624 13.643c1.717 1.707-51.376 2.272-50.383 1.109z" fill="#C0D5D0" opacity=".49"/><path d="M180.842 273.493a3.455 3.455 0 0 1-3.201 3.67H56.689a3.48 3.48 0 0 1-3.202-3.68c0-12.118 2.134-49.995 2.134-50.134 1.772-18.133 5.944-32.896 15.344-44.896a57.03 57.03 0 0 1 2.272-2.73c-1.899-3.936 87.493-5.504 86.127-2.134a63.005 63.005 0 0 1 3.734 4.267c9.785 12.224 15.077 27.851 15.792 46.123l1.952 49.514z" fill="#F8F6E8"/><path d="M132.487 114.485v20.8H97.458v-20.8l-16.346 1.067v60h67.732v-60l-16.357-1.067z" fill="#F8F6E8"/><path d="M110.048 120.288c14.095 0 15.407-.203 2.134 6.037s-31.326.544-41.143-8.96c-1.92-1.866 7.778-4.821 9.251-7.04 0 0 14.948 9.963 29.758 9.963z" fill="#194151"/><path d="M116.941 119.221c-14.095 0-15.396-.202-2.134 6.038 13.263 6.24 32.394 4.81 42.221-4.694 1.92-1.866-7.779-8.021-9.251-10.24 0 0-16.026 8.896-30.836 8.896z" fill="#194151"/><path d="M112.299 123.008c28.256 0 51.162-26.882 51.162-60.043 0-33.16-22.906-60.042-51.162-60.042-28.255 0-51.161 26.882-51.161 60.042 0 33.161 22.906 60.043 51.161 60.043z" fill="#E8C488"/><path d="M132.999 49.27a25.678 25.678 0 0 0-11.438 3.68.322.322 0 0 1-.405-.088.32.32 0 0 1 .021-.414 25.8 25.8 0 0 1 26.919-5.197 25.791 25.791 0 0 1 16.4 21.965c.608 7.797-.224 15.19-5.335 20.267a.31.31 0 1 1-.48-.395c3.03-4.587 2.486-10.325 2.027-16.224a25.721 25.721 0 0 0-17.735-22.429 25.74 25.74 0 0 0-9.974-1.166zM122.767 14.187a71.815 71.815 0 0 0-.608-9.28 44.222 44.222 0 0 0-10.126-1.195c-28.264 0-51.215 26.88-51.215 60.043 0 3.103.206 6.204.619 9.28a44.079 44.079 0 0 0 10.179 1.194c28.243 0 51.151-26.88 51.151-60.042z" fill="#C16C37"/><path d="M101.598 12.17a71.734 71.734 0 0 1 .629-9.525 45.22 45.22 0 0 1 10.446-1.226c29 0 52.517 27.594 52.517 61.642a71.904 71.904 0 0 1-.63 9.526 45.219 45.219 0 0 1-10.446 1.226c-29 0-52.516-27.594-52.516-61.642z" fill="#C16C37"/><path d="M94.076 89.301a6.763 6.763 0 1 0 0-13.525 6.764 6.764 0 1 0 0 13.525z" fill="#194151"/><path d="M87.738 81.088L85.647 76l6.476 1.6-4.385 3.488zM129.403 89.301a6.764 6.764 0 0 0 6.765-6.762 6.764 6.764 0 0 0-6.765-6.763 6.763 6.763 0 1 0 0 13.525z" fill="#194151"/><path d="M135.741 81.088L137.843 76l-6.476 1.6 4.374 3.488z" fill="#194151"/><path d="M141.908 32c4.078-.014 8.101.94 11.737 2.784a.313.313 0 0 0 .341-.523 25.739 25.739 0 0 0-35.867 3.654 25.723 25.723 0 0 0 2.983 35.92.32.32 0 0 0 .459-.438 25.463 25.463 0 0 1-5.335-15.712 25.721 25.721 0 0 1 7.534-18.146A25.74 25.74 0 0 1 141.908 32zM98.888 27.733a25.615 25.615 0 0 1 10.136 6.4.312.312 0 0 0 .491-.384 25.726 25.726 0 0 0-35.043-8.182 25.711 25.711 0 0 0-8.938 34.849.335.335 0 0 0 .619-.256 25.656 25.656 0 0 1 6.265-26.406 25.674 25.674 0 0 1 26.47-6.02z" fill="#C16C37"/><path d="M91.547 46.837a25.7 25.7 0 0 1 11.15 4.47.32.32 0 0 0 .498-.27.322.322 0 0 0-.082-.21 25.813 25.813 0 0 0-44.43 13.717c-1.14 7.723.236 15.563 5.005 21.024a.32.32 0 0 0 .512-.363c-2.71-4.789-1.76-10.869-.896-16.725C65.416 54.4 77.452 44.8 91.547 46.837z" fill="#C16C37"/><path d="M104.404 108.661l-10.425-4.768c-1.664-1.322-1.558-3.573.694-3.52 0 0 11.192 1.408 17.253 1.664 5.324.024 10.644-.279 15.93-.906 2.134 0 1.985 2.272.533 3.562l-7.821 3.862c-4.854 2.602-10.989 2.464-16.164.106z" fill="#194151"/><path d="M110.251 97.067l-2.955-1.355c-.47-.373-.438-1.067.202-1.003 0 0 3.201.406 4.887.48a36.452 36.452 0 0 0 4.513-.256c.608 0 .555.64.15 1.003l-2.23 1.067a5.229 5.229 0 0 1-4.567.064z" fill="#BFB9A5"/><path d="M116.941 38.73a137.967 137.967 0 0 1 31.828 6.24c2.956.96 8.354-8.383 10.243-10.57l-4.407-8.981c2.134-2.432-77.1 10.325-77.1 10.325 1.526 2.464 3.585 4.79 6.648 4.33a138.127 138.127 0 0 1 32.788-1.343z" fill="#C16C37" opacity=".5"/><path d="M112.897 123.125c14.095 0 15.396-.192 2.134 6.048-13.263 6.24-31.327.534-41.154-8.97-1.92-1.856 6.712-3.744 8.195-5.974 0 0 16.015 8.896 30.825 8.896z" fill="#ECE9DC"/><path d="M115.522 122.059c-14.095 0-15.407-.192-2.134 6.048s32.394 4.8 42.21-4.704c1.92-1.856-7.778-8.011-9.251-10.24 0 0-16.015 8.896-30.825 8.896z" fill="#ECE9DC"/><path d="M118.499 156.448h-7.608a3.596 3.596 0 0 0-3.596 3.595v26.24a3.595 3.595 0 0 0 3.596 3.594h7.608a3.594 3.594 0 0 0 3.595-3.594v-26.24a3.595 3.595 0 0 0-3.595-3.595z" fill="#194151"/><path d="M97.98 169.355v7.605a3.596 3.596 0 0 0 3.596 3.595h26.248a3.596 3.596 0 0 0 3.596-3.595v-7.605a3.595 3.595 0 0 0-3.596-3.595h-26.248a3.595 3.595 0 0 0-3.595 3.595z" fill="#194151"/><path d="M126.768 5.856c13.753 10.763 22.823 29.13 22.823 49.995 0 33.162-22.898 60.042-51.162 60.042a44.07 44.07 0 0 1-14.81-2.56 45.788 45.788 0 0 0 28.328 10.048c28.254 0 51.216-26.89 51.216-60.042-.054-27.072-15.365-50.027-36.395-57.483z" fill="#ECE9DC"/><path d="M113.409 34.197a119.608 119.608 0 0 1 27.838 3.264 6.607 6.607 0 0 0 6.85-2.26l8.258-11.19a5.128 5.128 0 0 0-.885-7.061A64.418 64.418 0 0 0 113.409 1.78a64.393 64.393 0 0 0-42.327 15.36 5.13 5.13 0 0 0-.853 7.04l8.151 11.02a6.636 6.636 0 0 0 6.872 2.346 119.436 119.436 0 0 1 28.157-3.35z" fill="#F8F6E8"/><path d="M114.839 34.197a119.67 119.67 0 0 1 27.837 3.264 6.619 6.619 0 0 0 6.85-2.26l4.652-6.4a64.962 64.962 0 0 0-40.107-4.268 65.916 65.916 0 0 0-28.233 13.152c.284-.031.565-.077.843-.138a119.374 119.374 0 0 1 28.158-3.35z" fill="#ECE9DC"/><path d="M113.794 9.472c16.004 0 31.347 5.45 42.423 14.368l.821-1.067a5.257 5.257 0 0 0-.896-7.232A64.084 64.084 0 0 0 113.794.001c-16.88 0-32.895 6.004-44.088 15.732a5.247 5.247 0 0 0-.875 7.211l1.953 2.656c.128-.128.234-.267.384-.395a64.03 64.03 0 0 1 42.626-15.733z" fill="#194151"/><path d="M129.286 159.819c-11.566 8-38.593 12.533-38.593 12.533h58.151v-31.2a94.61 94.61 0 0 1-19.558 18.667z" fill="#ECE9DC"/><path d="M106.207 109.195a18.029 18.029 0 0 0 14.447-.779l.171-.085a15.903 15.903 0 0 0-6.573-1.312 14.028 14.028 0 0 0-8.045 2.176z" fill="#E75F67"/><path d="M181.024 274.56a3.465 3.465 0 0 1-3.201 3.669h-56.187c28.104-11.381 45.709-18.314 57.979-36.266l1.409 32.597z" fill="#ECE9DC"/></g><defs><clipPath id="clip0"><path fill="#fff" d="M0 0h281v304H0z"/></clipPath></defs></svg>