<svg width="266" height="126" viewBox="0 0 266 126" fill="none" xmlns="http://www.w3.org/2000/svg">
<g clip-path="url(#clip0)">
<path d="M49.0173 63.719L45.0239 65.2065L58.2329 100.668L62.2263 99.1801L49.0173 63.719Z" fill="#C16C37"/>
<path d="M196.298 100.653L199.979 102.8L219.048 70.1147L215.367 67.9672L196.298 100.653Z" fill="#C16C37"/>
<path d="M67.1713 115.772C73.3532 115.772 78.3646 110.761 78.3646 104.579C78.3646 98.3969 73.3532 93.3855 67.1713 93.3855C60.9894 93.3855 55.978 98.3969 55.978 104.579C55.978 110.761 60.9894 115.772 67.1713 115.772Z" fill="#E8C488"/>
<path d="M100.234 163.557L95.8281 165.829C93.4007 167.081 90.5754 167.317 87.9739 166.486C85.3723 165.655 83.2075 163.824 81.9557 161.397L57.6159 114.199C57.3059 113.598 57.2474 112.898 57.4533 112.254C57.6592 111.609 58.1126 111.073 58.7138 110.763L76.8908 101.389C77.492 101.079 78.1917 101.021 78.8361 101.227C79.4804 101.433 80.0166 101.886 80.3266 102.487L104.666 149.685C105.918 152.112 106.154 154.938 105.323 157.539C104.492 160.141 102.661 162.306 100.234 163.557Z" fill="#ADC4BE"/>
<path d="M80.6353 102.18C80.4816 101.883 80.2707 101.618 80.0147 101.402C79.7587 101.186 79.4626 101.022 79.1433 100.92C78.824 100.819 78.4878 100.781 78.1539 100.809C77.82 100.837 77.495 100.931 77.1974 101.085L59.1602 110.639C58.418 111.019 57.8565 111.677 57.5987 112.47C57.341 113.263 57.4079 114.125 57.785 114.869L57.841 114.973C57.8924 115.064 57.9673 115.14 58.0579 115.193C58.1486 115.246 58.2517 115.274 58.3566 115.274C58.4616 115.274 58.5647 115.246 58.6554 115.193C58.746 115.14 58.8209 115.064 58.8723 114.973C59.1089 114.595 59.4431 114.288 59.8398 114.085L78.3966 104.283C78.6943 104.129 79.0193 104.035 79.3532 104.007C79.6871 103.979 80.0233 104.017 80.3426 104.118C80.6618 104.22 80.958 104.384 81.214 104.6C81.47 104.816 81.6809 105.081 81.8346 105.379" fill="#194151"/>
<path d="M189.962 115.772C196.144 115.772 201.155 110.761 201.155 104.579C201.155 98.3969 196.144 93.3855 189.962 93.3855C183.78 93.3855 178.769 98.3969 178.769 104.579C178.769 110.761 183.78 115.772 189.962 115.772Z" fill="#E8C488"/>
<path d="M180.232 101.377L198.402 110.747C199.003 111.057 199.456 111.593 199.662 112.238C199.868 112.882 199.81 113.582 199.5 114.183L175.16 161.381C173.908 163.808 171.743 165.639 169.142 166.47C166.54 167.301 163.715 167.065 161.288 165.813L156.882 163.541C154.454 162.29 152.624 160.125 151.793 157.523C150.961 154.922 151.197 152.096 152.449 149.669L176.785 102.478C177.095 101.877 177.632 101.424 178.276 101.218C178.92 101.012 179.62 101.07 180.221 101.38L180.232 101.377Z" fill="#ADC4BE"/>
<path d="M176.498 102.18C176.81 101.58 177.347 101.128 177.991 100.923C178.635 100.718 179.334 100.776 179.936 101.085L197.973 110.615C198.711 110.999 199.267 111.659 199.52 112.451C199.773 113.244 199.703 114.104 199.324 114.845L199.3 114.972C199.249 115.064 199.174 115.14 199.083 115.193C198.992 115.246 198.889 115.274 198.784 115.274C198.679 115.274 198.576 115.246 198.486 115.193C198.395 115.14 198.32 115.064 198.269 114.972C198.032 114.595 197.698 114.288 197.301 114.085L178.744 104.283C178.144 103.975 177.446 103.917 176.803 104.122C176.16 104.327 175.625 104.779 175.314 105.378" fill="#194151"/>
<path d="M103.174 132.418H100.776C92.7804 133.945 87.3757 128.645 85.8566 120.641L81.0595 107.993C80.3371 104.138 81.1681 100.155 83.3713 96.9106C85.5745 93.6664 88.9712 91.425 92.8204 90.6753C96.6784 89.951 100.666 90.7831 103.913 92.9898C107.159 95.1965 109.4 98.5984 110.146 102.452L112.545 115.093C114.08 123.096 111.177 130.891 103.174 132.418Z" fill="#C16C37"/>
<g style="mix-blend-mode:multiply" opacity="0.49">
<path d="M103.174 136.815H100.776C92.7804 138.342 87.3757 133.042 85.8566 125.038L81.0595 112.39C80.3371 108.535 81.1681 104.552 83.3713 101.308C85.5745 98.0634 88.9712 95.822 92.8204 95.0723C96.6784 94.348 100.666 95.18 103.913 97.3867C107.159 99.5935 109.4 102.995 110.146 106.849L112.545 119.49C114.08 127.493 111.177 135.288 103.174 136.815Z" fill="#C0D5D0"/>
</g>
<g style="mix-blend-mode:multiply" opacity="0.55">
<path d="M88.649 91.5495L87.5781 92.2043C80.6009 96.4698 78.4027 105.584 82.6683 112.561L91.0924 126.34C95.358 133.317 104.472 135.516 111.449 131.25L112.52 130.595C119.497 126.33 121.695 117.216 117.43 110.239L109.006 96.4593C104.74 89.4821 95.6262 87.284 88.649 91.5495Z" fill="#C16C37"/>
</g>
<path d="M127.527 148.537C148.7 148.537 165.864 128.388 165.864 103.532C165.864 78.6765 148.7 58.5271 127.527 58.5271C106.354 58.5271 89.1899 78.6765 89.1899 103.532C89.1899 128.388 106.354 148.537 127.527 148.537Z" fill="#E8C488"/>
<path d="M143.038 93.2734C140.004 93.5007 137.067 94.4432 134.467 96.0238C134.418 96.062 134.356 96.0792 134.295 96.0717C134.233 96.0642 134.177 96.0326 134.139 95.9838C134.101 95.935 134.084 95.8731 134.091 95.8116C134.099 95.7502 134.13 95.6942 134.179 95.656C136.835 93.1765 140.137 91.4959 143.705 90.8068C147.272 90.1178 150.962 90.4482 154.351 91.7603C157.739 93.0723 160.69 95.3128 162.863 98.2249C165.037 101.137 166.346 104.603 166.639 108.224C167.087 114.061 166.472 119.602 162.642 123.415C162.6 123.457 162.543 123.481 162.484 123.484C162.425 123.486 162.367 123.467 162.321 123.429C162.276 123.391 162.246 123.338 162.237 123.279C162.228 123.221 162.241 123.161 162.274 123.112C164.553 119.674 164.145 115.372 163.801 110.951C163.391 105.853 160.974 101.128 157.08 97.8125C153.186 94.4975 148.135 92.8648 143.038 93.2734Z" fill="#C16C37"/>
<path d="M135.339 67.0015C135.339 64.6751 135.184 62.3513 134.875 60.0456C132.376 59.4515 129.816 59.151 127.247 59.1502C106.108 59.1262 88.9663 79.2741 88.9663 104.131C88.9676 106.457 89.1199 108.781 89.422 111.087C91.9212 111.68 94.4809 111.981 97.0495 111.983C118.205 111.983 135.339 91.8346 135.339 67.0015Z" fill="#C16C37"/>
<path d="M119.508 65.4664C119.508 63.079 119.663 60.694 119.972 58.3267C122.539 57.7167 125.169 57.4081 127.807 57.4072C149.538 57.4072 167.16 78.0908 167.16 103.604C167.161 105.994 167.003 108.382 166.688 110.751C164.123 111.359 161.496 111.665 158.861 111.663C137.122 111.663 119.508 90.9871 119.508 65.4664Z" fill="#C16C37"/>
<path d="M113.871 123.28C116.671 123.28 118.94 121.01 118.94 118.211C118.94 115.411 116.671 113.142 113.871 113.142C111.072 113.142 108.802 115.411 108.802 118.211C108.802 121.01 111.072 123.28 113.871 123.28Z" fill="#194151"/>
<path d="M109.122 117.123L107.555 113.309L112.4 114.508L109.122 117.123Z" fill="#194151"/>
<path d="M140.343 123.28C143.143 123.28 145.412 121.01 145.412 118.211C145.412 115.411 143.143 113.142 140.343 113.142C137.544 113.142 135.274 115.411 135.274 118.211C135.274 121.01 137.544 123.28 140.343 123.28Z" fill="#194151"/>
<path d="M145.093 117.123L146.66 113.309L141.807 114.508L145.093 117.123Z" fill="#194151"/>
<path d="M149.73 80.3296C152.786 80.3189 155.8 81.0341 158.525 82.4163C158.577 82.4474 158.639 82.457 158.698 82.443C158.757 82.429 158.808 82.3925 158.84 82.3414C158.872 82.2903 158.883 82.2285 158.871 82.1693C158.858 82.1101 158.823 82.0582 158.773 82.0246C154.833 78.8199 149.789 77.2992 144.734 77.7927C139.68 78.2863 135.025 80.7544 131.78 84.6607C128.535 88.5669 126.963 93.5959 127.405 98.6548C127.846 103.714 130.267 108.394 134.139 111.679C134.16 111.701 134.186 111.719 134.213 111.731C134.241 111.743 134.271 111.75 134.302 111.751C134.332 111.751 134.362 111.746 134.391 111.735C134.419 111.724 134.445 111.708 134.467 111.687C134.489 111.666 134.507 111.641 134.519 111.613C134.532 111.585 134.538 111.555 134.539 111.525C134.54 111.494 134.535 111.464 134.524 111.435C134.513 111.407 134.496 111.381 134.475 111.359C132.269 108.511 130.906 105.1 130.543 101.516C130.179 97.9313 130.829 94.3168 132.419 91.0835C134.009 87.8503 136.474 85.1282 139.534 83.227C142.595 81.3258 146.127 80.3219 149.73 80.3296Z" fill="#C16C37"/>
<path d="M117.477 77.0838C120.351 78.0626 122.953 79.7062 125.072 81.8809C125.11 81.9297 125.166 81.9613 125.228 81.9688C125.289 81.9763 125.351 81.959 125.4 81.9209C125.449 81.8827 125.48 81.8267 125.488 81.7652C125.495 81.7038 125.478 81.6418 125.44 81.5931C122.734 77.3406 118.47 74.3173 113.561 73.171C108.653 72.0246 103.491 72.8464 99.181 75.4603C94.8713 78.0742 91.7568 82.2722 90.5049 87.1548C89.253 92.0373 89.9634 97.216 92.4838 101.581C92.5093 101.637 92.556 101.681 92.6137 101.703C92.6714 101.725 92.7354 101.722 92.7916 101.697C92.8478 101.672 92.8916 101.625 92.9133 101.567C92.9351 101.509 92.933 101.445 92.9076 101.389C91.7485 97.9743 91.5723 94.3024 92.3989 90.7923C93.2256 87.2821 95.022 84.0748 97.5832 81.5361C100.144 78.9973 103.367 77.2294 106.885 76.4337C110.402 75.638 114.072 75.8466 117.477 77.0358V77.0838Z" fill="#C16C37"/>
<path d="M111.969 91.4506C114.981 91.8883 117.847 93.0336 120.332 94.7926C120.378 94.8329 120.439 94.853 120.501 94.8485C120.562 94.844 120.619 94.8152 120.66 94.7686C120.7 94.7219 120.72 94.6612 120.716 94.5997C120.711 94.5382 120.682 94.4811 120.636 94.4408C118.161 91.776 114.984 89.8638 111.47 88.9239C107.957 87.9841 104.25 88.0548 100.775 89.128C97.2995 90.2011 94.1979 92.2331 91.8262 94.9904C89.4546 97.7477 87.9091 101.118 87.3676 104.715C86.5121 110.511 87.5355 116.38 91.1173 120.481C91.1577 120.519 91.2099 120.542 91.2651 120.546C91.3204 120.55 91.3753 120.534 91.4205 120.502C91.4657 120.47 91.4985 120.424 91.5132 120.37C91.5278 120.317 91.5236 120.26 91.5011 120.209C89.4703 116.62 90.1739 112.062 90.8295 107.673C92.3966 97.1512 101.415 89.8835 111.969 91.4506Z" fill="#C16C37"/>
<g style="mix-blend-mode:multiply" opacity="0.5">
<g style="mix-blend-mode:multiply" opacity="0.5">
<path d="M131.005 85.3902C139.111 86.0132 147.116 87.5857 154.855 90.0754C157.069 90.787 160.316 84.5907 161.731 82.9517L158.421 76.2197C160.02 74.3968 101.447 83.1596 101.447 83.1596C102.598 84.9985 104.133 86.7734 106.436 86.4056C114.556 85.0917 122.804 84.7508 131.005 85.3902Z" fill="#C16C37"/>
</g>
</g>
<g style="mix-blend-mode:multiply">
<g style="mix-blend-mode:multiply">
<path d="M138.369 60.7332C148.675 68.8003 155.471 82.5681 155.471 98.1827C155.471 123.04 138.305 143.188 117.134 143.188C113.349 143.185 109.593 142.533 106.028 141.261C112.057 146.091 119.539 148.745 127.264 148.792C148.435 148.792 165.601 128.644 165.601 103.787C165.601 83.4955 154.12 66.3218 138.369 60.7332Z" fill="#ECE9DC"/>
</g>
</g>
<path d="M128.359 81.9767C135.384 81.9717 142.385 82.7929 149.219 84.4233C150.15 84.6612 151.13 84.6247 152.04 84.3183C152.951 84.0119 153.754 83.4486 154.352 82.6963L160.54 74.3093C161.133 73.5118 161.395 72.5159 161.272 71.5295C161.148 70.5432 160.648 69.6428 159.876 69.0165C150.976 61.6534 139.778 57.6394 128.227 57.6716C116.676 57.7037 105.501 61.7799 96.6421 69.1924C95.8755 69.8193 95.3802 70.7179 95.2596 71.7009C95.139 72.6839 95.4022 73.6755 95.9945 74.4692L102.111 82.7603C102.71 83.5157 103.515 84.0805 104.43 84.3857C105.344 84.6909 106.327 84.7234 107.26 84.4792C114.169 82.8139 121.252 81.9739 128.359 81.9767Z" fill="#F8F6E8"/>
<g style="mix-blend-mode:multiply">
<g style="mix-blend-mode:multiply">
<path d="M129.422 81.9766C136.447 81.9715 143.448 82.7927 150.281 84.4231C151.212 84.661 152.192 84.6246 153.103 84.3182C154.014 84.0117 154.816 83.4484 155.414 82.6961L158.908 77.963C149.489 73.7188 138.963 72.5819 128.854 74.7169C121.114 76.2759 113.858 79.6612 107.691 84.591C107.904 84.5699 108.115 84.5325 108.323 84.4791C115.232 82.8138 122.315 81.9737 129.422 81.9766Z" fill="#ECE9DC"/>
</g>
</g>
<path d="M134.475 60.6931C156.582 60.6931 186.788 71.0869 207.168 74.157C213.148 75.0525 219.488 73.7413 222.894 70.863L233.04 51.6265C236.822 48.4285 235.974 44.175 231.017 41.5126C205.992 28.0886 171.981 19.8296 134.475 19.8296C96.6657 19.8296 62.3983 28.2326 37.3253 41.8484C32.4162 44.5108 31.5847 48.7483 35.3505 51.9383L43.6895 67.8008C47.1034 70.6871 53.4596 71.9983 59.456 71.0869C80.0517 67.9607 112.152 60.6931 134.475 60.6931Z" fill="#F8F6E8"/>
<path d="M128.638 63.436C140.679 63.436 152.136 67.5216 160.435 74.2136L161.051 73.4141C161.661 72.5997 161.932 71.5802 161.805 70.5704C161.678 69.5606 161.164 68.6394 160.371 68.0013C151.553 60.4082 140.275 56.2795 128.638 56.3843C115.998 56.3843 103.997 60.8856 95.6101 68.1772C94.8237 68.8186 94.3156 69.739 94.1919 70.7462C94.0683 71.7534 94.3386 72.7694 94.9465 73.582L96.4176 75.5728C96.5047 75.4685 96.5982 75.3697 96.6974 75.2769C105.537 67.5553 116.901 63.3425 128.638 63.436Z" fill="#194151"/>
<path d="M77.4534 38.9299L76.51 40.465C75.7442 39.9875 74.8895 39.6704 73.9976 39.533C73.1056 39.3956 72.1951 39.4406 71.3211 39.6654C67.5474 40.465 65.5965 43.9589 66.436 47.7966C67.2995 51.7942 70.5696 53.9449 74.2234 53.1454C76.0047 52.8427 77.5971 51.8557 78.6607 50.395L77.9092 46.9491L74.2554 47.7486L73.8876 46.0856L79.3723 44.8463L80.6675 50.7708C79.9966 51.8444 79.1076 52.765 78.0581 53.473C77.0085 54.1809 75.8219 54.6604 74.5752 54.8803C69.906 55.8957 65.5646 53.1853 64.4772 48.1963C63.4298 43.3992 66.0763 38.9059 70.9134 37.8585C72.0196 37.5886 73.1688 37.5443 74.2925 37.7284C75.4161 37.9125 76.4912 38.3211 77.4534 38.9299Z" fill="#F3C74A"/>
<path d="M91.2369 33.9249C92.3609 33.7248 93.5137 33.7539 94.6262 34.0104C95.7387 34.2669 96.7879 34.7455 97.7108 35.4175C98.6338 36.0896 99.4114 36.9411 99.997 37.9212C100.583 38.9012 100.964 39.9894 101.119 41.1206C101.333 42.241 101.32 43.3928 101.083 44.5085C100.845 45.6241 100.387 46.681 99.7355 47.6172C99.0838 48.5533 98.2516 49.3498 97.2879 49.9599C96.3241 50.57 95.2482 50.9815 94.1233 51.17C92.9983 51.3586 91.847 51.3205 90.737 51.058C89.627 50.7954 88.5806 50.3138 87.6593 49.6413C86.738 48.9688 85.9603 48.119 85.3719 47.1418C84.7836 46.1646 84.3964 45.0798 84.2331 43.9509C84.0068 42.8301 84.0103 41.6751 84.2433 40.5558C84.4764 39.4364 84.9341 38.376 85.5889 37.4387C86.2437 36.5014 87.0818 35.7067 88.0526 35.1027C89.0234 34.4987 90.1067 34.098 91.2369 33.9249ZM93.8113 49.2997C97.4811 48.684 99.7918 45.35 99.1362 41.4244C98.4805 37.4987 95.2025 35.1082 91.5407 35.7158C87.8789 36.3234 85.5683 39.7134 86.2159 43.5911C86.8635 47.4688 90.1495 49.9153 93.8113 49.2997Z" fill="#F3C74A"/>
<path d="M113.64 31.0786C114.776 30.9839 115.92 31.1192 117.002 31.4765C118.085 31.8337 119.085 32.4055 119.942 33.1578C120.798 33.9101 121.495 34.8274 121.989 35.8549C122.483 36.8823 122.765 37.9989 122.818 39.1378C122.955 40.2865 122.858 41.4511 122.533 42.5612C122.208 43.6714 121.661 44.7041 120.925 45.597C120.19 46.4899 119.281 47.2245 118.253 47.7565C117.226 48.2885 116.102 48.6068 114.948 48.6922C113.794 48.7777 112.635 48.6284 111.541 48.2535C110.446 47.8786 109.439 47.2859 108.58 46.511C107.721 45.7361 107.028 44.7952 106.543 43.7451C106.058 42.695 105.79 41.5574 105.757 40.4011C105.639 39.267 105.752 38.1209 106.088 37.0315C106.424 35.9421 106.977 34.9318 107.713 34.0613C108.449 33.1907 109.354 32.4778 110.372 31.9653C111.391 31.4527 112.502 31.1512 113.64 31.0786ZM114.783 46.6293C118.493 46.3575 121.107 43.2553 120.811 39.2817C120.516 35.3081 117.477 32.6297 113.768 32.8856C110.058 33.1414 107.459 36.3075 107.747 40.2332C108.035 44.1588 111.081 46.9092 114.783 46.6293Z" fill="#F3C74A"/>
<path d="M129.518 31.1111L132.956 31.4229C138.665 31.9346 141.639 35.3485 141.167 40.5854C140.671 46.1261 137.05 48.6446 131.461 48.1409L128.023 47.8371L129.518 31.1111ZM131.997 46.4539C135.994 46.8137 138.793 44.7749 139.192 40.4015C139.568 36.228 137.201 33.5576 133.188 33.2058L131.301 33.0379L130.118 46.294L131.997 46.4539Z" fill="#F3C74A"/>
<path d="M152.864 48.9562C153.35 49.1724 153.86 49.3307 154.383 49.4279C155.686 49.6438 156.59 49.0442 156.87 47.3652L158.972 34.8047L160.883 35.1245L158.741 47.9168C158.317 50.4753 156.654 51.5626 154.311 51.1709C153.638 51.0688 152.981 50.8751 152.36 50.5952L152.864 48.9562Z" fill="#F3C74A"/>
<path d="M174.835 37.4195C175.955 37.6282 177.022 38.0607 177.972 38.691C178.922 39.3213 179.735 40.1366 180.362 41.0881C180.99 42.0395 181.419 43.1077 181.625 44.2289C181.83 45.35 181.808 46.5011 181.559 47.6134C181.382 48.7536 180.977 49.8465 180.368 50.8263C179.759 51.8061 178.958 52.6526 178.013 53.3151C177.068 53.9775 175.999 54.4422 174.871 54.6813C173.742 54.9203 172.576 54.9288 171.444 54.7061C170.312 54.4835 169.237 54.0343 168.282 53.3856C167.328 52.7369 166.515 51.9021 165.891 50.9312C165.268 49.9603 164.847 48.8735 164.654 47.7359C164.461 46.5983 164.5 45.4335 164.769 44.3113C164.958 43.1885 165.372 42.1154 165.985 41.156C166.598 40.1966 167.398 39.3706 168.338 38.7274C169.277 38.0841 170.337 37.6368 171.453 37.412C172.569 37.1873 173.72 37.1899 174.835 37.4195ZM171.829 52.7143C175.474 53.4339 178.816 51.1153 179.584 47.2296C180.351 43.3439 178.129 39.93 174.483 39.2344C170.837 38.5388 167.495 40.8334 166.736 44.7271C165.976 48.6207 168.183 51.9707 171.829 52.6823V52.7143Z" fill="#F3C74A"/>
<path d="M188.587 40.5295L193.104 41.5289C196.222 42.2165 197.629 44.1993 197.054 46.7978C196.909 47.5403 196.56 48.2276 196.045 48.7826C195.531 49.3377 194.873 49.7384 194.144 49.9399C194.891 50.3994 195.47 51.0883 195.795 51.9038C196.119 52.7193 196.171 53.6178 195.942 54.4652C195.287 57.4154 192.744 58.6547 189.97 58.0311L184.957 56.9277L188.587 40.5295ZM190.01 56.2961C191.953 56.7278 193.52 56.0962 194.008 53.9855C194.495 51.8747 193.248 50.6675 191.345 50.2517L188.587 49.6361L187.244 55.6805L190.01 56.2961ZM191.745 48.6767C192.107 48.777 192.487 48.7993 192.858 48.742C193.23 48.6847 193.585 48.5491 193.9 48.3443C194.215 48.1394 194.483 47.87 194.687 47.5538C194.89 47.2375 195.024 46.8818 195.079 46.51C195.188 46.1552 195.218 45.7806 195.166 45.4131C195.113 45.0455 194.981 44.694 194.777 44.3839C194.573 44.0737 194.303 43.8124 193.986 43.6188C193.669 43.4252 193.313 43.304 192.944 43.2639L190.114 42.6323L188.907 48.045L191.745 48.6767Z" fill="#F3C74A"/>
<path d="M201.698 58.2788C202.039 58.3658 202.333 58.5831 202.515 58.8841C202.698 59.1851 202.755 59.5457 202.674 59.8883C202.593 60.2309 202.381 60.5281 202.084 60.7161C201.786 60.904 201.427 60.9676 201.083 60.8933C200.908 60.8556 200.743 60.7835 200.597 60.6812C200.451 60.5789 200.326 60.4485 200.231 60.2977C200.136 60.1468 200.071 59.9784 200.042 59.8024C200.012 59.6264 200.018 59.4462 200.059 59.2725C200.1 59.0988 200.175 58.935 200.28 58.7906C200.385 58.6463 200.518 58.5243 200.67 58.4318C200.823 58.3393 200.992 58.2781 201.169 58.2518C201.346 58.2256 201.526 58.2347 201.698 58.2788ZM204.017 44.0154L205.952 44.4711L202.914 56.6638L201.315 56.288L204.017 44.0154Z" fill="#F3C74A"/>
<g style="mix-blend-mode:multiply">
<path d="M90.3096 65.874L51.8127 71.0549C47.871 71.2548 46.0561 70.7671 45.9522 68.6564C45.8482 66.5536 49.0543 66.2018 52.9879 66.01L91.213 62.564C95.1467 62.3641 97.2574 61.4927 97.3614 63.6034C97.4813 65.7061 94.2432 65.6742 90.3096 65.874Z" fill="#ECE9DC"/>
</g>
<g style="mix-blend-mode:multiply">
<path d="M208.894 73.15L163.05 63.3319C158.477 62.0127 156.558 60.8534 157.141 58.8306C157.725 56.8078 161.523 57.7033 166.096 59.0225L211.029 70.3757C215.602 71.6949 218.313 71.6789 217.729 73.7017C217.145 75.7325 213.452 74.4692 208.894 73.15Z" fill="#ECE9DC"/>
</g>
</g>
<defs>
<clipPath id="clip0">
<rect width="266" height="126" fill="white"/>
</clipPath>
</defs>
</svg>
