<svg width="179" height="214" viewBox="0 0 179 214" fill="none" xmlns="http://www.w3.org/2000/svg">
<g clip-path="url(#clip0)">
<path d="M12.9766 35.5583L9.74121 36.7634L20.4428 65.4932L23.6782 64.288L12.9766 35.5583Z" fill="#C16C37"/>
<path d="M132.3 65.4811L135.282 67.2209L150.732 40.7401L147.75 39.0002L132.3 65.4811Z" fill="#C16C37"/>
<path d="M74.9706 103.556C62.1386 98.1864 47.9334 95.5112 35.2375 101.49C24.8734 106.4 16.2713 117.153 12.3005 130.263C11.1207 134.443 10.1671 138.683 9.44395 142.966C8.86098 146.094 8.27152 149.281 8.43346 152.494C8.64645 155.345 9.26142 158.152 10.2601 160.831C16.9255 180.004 32.1347 192.681 48.0759 198.31C64.0171 203.939 80.8393 203.492 97.3894 203.071C107.404 202.798 117.502 202.52 127.257 199.65C147.461 193.698 164.626 177.037 178.43 157.164C178.764 156.699 178.972 156.155 179.031 155.585C179.09 155.016 179 154.44 178.768 153.916C178.536 153.392 178.171 152.938 177.71 152.599C177.248 152.26 176.706 152.047 176.137 151.982H176.052C164.788 150.92 156.173 139.157 149.559 127.568C142.946 115.98 136.468 103.057 126.065 97.4998C122.081 95.4643 117.687 94.357 113.214 94.261C106.761 94.0116 100.334 95.1998 94.3967 97.7394" fill="#194151"/>
<g style="mix-blend-mode:multiply" opacity="0.42">
<g style="mix-blend-mode:multiply" opacity="0.42">
<path d="M86.4749 107.255C77.9958 101.49 113.804 176.94 115.313 184.195C118.092 197.565 129.855 196.917 135.458 178.449C140.277 162.586 141.087 155.461 138.574 132.245C137.414 121.538 130.276 113.253 123.546 107.585C121.02 105.519 118.003 104.14 114.788 103.582C110.183 102.703 105.429 103.015 100.978 104.489" fill="#194151"/>
</g>
</g>
<g style="mix-blend-mode:multiply" opacity="0.42">
<g style="mix-blend-mode:multiply" opacity="0.42">
<path d="M70.1258 109.062C60.8499 103.692 50.5571 101.017 41.4044 106.996C33.8905 111.906 27.6915 122.658 24.8219 135.769C23.9215 139.882 23.3386 144.19 22.7621 148.471C22.2427 151.62 21.9956 154.808 22.0236 158C22.1609 160.817 22.5952 163.611 23.3191 166.336C28.1319 185.51 39.1308 198.186 50.6543 203.815" fill="#194151"/>
</g>
</g>
<path d="M27.6847 77.7303C32.6932 77.7303 36.7533 73.6702 36.7533 68.6618C36.7533 63.6534 32.6932 59.5933 27.6847 59.5933C22.6763 59.5933 18.6162 63.6534 18.6162 68.6618C18.6162 73.6702 22.6763 77.7303 27.6847 77.7303Z" fill="#E8C488"/>
<path d="M54.4711 116.445L50.9017 118.286C48.9351 119.3 46.6462 119.491 44.5384 118.818C42.4307 118.144 40.6768 116.661 39.6627 114.694L19.9432 76.4558C19.692 75.9688 19.6446 75.4019 19.8114 74.8798C19.9782 74.3578 20.3455 73.9234 20.8326 73.6722L35.5592 66.0778C36.0463 65.8266 36.6132 65.7792 37.1352 65.946C37.6572 66.1128 38.0916 66.4801 38.3428 66.9672L58.0623 105.206C59.0765 107.172 59.2679 109.461 58.5944 111.569C57.9209 113.677 56.4377 115.431 54.4711 116.445Z" fill="#ADC4BE"/>
<path d="M38.593 66.7185C38.4684 66.4773 38.2976 66.2629 38.0901 66.0878C37.8827 65.9126 37.6428 65.78 37.3842 65.6976C37.1255 65.6152 36.8531 65.5846 36.5826 65.6075C36.3121 65.6304 36.0488 65.7063 35.8076 65.8311L21.1943 73.5717C20.593 73.8792 20.1381 74.4125 19.9293 75.0548C19.7204 75.6971 19.7747 76.396 20.0802 76.9983L20.1255 77.0825C20.1672 77.1567 20.2279 77.2184 20.3013 77.2613C20.3747 77.3043 20.4583 77.3269 20.5433 77.3269C20.6284 77.3269 20.7119 77.3043 20.7853 77.2613C20.8588 77.2184 20.9194 77.1567 20.9611 77.0825C21.1528 76.7766 21.4236 76.5281 21.7449 76.3635L36.7793 68.4221C37.0204 68.2973 37.2837 68.2214 37.5543 68.1985C37.8248 68.1756 38.0971 68.2062 38.3558 68.2886C38.6145 68.371 38.8544 68.5036 39.0618 68.6788C39.2692 68.8539 39.44 69.0683 39.5646 69.3095" fill="#194151"/>
<path d="M127.167 77.7303C132.175 77.7303 136.235 73.6702 136.235 68.6618C136.235 63.6534 132.175 59.5933 127.167 59.5933C122.158 59.5933 118.098 63.6534 118.098 68.6618C118.098 73.6702 122.158 77.7303 127.167 77.7303Z" fill="#E8C488"/>
<path d="M119.284 66.0675L134.005 73.659C134.492 73.9101 134.859 74.3445 135.026 74.8666C135.193 75.3886 135.145 75.9555 134.894 76.4426L115.174 114.681C114.16 116.648 112.406 118.131 110.299 118.804C108.191 119.478 105.902 119.286 103.935 118.272L100.366 116.432C98.3994 115.417 96.9162 113.663 96.2427 111.556C95.5693 109.448 95.7607 107.159 96.7749 105.192L116.491 66.9597C116.743 66.4726 117.177 66.1053 117.699 65.9385C118.221 65.7717 118.788 65.8191 119.275 66.0703L119.284 66.0675Z" fill="#ADC4BE"/>
<path d="M116.258 66.7186C116.511 66.2326 116.946 65.8665 117.468 65.7002C117.99 65.534 118.556 65.581 119.044 65.8311L133.657 73.5524C134.255 73.8633 134.706 74.398 134.911 75.04C135.116 75.682 135.059 76.379 134.752 76.979L134.732 77.0826C134.691 77.1567 134.63 77.2185 134.557 77.2614C134.483 77.3043 134.4 77.327 134.315 77.327C134.23 77.327 134.146 77.3043 134.073 77.2614C133.999 77.2185 133.938 77.1567 133.897 77.0826C133.705 76.7766 133.434 76.5282 133.113 76.3636L118.079 68.4221C117.592 68.1723 117.027 68.1254 116.506 68.2918C115.985 68.4581 115.551 68.8241 115.3 69.3096" fill="#194151"/>
<path d="M56.8533 91.2166H54.9101C48.4325 92.4538 44.0537 88.1592 42.823 81.6752L38.9365 71.4277C38.3512 68.3049 39.0245 65.0774 40.8095 62.449C42.5945 59.8207 45.3464 58.0048 48.4649 57.3974C51.5906 56.8106 54.8214 57.4847 57.4516 59.2725C60.0818 61.0603 61.8974 63.8165 62.5017 66.9388L64.445 77.1798C65.6887 83.6638 63.3373 89.9794 56.8533 91.2166Z" fill="#C16C37"/>
<g style="mix-blend-mode:multiply" opacity="0.49">
<path d="M56.8533 94.7792H54.9101C48.4325 96.0164 44.0537 91.7218 42.823 85.2378L38.9365 74.9904C38.3512 71.8676 39.0245 68.64 40.8095 66.0117C42.5945 63.3833 45.3464 61.5674 48.4649 60.96C51.5906 60.3732 54.8214 61.0473 57.4516 62.8351C60.0818 64.623 61.8974 67.3791 62.5017 70.5014L64.445 80.7424C65.6887 87.2264 63.3373 93.542 56.8533 94.7792Z" fill="#C0D5D0"/>
</g>
<g style="mix-blend-mode:multiply" opacity="0.55">
<path d="M45.0857 58.1056L44.2181 58.6361C38.5653 62.0919 36.7844 69.4759 40.2403 75.1286L47.0653 86.2922C50.5211 91.9449 57.9051 93.7258 63.5578 90.27L64.4255 89.7395C70.0782 86.2837 71.8591 78.8997 68.4033 73.247L61.5783 62.0834C58.1224 56.4307 50.7385 54.6497 45.0857 58.1056Z" fill="#C16C37"/>
</g>
<path d="M128.799 211.116C128.842 211.825 128.603 212.523 128.135 213.057C127.667 213.592 127.007 213.921 126.298 213.972H31.9533C31.2422 213.921 30.5803 213.59 30.1119 213.053C29.6435 212.515 29.4067 211.814 29.453 211.103C29.453 201.652 31.1307 172.095 31.1436 171.946C32.5233 157.806 35.7815 146.282 43.1141 136.916C43.6906 136.184 44.2736 135.471 44.8824 134.784C43.3446 131.56 42.552 128.031 42.5635 124.459V124.278C42.5635 112.482 50.9843 102.831 61.2123 102.831H95.025C105.285 102.831 113.68 112.482 113.68 124.278V124.459C113.685 127.43 113.136 130.376 112.061 133.146C113.071 134.208 114.041 135.32 114.969 136.482C122.6 146.023 126.732 158.214 127.277 172.471L128.799 211.116Z" fill="#C0D5D0"/>
<g style="mix-blend-mode:multiply" opacity="0.49">
<path d="M81.4807 133.813C91.197 129.874 107.184 108.013 107.184 108.013C109.344 110.238 111.031 112.877 112.144 115.771C113.257 118.666 113.773 121.755 113.661 124.854C113.617 127.687 113.08 130.491 112.074 133.139C113.11 134.176 80.8718 134.499 81.4807 133.813Z" fill="#C0D5D0"/>
</g>
<g style="mix-blend-mode:multiply" opacity="0.5">
<path d="M128.579 210.902C128.622 211.61 128.384 212.307 127.917 212.841C127.451 213.376 126.793 213.705 126.085 213.758H34.9785C54.9423 209.548 126.532 158 127.082 172.257L128.579 210.902Z" fill="#C0D5D0"/>
</g>
<path d="M118.195 195.667C118.231 196.219 118.046 196.762 117.682 197.179C117.318 197.595 116.804 197.85 116.252 197.888H42.8226C42.2697 197.847 41.7555 197.589 41.3916 197.171C41.0278 196.752 40.8437 196.207 40.8794 195.654C40.8794 188.302 42.1749 165.294 42.1749 165.209C43.2501 154.198 45.7829 145.233 51.4896 137.939C51.9365 137.369 52.3964 136.818 52.8693 136.281C51.7163 133.89 105.985 132.938 105.156 134.985C105.946 135.814 106.698 136.682 107.423 137.576C113.356 145.006 116.595 154.489 117.023 165.591L118.195 195.667Z" fill="#F8F6E8"/>
<path d="M88.8392 99.1062V111.737H67.5735V99.1062L57.6499 99.754V136.19H98.7692V99.754L88.8392 99.1062Z" fill="#F8F6E8"/>
<path d="M75.217 102.623C83.7738 102.623 84.5705 102.507 76.5125 106.296C68.4544 110.086 57.4944 106.62 51.5351 100.849C50.3627 99.7216 56.2508 97.9273 57.1511 96.5735C57.1511 96.5735 66.2262 102.623 75.217 102.623Z" fill="#194151"/>
<path d="M79.4015 101.976C70.8447 101.976 70.048 101.859 78.106 105.649C86.1641 109.438 97.7718 108.563 103.731 102.792C104.904 101.665 99.0155 97.9273 98.1151 96.5735C98.1151 96.5735 88.3923 101.976 79.4015 101.976Z" fill="#194151"/>
<path d="M76.5837 104.275C93.7375 104.275 107.643 87.9506 107.643 67.8132C107.643 47.6758 93.7375 31.3512 76.5837 31.3512C59.4299 31.3512 45.5239 47.6758 45.5239 67.8132C45.5239 87.9506 59.4299 104.275 76.5837 104.275Z" fill="#E8C488"/>
<path d="M89.1501 59.5025C86.692 59.6867 84.3124 60.4503 82.2062 61.7308C82.1667 61.7617 82.1165 61.7757 82.0667 61.7696C82.0169 61.7636 81.9715 61.7379 81.9406 61.6984C81.9097 61.6589 81.8957 61.6087 81.9018 61.5589C81.9079 61.5091 81.9335 61.4638 81.973 61.4328C84.1251 59.424 86.7998 58.0624 89.6904 57.5041C92.581 56.9459 95.5704 57.2136 98.3158 58.2766C101.061 59.3396 103.451 61.1548 105.212 63.5141C106.973 65.8734 108.034 68.6812 108.272 71.6155C108.634 76.3441 108.136 80.833 105.033 83.9228C104.999 83.9564 104.953 83.9761 104.905 83.9781C104.857 83.9801 104.81 83.9643 104.773 83.9338C104.736 83.9032 104.712 83.86 104.705 83.8126C104.698 83.7651 104.709 83.7167 104.735 83.6767C106.581 80.8913 106.251 77.4064 105.972 73.8244C105.64 69.6946 103.681 65.8658 100.527 63.18C97.3722 60.4942 93.2799 59.1714 89.1501 59.5025Z" fill="#C16C37"/>
<path d="M82.9124 38.2174C82.9127 36.3326 82.7872 34.45 82.5367 32.5819C80.5121 32.1006 78.4382 31.8571 76.3572 31.8565C59.2306 31.837 45.3428 48.1604 45.3428 68.299C45.3439 70.1835 45.4672 72.066 45.712 73.9345C47.7368 74.4151 49.8105 74.6586 51.8916 74.66C69.0311 74.66 82.9124 58.3366 82.9124 38.2174Z" fill="#C16C37"/>
<path d="M70.0869 36.9737C70.0867 35.0394 70.2122 33.1072 70.4626 31.1893C72.5425 30.695 74.6728 30.445 76.8106 30.4443C94.4165 30.4443 108.693 47.2017 108.693 67.8715C108.694 69.8081 108.566 71.7427 108.311 73.6624C106.233 74.1545 104.105 74.4023 101.969 74.4008C84.3569 74.4008 70.0869 57.65 70.0869 36.9737Z" fill="#C16C37"/>
<path d="M65.5198 83.8128C67.7879 83.8128 69.6266 81.9741 69.6266 79.706C69.6266 77.4379 67.7879 75.5992 65.5198 75.5992C63.2517 75.5992 61.4131 77.4379 61.4131 79.706C61.4131 81.9741 63.2517 83.8128 65.5198 83.8128Z" fill="#194151"/>
<path d="M61.6724 78.825L60.4028 75.7352L64.3282 76.7069L61.6724 78.825Z" fill="#194151"/>
<path d="M86.9671 83.8128C89.2352 83.8128 91.0739 81.9741 91.0739 79.706C91.0739 77.4379 89.2352 75.5992 86.9671 75.5992C84.699 75.5992 82.8604 77.4379 82.8604 79.706C82.8604 81.9741 84.699 83.8128 86.9671 83.8128Z" fill="#194151"/>
<path d="M90.8146 78.825L92.0842 75.7352L88.1523 76.7069L90.8146 78.825Z" fill="#194151"/>
<path d="M94.5716 49.0154C97.0471 49.0067 99.4892 49.5862 101.697 50.706C101.739 50.7312 101.789 50.739 101.837 50.7276C101.885 50.7163 101.926 50.6867 101.952 50.6453C101.978 50.6039 101.987 50.5538 101.977 50.5059C101.967 50.4579 101.938 50.4158 101.898 50.3886C98.7061 47.7923 94.619 46.5602 90.5242 46.9601C86.4294 47.36 82.6579 49.3595 80.029 52.5243C77.4 55.6891 76.1261 59.7634 76.4841 63.8621C76.842 67.9607 78.8028 71.7526 81.9404 74.4138C81.9574 74.4316 81.9778 74.446 82.0004 74.456C82.0229 74.466 82.0472 74.4714 82.0719 74.472C82.0965 74.4726 82.1211 74.4684 82.1441 74.4595C82.1671 74.4506 82.1881 74.4373 82.206 74.4203C82.2239 74.4032 82.2382 74.3829 82.2482 74.3603C82.2582 74.3378 82.2636 74.3135 82.2642 74.2888C82.2648 74.2641 82.2606 74.2396 82.2517 74.2166C82.2428 74.1936 82.2295 74.1725 82.2125 74.1547C80.425 71.8471 79.3211 69.084 79.0266 66.18C78.7321 63.2759 79.2587 60.3475 80.5465 57.728C81.8343 55.1085 83.8316 52.9031 86.3111 51.3628C88.7906 49.8225 91.6527 49.0092 94.5716 49.0154Z" fill="#C16C37"/>
<path d="M68.4415 46.3856C70.7701 47.1786 72.8785 48.5103 74.5951 50.2721C74.6261 50.3116 74.6714 50.3373 74.7212 50.3433C74.771 50.3494 74.8212 50.3354 74.8607 50.3045C74.9002 50.2736 74.9258 50.2282 74.9319 50.1784C74.938 50.1286 74.924 50.0785 74.8931 50.0389C72.7006 46.5937 69.2459 44.1443 65.2693 43.2156C61.2926 42.2868 57.1103 42.9527 53.6187 45.0704C50.127 47.1881 47.6037 50.5892 46.5895 54.5449C45.5752 58.5006 46.1508 62.6963 48.1927 66.2328C48.2133 66.2783 48.2512 66.3138 48.298 66.3314C48.3447 66.349 48.3966 66.3473 48.4421 66.3267C48.4876 66.3061 48.5231 66.2682 48.5407 66.2214C48.5583 66.1747 48.5567 66.1228 48.536 66.0773C47.597 63.3106 47.4542 60.3358 48.124 57.4919C48.7937 54.648 50.2491 52.0496 52.3241 49.9928C54.3992 47.936 57.0104 46.5036 59.8601 45.8589C62.7097 45.2143 65.6832 45.3833 68.4415 46.3468V46.3856Z" fill="#C16C37"/>
<path d="M63.9783 58.0257C66.419 58.3803 68.7409 59.3082 70.7538 60.7333C70.7916 60.7659 70.8408 60.7822 70.8906 60.7786C70.9404 60.7749 70.9868 60.7517 71.0194 60.7139C71.052 60.6761 71.0683 60.6269 71.0647 60.5771C71.061 60.5272 71.0378 60.4809 71 60.4483C68.9947 58.2893 66.4209 56.7401 63.5744 55.9787C60.7279 55.2172 57.7243 55.2745 54.909 56.144C52.0936 57.0134 49.5807 58.6597 47.6593 60.8936C45.7378 63.1274 44.4857 65.8582 44.047 68.7719C43.3539 73.4681 44.183 78.2226 47.0849 81.5456C47.1176 81.5764 47.1599 81.5949 47.2047 81.5981C47.2494 81.6012 47.2939 81.5887 47.3306 81.5628C47.3672 81.5368 47.3937 81.499 47.4056 81.4557C47.4175 81.4125 47.4141 81.3664 47.3958 81.3254C45.7506 78.417 46.3206 74.7248 46.8517 71.1686C48.1213 62.6442 55.428 56.7561 63.9783 58.0257Z" fill="#C16C37"/>
<path d="M71.7904 95.5629L65.4619 92.6674C64.4514 91.8707 64.5162 90.4975 65.8764 90.5299C65.8764 90.5299 72.6778 91.3849 76.3571 91.5468C79.5868 91.5614 82.8144 91.3775 86.0215 90.9962C87.317 90.9962 87.2328 92.3695 86.3519 93.1533L81.5715 95.4981C80.0539 96.2536 78.3837 96.6522 76.6885 96.6635C74.9932 96.6747 73.3179 96.2983 71.7904 95.5629Z" fill="#194151"/>
<g style="mix-blend-mode:multiply">
<path d="M75.3398 88.5219L73.5456 87.7058C73.2606 87.479 73.28 87.058 73.6622 87.0969C73.6622 87.0969 75.6054 87.3365 76.6354 87.3819C77.5489 87.3868 78.4618 87.3349 79.3689 87.2264C79.7446 87.2264 79.7122 87.6216 79.4596 87.8742L78.1122 88.5219C77.6806 88.7331 77.2065 88.8428 76.726 88.8428C76.2456 88.8428 75.7714 88.7331 75.3398 88.5219Z" fill="#BFB9A5"/>
</g>
<g style="mix-blend-mode:multiply" opacity="0.5">
<g style="mix-blend-mode:multiply" opacity="0.5">
<path d="M79.4015 53.1158C85.9687 53.6205 92.4539 54.8945 98.724 56.9116C100.518 57.4881 103.148 52.468 104.295 51.1401L101.613 45.686C102.908 44.2092 55.4541 51.3085 55.4541 51.3085C56.3869 52.7984 57.6305 54.2364 59.4961 53.9384C66.0749 52.8739 72.7573 52.5977 79.4015 53.1158Z" fill="#C16C37"/>
</g>
</g>
<g style="mix-blend-mode:multiply">
<g style="mix-blend-mode:multiply">
<path d="M76.94 104.353C85.5033 104.353 86.2936 104.236 78.2356 108.026C70.1775 111.815 59.224 108.35 53.2582 102.578C52.0922 101.451 57.3326 100.304 58.2265 98.9507C58.2265 98.9507 67.9557 104.353 76.94 104.353Z" fill="#ECE9DC"/>
</g>
</g>
<g style="mix-blend-mode:multiply">
<g style="mix-blend-mode:multiply">
<path d="M78.54 103.705C69.9767 103.705 69.1865 103.589 77.2445 107.378C85.3026 111.167 96.9103 110.293 102.87 104.521C104.036 103.394 98.1475 99.6568 97.2536 98.303C97.2536 98.303 87.5308 103.705 78.54 103.705Z" fill="#ECE9DC"/>
</g>
</g>
<path d="M80.3473 124.582H75.7288C74.5232 124.582 73.5459 125.56 73.5459 126.765V142.7C73.5459 143.906 74.5232 144.883 75.7288 144.883H80.3473C81.5529 144.883 82.5302 143.906 82.5302 142.7V126.765C82.5302 125.56 81.5529 124.582 80.3473 124.582Z" fill="#194151"/>
<path d="M67.8843 132.42V137.039C67.8843 138.244 68.8616 139.222 70.0672 139.222H86.0019C87.2075 139.222 88.1848 138.244 88.1848 137.039V132.42C88.1848 131.215 87.2075 130.237 86.0019 130.237H70.0672C68.8616 130.237 67.8843 131.215 67.8843 132.42Z" fill="#194151"/>
<g style="mix-blend-mode:multiply">
<g style="mix-blend-mode:multiply">
<path d="M85.3671 33.139C93.7167 39.6749 99.2226 50.8292 99.2226 63.4798C99.2226 83.6184 85.3153 99.9418 68.1628 99.9418C65.0966 99.9392 62.0534 99.4112 59.1655 98.3807C64.0496 102.294 70.1116 104.444 76.3698 104.483C93.5223 104.483 107.43 88.1592 107.43 68.0205C107.43 51.5806 98.1279 37.6668 85.3671 33.139Z" fill="#ECE9DC"/>
</g>
</g>
<path d="M77.2576 50.3498C82.9491 50.3457 88.6213 51.011 94.1575 52.3319C94.9117 52.5247 95.7056 52.4952 96.4435 52.2469C97.1814 51.9987 97.8317 51.5423 98.316 50.9328L103.33 44.1379C103.81 43.4917 104.023 42.6848 103.923 41.8857C103.822 41.0867 103.417 40.3572 102.792 39.8497C95.5813 33.8843 86.5093 30.6323 77.1509 30.6584C67.7924 30.6844 58.7386 33.9868 51.5612 39.9922C50.9401 40.5002 50.5389 41.2282 50.4412 42.0246C50.3434 42.821 50.5567 43.6243 51.0366 44.2674L55.9919 50.9846C56.477 51.5966 57.1297 52.0542 57.8705 52.3015C58.6112 52.5488 59.4079 52.5751 60.1634 52.3773C65.7613 51.0281 71.4994 50.3475 77.2576 50.3498Z" fill="#F8F6E8"/>
<g style="mix-blend-mode:multiply">
<g style="mix-blend-mode:multiply">
<path d="M78.1191 50.3498C83.8106 50.3457 89.4829 51.011 95.019 52.3319C95.7732 52.5246 96.5672 52.4951 97.305 52.2469C98.0429 51.9986 98.6932 51.5422 99.1775 50.9327L102.008 47.098C94.3767 43.6595 85.849 42.7384 77.6592 44.4682C71.3883 45.7312 65.5099 48.4739 60.5132 52.4679C60.6858 52.4509 60.8569 52.4205 61.0249 52.3772C66.6228 51.028 72.3609 50.3475 78.1191 50.3498Z" fill="#ECE9DC"/>
</g>
</g>
<path d="M82.2127 33.1066C100.123 33.1066 124.595 41.5274 141.106 44.0148C145.952 44.7403 151.088 43.678 153.848 41.3461L162.068 25.7611C165.132 23.1701 164.445 19.7241 160.429 17.5671C140.154 6.69129 112.599 0 82.2127 0C51.5805 0 23.8178 6.80788 3.50425 17.8391C-0.472949 19.9961 -1.14661 23.4292 1.9043 26.0138L8.66037 38.8652C11.4263 41.2036 16.5759 42.2659 21.4341 41.5274C38.1202 38.9947 64.1274 33.1066 82.2127 33.1066Z" fill="#F8F6E8"/>
<path d="M77.4841 35.3284C87.2393 35.3284 96.5216 38.6384 103.245 44.0601L103.744 43.4124C104.239 42.7526 104.458 41.9266 104.355 41.1085C104.252 40.2903 103.836 39.5441 103.193 39.0271C96.0489 32.8753 86.9118 29.5303 77.4841 29.6152C67.2432 29.6152 57.5204 33.2621 50.7255 39.1696C50.0884 39.6892 49.6767 40.4349 49.5765 41.2509C49.4763 42.0669 49.6953 42.8901 50.1878 43.5484L51.3797 45.1613C51.4503 45.0768 51.526 44.9968 51.6064 44.9216C58.7682 38.6657 67.9751 35.2526 77.4841 35.3284Z" fill="#194151"/>
<g style="mix-blend-mode:multiply">
<g style="mix-blend-mode:multiply">
<path d="M86.8958 126.636C79.8741 131.494 63.4795 134.247 63.4795 134.247H98.7691V115.3C95.3723 119.626 91.374 123.443 86.8958 126.636Z" fill="#ECE9DC"/>
</g>
</g>
<g style="mix-blend-mode:multiply">
<path d="M118.305 195.88C118.339 196.433 118.154 196.976 117.791 197.393C117.427 197.81 116.914 198.067 116.362 198.109H62.3589C81.6554 190.601 116.705 162.482 117.133 173.578L118.305 195.88Z" fill="#ECE9DC"/>
</g>
<path d="M72.8784 95.8674C74.2942 96.4004 75.8051 96.6341 77.3158 96.5538C78.8265 96.4735 80.3041 96.081 81.6555 95.401L81.7591 95.3492C80.5007 94.8033 79.1405 94.5317 77.7689 94.5525C76.0434 94.4873 74.3386 94.9457 72.8784 95.8674Z" fill="#E75F67"/>
<path d="M36.015 15.4748L35.2506 16.7185C34.6302 16.3317 33.9377 16.0748 33.2151 15.9635C32.4925 15.8521 31.7548 15.8886 31.0467 16.0708C27.9893 16.7185 26.4088 19.5492 27.089 22.6584C27.7885 25.8972 30.4378 27.6396 33.3981 26.9919C34.8412 26.7467 36.1314 25.947 36.9931 24.7636L36.3842 21.9718L33.424 22.6196L33.126 21.2722L37.5696 20.2682L38.6189 25.0681C38.0754 25.9379 37.3551 26.6837 36.5048 27.2573C35.6545 27.8309 34.6932 28.2193 33.6831 28.3975C29.9002 29.2202 26.3829 27.0243 25.502 22.9823C24.6534 19.0958 26.7975 15.4554 30.7164 14.6069C31.6126 14.3882 32.5437 14.3523 33.454 14.5014C34.3644 14.6506 35.2354 14.9816 36.015 15.4748Z" fill="#F3C74A"/>
<path d="M47.1823 11.4199C48.0929 11.2578 49.027 11.2813 49.9283 11.4891C50.8296 11.6969 51.6796 12.0847 52.4273 12.6292C53.1751 13.1736 53.8051 13.8636 54.2796 14.6576C54.7541 15.4515 55.0632 16.3332 55.1885 17.2496C55.3617 18.1574 55.3517 19.0906 55.1592 19.9944C54.9668 20.8983 54.5956 21.7546 54.0677 22.513C53.5397 23.2715 52.8655 23.9168 52.0847 24.4111C51.3039 24.9054 50.4322 25.2387 49.5208 25.3915C48.6094 25.5442 47.6766 25.5134 46.7773 25.3007C45.878 25.088 45.0302 24.6978 44.2838 24.1529C43.5374 23.6081 42.9073 22.9196 42.4307 22.1279C41.954 21.3362 41.6403 20.4573 41.508 19.5427C41.3247 18.6347 41.3275 17.6989 41.5163 16.7921C41.7051 15.8852 42.076 15.0261 42.6065 14.2667C43.1369 13.5073 43.816 12.8635 44.6025 12.3741C45.389 11.8848 46.2667 11.5602 47.1823 11.4199ZM49.2681 23.8762C52.2413 23.3774 54.1133 20.6763 53.5821 17.4958C53.0509 14.3153 50.3952 12.3785 47.4285 12.8708C44.4617 13.3631 42.5897 16.1096 43.1144 19.2512C43.6391 22.3928 46.3014 24.3749 49.2681 23.8762Z" fill="#F3C74A"/>
<path d="M65.3321 9.11385C66.2526 9.0371 67.1792 9.14672 68.0564 9.43615C68.9336 9.72558 69.7435 10.1889 70.4376 10.7984C71.1318 11.4078 71.6959 12.151 72.0964 12.9834C72.4968 13.8158 72.7253 14.7205 72.7683 15.6432C72.8794 16.5738 72.8007 17.5173 72.5371 18.4168C72.2735 19.3162 71.8303 20.1529 71.2344 20.8763C70.6385 21.5997 69.9022 22.1949 69.0699 22.6259C68.2377 23.0569 67.3267 23.3148 66.392 23.384C65.4573 23.4532 64.5183 23.3323 63.6316 23.0285C62.7449 22.7248 61.929 22.2445 61.233 21.6168C60.5371 20.989 59.9756 20.2267 59.5823 19.3759C59.1891 18.5251 58.9724 17.6035 58.9452 16.6666C58.85 15.7479 58.9414 14.8193 59.2138 13.9367C59.4862 13.0541 59.934 12.2356 60.5304 11.5303C61.1269 10.825 61.8596 10.2474 62.6847 9.83216C63.5098 9.41692 64.4102 9.1726 65.3321 9.11385ZM66.2584 21.7126C69.2639 21.4924 71.3821 18.9791 71.1424 15.7598C70.9027 12.5405 68.4413 10.3705 65.4357 10.5778C62.4301 10.7851 60.3249 13.3502 60.5581 16.5306C60.7913 19.7111 63.2593 21.9394 66.2584 21.7126Z" fill="#F3C74A"/>
<path d="M78.1967 9.13977L80.982 9.39239C85.6069 9.80696 88.0166 12.5729 87.6344 16.8156C87.2328 21.3046 84.2985 23.345 79.7707 22.9369L76.9854 22.6908L78.1967 9.13977ZM80.2047 21.5701C83.4434 21.8616 85.7106 20.2099 86.0345 16.6667C86.3389 13.2854 84.4215 11.1219 81.1698 10.8369L79.6411 10.7009L78.6825 21.4406L80.2047 21.5701Z" fill="#F3C74A"/>
<path d="M97.1107 23.5977C97.5046 23.7728 97.9177 23.9011 98.3415 23.9798C99.3973 24.1547 100.129 23.6689 100.356 22.3086L102.06 12.1324L103.608 12.3915L101.872 22.7556C101.528 24.8284 100.181 25.7093 98.2832 25.3919C97.7375 25.3092 97.2058 25.1523 96.7026 24.9256L97.1107 23.5977Z" fill="#F3C74A"/>
<path d="M114.911 14.2505C115.819 14.4197 116.683 14.7701 117.453 15.2807C118.222 15.7914 118.881 16.4519 119.389 17.2228C119.898 17.9936 120.246 18.8591 120.412 19.7674C120.579 20.6757 120.561 21.6083 120.359 22.5094C120.216 23.4332 119.888 24.3186 119.394 25.1124C118.9 25.9062 118.251 26.5921 117.486 27.1288C116.721 27.6655 115.855 28.042 114.94 28.2357C114.026 28.4293 113.081 28.4362 112.164 28.2558C111.247 28.0754 110.376 27.7115 109.603 27.1859C108.829 26.6604 108.171 25.984 107.665 25.1974C107.16 24.4109 106.819 23.5303 106.663 22.6087C106.507 21.687 106.538 20.7433 106.756 19.8342C106.909 18.9245 107.244 18.0551 107.741 17.2778C108.238 16.5005 108.886 15.8313 109.648 15.3102C110.409 14.789 111.267 14.4266 112.171 14.2445C113.076 14.0625 114.008 14.0645 114.911 14.2505ZM112.476 26.6421C115.429 27.225 118.137 25.3466 118.759 22.1985C119.381 19.0504 117.58 16.2845 114.626 15.7209C111.672 15.1574 108.965 17.0165 108.349 20.171C107.734 23.3256 109.522 26.0396 112.476 26.6161V26.6421Z" fill="#F3C74A"/>
<path d="M126.053 16.7703L129.712 17.58C132.239 18.137 133.379 19.7434 132.912 21.8486C132.795 22.4502 132.512 23.0071 132.095 23.4567C131.679 23.9064 131.145 24.2311 130.555 24.3943C131.16 24.7666 131.629 25.3247 131.892 25.9854C132.155 26.6461 132.197 27.374 132.012 28.0606C131.481 30.4508 129.421 31.4548 127.173 30.9496L123.112 30.0557L126.053 16.7703ZM127.206 29.544C128.78 29.8937 130.049 29.382 130.444 27.6719C130.84 25.9619 129.829 24.9838 128.287 24.6469L126.053 24.1482L124.964 29.0452L127.206 29.544ZM128.611 23.3709C128.905 23.4522 129.212 23.4702 129.513 23.4238C129.814 23.3774 130.102 23.2675 130.357 23.1016C130.613 22.9356 130.83 22.7173 130.994 22.4611C131.159 22.2049 131.267 21.9167 131.312 21.6155C131.401 21.328 131.425 21.0246 131.383 20.7268C131.34 20.429 131.233 20.1442 131.067 19.8929C130.902 19.6416 130.683 19.43 130.427 19.2731C130.17 19.1162 129.882 19.0181 129.583 18.9856L127.29 18.4739L126.312 22.8591L128.611 23.3709Z" fill="#F3C74A"/>
<path d="M136.676 31.1504C136.952 31.2208 137.19 31.3969 137.338 31.6408C137.485 31.8846 137.532 32.1768 137.466 32.4543C137.401 32.7319 137.229 32.9727 136.988 33.125C136.747 33.2772 136.456 33.3288 136.177 33.2685C136.036 33.238 135.902 33.1796 135.783 33.0967C135.665 33.0139 135.564 32.9082 135.487 32.786C135.41 32.6637 135.358 32.5273 135.334 32.3847C135.31 32.2421 135.315 32.0962 135.348 31.9555C135.381 31.8147 135.442 31.682 135.527 31.565C135.612 31.4481 135.719 31.3493 135.843 31.2743C135.967 31.1993 136.104 31.1498 136.247 31.1285C136.39 31.1072 136.536 31.1147 136.676 31.1504ZM138.554 19.5945L140.122 19.9637L137.66 29.8419L136.365 29.5375L138.554 19.5945Z" fill="#F3C74A"/>
<g style="mix-blend-mode:multiply">
<path d="M46.431 37.3041L15.2417 41.5015C12.0483 41.6634 10.5779 41.2683 10.4937 39.5582C10.4095 37.8546 13.007 37.5696 16.1939 37.4142L47.163 34.6224C50.3499 34.4604 52.06 33.7544 52.1442 35.4644C52.2414 37.168 49.618 37.1421 46.431 37.3041Z" fill="#ECE9DC"/>
</g>
<g style="mix-blend-mode:multiply">
<path d="M142.506 43.1987L105.364 35.2443C101.658 34.1755 100.104 33.2362 100.577 31.5974C101.05 29.9586 104.126 30.6841 107.831 31.7529L144.235 40.951C147.94 42.0197 150.136 42.0068 149.663 43.6456C149.191 45.2909 146.198 44.2674 142.506 43.1987Z" fill="#ECE9DC"/>
</g>
</g>
<defs>
<clipPath id="clip0">
<rect width="179" height="213.972" fill="white"/>
</clipPath>
</defs>
</svg>
