<svg width="179" height="214" viewBox="0 0 179 214" fill="none" xmlns="http://www.w3.org/2000/svg"><g clip-path="url(#clip0)"><path d="M12.977 35.558L9.74 36.763l10.702 28.73 3.235-1.205-10.701-28.73zM132.3 65.481l2.982 1.74 15.45-26.48L147.75 39 132.3 65.48z" fill="#C16C37"/><path d="M74.97 103.556c-12.831-5.37-27.037-8.045-39.733-2.066-10.364 4.91-18.966 15.663-22.937 28.773-1.18 4.18-2.133 8.42-2.856 12.703-.583 3.128-1.172 6.315-1.01 9.528a30.34 30.34 0 0 0 1.826 8.337c6.665 19.173 21.875 31.85 37.816 37.479 15.941 5.629 32.763 5.182 49.313 4.761 10.015-.273 20.113-.551 29.868-3.421 20.204-5.952 37.369-22.613 51.173-42.486a3.288 3.288 0 0 0-.72-4.565 3.29 3.29 0 0 0-1.573-.617h-.085c-11.264-1.062-19.879-12.825-26.493-24.414-6.613-11.588-13.091-24.511-23.494-30.068a29.645 29.645 0 0 0-12.851-3.239 43.568 43.568 0 0 0-18.817 3.478" fill="#194151"/><path d="M86.475 107.255c-8.48-5.765 27.329 69.685 28.838 76.94 2.779 13.37 14.542 12.722 20.145-5.746 4.819-15.863 5.629-22.988 3.116-46.204-1.16-10.707-8.298-18.992-15.028-24.66a18.954 18.954 0 0 0-8.758-4.003 27.518 27.518 0 0 0-13.81.907M70.126 109.062c-9.276-5.37-19.569-8.045-28.722-2.066-7.514 4.91-13.713 15.662-16.582 28.773-.9 4.113-1.483 8.421-2.06 12.702a55.557 55.557 0 0 0-.738 9.529 40.064 40.064 0 0 0 1.295 8.336c4.813 19.174 15.812 31.85 27.335 37.479" fill="#194151" opacity=".42"/><path d="M27.685 77.73a9.069 9.069 0 1 0 0-18.137 9.069 9.069 0 0 0 0 18.137z" fill="#E8C488"/><path d="M54.471 116.445l-3.57 1.841a8.346 8.346 0 0 1-11.238-3.592l-19.72-38.238a2.066 2.066 0 0 1 .89-2.784l14.726-7.594a2.066 2.066 0 0 1 2.784.89l19.72 38.238a8.342 8.342 0 0 1-3.592 11.239z" fill="#ADC4BE"/><path d="M38.593 66.719a2.066 2.066 0 0 0-2.785-.888l-14.614 7.74a2.552 2.552 0 0 0-1.114 3.427l.046.084a.479.479 0 0 0 .835 0c.192-.305.463-.554.784-.718l15.034-7.942a2.064 2.064 0 0 1 2.786.888" fill="#194151"/><path d="M127.167 77.73a9.068 9.068 0 0 0 9.068-9.068 9.069 9.069 0 1 0-9.068 9.069z" fill="#E8C488"/><path d="M119.284 66.067l14.721 7.592a2.066 2.066 0 0 1 .889 2.784l-19.72 38.238a8.34 8.34 0 0 1-11.239 3.591l-3.569-1.84a8.345 8.345 0 0 1-3.591-11.24L116.49 66.96a2.07 2.07 0 0 1 2.784-.89l.009-.002z" fill="#ADC4BE"/><path d="M116.258 66.719a2.074 2.074 0 0 1 2.786-.888l14.613 7.721a2.552 2.552 0 0 1 1.095 3.427l-.02.104a.475.475 0 0 1-.659.178.47.47 0 0 1-.176-.178 2.007 2.007 0 0 0-.784-.72l-15.034-7.94a2.067 2.067 0 0 0-2.779.887" fill="#194151"/><path d="M56.853 91.217H54.91c-6.477 1.237-10.856-3.058-12.087-9.542l-3.886-10.247a12.035 12.035 0 0 1 9.528-14.03 12.036 12.036 0 0 1 14.037 9.54l1.943 10.242c1.244 6.484-1.108 12.8-7.592 14.037z" fill="#C16C37"/><path d="M56.853 94.78H54.91c-6.477 1.236-10.856-3.058-12.087-9.542L38.937 74.99a12.035 12.035 0 0 1 9.528-14.03 12.036 12.036 0 0 1 14.037 9.541l1.943 10.241c1.244 6.484-1.108 12.8-7.592 14.037z" fill="#C0D5D0" opacity=".49"/><path d="M45.086 58.106l-.868.53c-5.653 3.456-7.434 10.84-3.978 16.493l6.825 11.163c3.456 5.653 10.84 7.434 16.493 3.978l.867-.53c5.653-3.456 7.434-10.84 3.978-16.493l-6.825-11.164c-3.456-5.652-10.84-7.433-16.492-3.977z" fill="#C16C37" opacity=".55"/><path d="M128.799 211.116a2.698 2.698 0 0 1-2.501 2.856H31.953a2.7 2.7 0 0 1-2.5-2.869c0-9.451 1.678-39.008 1.69-39.157 1.38-14.14 4.639-25.664 11.971-35.03a47.732 47.732 0 0 1 1.768-2.132 23.805 23.805 0 0 1-2.319-10.325v-.181c0-11.796 8.421-21.447 18.65-21.447h33.812c10.26 0 18.655 9.651 18.655 21.447v.181a23.9 23.9 0 0 1-1.619 8.687 51.218 51.218 0 0 1 2.908 3.336c7.631 9.541 11.763 21.732 12.308 35.989l1.522 38.645z" fill="#C0D5D0"/><path d="M81.48 133.813c9.717-3.939 25.704-25.8 25.704-25.8a22.98 22.98 0 0 1 6.477 16.841 24.397 24.397 0 0 1-1.587 8.285c1.036 1.037-31.202 1.36-30.593.674z" fill="#C0D5D0" opacity=".49"/><path d="M128.579 210.902a2.698 2.698 0 0 1-2.494 2.856H34.979c19.963-4.21 91.553-55.758 92.103-41.501l1.497 38.645z" fill="#C0D5D0" opacity=".5"/><path d="M118.195 195.667a2.092 2.092 0 0 1-1.943 2.221h-73.43a2.104 2.104 0 0 1-1.943-2.234c0-7.352 1.296-30.36 1.296-30.445 1.075-11.011 3.608-19.976 9.315-27.27.447-.57.906-1.121 1.38-1.658-1.154-2.391 53.115-3.343 52.286-1.296.79.829 1.542 1.697 2.267 2.591 5.933 7.43 9.172 16.913 9.6 28.015l1.172 30.076z" fill="#F8F6E8"/><path d="M88.84 99.106v12.631H67.572v-12.63l-9.923.647v36.436h41.12V99.754l-9.93-.648z" fill="#F8F6E8"/><path d="M75.217 102.623c8.557 0 9.353-.116 1.296 3.673-8.059 3.79-19.019.324-24.978-5.447-1.172-1.127 4.716-2.922 5.616-4.276 0 0 9.075 6.05 18.066 6.05z" fill="#194151"/><path d="M79.401 101.976c-8.556 0-9.353-.117-1.295 3.673 8.058 3.789 19.666 2.914 25.625-2.857 1.173-1.127-4.715-4.865-5.616-6.219 0 0-9.723 5.403-18.713 5.403z" fill="#194151"/><path d="M76.584 104.275c17.153 0 31.059-16.324 31.059-36.462 0-20.137-13.906-36.462-31.06-36.462-17.153 0-31.06 16.325-31.06 36.462 0 20.138 13.907 36.462 31.06 36.462z" fill="#E8C488"/><path d="M89.15 59.502a15.613 15.613 0 0 0-6.944 2.229.19.19 0 1 1-.233-.298 15.663 15.663 0 0 1 26.299 10.182c.362 4.73-.136 9.218-3.239 12.308a.194.194 0 0 1-.298-.246c1.846-2.786 1.516-6.27 1.237-9.853A15.626 15.626 0 0 0 89.15 59.502zM82.912 38.217c0-1.884-.125-3.767-.375-5.635a26.752 26.752 0 0 0-6.18-.726C59.231 31.838 45.343 48.16 45.343 68.3c0 1.884.124 3.767.369 5.635 2.025.481 4.098.725 6.18.726 17.14 0 31.02-16.323 31.02-36.443z" fill="#C16C37"/><path d="M70.087 36.974c0-1.935.125-3.867.376-5.785 2.08-.494 4.21-.744 6.348-.745 17.605 0 31.882 16.758 31.882 37.427a43.808 43.808 0 0 1-.382 5.791c-2.078.492-4.206.74-6.342.739-17.612 0-31.882-16.751-31.882-37.427z" fill="#C16C37"/><path d="M65.52 83.813a4.107 4.107 0 1 0 0-8.214 4.107 4.107 0 0 0 0 8.214z" fill="#194151"/><path d="M61.672 78.825l-1.27-3.09 3.926.972-2.656 2.118zM86.967 83.813a4.107 4.107 0 1 0 0-8.214 4.107 4.107 0 0 0 0 8.214z" fill="#194151"/><path d="M90.815 78.825l1.27-3.09-3.933.972 2.663 2.118z" fill="#194151"/><path d="M94.572 49.015a15.63 15.63 0 0 1 7.125 1.691.187.187 0 0 0 .28-.2.19.19 0 0 0-.079-.117A15.619 15.619 0 0 0 81.94 74.414a.189.189 0 0 0 .308-.054.187.187 0 0 0-.035-.205 15.591 15.591 0 0 1 12.359-25.14zM68.442 46.386a15.624 15.624 0 0 1 6.153 3.886.19.19 0 0 0 .298-.233 15.617 15.617 0 0 0-26.7 16.194.188.188 0 0 0 .343-.156 15.592 15.592 0 0 1 19.906-19.73v.039z" fill="#C16C37"/><path d="M63.978 58.026a15.61 15.61 0 0 1 6.776 2.707.189.189 0 0 0 .246-.285 15.656 15.656 0 0 0-26.953 8.324c-.693 4.696.136 9.45 3.038 12.774a.195.195 0 0 0 .32-.09.194.194 0 0 0-.01-.13c-1.644-2.909-1.074-6.601-.543-10.157 1.27-8.525 8.576-14.413 17.126-13.143z" fill="#C16C37"/><path d="M71.79 95.563l-6.328-2.896c-1.01-.796-.946-2.17.414-2.137 0 0 6.802.855 10.481 1.017 3.23.014 6.457-.17 9.665-.55 1.295 0 1.21 1.373.33 2.156l-4.78 2.345a11.123 11.123 0 0 1-9.782.065z" fill="#194151"/><path d="M75.34 88.522l-1.794-.816c-.285-.227-.266-.648.116-.61 0 0 1.943.24 2.973.286.914.005 1.827-.047 2.734-.156.376 0 .343.396.09.648l-1.347.648a3.154 3.154 0 0 1-2.772 0z" fill="#BFB9A5"/><path d="M79.401 53.116a84.15 84.15 0 0 1 19.323 3.796c1.794.576 4.424-4.444 5.571-5.772l-2.682-5.454c1.295-1.477-46.159 5.623-46.159 5.623.933 1.49 2.176 2.927 4.042 2.63a83.823 83.823 0 0 1 19.905-.823z" fill="#C16C37" opacity=".5"/><path d="M76.94 104.353c8.563 0 9.354-.117 1.296 3.673-8.059 3.789-19.012.324-24.978-5.448-1.166-1.127 4.075-2.274 4.968-3.627 0 0 9.73 5.402 18.714 5.402z" fill="#ECE9DC"/><path d="M78.54 103.705c-8.563 0-9.354-.116-1.296 3.673 8.059 3.789 19.666 2.915 25.626-2.857 1.166-1.127-4.723-4.864-5.616-6.218 0 0-9.723 5.402-18.714 5.402z" fill="#ECE9DC"/><path d="M80.347 124.582H75.73a2.183 2.183 0 0 0-2.183 2.183V142.7c0 1.206.977 2.183 2.183 2.183h4.618a2.183 2.183 0 0 0 2.183-2.183v-15.935a2.183 2.183 0 0 0-2.183-2.183z" fill="#194151"/><path d="M67.884 132.42v4.619c0 1.205.978 2.183 2.183 2.183h15.935a2.183 2.183 0 0 0 2.183-2.183v-4.619a2.183 2.183 0 0 0-2.183-2.183H70.067a2.183 2.183 0 0 0-2.183 2.183z" fill="#194151"/><path d="M85.367 33.139c8.35 6.536 13.856 17.69 13.856 30.34 0 20.14-13.908 36.463-31.06 36.463a26.84 26.84 0 0 1-8.997-1.561 27.791 27.791 0 0 0 17.204 6.102c17.152 0 31.06-16.324 31.06-36.463 0-16.44-9.302-30.353-22.063-34.881z" fill="#ECE9DC"/><path d="M77.258 50.35a72.594 72.594 0 0 1 16.9 1.982 4.035 4.035 0 0 0 4.158-1.4l5.014-6.794c.48-.646.693-1.453.593-2.252a3.128 3.128 0 0 0-1.131-2.036 40.05 40.05 0 0 0-51.23.142 3.116 3.116 0 0 0-.525 4.275l4.955 6.718a4.022 4.022 0 0 0 4.171 1.392 72.831 72.831 0 0 1 17.095-2.027z" fill="#F8F6E8"/><path d="M78.12 50.35a72.593 72.593 0 0 1 16.899 1.982 4.036 4.036 0 0 0 4.158-1.4l2.831-3.834a39.434 39.434 0 0 0-24.349-2.63 40.16 40.16 0 0 0-17.146 8c.173-.017.344-.048.512-.09a72.831 72.831 0 0 1 17.094-2.028z" fill="#ECE9DC"/><path d="M82.213 33.107c17.91 0 42.382 8.42 58.893 10.908 4.846.725 9.982-.337 12.742-2.669l8.22-15.585c3.064-2.59 2.377-6.037-1.639-8.194C140.154 6.691 112.599 0 82.213 0 51.58 0 23.818 6.808 3.504 17.84c-3.977 2.156-4.65 5.59-1.6 8.174L8.66 38.865c2.766 2.339 7.916 3.4 12.774 2.662 16.686-2.532 42.693-8.42 60.779-8.42z" fill="#F8F6E8"/><path d="M77.484 35.328c9.755 0 19.038 3.31 25.761 8.732l.499-.648a3.177 3.177 0 0 0-.551-4.385 38.863 38.863 0 0 0-25.709-9.412c-10.24 0-19.964 3.647-26.758 9.555a3.187 3.187 0 0 0-.538 4.378l1.192 1.613c.07-.084.146-.164.226-.24a38.865 38.865 0 0 1 25.878-9.593z" fill="#194151"/><path d="M86.896 126.636c-7.022 4.858-23.416 7.611-23.416 7.611h35.29V115.3a57.645 57.645 0 0 1-11.874 11.336zM118.305 195.88a2.107 2.107 0 0 1-1.943 2.229H62.359c19.296-7.508 54.346-35.627 54.774-24.531l1.172 22.302z" fill="#ECE9DC"/><path d="M72.878 95.867a10.946 10.946 0 0 0 8.778-.466l.103-.052a9.658 9.658 0 0 0-3.99-.797 8.557 8.557 0 0 0-4.89 1.315z" fill="#E75F67"/><path d="M36.015 15.475l-.764 1.243a5.402 5.402 0 0 0-4.204-.647c-3.058.647-4.638 3.478-3.958 6.587.7 3.24 3.349 4.982 6.31 4.334a5.61 5.61 0 0 0 3.594-2.228l-.609-2.792-2.96.648-.298-1.348 4.444-1.004 1.049 4.8a7.32 7.32 0 0 1-4.936 3.33c-3.783.822-7.3-1.374-8.181-5.416-.849-3.886 1.296-7.527 5.214-8.375a6.866 6.866 0 0 1 5.299.868zM47.182 11.42a6.867 6.867 0 0 1 8.006 5.83 6.936 6.936 0 0 1-10.904 6.903 6.936 6.936 0 0 1-2.776-4.61 6.847 6.847 0 0 1 5.674-8.123zm2.086 12.456c2.973-.499 4.845-3.2 4.314-6.38-.531-3.18-3.187-5.117-6.154-4.625-2.966.492-4.838 3.239-4.314 6.38.525 3.142 3.187 5.124 6.154 4.625zM65.332 9.114a6.872 6.872 0 0 1 7.436 6.53 6.938 6.938 0 1 1-13.823 1.023 6.86 6.86 0 0 1 6.387-7.553zm.926 12.599c3.006-.22 5.124-2.734 4.884-5.953-.24-3.22-2.7-5.39-5.706-5.182-3.006.207-5.111 2.772-4.878 5.953.233 3.18 2.701 5.408 5.7 5.182zM78.197 9.14l2.785.252c4.625.415 7.035 3.18 6.652 7.424-.401 4.489-3.335 6.529-7.863 6.12l-2.786-.245L78.197 9.14zm2.008 12.43c3.238.292 5.506-1.36 5.83-4.903.304-3.382-1.614-5.545-4.865-5.83L79.64 10.7l-.959 10.74 1.523.13zM97.11 23.598c.395.175.808.303 1.231.382 1.056.175 1.788-.311 2.015-1.671l1.704-10.177 1.548.26-1.736 10.364c-.344 2.072-1.691 2.953-3.589 2.636a6.057 6.057 0 0 1-1.58-.466l.408-1.328zM114.911 14.25a6.88 6.88 0 0 1 4.478 2.973 6.862 6.862 0 0 1 .97 5.287 6.933 6.933 0 0 1-5.419 5.726 6.939 6.939 0 0 1-8.184-8.402 6.856 6.856 0 0 1 2.892-4.524 6.863 6.863 0 0 1 5.263-1.06zm-2.435 12.392c2.953.583 5.661-1.295 6.283-4.444.622-3.148-1.179-5.913-4.133-6.477-2.954-.564-5.661 1.296-6.277 4.45-.615 3.155 1.173 5.869 4.127 6.445v.026zM126.053 16.77l3.659.81c2.527.557 3.667 2.163 3.2 4.269a3.295 3.295 0 0 1-2.357 2.546 3.302 3.302 0 0 1 1.457 3.666c-.531 2.39-2.591 3.394-4.839 2.889l-4.061-.894 2.941-13.286zm1.153 12.774c1.574.35 2.843-.162 3.238-1.872.396-1.71-.615-2.688-2.157-3.025l-2.234-.499-1.089 4.897 2.242.499zm1.405-6.173a2.152 2.152 0 0 0 2.701-1.755 2.04 2.04 0 0 0-1.729-2.63l-2.293-.512-.978 4.385 2.299.512zM136.676 31.15a1.09 1.09 0 0 1 .312 1.975 1.088 1.088 0 1 1-.312-1.975zm1.878-11.555l1.568.369-2.462 9.878-1.295-.304 2.189-9.944z" fill="#F3C74A"/><path d="M46.431 37.304l-31.19 4.197c-3.193.162-4.663-.233-4.747-1.943-.085-1.703 2.513-1.988 5.7-2.144l30.969-2.792c3.187-.162 4.897-.868 4.981.842.097 1.704-2.526 1.678-5.713 1.84zM142.506 43.199l-37.142-7.955c-3.706-1.069-5.26-2.008-4.787-3.647.473-1.638 3.549-.913 7.254.156l36.404 9.198c3.705 1.069 5.901 1.056 5.428 2.695-.472 1.645-3.465.621-7.157-.447z" fill="#ECE9DC"/></g><defs><clipPath id="clip0"><path fill="#fff" d="M0 0h179v213.972H0z"/></clipPath></defs></svg>