<svg width="266" height="126" viewBox="0 0 266 126" fill="none" xmlns="http://www.w3.org/2000/svg"><g clip-path="url(#clip0)"><path d="M49.017 63.719l-3.993 1.488 13.209 35.461 3.993-1.488L49.017 63.72zM196.298 100.653l3.681 2.147 19.069-32.685-3.681-2.148-19.069 32.686z" fill="#C16C37"/><path d="M67.171 115.772c6.182 0 11.194-5.011 11.194-11.193 0-6.182-5.012-11.194-11.194-11.194-6.182 0-11.193 5.012-11.193 11.194 0 6.182 5.011 11.193 11.193 11.193z" fill="#E8C488"/><path d="M100.234 163.557l-4.406 2.272a10.298 10.298 0 0 1-13.872-4.432l-24.34-47.198a2.55 2.55 0 0 1 1.098-3.436l18.177-9.374a2.55 2.55 0 0 1 3.436 1.098l24.339 47.198a10.298 10.298 0 0 1-4.432 13.872z" fill="#ADC4BE"/><path d="M80.635 102.18a2.555 2.555 0 0 0-2.481-1.371 2.544 2.544 0 0 0-.957.276l-18.037 9.554a3.152 3.152 0 0 0-1.375 4.23l.056.104a.593.593 0 0 0 1.031 0c.237-.378.571-.685.968-.888l18.557-9.802a2.545 2.545 0 0 1 2.817.317c.256.216.467.481.62.779" fill="#194151"/><path d="M189.962 115.772c6.182 0 11.193-5.011 11.193-11.193 0-6.182-5.011-11.194-11.193-11.194-6.182 0-11.193 5.012-11.193 11.194 0 6.182 5.011 11.193 11.193 11.193z" fill="#E8C488"/><path d="M180.232 101.377l18.17 9.37a2.55 2.55 0 0 1 1.098 3.436l-24.34 47.198a10.3 10.3 0 0 1-13.872 4.432l-4.406-2.272a10.29 10.29 0 0 1-5.089-6.018 10.293 10.293 0 0 1 .656-7.854l24.336-47.191a2.553 2.553 0 0 1 3.436-1.098l.011-.003z" fill="#ADC4BE"/><path d="M176.498 102.18a2.557 2.557 0 0 1 3.438-1.095l18.037 9.53a3.15 3.15 0 0 1 1.351 4.23l-.024.127a.583.583 0 0 1-.516.302.587.587 0 0 1-.515-.302 2.475 2.475 0 0 0-.968-.887l-18.557-9.802a2.553 2.553 0 0 0-3.43 1.095" fill="#194151"/><path d="M103.174 132.418h-2.398c-7.996 1.527-13.4-3.773-14.92-11.777l-4.796-12.648a14.855 14.855 0 0 1 11.76-17.318 14.857 14.857 0 0 1 17.326 11.777l2.399 12.641c1.535 8.003-1.368 15.798-9.371 17.325z" fill="#C16C37"/><path d="M103.174 136.815h-2.398c-7.996 1.527-13.4-3.773-14.92-11.777L81.06 112.39a14.854 14.854 0 0 1 11.76-17.318 14.857 14.857 0 0 1 17.326 11.777l2.399 12.641c1.535 8.003-1.368 15.798-9.371 17.325z" fill="#C0D5D0" opacity=".49"/><path d="M88.649 91.55l-1.07.654c-6.978 4.266-9.176 13.38-4.91 20.357l8.423 13.779c4.266 6.977 13.38 9.176 20.357 4.91l1.071-.655c6.977-4.265 9.175-13.379 4.91-20.356l-8.424-13.78c-4.266-6.977-13.38-9.175-20.357-4.91z" fill="#C16C37" opacity=".55"/><path d="M127.527 148.537c21.173 0 38.337-20.149 38.337-45.005 0-24.855-17.164-45.005-38.337-45.005-21.173 0-38.337 20.15-38.337 45.005 0 24.856 17.164 45.005 38.337 45.005z" fill="#E8C488"/><path d="M143.038 93.273a19.27 19.27 0 0 0-8.571 2.75.234.234 0 0 1-.288-.367 19.332 19.332 0 0 1 32.46 12.568c.448 5.837-.167 11.378-3.997 15.191a.24.24 0 0 1-.321.014.244.244 0 0 1-.084-.15.235.235 0 0 1 .037-.167c2.279-3.438 1.871-7.74 1.527-12.161a19.284 19.284 0 0 0-20.763-17.678zM135.339 67.001c0-2.326-.155-4.65-.464-6.955a33.025 33.025 0 0 0-7.628-.896c-21.139-.024-38.28 20.124-38.28 44.981 0 2.326.153 4.65.455 6.956 2.5.593 5.059.894 7.627.896 21.156 0 38.29-20.148 38.29-44.982z" fill="#C16C37"/><path d="M119.508 65.466c0-2.387.155-4.772.464-7.14a33.943 33.943 0 0 1 7.835-.919c21.731 0 39.353 20.684 39.353 46.197a54.057 54.057 0 0 1-.472 7.147 33.825 33.825 0 0 1-7.827.912c-21.739 0-39.353-20.676-39.353-46.197z" fill="#C16C37"/><path d="M113.871 123.28a5.069 5.069 0 1 0 0-10.138 5.069 5.069 0 0 0 0 10.138z" fill="#194151"/><path d="M109.122 117.123l-1.567-3.814 4.845 1.199-3.278 2.615zM140.343 123.28a5.069 5.069 0 1 0 0-10.138 5.069 5.069 0 0 0 0 10.138z" fill="#194151"/><path d="M145.093 117.123l1.567-3.814-4.853 1.199 3.286 2.615z" fill="#194151"/><path d="M149.73 80.33c3.056-.011 6.07.704 8.795 2.086a.232.232 0 0 0 .248-.391 19.278 19.278 0 0 0-26.993 2.636 19.274 19.274 0 0 0 2.359 27.018.237.237 0 0 0 .163.072.233.233 0 0 0 .222-.316.236.236 0 0 0-.049-.076 19.242 19.242 0 0 1 5.059-28.132 19.245 19.245 0 0 1 10.196-2.897zM117.477 77.084a19.284 19.284 0 0 1 7.595 4.797.233.233 0 0 0 .328.04.235.235 0 0 0 .04-.328 19.275 19.275 0 0 0-26.259-6.133 19.277 19.277 0 0 0-6.697 26.121.233.233 0 0 0 .424-.192 19.244 19.244 0 0 1 24.569-24.353v.048z" fill="#C16C37"/><path d="M111.969 91.45a19.273 19.273 0 0 1 8.363 3.343.231.231 0 0 0 .328-.024.236.236 0 0 0 .056-.17.237.237 0 0 0-.08-.158 19.324 19.324 0 0 0-33.268 10.274c-.856 5.796.168 11.665 3.75 15.766a.241.241 0 0 0 .303.021.238.238 0 0 0 .08-.293c-2.03-3.589-1.327-8.147-.672-12.536 1.568-10.522 10.586-17.79 21.14-16.222z" fill="#C16C37"/><path d="M131.005 85.39a103.869 103.869 0 0 1 23.85 4.685c2.214.712 5.461-5.484 6.876-7.123l-3.31-6.732c1.599-1.823-56.974 6.94-56.974 6.94 1.151 1.839 2.686 3.613 4.989 3.246a103.465 103.465 0 0 1 24.569-1.016z" fill="#C16C37" opacity=".5"/><path d="M138.369 60.733c10.306 8.067 17.102 21.835 17.102 37.45 0 24.857-17.166 45.005-38.337 45.005a33.125 33.125 0 0 1-11.106-1.927 34.298 34.298 0 0 0 21.236 7.531c21.171 0 38.337-20.148 38.337-45.005 0-20.291-11.481-37.465-27.232-43.054z" fill="#ECE9DC"/><path d="M128.359 81.977a89.614 89.614 0 0 1 20.86 2.446 4.979 4.979 0 0 0 5.133-1.727l6.188-8.387a3.855 3.855 0 0 0-.664-5.293 49.434 49.434 0 0 0-63.234.176 3.846 3.846 0 0 0-.647 5.277l6.116 8.291a4.963 4.963 0 0 0 5.149 1.72 89.895 89.895 0 0 1 21.099-2.503z" fill="#F8F6E8"/><path d="M129.422 81.977a89.593 89.593 0 0 1 20.859 2.446 4.983 4.983 0 0 0 5.133-1.727l3.494-4.733a48.674 48.674 0 0 0-30.054-3.246 49.569 49.569 0 0 0-21.163 9.874c.213-.021.424-.058.632-.112a89.89 89.89 0 0 1 21.099-2.502z" fill="#ECE9DC"/><path d="M134.475 60.693c22.107 0 52.313 10.394 72.693 13.464 5.98.895 12.32-.416 15.726-3.294l10.146-19.236c3.782-3.199 2.934-7.452-2.023-10.114-25.025-13.424-59.036-21.683-96.542-21.683-37.81 0-72.077 8.403-97.15 22.018-4.909 2.663-5.74 6.9-1.975 10.09l8.34 15.863c3.413 2.886 9.77 4.197 15.766 3.286 20.596-3.126 52.696-10.394 75.019-10.394z" fill="#F8F6E8"/><path d="M128.638 63.436c12.041 0 23.498 4.086 31.797 10.778l.616-.8a3.927 3.927 0 0 0-.68-5.413 47.97 47.97 0 0 0-31.733-11.617c-12.64 0-24.641 4.502-33.028 11.793a3.934 3.934 0 0 0-.663 5.405l1.47 1.99c.088-.103.181-.202.28-.295a47.97 47.97 0 0 1 31.941-11.841z" fill="#194151"/><path d="M77.453 38.93l-.943 1.535a6.667 6.667 0 0 0-5.189-.8c-3.774.8-5.724 4.294-4.885 8.132.863 3.997 4.134 6.148 7.787 5.348a6.924 6.924 0 0 0 4.438-2.75l-.752-3.446-3.654.8-.367-1.663 5.484-1.24 1.296 5.925a9.036 9.036 0 0 1-6.093 4.11c-4.669 1.015-9.01-1.696-10.098-6.685-1.047-4.797 1.6-9.29 6.436-10.337a8.475 8.475 0 0 1 6.54 1.07zM91.237 33.925a8.474 8.474 0 0 1 9.882 7.196 8.568 8.568 0 0 1-1.383 6.496 8.564 8.564 0 0 1-15.503-3.666 8.452 8.452 0 0 1 7.004-10.026zM93.81 49.3c3.67-.616 5.98-3.95 5.325-7.876-.655-3.925-3.933-6.316-7.595-5.708-3.662.607-5.973 3.997-5.325 7.875.648 3.878 3.934 6.324 7.595 5.709zM113.64 31.079a8.478 8.478 0 0 1 6.302 2.079 8.49 8.49 0 0 1 2.876 5.98 8.572 8.572 0 0 1-1.893 6.459 8.55 8.55 0 0 1-5.977 3.095 8.559 8.559 0 0 1-8.405-4.947 8.559 8.559 0 0 1-.786-3.344 8.462 8.462 0 0 1 4.615-8.436 8.47 8.47 0 0 1 3.268-.886zm1.143 15.55c3.71-.271 6.324-3.374 6.028-7.347-.295-3.974-3.334-6.652-7.043-6.396-3.71.255-6.309 3.421-6.021 7.347.288 3.926 3.334 6.676 7.036 6.396zM129.518 31.111l3.438.312c5.709.512 8.683 3.926 8.211 9.162-.496 5.541-4.117 8.06-9.706 7.556l-3.438-.304 1.495-16.726zm2.479 15.343c3.997.36 6.796-1.68 7.195-6.053.376-4.173-1.991-6.843-6.004-7.195l-1.887-.168-1.183 13.256 1.879.16zM152.864 48.956a6.79 6.79 0 0 0 1.519.472c1.303.216 2.207-.384 2.487-2.063l2.102-12.56 1.911.32-2.142 12.792c-.424 2.558-2.087 3.646-4.43 3.254a7.48 7.48 0 0 1-1.951-.576l.504-1.639zM174.835 37.42a8.487 8.487 0 0 1 6.79 6.809 8.497 8.497 0 0 1-.066 3.384 8.58 8.58 0 0 1-3.546 5.702 8.571 8.571 0 0 1-6.569 1.391 8.57 8.57 0 0 1-5.553-3.775 8.572 8.572 0 0 1-1.122-6.62 8.473 8.473 0 0 1 10.066-6.892zm-3.006 15.294c3.645.72 6.987-1.599 7.755-5.484.767-3.886-1.455-7.3-5.101-7.996-3.646-.695-6.988 1.6-7.747 5.493-.76 3.894 1.447 7.244 5.093 7.955v.032zM188.587 40.53l4.517.999c3.118.688 4.525 2.67 3.95 5.269a4.067 4.067 0 0 1-2.91 3.142 4.065 4.065 0 0 1 1.798 4.525c-.655 2.95-3.198 4.19-5.972 3.566l-5.013-1.103 3.63-16.398zm1.423 15.766c1.943.432 3.51-.2 3.998-2.31.487-2.111-.76-3.319-2.663-3.734l-2.758-.616-1.343 6.044 2.766.616zm1.735-7.62a2.654 2.654 0 0 0 3.334-2.166 2.53 2.53 0 0 0-.302-2.126 2.517 2.517 0 0 0-1.833-1.12l-2.83-.632-1.207 5.413 2.838.632zM201.698 58.279a1.343 1.343 0 1 1-.663 2.602 1.343 1.343 0 0 1 .663-2.602zm2.319-14.264l1.935.456-3.038 12.193-1.599-.376 2.702-12.273z" fill="#F3C74A"/><path d="M90.31 65.874l-38.497 5.18c-3.942.2-5.757-.287-5.86-2.398-.105-2.102 3.101-2.454 7.035-2.646l38.225-3.446c3.934-.2 6.044-1.071 6.148 1.04.12 2.102-3.118 2.07-7.051 2.27zM208.894 73.15l-45.844-9.818c-4.573-1.32-6.492-2.479-5.909-4.501.584-2.023 4.382-1.128 8.955.191l44.933 11.354c4.573 1.319 7.284 1.303 6.7 3.326-.584 2.03-4.277.767-8.835-.552z" fill="#ECE9DC"/></g><defs><clipPath id="clip0"><path fill="#fff" d="M0 0h266v126H0z"/></clipPath></defs></svg>