<svg width="281" height="304" viewBox="0 0 281 304" fill="none" xmlns="http://www.w3.org/2000/svg">
<g clip-path="url(#clip0)">
<path d="M109.653 121.813C88.5592 112.981 65.0857 108.565 44.1942 118.4C27.1225 126.475 12.953 144.181 6.41241 165.771C4.47322 172.647 2.90605 179.622 1.71769 186.667C0.746742 191.861 -0.22421 197.12 -0.000144374 202.4C0.34912 207.1 1.36584 211.726 3.01941 216.139C13.988 247.701 39.0513 268.576 65.2991 277.845C91.5468 287.115 119.278 286.379 146.528 285.685C163.024 285.237 179.605 284.789 195.727 280.053C229.017 270.261 257.281 242.816 280.018 210.101C280.563 209.333 280.899 208.437 280.993 207.5C281.087 206.563 280.935 205.618 280.553 204.757C280.171 203.897 279.572 203.15 278.814 202.591C278.056 202.032 277.166 201.679 276.23 201.568H276.092C257.537 199.819 243.346 180.437 232.452 161.355C221.558 142.272 210.889 120.992 193.753 111.84C187.195 108.483 179.96 106.659 172.595 106.507C161.963 106.091 151.372 108.044 141.588 112.224" fill="#194151"/>
<g style="mix-blend-mode:multiply" opacity="0.42">
<g style="mix-blend-mode:multiply" opacity="0.42">
<path d="M128.603 127.904C114.626 118.4 173.608 242.656 176.052 254.613C180.629 276.619 200.005 275.563 209.246 245.141C217.173 219.019 218.507 207.285 214.367 169.056C212.457 151.435 200.699 137.781 189.613 128.448C185.452 125.052 180.489 122.783 175.198 121.856C167.608 120.413 159.776 120.927 152.439 123.349" fill="#194151"/>
</g>
</g>
<g style="mix-blend-mode:multiply" opacity="0.42">
<g style="mix-blend-mode:multiply" opacity="0.42">
<path d="M101.662 130.88C86.3828 122.048 69.4285 117.632 54.352 127.488C41.9751 135.563 31.7641 153.269 27.048 174.859C25.5649 181.632 24.6046 188.725 23.6443 195.776C22.7873 200.962 22.3733 206.211 22.4067 211.467C22.6381 216.108 23.3533 220.712 24.5406 225.205C32.4789 256.768 50.5856 277.643 69.5672 286.912" fill="#194151"/>
</g>
</g>
<path d="M46.2322 222.219C54.482 222.219 61.1699 215.533 61.1699 207.285C61.1699 199.038 54.482 192.352 46.2322 192.352C37.9823 192.352 31.2944 199.038 31.2944 207.285C31.2944 215.533 37.9823 222.219 46.2322 222.219Z" fill="#E8C488"/>
<path d="M77.8562 122.323L86.1279 124.429C92.9561 126.168 98.8138 130.547 102.412 136.603C106.011 142.659 107.055 149.897 105.316 156.723L90.9864 212.964C90.7636 213.839 90.2024 214.589 89.4263 215.05C88.6502 215.511 87.7227 215.645 86.8479 215.422L33.733 201.897C32.8583 201.674 32.1078 201.113 31.6468 200.337C31.1858 199.561 31.052 198.634 31.2748 197.76L45.6044 141.518C47.3436 134.692 51.7241 128.836 57.7822 125.239C63.8402 121.641 71.0797 120.597 77.9079 122.336L77.8562 122.323Z" fill="#ADC4BE"/>
<path d="M30.6862 197.739C30.4626 198.614 30.5954 199.543 31.0554 200.32C31.5154 201.098 32.2652 201.662 33.1403 201.888L86.2546 215.467C87.1302 215.684 88.0561 215.547 88.8312 215.085C89.6063 214.624 90.1681 213.876 90.3945 213.003L91.088 210.304C90.6739 210.712 90.163 211.008 89.6031 211.165C89.0433 211.322 88.4529 211.334 87.8871 211.2L34.7408 197.621C33.8656 197.395 33.1159 196.832 32.6559 196.054C32.1958 195.276 32.0631 194.348 32.2867 193.472" fill="#194151"/>
<path d="M188.589 222.219C196.838 222.219 203.526 215.533 203.526 207.285C203.526 199.038 196.838 192.352 188.589 192.352C180.339 192.352 173.651 199.038 173.651 207.285C173.651 215.533 180.339 222.219 188.589 222.219Z" fill="#E8C488"/>
<path d="M201.148 201.882L148.043 215.404C147.169 215.627 146.241 215.493 145.465 215.032C144.689 214.571 144.128 213.821 143.905 212.946L129.57 156.684C128.709 153.304 128.522 149.788 129.02 146.336C129.519 142.883 130.692 139.563 132.474 136.564C134.256 133.566 136.611 130.947 139.405 128.858C142.199 126.769 145.377 125.251 148.758 124.39L157.03 122.284C160.411 121.423 163.928 121.236 167.382 121.734C170.835 122.232 174.156 123.406 177.156 125.187C180.155 126.968 182.775 129.323 184.864 132.116C186.953 134.909 188.472 138.086 189.333 141.466L203.666 197.718C203.888 198.593 203.755 199.52 203.294 200.296C202.833 201.072 202.082 201.633 201.207 201.856L201.148 201.882Z" fill="#ADC4BE"/>
<g style="mix-blend-mode:multiply" opacity="0.66">
<path d="M135.229 217.6L188.343 204.075C189.219 203.849 189.968 203.285 190.428 202.507C190.888 201.729 191.021 200.801 190.797 199.925L177.642 167.168C178.822 159.346 178.423 151.367 176.468 143.701C173.203 131.616 158.329 120.917 144.17 124.501L135.944 126.635C129.127 128.395 123.282 132.778 119.684 138.828C116.087 144.879 115.028 152.106 116.738 158.933L131.068 215.168C131.301 216.04 131.869 216.784 132.648 217.24C133.427 217.695 134.355 217.825 135.229 217.6Z" fill="#C0D5D0"/>
</g>
<path d="M79.7995 101.493H76.5985C65.9287 103.531 58.7266 96.4588 56.6887 85.7815L50.2868 68.9174C49.3225 63.7738 50.4312 58.4576 53.3713 54.1278C56.3113 49.7979 60.8443 46.8055 65.9821 45.8028C71.1303 44.8393 76.4508 45.9506 80.7825 48.8942C85.1141 51.8377 88.1054 56.3746 89.1035 61.5148L92.3045 78.3894C94.3531 89.0668 90.4799 99.4668 79.7995 101.493Z" fill="#C16C37"/>
<g style="mix-blend-mode:multiply" opacity="0.55">
<path d="M60.8262 47.775L59.397 48.6485C50.0858 54.3393 47.1523 66.4986 52.8448 75.8071L64.0869 94.1904C69.7794 103.499 81.9423 106.431 91.2535 100.741L92.6827 99.8671C101.994 94.1763 104.927 82.017 99.2349 72.7086L87.9928 54.3253C82.3003 45.0168 70.1374 42.0842 60.8262 47.775Z" fill="#C16C37"/>
</g>
<g style="mix-blend-mode:multiply" opacity="0.66">
<path d="M96.9245 217.6L43.8102 204.021C42.9351 203.795 42.1853 203.232 41.7253 202.454C41.2653 201.676 41.1325 200.748 41.3562 199.872L54.512 167.115C53.3313 159.293 53.7304 151.313 55.6857 143.648C58.9507 131.563 73.8244 120.864 87.9832 124.448L96.2096 126.581C103.027 128.341 108.871 132.724 112.469 138.775C116.067 144.825 117.126 152.052 115.415 158.88L101.064 215.083C100.958 215.52 100.767 215.932 100.501 216.295C100.235 216.658 99.9007 216.965 99.5162 217.199C99.1318 217.433 98.705 217.589 98.2603 217.657C97.8156 217.726 97.3617 217.707 96.9245 217.6Z" fill="#C0D5D0"/>
</g>
<path d="M204.135 197.739C204.358 198.614 204.226 199.543 203.766 200.32C203.306 201.098 202.556 201.662 201.681 201.888L148.566 215.467C147.691 215.684 146.765 215.547 145.99 215.085C145.215 214.624 144.653 213.876 144.426 213.003L143.733 210.304C144.147 210.712 144.658 211.008 145.218 211.165C145.778 211.322 146.368 211.334 146.934 211.2L200.048 197.675C200.923 197.449 201.673 196.885 202.133 196.107C202.593 195.329 202.726 194.401 202.502 193.525" fill="#194151"/>
<path d="M198.309 298.933C198.38 300.1 197.988 301.247 197.22 302.127C196.451 303.007 195.367 303.55 194.201 303.637H38.7847C37.6133 303.553 36.523 303.008 35.7515 302.123C34.98 301.238 34.5899 300.084 34.6661 298.912C34.6661 283.349 37.4296 234.677 37.4616 234.432C39.7343 211.147 45.0905 192.171 57.1688 176.747C58.1219 175.545 59.0929 174.375 60.0816 173.237C57.5484 167.928 56.2429 162.117 56.2618 156.235V155.936C56.2618 136.512 70.1326 120.619 86.9802 120.619H142.687C159.578 120.619 173.406 136.512 173.406 155.936V156.235C173.407 161.128 172.495 165.979 170.717 170.539C172.392 172.288 173.982 174.123 175.518 176.032C188.077 191.744 194.884 211.819 195.791 235.296L198.309 298.933Z" fill="#C0D5D0"/>
<g style="mix-blend-mode:multiply" opacity="0.5">
<path d="M197.946 299.296C198.019 300.463 197.629 301.612 196.86 302.493C196.091 303.374 195.005 303.915 193.838 304H43.7461C76.6198 297.067 178.644 269.365 195.055 226.048L197.946 299.296Z" fill="#C0D5D0"/>
</g>
<g style="mix-blend-mode:multiply" opacity="0.49">
<path d="M120.366 171.637C136.371 165.152 162.704 129.152 162.704 129.152C166.258 132.819 169.035 137.165 170.868 141.931C172.701 146.696 173.554 151.783 173.373 156.885C173.294 161.55 172.406 166.166 170.749 170.528C172.466 172.235 119.373 172.8 120.366 171.637Z" fill="#C0D5D0"/>
</g>
<path d="M180.842 273.493C180.901 274.404 180.597 275.3 179.998 275.987C179.398 276.675 178.551 277.097 177.641 277.163H56.6885C55.7787 277.092 54.9333 276.666 54.3345 275.978C53.7358 275.289 53.4316 274.393 53.4875 273.483C53.4875 261.365 55.6215 223.488 55.6215 223.349C57.3927 205.216 61.5646 190.453 70.9647 178.453C71.7009 177.515 72.4584 176.597 73.2373 175.723C71.3381 171.787 160.73 170.219 159.364 173.589C160.666 174.948 161.911 176.37 163.098 177.856C172.883 190.08 178.175 205.707 178.89 223.979L180.842 273.493Z" fill="#F8F6E8"/>
<path d="M132.487 114.485V135.285H97.458V114.485L81.1118 115.552V175.552H148.844V115.552L132.487 114.485Z" fill="#F8F6E8"/>
<path d="M110.048 120.288C124.143 120.288 125.455 120.085 112.182 126.325C98.9088 132.565 80.8555 126.869 71.0393 117.365C69.1187 115.499 78.8175 112.544 80.29 110.325C80.29 110.325 95.2384 120.288 110.048 120.288Z" fill="#194151"/>
<path d="M116.941 119.221C102.846 119.221 101.545 119.019 114.807 125.259C128.07 131.499 147.201 130.069 157.028 120.565C158.948 118.699 149.249 112.544 147.777 110.325C147.777 110.325 131.751 119.221 116.941 119.221Z" fill="#194151"/>
<path d="M112.299 123.008C140.555 123.008 163.461 96.126 163.461 62.9654C163.461 29.8047 140.555 2.92273 112.299 2.92273C84.0436 2.92273 61.1377 29.8047 61.1377 62.9654C61.1377 96.126 84.0436 123.008 112.299 123.008Z" fill="#E8C488"/>
<path d="M132.999 49.2694C128.949 49.5742 125.029 50.8354 121.561 52.9494C121.494 52.9851 121.416 52.9959 121.342 52.9799C121.268 52.9638 121.202 52.9219 121.156 52.8617C121.11 52.8015 121.086 52.7268 121.09 52.6511C121.094 52.5753 121.125 52.5033 121.177 52.448C124.722 49.1401 129.127 46.8979 133.889 45.9786C138.65 45.0593 143.574 45.5002 148.096 47.2506C152.619 49.0011 156.556 51.9902 159.456 55.8753C162.357 59.7603 164.104 64.384 164.496 69.2161C165.104 77.0134 164.272 84.4054 159.161 89.4827C159.109 89.5464 159.033 89.5866 158.951 89.5946C158.869 89.6026 158.787 89.5777 158.724 89.5254C158.66 89.4731 158.62 89.3976 158.612 89.3156C158.604 89.2335 158.629 89.1517 158.681 89.0881C161.711 84.5014 161.167 78.7627 160.708 72.8641C160.439 69.4958 159.508 66.2136 157.97 63.2049C156.431 60.1962 154.315 57.52 151.742 55.3289C149.169 53.1379 146.189 51.4751 142.973 50.4354C139.757 49.3957 136.368 48.9995 132.999 49.2694Z" fill="#C16C37"/>
<path d="M122.767 14.1867C122.765 11.0835 122.562 7.98363 122.159 4.9067C118.841 4.11938 115.443 3.71849 112.033 3.71204C83.7686 3.71204 60.8179 30.592 60.8179 63.7547C60.8175 66.8584 61.0242 69.9586 61.4367 73.0347C64.7717 73.8274 68.1878 74.2283 71.6157 74.2294C99.8587 74.2294 122.767 47.3494 122.767 14.1867Z" fill="#C16C37"/>
<path d="M101.598 12.1707C101.596 8.98515 101.806 5.803 102.227 2.64537C105.649 1.83158 109.155 1.41991 112.673 1.4187C141.673 1.4187 165.19 29.0134 165.19 63.0614C165.191 66.2469 164.981 69.4291 164.56 72.5867C161.138 73.4005 157.632 73.8122 154.114 73.8134C125.114 73.8134 101.598 46.2187 101.598 12.1707Z" fill="#C16C37"/>
<path d="M94.0757 89.3013C97.8117 89.3013 100.84 86.2736 100.84 82.5387C100.84 78.8037 97.8117 75.776 94.0757 75.776C90.3397 75.776 87.311 78.8037 87.311 82.5387C87.311 86.2736 90.3397 89.3013 94.0757 89.3013Z" fill="#194151"/>
<path d="M87.7378 81.088L85.6465 76L92.1231 77.6L87.7378 81.088Z" fill="#194151"/>
<path d="M129.403 89.3013C133.139 89.3013 136.168 86.2736 136.168 82.5387C136.168 78.8037 133.139 75.776 129.403 75.776C125.667 75.776 122.639 78.8037 122.639 82.5387C122.639 86.2736 125.667 89.3013 129.403 89.3013Z" fill="#194151"/>
<path d="M135.741 81.088L137.843 76L131.367 77.6L135.741 81.088Z" fill="#194151"/>
<path d="M141.908 32.0001C145.986 31.9858 150.009 32.94 153.645 34.7841C153.714 34.8293 153.799 34.8452 153.88 34.8282C153.961 34.8112 154.032 34.7627 154.077 34.6934C154.122 34.6241 154.138 34.5396 154.121 34.4586C154.104 34.3776 154.056 34.3067 153.986 34.2614C148.721 30.0523 142.013 28.077 135.306 28.7603C128.598 29.4437 122.427 32.731 118.119 37.9155C113.811 43.1001 111.71 49.7677 112.268 56.4847C112.825 63.2016 115.998 69.4315 121.102 73.8347C121.163 73.8826 121.238 73.907 121.316 73.9034C121.393 73.8999 121.466 73.8686 121.522 73.8154C121.577 73.7621 121.612 73.6905 121.619 73.6137C121.627 73.5369 121.606 73.4601 121.561 73.3974C118.078 68.9021 116.2 63.3712 116.226 57.6854C116.237 50.8785 118.946 44.3535 123.76 39.5393C128.574 34.7252 135.099 32.0142 141.908 32.0001Z" fill="#C16C37"/>
<path d="M98.8877 27.7334C102.725 29.0349 106.199 31.2283 109.024 34.1334C109.075 34.1985 109.15 34.2406 109.232 34.2506C109.314 34.2606 109.396 34.2377 109.461 34.1867C109.527 34.1358 109.569 34.0611 109.579 33.9791C109.589 33.8971 109.566 33.8145 109.515 33.7494C105.903 28.0761 100.213 24.0426 93.6624 22.5132C87.112 20.9839 80.223 22.0803 74.4715 25.5675C68.72 29.0548 64.5636 34.6555 62.893 41.1695C61.2224 47.6834 62.1704 54.5925 65.5339 60.4161C65.5679 60.4981 65.633 60.5633 65.7151 60.5973C65.7971 60.6313 65.8893 60.6314 65.9714 60.5974C66.0534 60.5635 66.1186 60.4983 66.1527 60.4163C66.1867 60.3343 66.1867 60.2421 66.1528 60.1601C64.6242 55.6131 64.4009 50.7289 65.5083 46.0615C66.6156 41.3942 69.0093 37.1305 72.4177 33.7541C75.8261 30.3778 80.1128 28.0241 84.7915 26.9599C89.4702 25.8957 94.3536 26.1637 98.8877 27.7334Z" fill="#C16C37"/>
<path d="M91.5468 46.8373C95.5645 47.4254 99.3855 48.957 102.697 51.3067C102.762 51.3502 102.84 51.3685 102.917 51.3582C102.995 51.3479 103.066 51.3096 103.117 51.2506C103.168 51.1916 103.196 51.1159 103.195 51.0378C103.194 50.9598 103.165 50.8847 103.113 50.8267C99.8068 47.27 95.5641 44.7179 90.8722 43.4638C86.1803 42.2098 81.2297 42.3045 76.5893 43.7372C71.9489 45.1699 67.807 47.8825 64.6396 51.5631C61.4722 55.2437 59.4078 59.743 58.6838 64.544C57.5421 72.2667 58.9185 80.1067 63.6879 85.568C63.7417 85.6187 63.8114 85.6492 63.8851 85.6544C63.9589 85.6595 64.0322 85.639 64.0925 85.5963C64.1528 85.5536 64.1965 85.4913 64.2161 85.42C64.2357 85.3487 64.23 85.2729 64.2 85.2053C61.4899 80.416 62.4395 74.336 63.3038 68.48C65.4164 54.4 77.452 44.8 91.5468 46.8373Z" fill="#C16C37"/>
<path d="M104.404 108.661L93.9793 103.893C92.3148 102.571 92.4215 100.32 94.6729 100.373C94.6729 100.373 105.865 101.781 111.926 102.037C117.25 102.061 122.57 101.758 127.856 101.131C129.99 101.131 129.841 103.403 128.389 104.693L120.568 108.555C115.714 111.157 109.579 111.019 104.404 108.661Z" fill="#194151"/>
<g style="mix-blend-mode:multiply">
<path d="M110.251 97.0667L107.296 95.712C106.826 95.3387 106.858 94.6453 107.498 94.7093C107.498 94.7093 110.699 95.1147 112.385 95.1893C113.893 95.1974 115.401 95.1119 116.898 94.9333C117.506 94.9333 117.453 95.5733 117.048 95.936L114.818 97.0027C114.111 97.3581 113.333 97.5485 112.542 97.5595C111.751 97.5706 110.967 97.4021 110.251 97.0667Z" fill="#BFB9A5"/>
</g>
<g style="mix-blend-mode:multiply" opacity="0.5">
<g style="mix-blend-mode:multiply" opacity="0.5">
<path d="M116.941 38.7307C127.759 39.5521 138.442 41.6466 148.769 44.9707C151.725 45.9307 157.123 36.5867 159.012 34.4001L154.605 25.4187C156.739 22.9867 77.5054 35.7441 77.5054 35.7441C79.0312 38.2081 81.0904 40.5334 84.1527 40.0747C94.9898 38.3254 105.997 37.8742 116.941 38.7307Z" fill="#C16C37"/>
</g>
</g>
<g style="mix-blend-mode:multiply">
<g style="mix-blend-mode:multiply">
<path d="M112.897 123.125C126.992 123.125 128.293 122.933 115.031 129.173C101.768 135.413 83.7043 129.707 73.8774 120.203C71.9568 118.347 80.5887 116.459 82.0718 114.229C82.0718 114.229 98.0872 123.125 112.897 123.125Z" fill="#ECE9DC"/>
</g>
</g>
<g style="mix-blend-mode:multiply">
<g style="mix-blend-mode:multiply">
<path d="M115.522 122.059C101.427 122.059 100.115 121.867 113.388 128.107C126.661 134.347 145.782 132.907 155.598 123.403C157.518 121.547 147.82 115.392 146.347 113.163C146.347 113.163 130.332 122.059 115.522 122.059Z" fill="#ECE9DC"/>
</g>
</g>
<path d="M118.499 156.448H110.891C108.905 156.448 107.295 158.058 107.295 160.043V186.283C107.295 188.268 108.905 189.877 110.891 189.877H118.499C120.485 189.877 122.094 188.268 122.094 186.283V160.043C122.094 158.058 120.485 156.448 118.499 156.448Z" fill="#194151"/>
<path d="M97.9805 169.355V176.96C97.9805 178.945 99.5903 180.555 101.576 180.555H127.824C129.81 180.555 131.42 178.945 131.42 176.96V169.355C131.42 167.369 129.81 165.76 127.824 165.76H101.576C99.5903 165.76 97.9805 167.369 97.9805 169.355Z" fill="#194151"/>
<g style="mix-blend-mode:multiply">
<g style="mix-blend-mode:multiply">
<path d="M126.768 5.85608C140.521 16.6187 149.591 34.9867 149.591 55.8507C149.591 89.0134 126.693 115.893 98.4288 115.893C93.3821 115.894 88.3728 115.028 83.6191 113.333C91.6617 119.774 101.643 123.315 111.947 123.381C140.201 123.381 163.163 96.4907 163.163 63.3387C163.109 36.2667 147.798 13.3121 126.768 5.85608Z" fill="#ECE9DC"/>
</g>
</g>
<path d="M113.409 34.1975C122.784 34.1907 132.128 35.2863 141.247 37.4615C142.485 37.7891 143.792 37.7498 145.008 37.3483C146.224 36.9468 147.297 36.2005 148.097 35.2001L156.355 24.0108C157.15 22.9477 157.501 21.6183 157.336 20.3017C157.171 18.985 156.502 17.7835 155.47 16.9495C143.711 7.03409 128.791 1.65359 113.409 1.78145C97.9108 1.64115 82.8818 7.09497 71.0821 17.1414C70.0607 17.9794 69.4019 19.1789 69.2429 20.4903C69.0839 21.8017 69.4369 23.1238 70.2286 24.1814L78.3803 35.2001C79.1737 36.2164 80.2462 36.9795 81.4665 37.3962C82.6868 37.813 84.0021 37.8653 85.2516 37.5468C94.4711 35.3162 103.924 34.1918 113.409 34.1975Z" fill="#F8F6E8"/>
<g style="mix-blend-mode:multiply">
<g style="mix-blend-mode:multiply">
<path d="M114.839 34.1974C124.214 34.1913 133.557 35.2868 142.676 37.4614C143.915 37.7877 145.221 37.7477 146.437 37.3463C147.653 36.9449 148.726 36.1994 149.526 35.2001L154.178 28.8001C141.601 23.1586 127.554 21.6643 114.071 24.5334C103.744 26.5995 94.0629 31.1094 85.8384 37.6854C86.1216 37.654 86.4029 37.6077 86.6813 37.5468C95.9007 35.3156 105.353 34.1912 114.839 34.1974Z" fill="#ECE9DC"/>
</g>
</g>
<path d="M113.794 9.47206C129.798 9.47206 145.141 14.9227 156.217 23.8401L157.038 22.7734C157.852 21.6856 158.213 20.3252 158.046 18.977C157.879 17.6289 157.197 16.3977 156.142 15.5414C144.377 5.40001 129.327 -0.123021 113.794 6.05406e-05C96.9139 6.05406e-05 80.8985 6.00539 69.7059 15.7334C68.658 16.5906 67.982 17.8193 67.819 19.163C67.6559 20.5066 68.0185 21.8613 68.8309 22.9441L70.7835 25.6001C70.9116 25.4721 71.0183 25.3334 71.1676 25.2054C82.9739 14.9269 98.1385 9.32959 113.794 9.47206Z" fill="#194151"/>
<g style="mix-blend-mode:multiply">
<g style="mix-blend-mode:multiply">
<path d="M129.286 159.819C117.72 167.819 90.6934 172.352 90.6934 172.352H148.844V141.152C143.252 148.278 136.666 154.565 129.286 159.819Z" fill="#ECE9DC"/>
</g>
</g>
<path d="M106.207 109.195C108.538 110.07 111.026 110.453 113.512 110.319C115.999 110.185 118.431 109.537 120.654 108.416L120.825 108.331C118.752 107.432 116.511 106.984 114.252 107.019C111.412 106.913 108.606 107.671 106.207 109.195Z" fill="#E75F67"/>
<g style="mix-blend-mode:multiply">
<path d="M181.024 274.56C181.08 275.47 180.775 276.364 180.176 277.051C179.577 277.738 178.732 278.161 177.823 278.229H121.636C149.74 266.848 167.345 259.915 179.615 241.963L181.024 274.56Z" fill="#ECE9DC"/>
</g>
</g>
<defs>
<clipPath id="clip0">
<rect width="281" height="304" fill="white"/>
</clipPath>
</defs>
</svg>
