<svg width="387" height="639" viewBox="0 0 387 639" fill="none" xmlns="http://www.w3.org/2000/svg"><g clip-path="url(#clip0)"><path d="M47.742 463.967c17.713 0 32.072-14.374 32.072-32.104 0-17.73-14.359-32.104-32.072-32.104s-32.073 14.374-32.073 32.104c0 17.73 14.36 32.104 32.073 32.104z" fill="#E8C488"/><path d="M115.634 249.197l17.76 4.528a57.045 57.045 0 0 1 34.849 26.201 57.149 57.149 0 0 1 6.194 43.185L143.67 444.019a7.31 7.31 0 0 1-8.885 5.283L20.787 420.237a7.31 7.31 0 0 1-4.479-3.353 7.32 7.32 0 0 1-.799-5.541l30.767-120.908a57.126 57.126 0 0 1 9.596-20.102 57.017 57.017 0 0 1 37.536-22.318 56.98 56.98 0 0 1 22.226 1.182z" fill="#ADC4BE"/><path d="M14.364 411.339a7.367 7.367 0 0 0 .809 5.552 7.353 7.353 0 0 0 4.483 3.368l114.017 29.192a7.345 7.345 0 0 0 5.532-.82 7.36 7.36 0 0 0 3.357-4.477l1.489-5.802a7.352 7.352 0 0 1-6.873 1.926L23.092 411.087a7.353 7.353 0 0 1-4.483-3.368 7.367 7.367 0 0 1-.809-5.552" fill="#194151"/><path d="M353.393 463.967c17.713 0 32.072-14.374 32.072-32.104 0-17.73-14.359-32.104-32.072-32.104s-32.073 14.374-32.073 32.104c0 17.73 14.36 32.104 32.073 32.104z" fill="#E8C488"/><path d="M380.347 420.259l-114.019 29.07a7.3 7.3 0 0 1-5.536-.8 7.315 7.315 0 0 1-3.35-4.483l-30.778-120.953a57.147 57.147 0 0 1 6.235-43.253 57.048 57.048 0 0 1 34.964-26.172l17.76-4.528a56.997 56.997 0 0 1 43.211 6.24 57.099 57.099 0 0 1 26.147 34.998l30.772 120.93a7.322 7.322 0 0 1-.799 5.541 7.306 7.306 0 0 1-4.479 3.353l-.128.057z" fill="#ADC4BE"/><path d="M238.825 454.037l113.972-29.191a7.33 7.33 0 0 0 4.476-3.37 7.346 7.346 0 0 0 .793-5.551l-28.178-70.421a127.422 127.422 0 0 0-2.52-50.449c-7.01-25.981-38.945-48.981-69.345-41.276l-17.663 4.586a57.28 57.28 0 0 0-34.911 26.214 57.377 57.377 0 0 0-6.325 43.222l30.767 120.893a7.357 7.357 0 0 0 8.934 5.343z" fill="#C0D5D0" opacity=".66"/><path d="M119.837 204.431h-6.873c-22.909 4.38-38.395-10.823-42.771-33.777l-13.745-36.255a42.64 42.64 0 0 1 6.614-31.8 42.563 42.563 0 0 1 27.085-17.891 42.554 42.554 0 0 1 31.748 6.664 42.629 42.629 0 0 1 17.849 27.113l6.873 36.277c4.444 22.954-3.872 45.312-26.78 49.669z" fill="#C16C37"/><path d="M78.801 88.958l-3.068 1.878C55.74 103.07 49.443 129.21 61.664 149.22l24.138 39.521c12.222 20.011 38.337 26.315 58.329 14.081l3.069-1.878c19.991-12.234 26.29-38.374 14.068-58.385l-24.138-39.52c-12.222-20.012-38.337-26.316-58.329-14.082z" fill="#C16C37" opacity=".55"/><path d="M156.582 454.037L42.565 424.846a7.358 7.358 0 0 1-5.292-8.921l28.247-70.421a127.917 127.917 0 0 1 2.52-50.449c7.01-25.981 38.945-48.981 69.368-41.276l17.64 4.586a57.278 57.278 0 0 1 34.91 26.214 57.378 57.378 0 0 1 6.326 43.222l-30.813 120.824a7.35 7.35 0 0 1-3.324 4.55 7.358 7.358 0 0 1-5.565.862z" fill="#C0D5D0" opacity=".66"/><path d="M386.771 411.339a7.343 7.343 0 0 1-5.269 8.92l-114.041 29.192a7.345 7.345 0 0 1-5.532-.82 7.362 7.362 0 0 1-3.356-4.477l-1.467-5.802a7.304 7.304 0 0 0 6.873 1.926l114.018-29.191a7.343 7.343 0 0 0 5.269-8.92" fill="#194151"/><path d="M374.263 628.887a9.567 9.567 0 0 1-2.34 6.866 9.545 9.545 0 0 1-6.48 3.247H31.752a9.548 9.548 0 0 1-6.513-3.255 9.57 9.57 0 0 1-2.33-6.903c0-33.457 5.933-138.092 6.002-138.619 4.88-49.944 16.38-90.854 42.336-124.012a165.09 165.09 0 0 1 6.254-7.544 84.022 84.022 0 0 1-8.225-36.553v-.642c0-41.757 29.782-75.925 65.978-75.925h119.585c36.264 0 65.954 34.168 65.954 75.925v.642a84.646 84.646 0 0 1-5.704 30.751c3.597 3.761 7.01 7.705 10.309 11.81 26.964 33.777 41.602 76.934 43.527 127.405l5.338 136.807z" fill="#C0D5D0"/><path d="M206.936 355.227c34.364-13.942 90.903-91.335 90.903-91.335a81.599 81.599 0 0 1 17.526 27.473 81.674 81.674 0 0 1 5.383 32.148 86.87 86.87 0 0 1-5.636 29.329c3.689 3.669-110.329 4.884-108.176 2.385z" fill="#C0D5D0" opacity=".49"/><path d="M373.415 628.131a9.569 9.569 0 0 1-2.347 6.873 9.55 9.55 0 0 1-6.496 3.239H42.45c70.583-14.905 289.66-74.457 324.871-167.581l6.094 157.469z" fill="#C0D5D0" opacity=".5"/><path d="M336.761 574.197a7.447 7.447 0 0 1-6.873 7.888H70.193a7.444 7.444 0 0 1-5.061-2.541 7.459 7.459 0 0 1-1.812-5.37c0-26.05 4.582-107.479 4.582-107.777 3.803-38.983 12.76-70.719 32.966-96.517 1.581-2.018 3.184-3.99 4.856-5.87-4.077-8.462 187.853-11.833 184.944-4.587a139.753 139.753 0 0 1 7.995 9.173c21.008 26.279 32.393 59.873 33.905 99.154l4.193 106.447z" fill="#F8F6E8"/><path d="M232.938 232.362v44.715h-75.187v-44.715l-35.12 2.293v128.988h145.426V234.655l-35.119-2.293z" fill="#F8F6E8"/><path d="M184.76 244.836c30.286 0 33.081-.436 4.582 12.979-28.498 13.414-67.26 5.755-88.336-14.676-4.124-4.013 16.7-14.951 19.862-19.721 0 0 32.095 21.418 63.892 21.418z" fill="#194151"/><path d="M199.582 242.543c-30.285 0-33.08-.436-4.581 12.979 28.498 13.414 69.528 12.635 90.627-7.797 4.124-4.013-21.282-19.537-24.444-24.307-.023 0-29.804 19.125-61.602 19.125z" fill="#194151"/><path d="M189.617 251.486c60.667 0 109.848-54.926 109.848-122.682 0-67.755-49.181-122.681-109.848-122.681-60.668 0-109.848 54.926-109.848 122.681 0 67.756 49.18 122.682 109.848 122.682z" fill="#E8C488"/><path d="M234.037 92.16a55.072 55.072 0 0 0-24.558 7.912.671.671 0 0 1-.802-1.078 55.375 55.375 0 0 1 27.289-13.892 55.344 55.344 0 0 1 30.493 2.74 55.407 55.407 0 0 1 24.382 18.533 55.487 55.487 0 0 1 10.823 28.667c1.306 16.762-.481 32.654-11.454 43.569a.658.658 0 0 1-.451.24.668.668 0 0 1-.58-1.089c6.506-9.86 5.338-22.197 4.375-34.878a55.35 55.35 0 0 0-19.265-37.698 55.243 55.243 0 0 0-40.252-13.026zM212.068 29.146a139.237 139.237 0 0 0-1.306-18.964 98.691 98.691 0 0 0-21.855-2.454c-60.663 0-109.848 55.035-109.848 122.682a136.224 136.224 0 0 0 1.306 18.987 99.746 99.746 0 0 0 21.855 2.43c60.662 0 109.848-54.92 109.848-122.681z" fill="#C16C37"/><path d="M166.616 25.018a139.955 139.955 0 0 1 1.352-19.469 102.173 102.173 0 0 1 22.428-2.5c62.289 0 112.757 56.389 112.757 125.939a143.081 143.081 0 0 1-1.328 19.468 100.952 100.952 0 0 1-22.451 2.5c-62.267 0-112.758-56.365-112.758-125.938z" fill="#C16C37"/><path d="M150.489 178.221c8.021 0 14.524-6.509 14.524-14.538 0-8.03-6.503-14.539-14.524-14.539-8.022 0-14.525 6.509-14.525 14.539 0 8.029 6.503 14.538 14.525 14.538z" fill="#194151"/><path d="M136.858 160.564l-4.49-10.938 13.905 3.44-9.415 7.498zM226.317 178.221c8.021 0 14.524-6.509 14.524-14.538 0-8.03-6.503-14.539-14.524-14.539-8.022 0-14.525 6.509-14.525 14.539 0 8.029 6.503 14.538 14.525 14.538z" fill="#194151"/><path d="M239.925 160.564l4.513-10.938-13.906 3.44 9.393 7.498z" fill="#194151"/><path d="M253.166 55.035a55.209 55.209 0 0 1 25.085 5.985.672.672 0 0 0 .734-1.124 55.199 55.199 0 0 0-76.741 8.087 55.318 55.318 0 0 0-12.545 39.763 55.303 55.303 0 0 0 18.772 37.225.675.675 0 0 0 .951.011.675.675 0 0 0 .011-.952 55.208 55.208 0 0 1 14.495-80.71 55.08 55.08 0 0 1 29.238-8.285zM160.797 45.862a55.25 55.25 0 0 1 21.787 13.759.666.666 0 0 0 .939.115.671.671 0 0 0 .114-.94 55.255 55.255 0 0 0-34.021-23.803 55.21 55.21 0 0 0-40.977 6.62 55.305 55.305 0 0 0-24.81 33.31 55.356 55.356 0 0 0 5.355 41.2.668.668 0 0 0 .894.321.672.672 0 0 0 .32-.894 55.224 55.224 0 0 1-1.386-30.344 55.19 55.19 0 0 1 14.869-26.48 55.11 55.11 0 0 1 26.618-14.589 55.067 55.067 0 0 1 30.298 1.725z" fill="#C16C37"/><path d="M145.036 86.932a55.131 55.131 0 0 1 23.94 9.608.688.688 0 0 0 .894-1.032 55.411 55.411 0 0 0-26.266-15.76 55.365 55.365 0 0 0-30.618.609 55.412 55.412 0 0 0-25.62 16.792 55.495 55.495 0 0 0-12.797 27.849c-2.451 16.602.504 33.456 10.744 45.197a.687.687 0 0 0 1.1-.78c-5.796-10.296-3.78-23.366-1.925-35.956 4.445-30.269 30.309-50.907 60.548-46.527z" fill="#C16C37"/><path d="M172.641 219.841l-22.382-10.25c-3.574-2.844-3.345-7.682 1.489-7.567 0 0 24.055 3.027 37.067 3.577 11.422.051 22.837-.6 34.18-1.949 4.582 0 4.261 4.884 1.145 7.659l-16.883 8.301c-10.241 5.595-23.482 5.297-34.616.229z" fill="#194151"/><path d="M199.56 83.263a295.901 295.901 0 0 1 68.337 13.415c6.346 2.064 17.479-23.459 21.534-28.183L278.137 50.15c24.261-28.159-178.14 28.917-163.249 26.692 3.299 5.297 7.698 10.388 14.272 9.31a296.21 296.21 0 0 1 70.4-2.889z" fill="#C16C37" opacity=".5"/><path d="M190.877 250.936c30.262 0 33.08-.413 4.582 13.002-28.499 13.414-67.261 1.146-88.337-19.285-4.032-3.876 14.295-8.049 17.571-12.842 0 0 34.386 19.125 66.184 19.125z" fill="#ECE9DC"/><path d="M196.513 248.642c-30.263 0-33.081-.412-4.582 13.002 28.499 13.415 69.551 10.319 90.628-10.112 4.146-3.99-16.678-17.222-19.862-22.014 0 0-34.387 19.124-66.184 19.124z" fill="#ECE9DC"/><path d="M202.904 322.573H186.57c-4.264 0-7.72 3.46-7.72 7.728v56.41c0 4.268 3.456 7.728 7.72 7.728h16.334c4.264 0 7.72-3.46 7.72-7.728v-56.41c0-4.268-3.456-7.728-7.72-7.728z" fill="#194151"/><path d="M158.85 350.32v16.35c0 4.267 3.457 7.727 7.72 7.727h56.356c4.264 0 7.721-3.46 7.721-7.727v-16.35c0-4.268-3.457-7.728-7.721-7.728H166.57c-4.263 0-7.72 3.46-7.72 7.728z" fill="#194151"/><path d="M220.659 12.13c29.552 21.992 49.025 59.622 49.025 102.136 0 67.762-49.186 122.682-109.848 122.682a99.463 99.463 0 0 1-31.821-5.228 101.4 101.4 0 0 0 60.823 20.638c60.686 0 109.848-55.035 109.848-122.682 0-55.517-32.943-102.32-78.027-117.545z" fill="#ECE9DC"/><path d="M192 73.517a256.348 256.348 0 0 1 59.746 7.017 14.212 14.212 0 0 0 14.73-4.861l17.709-24.055a11.035 11.035 0 0 0-1.902-15.18A138.194 138.194 0 0 0 192 3.829a138.198 138.198 0 0 0-90.903 33.021 11.033 11.033 0 0 0-1.833 15.135l17.571 23.688a14.192 14.192 0 0 0 14.754 4.953A255.991 255.991 0 0 1 192 73.517z" fill="#F8F6E8"/><path d="M195.046 73.517a256.647 256.647 0 0 1 59.77 7.017 14.19 14.19 0 0 0 14.707-4.861l9.965-13.759a139.365 139.365 0 0 0-86.068-9.172 141.417 141.417 0 0 0-60.548 28.274 16.515 16.515 0 0 0 1.809-.298 256.007 256.007 0 0 1 60.365-7.2z" fill="#ECE9DC"/><path d="M192.801 20.363c34.364 0 67.307 11.718 91.086 30.888l1.764-2.293a11.29 11.29 0 0 0-1.924-15.547A137.49 137.49 0 0 0 192.801 0c-36.242 0-70.628 12.91-94.66 33.823a11.285 11.285 0 0 0-1.924 15.502l4.239 5.71c.274-.275.526-.573.824-.849a137.375 137.375 0 0 1 91.521-33.823z" fill="#194151"/><path d="M226.065 329.819c-24.833 17.198-82.815 26.944-82.815 26.944h124.784V289.69a203.208 203.208 0 0 1-41.969 40.129zM337.15 574.976a7.415 7.415 0 0 1-1.814 5.353 7.396 7.396 0 0 1-5.059 2.512H209.639c60.319-24.467 98.119-39.372 124.464-77.966l3.047 70.101z" fill="#ECE9DC"/><path d="M176.513 220.988a38.633 38.633 0 0 0 31.019-1.674l.366-.184a34.03 34.03 0 0 0-14.112-2.82 30.1 30.1 0 0 0-17.273 4.678z" fill="#E75F67"/></g><defs><clipPath id="clip0"><path fill="#fff" d="M0 0h387v639H0z"/></clipPath></defs></svg>