<svg width="387" height="639" viewBox="0 0 387 639" fill="none" xmlns="http://www.w3.org/2000/svg">
<g clip-path="url(#clip0)">
<path d="M47.7419 463.967C65.455 463.967 79.8144 449.593 79.8144 431.863C79.8144 414.133 65.455 399.759 47.7419 399.759C30.0288 399.759 15.6694 414.133 15.6694 431.863C15.6694 449.593 30.0288 463.967 47.7419 463.967Z" fill="#E8C488"/>
<path d="M115.634 249.197L133.394 253.725C148.017 257.497 160.55 266.919 168.243 279.926C175.937 292.933 178.164 308.463 174.437 323.111L143.67 444.019C143.192 445.899 141.987 447.512 140.321 448.502C138.654 449.493 136.663 449.781 134.785 449.302L20.7873 420.237C18.9091 419.758 17.2979 418.552 16.308 416.884C15.3182 415.216 15.0309 413.223 15.5093 411.343L46.276 290.435C48.125 283.169 51.3857 276.338 55.872 270.333C60.3582 264.328 65.9821 259.267 72.4226 255.437C78.8631 251.608 85.9941 249.086 93.4083 248.015C100.823 246.944 108.375 247.346 115.634 249.197Z" fill="#ADC4BE"/>
<path d="M14.3637 411.339C13.8906 413.224 14.1815 415.22 15.1729 416.891C16.1643 418.562 17.7758 419.773 19.6557 420.259L133.673 449.451C135.553 449.918 137.541 449.623 139.205 448.631C140.87 447.639 142.076 446.03 142.562 444.154L144.051 438.352C143.163 439.231 142.066 439.869 140.864 440.206C139.661 440.543 138.393 440.568 137.178 440.278L23.092 411.087C21.2121 410.601 19.6007 409.39 18.6093 407.719C17.6179 406.048 17.327 404.052 17.8001 402.167" fill="#194151"/>
<path d="M353.393 463.967C371.106 463.967 385.465 449.593 385.465 431.863C385.465 414.133 371.106 399.759 353.393 399.759C335.68 399.759 321.32 414.133 321.32 431.863C321.32 449.593 335.68 463.967 353.393 463.967Z" fill="#E8C488"/>
<path d="M380.347 420.259L266.328 449.329C264.45 449.808 262.458 449.52 260.792 448.529C259.126 447.539 257.921 445.926 257.442 444.046L226.664 323.093C222.93 308.418 225.173 292.86 232.899 279.84C240.625 266.82 253.202 257.406 267.863 253.668L285.623 249.14C300.283 245.402 315.827 247.647 328.834 255.38C341.841 263.114 351.246 275.703 354.981 290.378L385.753 411.308C386.231 413.188 385.944 415.181 384.954 416.849C383.964 418.517 382.353 419.724 380.475 420.202L380.347 420.259Z" fill="#ADC4BE"/>
<g style="mix-blend-mode:multiply" opacity="0.66">
<path d="M238.825 454.037L352.797 424.846C354.676 424.36 356.286 423.148 357.273 421.476C358.261 419.803 358.546 417.807 358.066 415.925L329.888 345.504C332.423 328.688 331.566 311.534 327.368 295.055C320.358 269.074 288.423 246.074 258.023 253.779L240.36 258.365C225.723 262.149 213.174 271.571 205.449 284.579C197.725 297.586 195.451 313.122 199.124 327.801L229.891 448.694C230.126 449.632 230.544 450.515 231.121 451.292C231.698 452.068 232.421 452.723 233.251 453.22C234.081 453.716 235 454.043 235.957 454.184C236.913 454.324 237.888 454.274 238.825 454.037Z" fill="#C0D5D0"/>
</g>
<path d="M119.837 204.431H112.964C90.055 208.811 74.5685 193.608 70.1929 170.654L56.4476 134.399C54.371 123.341 56.749 111.909 63.0625 102.599C69.3761 93.2895 79.1125 86.8576 90.1466 84.7076C101.193 82.6497 112.605 85.0451 121.895 91.372C131.185 97.6988 137.601 107.444 139.744 118.485L146.617 154.762C151.061 177.716 142.745 200.074 119.837 204.431Z" fill="#C16C37"/>
<g style="mix-blend-mode:multiply" opacity="0.55">
<path d="M78.8012 88.9579L75.7326 90.8357C55.7408 103.07 49.4423 129.21 61.6645 149.221L85.8023 188.742C98.0245 208.753 124.139 215.057 144.131 202.823L147.2 200.945C167.191 188.711 173.49 162.571 161.268 142.56L137.13 103.04C124.908 83.0284 98.7931 76.7237 78.8012 88.9579Z" fill="#C16C37"/>
</g>
<g style="mix-blend-mode:multiply" opacity="0.66">
<path d="M156.582 454.037L42.5649 424.846C40.685 424.359 39.0735 423.148 38.0821 421.477C37.0907 419.806 36.7998 417.81 37.2729 415.925L65.5196 345.504C62.998 328.687 63.8548 311.536 68.0396 295.055C75.0497 269.074 106.985 246.074 137.408 253.779L155.048 258.365C169.685 262.149 182.233 271.571 189.958 284.579C197.683 297.586 199.956 313.122 196.284 327.801L165.471 448.625C165.243 449.565 164.832 450.45 164.261 451.231C163.691 452.012 162.973 452.672 162.147 453.175C161.322 453.677 160.405 454.012 159.45 454.16C158.496 454.308 157.521 454.266 156.582 454.037Z" fill="#C0D5D0"/>
</g>
<path d="M386.771 411.339C387.251 413.221 386.966 415.217 385.978 416.889C384.991 418.562 383.381 419.773 381.502 420.259L267.461 449.451C265.581 449.918 263.593 449.623 261.929 448.631C260.265 447.639 259.059 446.03 258.573 444.154L257.106 438.352C257.992 439.235 259.089 439.875 260.292 440.212C261.495 440.549 262.765 440.572 263.979 440.278L377.997 411.087C379.876 410.601 381.485 409.389 382.473 407.717C383.461 406.045 383.746 404.049 383.266 402.167" fill="#194151"/>
<path d="M374.263 628.887C374.414 631.395 373.574 633.861 371.923 635.753C370.273 637.646 367.945 638.812 365.443 639H31.7517C29.2367 638.818 26.8958 637.648 25.2392 635.745C23.5827 633.842 22.7451 631.36 22.9089 628.842C22.9089 595.385 28.8423 490.75 28.911 490.223C33.7906 440.279 45.2909 399.369 71.2466 366.211C73.2626 363.627 75.3473 361.113 77.5008 358.667C72.0434 347.258 69.2319 334.763 69.2765 322.114V321.472C69.2765 279.715 99.058 245.547 135.254 245.547H254.839C291.103 245.547 320.793 279.715 320.793 321.472V322.114C320.818 332.63 318.884 343.059 315.089 352.865C318.686 356.626 322.099 360.57 325.398 364.675C352.362 398.452 367 441.609 368.925 492.08L374.263 628.887Z" fill="#C0D5D0"/>
<g style="mix-blend-mode:multiply" opacity="0.49">
<path d="M206.936 355.227C241.3 341.285 297.839 263.892 297.839 263.892C305.468 271.777 311.429 281.121 315.365 291.365C319.301 301.61 321.132 312.544 320.748 323.513C320.576 333.542 318.67 343.465 315.112 352.842C318.801 356.511 204.783 357.726 206.936 355.227Z" fill="#C0D5D0"/>
</g>
<g style="mix-blend-mode:multiply" opacity="0.5">
<path d="M373.415 628.131C373.566 630.642 372.723 633.111 371.068 635.004C369.412 636.897 367.079 638.061 364.572 638.243H42.4502C113.033 623.338 332.11 563.786 367.321 470.662L373.415 628.131Z" fill="#C0D5D0"/>
</g>
<path d="M336.761 574.197C336.881 576.152 336.227 578.076 334.941 579.552C333.654 581.028 331.839 581.938 329.888 582.085H70.1928C68.2372 581.938 66.4186 581.025 65.1318 579.544C63.845 578.062 63.1939 576.133 63.3201 574.174C63.3201 548.124 67.9019 466.695 67.9019 466.397C71.7048 427.414 80.6622 395.678 100.868 369.88C102.449 367.862 104.052 365.89 105.724 364.01C101.647 355.548 293.577 352.177 290.668 359.423C293.44 362.336 296.12 365.408 298.663 368.596C319.671 394.875 331.056 428.469 332.568 467.75L336.761 574.197Z" fill="#F8F6E8"/>
<path d="M232.938 232.362V277.077H157.751V232.362L122.631 234.655V363.643H268.057V234.655L232.938 232.362Z" fill="#F8F6E8"/>
<path d="M184.76 244.836C215.046 244.836 217.841 244.4 189.342 257.815C160.844 271.229 122.082 263.57 101.006 243.139C96.8819 239.126 117.706 228.188 120.868 223.418C120.868 223.418 152.963 244.836 184.76 244.836Z" fill="#194151"/>
<path d="M199.582 242.543C169.297 242.543 166.502 242.107 195.001 255.522C223.499 268.936 264.529 268.157 285.628 247.725C289.752 243.712 264.346 228.188 261.184 223.418C261.161 223.418 231.38 242.543 199.582 242.543Z" fill="#194151"/>
<path d="M189.617 251.486C250.284 251.486 299.465 196.56 299.465 128.804C299.465 61.049 250.284 6.12256 189.617 6.12256C128.949 6.12256 79.7686 61.049 79.7686 128.804C79.7686 196.56 128.949 251.486 189.617 251.486Z" fill="#E8C488"/>
<path d="M234.037 92.1603C225.341 92.8156 216.924 95.5269 209.479 100.072C209.336 100.178 209.157 100.223 208.981 100.197C208.805 100.172 208.646 100.077 208.54 99.934C208.433 99.791 208.388 99.6117 208.414 99.4354C208.44 99.2591 208.534 99.1002 208.677 98.9938C216.289 91.8891 225.747 87.0748 235.966 85.1024C246.186 83.1301 256.754 84.0795 266.459 87.8419C276.164 91.6043 284.614 98.0275 290.841 106.375C297.067 114.723 300.818 124.658 301.664 135.042C302.97 151.804 301.183 167.696 290.21 178.611C290.154 178.679 290.086 178.735 290.008 178.776C289.931 178.817 289.846 178.843 289.759 178.851C289.672 178.86 289.584 178.851 289.5 178.826C289.416 178.8 289.338 178.758 289.271 178.703C289.203 178.647 289.147 178.578 289.106 178.501C289.064 178.424 289.039 178.339 289.03 178.251C289.022 178.164 289.03 178.076 289.056 177.992C289.081 177.908 289.123 177.83 289.179 177.762C295.685 167.902 294.517 155.565 293.554 142.884C292.38 128.258 285.45 114.698 274.289 105.186C263.128 95.6735 248.649 90.9882 234.037 92.1603Z" fill="#C16C37"/>
<path d="M212.068 29.1457C212.065 22.802 211.629 16.4658 210.762 10.1817C203.591 8.55208 196.26 7.7291 188.907 7.72803C128.244 7.72803 79.0587 62.7628 79.0587 130.41C79.0508 136.762 79.4871 143.106 80.3645 149.397C87.5379 151.01 94.8674 151.825 102.22 151.827C162.882 151.827 212.068 96.9073 212.068 29.1457Z" fill="#C16C37"/>
<path d="M166.616 25.018C166.613 18.5049 167.065 11.9995 167.968 5.54942C175.329 3.89064 182.851 3.05237 190.396 3.04993C252.685 3.04993 303.153 59.4377 303.153 128.988C303.154 135.5 302.71 142.005 301.825 148.456C294.458 150.127 286.927 150.965 279.374 150.956C217.107 150.956 166.616 94.5912 166.616 25.018Z" fill="#C16C37"/>
<path d="M150.489 178.221C158.51 178.221 165.013 171.712 165.013 163.683C165.013 155.653 158.51 149.144 150.489 149.144C142.467 149.144 135.964 155.653 135.964 163.683C135.964 171.712 142.467 178.221 150.489 178.221Z" fill="#194151"/>
<path d="M136.858 160.564L132.368 149.626L146.273 153.066L136.858 160.564Z" fill="#194151"/>
<path d="M226.317 178.221C234.338 178.221 240.841 171.712 240.841 163.683C240.841 155.653 234.338 149.144 226.317 149.144C218.295 149.144 211.792 155.653 211.792 163.683C211.792 171.712 218.295 178.221 226.317 178.221Z" fill="#194151"/>
<path d="M239.925 160.564L244.438 149.626L230.532 153.066L239.925 160.564Z" fill="#194151"/>
<path d="M253.166 55.0346C261.883 55.0212 270.478 57.0721 278.251 61.0196C278.4 61.1169 278.582 61.1511 278.756 61.1145C278.93 61.078 279.082 60.9737 279.179 60.8247C279.277 60.6757 279.311 60.4941 279.274 60.32C279.238 60.1458 279.133 59.9933 278.985 59.896C267.669 50.9511 253.308 46.7897 238.969 48.3007C224.63 49.8117 211.45 56.8753 202.244 67.9826C193.037 79.0899 188.535 93.3604 189.699 107.746C190.862 122.131 197.599 135.49 208.471 144.971C208.596 145.098 208.766 145.171 208.944 145.173C209.122 145.176 209.294 145.107 209.422 144.982C209.549 144.857 209.622 144.687 209.624 144.509C209.626 144.33 209.558 144.158 209.433 144.03C203.101 135.862 199.189 126.077 198.143 115.791C197.098 105.505 198.961 95.1323 203.52 85.8548C208.079 76.5773 215.15 68.7688 223.928 63.3195C232.706 57.8702 242.837 54.9995 253.166 55.0346Z" fill="#C16C37"/>
<path d="M160.797 45.8623C169.041 48.6664 176.506 53.3807 182.584 59.621C182.693 59.7609 182.853 59.8515 183.03 59.873C183.206 59.8945 183.383 59.8451 183.523 59.7356C183.663 59.6262 183.753 59.4656 183.775 59.2893C183.796 59.113 183.747 58.9353 183.637 58.7955C175.818 46.7372 163.616 38.1999 149.616 34.9927C135.617 31.7854 120.92 34.1601 108.639 41.6137C96.3585 49.0673 87.4597 61.014 83.8281 74.9225C80.1965 88.831 82.1175 103.608 89.1841 116.123C89.26 116.285 89.3968 116.409 89.5644 116.469C89.732 116.529 89.9165 116.52 90.0775 116.444C90.2386 116.368 90.3628 116.231 90.4229 116.064C90.4831 115.896 90.4742 115.711 90.3983 115.55C87.1087 105.764 86.6284 95.251 89.0119 85.2055C91.3955 75.1601 96.5473 65.9856 103.881 58.7256C111.216 51.4655 120.438 46.4111 130.499 44.1371C140.561 41.8631 151.058 42.4608 160.797 45.8623Z" fill="#C16C37"/>
<path d="M145.036 86.932C153.663 88.1962 161.867 91.4889 168.976 96.5402C169.116 96.6338 169.284 96.6732 169.45 96.651C169.617 96.6287 169.769 96.5465 169.879 96.4196C169.989 96.2928 170.048 96.1301 170.047 95.9622C170.045 95.7944 169.982 95.6329 169.87 95.5083C162.767 87.8895 153.664 82.4273 143.604 79.7476C133.543 77.0678 122.932 77.2789 112.986 80.3566C103.04 83.4343 94.1611 89.2541 87.3666 97.1494C80.572 105.045 76.1367 114.696 74.5687 124.998C72.1175 141.6 75.0727 158.454 85.313 170.195C85.4285 170.304 85.5781 170.37 85.7365 170.381C85.8948 170.392 86.0522 170.348 86.1817 170.256C86.3112 170.164 86.405 170.03 86.4471 169.877C86.4892 169.724 86.477 169.561 86.4126 169.415C80.6167 159.119 82.6326 146.049 84.4883 133.459C88.9326 103.19 114.797 82.5522 145.036 86.932Z" fill="#C16C37"/>
<path d="M172.641 219.841L150.259 209.591C146.685 206.747 146.914 201.909 151.748 202.024C151.748 202.024 175.803 205.051 188.815 205.601C200.237 205.652 211.652 205.001 222.995 203.652C227.577 203.652 227.256 208.536 224.14 211.311L207.257 219.612C197.016 225.207 183.775 224.909 172.641 219.841Z" fill="#194151"/>
<g style="mix-blend-mode:multiply" opacity="0.5">
<g style="mix-blend-mode:multiply" opacity="0.5">
<path d="M199.56 83.2631C222.786 85.0289 245.724 89.5316 267.897 96.6778C274.243 98.7416 285.376 73.2192 289.431 68.4954L278.137 50.1505C302.398 21.991 99.9974 79.0667 114.888 76.8424C118.187 82.1395 122.586 87.2302 129.16 86.1524C152.429 82.3918 176.062 81.4218 199.56 83.2631Z" fill="#C16C37"/>
</g>
</g>
<g style="mix-blend-mode:multiply">
<g style="mix-blend-mode:multiply">
<path d="M190.877 250.936C221.139 250.936 223.957 250.523 195.459 263.938C166.96 277.352 128.198 265.084 107.122 244.653C103.09 240.777 121.417 236.604 124.693 231.811C124.693 231.811 159.079 250.936 190.877 250.936Z" fill="#ECE9DC"/>
</g>
</g>
<g style="mix-blend-mode:multiply">
<g style="mix-blend-mode:multiply">
<path d="M196.513 248.642C166.25 248.642 163.432 248.23 191.931 261.644C220.43 275.059 261.482 271.963 282.559 251.532C286.705 247.542 265.881 234.31 262.697 229.518C262.697 229.518 228.31 248.642 196.513 248.642Z" fill="#ECE9DC"/>
</g>
</g>
<path d="M202.904 322.573H186.57C182.306 322.573 178.85 326.033 178.85 330.301V386.711C178.85 390.979 182.306 394.439 186.57 394.439H202.904C207.168 394.439 210.624 390.979 210.624 386.711V330.301C210.624 326.033 207.168 322.573 202.904 322.573Z" fill="#194151"/>
<path d="M158.85 350.32V366.67C158.85 370.937 162.307 374.397 166.57 374.397H222.926C227.19 374.397 230.647 370.937 230.647 366.67V350.32C230.647 346.052 227.19 342.592 222.926 342.592H166.57C162.307 342.592 158.85 346.052 158.85 350.32Z" fill="#194151"/>
<g style="mix-blend-mode:multiply">
<g style="mix-blend-mode:multiply">
<path d="M220.659 12.1306C250.211 34.1216 269.684 71.7517 269.684 114.266C269.684 182.028 220.498 236.948 159.836 236.948C149.015 236.948 138.268 235.182 128.015 231.72C145.522 245.01 166.866 252.252 188.838 252.358C249.524 252.358 298.686 197.323 298.686 129.676C298.686 74.1594 265.743 27.3569 220.659 12.1306Z" fill="#ECE9DC"/>
</g>
</g>
<path d="M192 73.5173C212.121 73.5032 232.174 75.8584 251.746 80.5342C254.408 81.2375 257.217 81.1526 259.831 80.2897C262.446 79.4268 264.754 77.823 266.476 75.6728L284.185 51.618C285.891 49.3327 286.646 46.4747 286.291 43.6442C285.936 40.8136 284.5 38.2307 282.283 36.4376C257.044 15.1267 225.018 3.56008 192 3.82946C158.716 3.52644 126.44 15.2509 101.097 36.8503C98.9039 38.6518 97.4894 41.2305 97.148 44.0497C96.8066 46.8688 97.5646 49.7112 99.2643 51.9849L116.835 75.6728C118.546 77.8458 120.854 79.4719 123.474 80.3517C126.095 81.2315 128.915 81.3268 131.589 80.626C151.372 75.8639 171.652 73.4775 192 73.5173Z" fill="#F8F6E8"/>
<g style="mix-blend-mode:multiply">
<g style="mix-blend-mode:multiply">
<path d="M195.046 73.5172C215.175 73.5041 235.236 75.8592 254.816 80.5342C257.474 81.2356 260.279 81.1497 262.89 80.2867C265.5 79.4238 267.805 77.821 269.523 75.6728L279.488 61.9141C252.496 49.7989 222.355 46.5867 193.42 52.7416C171.271 57.1927 150.51 66.8877 132.872 81.0157C133.48 80.9499 134.084 80.8504 134.681 80.7176C154.446 75.9283 174.711 73.5111 195.046 73.5172Z" fill="#ECE9DC"/>
</g>
</g>
<path d="M192.801 20.3628C227.165 20.3628 260.108 32.0806 283.887 51.2511L285.651 48.958C287.404 46.6215 288.183 43.6954 287.824 40.7955C287.465 37.8956 285.996 35.2482 283.727 33.4106C258.467 11.6087 226.154 -0.264667 192.801 -6.55586e-05C156.559 -6.55586e-05 122.173 12.9102 98.1418 33.8234C95.885 35.6596 94.4247 38.298 94.066 41.1869C93.7074 44.0758 94.4783 46.9916 96.2174 49.3249L100.456 55.0347C100.73 54.7596 100.982 54.4615 101.28 54.1863C126.629 32.0896 159.189 20.0565 192.801 20.3628Z" fill="#194151"/>
<g style="mix-blend-mode:multiply">
<g style="mix-blend-mode:multiply">
<path d="M226.065 329.819C201.232 347.017 143.25 356.763 143.25 356.763H268.034V289.69C256.036 305.008 241.902 318.522 226.065 329.819Z" fill="#ECE9DC"/>
</g>
</g>
<g style="mix-blend-mode:multiply">
<path d="M337.15 574.976C337.276 576.93 336.623 578.855 335.336 580.329C334.048 581.803 332.229 582.706 330.277 582.841H209.639C269.958 558.374 307.758 543.469 334.103 504.875L337.15 574.976Z" fill="#ECE9DC"/>
</g>
<path d="M176.513 220.988C181.518 222.87 186.859 223.694 192.198 223.405C197.537 223.117 202.758 221.724 207.532 219.314L207.898 219.13C203.449 217.195 198.637 216.233 193.786 216.31C187.688 216.082 181.665 217.713 176.513 220.988Z" fill="#E75F67"/>
</g>
<defs>
<clipPath id="clip0">
<rect width="387" height="639" fill="white"/>
</clipPath>
</defs>
</svg>
