<svg width="266" height="126" viewBox="0 0 266 126" fill="none" xmlns="http://www.w3.org/2000/svg">
<g clip-path="url(#clip0)">
<path d="M49.0171 63.719L45.0237 65.2065L58.2327 100.668L62.2261 99.1801L49.0171 63.719Z" fill="#C16C37"/>
<path d="M196.298 100.653L199.979 102.8L219.048 70.1149L215.367 67.9675L196.298 100.653Z" fill="#C16C37"/>
<path d="M67.1713 115.772C73.3532 115.772 78.3646 110.761 78.3646 104.579C78.3646 98.3972 73.3532 93.3857 67.1713 93.3857C60.9894 93.3857 55.978 98.3972 55.978 104.579C55.978 110.761 60.9894 115.772 67.1713 115.772Z" fill="#E8C488"/>
<path d="M100.234 163.557L95.8283 165.829C93.4009 167.081 90.5757 167.317 87.9741 166.486C85.3725 165.655 83.2077 163.824 81.9559 161.397L57.6162 114.199C57.3062 113.598 57.2476 112.898 57.4535 112.254C57.6594 111.609 58.1128 111.073 58.714 110.763L76.8911 101.389C77.4923 101.079 78.192 101.021 78.8363 101.227C79.4806 101.433 80.0168 101.886 80.3268 102.487L104.667 149.685C105.918 152.112 106.155 154.938 105.323 157.539C104.492 160.141 102.661 162.306 100.234 163.557Z" fill="#ADC4BE"/>
<path d="M80.6353 102.18C80.4816 101.882 80.2707 101.618 80.0147 101.402C79.7587 101.186 79.4626 101.022 79.1433 100.92C78.824 100.818 78.4878 100.781 78.1539 100.809C77.82 100.837 77.495 100.931 77.1974 101.085L59.1602 110.639C58.418 111.019 57.8565 111.677 57.5987 112.47C57.341 113.263 57.4079 114.125 57.785 114.869L57.841 114.973C57.8924 115.064 57.9673 115.14 58.0579 115.193C58.1486 115.246 58.2517 115.274 58.3566 115.274C58.4616 115.274 58.5647 115.246 58.6554 115.193C58.746 115.14 58.8209 115.064 58.8723 114.973C59.1089 114.595 59.4431 114.288 59.8398 114.085L78.3966 104.283C78.6943 104.129 79.0193 104.035 79.3532 104.007C79.6871 103.979 80.0233 104.017 80.3426 104.118C80.6618 104.22 80.958 104.384 81.214 104.6C81.47 104.816 81.6809 105.081 81.8346 105.378" fill="#194151"/>
<path d="M189.962 115.772C196.144 115.772 201.155 110.761 201.155 104.579C201.155 98.3972 196.144 93.3857 189.962 93.3857C183.78 93.3857 178.769 98.3972 178.769 104.579C178.769 110.761 183.78 115.772 189.962 115.772Z" fill="#E8C488"/>
<path d="M180.232 101.377L198.402 110.747C199.003 111.057 199.457 111.593 199.663 112.237C199.868 112.882 199.81 113.582 199.5 114.183L175.16 161.38C173.908 163.808 171.744 165.639 169.142 166.47C166.54 167.301 163.715 167.065 161.288 165.813L156.882 163.541C154.455 162.289 152.624 160.124 151.793 157.523C150.961 154.921 151.198 152.096 152.45 149.669L176.786 102.478C177.096 101.877 177.632 101.423 178.276 101.218C178.92 101.012 179.62 101.07 180.221 101.38L180.232 101.377Z" fill="#ADC4BE"/>
<path d="M176.498 102.18C176.81 101.581 177.347 101.129 177.991 100.923C178.635 100.718 179.334 100.776 179.936 101.085L197.973 110.615C198.711 110.999 199.267 111.659 199.521 112.452C199.774 113.244 199.703 114.104 199.324 114.845L199.3 114.973C199.249 115.064 199.174 115.14 199.083 115.193C198.993 115.246 198.89 115.274 198.785 115.274C198.68 115.274 198.577 115.246 198.486 115.193C198.395 115.14 198.32 115.064 198.269 114.973C198.032 114.595 197.698 114.288 197.302 114.085L178.745 104.283C178.144 103.975 177.446 103.917 176.803 104.122C176.16 104.327 175.625 104.779 175.315 105.378" fill="#194151"/>
<path d="M103.174 132.419H100.775C92.7802 133.946 87.3754 128.645 85.8563 120.642L81.0592 107.993C80.3368 104.139 81.1678 100.155 83.3711 96.9108C85.5743 93.6667 88.9709 91.4253 92.8202 90.6756C96.6781 89.9512 100.666 90.7833 103.912 92.99C107.159 95.1967 109.4 98.5987 110.146 102.453L112.544 115.093C114.079 123.096 111.177 130.891 103.174 132.419Z" fill="#C16C37"/>
<g style="mix-blend-mode:multiply" opacity="0.49">
<path d="M103.174 136.816H100.775C92.7802 138.343 87.3754 133.042 85.8563 125.039L81.0592 112.39C80.3368 108.536 81.1678 104.552 83.3711 101.308C85.5743 98.0636 88.9709 95.8223 92.8202 95.0726C96.6781 94.3482 100.666 95.1803 103.912 97.387C107.159 99.5937 109.4 102.996 110.146 106.849L112.544 119.49C114.079 127.493 111.177 135.288 103.174 136.816Z" fill="#C0D5D0"/>
</g>
<g style="mix-blend-mode:multiply" opacity="0.55">
<path d="M88.6493 91.5495L87.5783 92.2043C80.6012 96.4698 78.403 105.584 82.6685 112.561L91.0926 126.34C95.3582 133.317 104.472 135.516 111.449 131.25L112.52 130.595C119.497 126.33 121.696 117.216 117.43 110.239L109.006 96.4593C104.74 89.4821 95.6264 87.284 88.6493 91.5495Z" fill="#C16C37"/>
</g>
<path d="M127.527 148.537C148.7 148.537 165.864 128.388 165.864 103.532C165.864 78.6768 148.7 58.5273 127.527 58.5273C106.354 58.5273 89.1899 78.6768 89.1899 103.532C89.1899 128.388 106.354 148.537 127.527 148.537Z" fill="#E8C488"/>
<path d="M143.037 93.2734C140.003 93.5007 137.066 94.4432 134.467 96.0238C134.418 96.062 134.356 96.0792 134.294 96.0717C134.233 96.0642 134.177 96.0326 134.139 95.9838C134.101 95.935 134.083 95.8731 134.091 95.8116C134.098 95.7502 134.13 95.6942 134.179 95.656C136.835 93.1765 140.136 91.4959 143.704 90.8068C147.272 90.1178 150.962 90.4482 154.351 91.7603C157.739 93.0723 160.689 95.3128 162.863 98.2249C165.036 101.137 166.345 104.603 166.639 108.224C167.087 114.061 166.471 119.602 162.642 123.415C162.599 123.457 162.543 123.481 162.484 123.484C162.425 123.486 162.367 123.467 162.321 123.429C162.275 123.391 162.245 123.338 162.237 123.279C162.228 123.221 162.241 123.161 162.274 123.112C164.553 119.674 164.145 115.372 163.801 110.951C163.391 105.853 160.974 101.128 157.08 97.8125C153.186 94.4975 148.135 92.8648 143.037 93.2734Z" fill="#C16C37"/>
<path d="M135.338 67.0017C135.339 64.6754 135.184 62.3516 134.875 60.0459C132.376 59.4517 129.816 59.1512 127.247 59.1504C106.108 59.1264 88.9661 79.2744 88.9661 104.131C88.9674 106.457 89.1196 108.781 89.4218 111.087C91.9209 111.681 94.4806 111.981 97.0492 111.983C118.205 111.983 135.338 91.8348 135.338 67.0017Z" fill="#C16C37"/>
<path d="M119.508 65.4664C119.508 63.079 119.663 60.694 119.972 58.3267C122.539 57.7167 125.168 57.4081 127.807 57.4072C149.538 57.4072 167.16 78.0908 167.16 103.604C167.161 105.994 167.003 108.382 166.688 110.751C164.123 111.359 161.496 111.665 158.86 111.663C137.122 111.663 119.508 90.9871 119.508 65.4664Z" fill="#C16C37"/>
<path d="M113.871 123.28C116.671 123.28 118.94 121.01 118.94 118.211C118.94 115.411 116.671 113.142 113.871 113.142C111.072 113.142 108.802 115.411 108.802 118.211C108.802 121.01 111.072 123.28 113.871 123.28Z" fill="#194151"/>
<path d="M109.122 117.123L107.555 113.309L112.4 114.508L109.122 117.123Z" fill="#194151"/>
<path d="M140.343 123.28C143.143 123.28 145.412 121.01 145.412 118.211C145.412 115.411 143.143 113.142 140.343 113.142C137.544 113.142 135.274 115.411 135.274 118.211C135.274 121.01 137.544 123.28 140.343 123.28Z" fill="#194151"/>
<path d="M145.093 117.123L146.66 113.309L141.807 114.508L145.093 117.123Z" fill="#194151"/>
<path d="M149.73 80.3293C152.785 80.3187 155.8 81.0339 158.525 82.4161C158.577 82.4472 158.639 82.4568 158.697 82.4428C158.756 82.4288 158.807 82.3923 158.84 82.3412C158.872 82.29 158.883 82.2283 158.871 82.1691C158.858 82.1099 158.823 82.0579 158.772 82.0243C154.833 78.8197 149.788 77.2989 144.734 77.7925C139.68 78.2861 135.025 80.7541 131.78 84.6604C128.535 88.5667 126.963 93.5956 127.404 98.6546C127.846 103.714 130.266 108.394 134.139 111.679C134.16 111.701 134.185 111.718 134.213 111.731C134.241 111.743 134.271 111.75 134.301 111.75C134.332 111.751 134.362 111.746 134.391 111.735C134.419 111.724 134.445 111.708 134.467 111.687C134.489 111.666 134.507 111.64 134.519 111.613C134.531 111.585 134.538 111.555 134.539 111.524C134.54 111.494 134.534 111.464 134.523 111.435C134.512 111.407 134.496 111.381 134.475 111.359C132.269 108.51 130.906 105.1 130.543 101.516C130.179 97.9311 130.829 94.3165 132.419 91.0833C134.008 87.85 136.474 85.1279 139.534 83.2267C142.594 81.3256 146.127 80.3217 149.73 80.3293Z" fill="#C16C37"/>
<path d="M117.477 77.084C120.351 78.0628 122.953 79.7064 125.072 81.8811C125.11 81.9299 125.166 81.9615 125.228 81.969C125.289 81.9765 125.351 81.9593 125.4 81.9211C125.449 81.8829 125.48 81.827 125.488 81.7655C125.495 81.704 125.478 81.6421 125.44 81.5933C122.734 77.3409 118.47 74.3176 113.561 73.1712C108.653 72.0249 103.491 72.8467 99.181 75.4606C94.8713 78.0745 91.7568 82.2724 90.5049 87.155C89.253 92.0375 89.9634 97.2162 92.4838 101.581C92.5093 101.638 92.556 101.681 92.6137 101.703C92.6714 101.725 92.7354 101.723 92.7916 101.697C92.8478 101.672 92.8916 101.625 92.9133 101.567C92.9351 101.51 92.933 101.446 92.9076 101.389C91.7485 97.9746 91.5723 94.3027 92.3989 90.7925C93.2256 87.2823 95.022 84.075 97.5832 81.5363C100.144 78.9976 103.367 77.2296 106.885 76.4339C110.402 75.6382 114.072 75.8469 117.477 77.036V77.084Z" fill="#C16C37"/>
<path d="M111.969 91.4506C114.981 91.8883 117.847 93.0336 120.332 94.7926C120.378 94.8329 120.439 94.853 120.501 94.8485C120.562 94.844 120.619 94.8152 120.66 94.7686C120.7 94.7219 120.72 94.6612 120.716 94.5997C120.711 94.5382 120.682 94.4811 120.636 94.4408C118.161 91.776 114.984 89.8638 111.47 88.9239C107.957 87.9841 104.25 88.0548 100.775 89.128C97.2995 90.2011 94.1979 92.2331 91.8262 94.9904C89.4546 97.7477 87.9091 101.118 87.3676 104.715C86.5121 110.511 87.5355 116.38 91.1173 120.481C91.1577 120.519 91.2099 120.542 91.2651 120.546C91.3204 120.55 91.3753 120.534 91.4205 120.502C91.4657 120.47 91.4985 120.424 91.5132 120.37C91.5278 120.317 91.5236 120.26 91.5011 120.209C89.4703 116.62 90.1739 112.062 90.8295 107.673C92.3966 97.1512 101.415 89.8835 111.969 91.4506Z" fill="#C16C37"/>
<g style="mix-blend-mode:multiply" opacity="0.5">
<g style="mix-blend-mode:multiply" opacity="0.5">
<path d="M131.005 85.3902C139.111 86.0132 147.116 87.5857 154.855 90.0754C157.069 90.787 160.316 84.5907 161.731 82.9517L158.421 76.2197C160.02 74.3968 101.447 83.1596 101.447 83.1596C102.598 84.9985 104.133 86.7734 106.436 86.4056C114.556 85.0917 122.804 84.7508 131.005 85.3902Z" fill="#C16C37"/>
</g>
</g>
<g style="mix-blend-mode:multiply">
<g style="mix-blend-mode:multiply">
<path d="M138.369 60.7329C148.675 68.8001 155.471 82.5678 155.471 98.1825C155.471 123.04 138.305 143.188 117.134 143.188C113.349 143.184 109.593 142.533 106.028 141.261C112.057 146.091 119.539 148.745 127.264 148.792C148.435 148.792 165.601 128.644 165.601 103.787C165.601 83.4953 154.12 66.3216 138.369 60.7329Z" fill="#ECE9DC"/>
</g>
</g>
<path d="M128.359 81.9767C135.384 81.9717 142.385 82.7929 149.219 84.4233C150.15 84.6612 151.13 84.6247 152.04 84.3183C152.951 84.0119 153.754 83.4486 154.352 82.6963L160.54 74.3093C161.133 73.5118 161.395 72.5159 161.272 71.5295C161.148 70.5432 160.648 69.6428 159.876 69.0165C150.976 61.6534 139.778 57.6394 128.227 57.6716C116.676 57.7037 105.501 61.7799 96.6421 69.1924C95.8755 69.8193 95.3802 70.7179 95.2596 71.7009C95.139 72.6839 95.4022 73.6755 95.9945 74.4692L102.111 82.7603C102.71 83.5157 103.515 84.0805 104.43 84.3857C105.344 84.6909 106.327 84.7234 107.26 84.4792C114.169 82.8139 121.252 81.9739 128.359 81.9767Z" fill="#F8F6E8"/>
<g style="mix-blend-mode:multiply">
<g style="mix-blend-mode:multiply">
<path d="M129.422 81.9768C136.447 81.9718 143.448 82.7929 150.281 84.4233C151.212 84.6613 152.192 84.6248 153.103 84.3184C154.014 84.012 154.816 83.4487 155.414 82.6964L158.908 77.9632C149.489 73.719 138.963 72.5822 128.854 74.7172C121.114 76.2761 113.858 79.6614 107.691 84.5912C107.904 84.5702 108.115 84.5328 108.323 84.4793C115.232 82.814 122.315 81.974 129.422 81.9768Z" fill="#ECE9DC"/>
</g>
</g>
<path d="M134.475 60.6931C156.582 60.6931 186.788 71.0869 207.168 74.157C213.148 75.0525 219.488 73.7413 222.894 70.863L233.04 51.6265C236.822 48.4285 235.974 44.175 231.017 41.5126C205.992 28.0886 171.981 19.8296 134.475 19.8296C96.6657 19.8296 62.3983 28.2326 37.3253 41.8484C32.4162 44.5108 31.5847 48.7483 35.3505 51.9383L43.6895 67.8008C47.1034 70.6871 53.4596 71.9983 59.456 71.0869C80.0517 67.9607 112.152 60.6931 134.475 60.6931Z" fill="#F8F6E8"/>
<path d="M128.638 63.436C140.679 63.436 152.136 67.5216 160.435 74.2136L161.051 73.4141C161.661 72.5997 161.932 71.5802 161.805 70.5704C161.678 69.5606 161.164 68.6394 160.371 68.0013C151.553 60.4082 140.275 56.2795 128.638 56.3843C115.998 56.3843 103.997 60.8856 95.6101 68.1772C94.8237 68.8186 94.3156 69.739 94.1919 70.7462C94.0683 71.7534 94.3386 72.7694 94.9465 73.582L96.4176 75.5728C96.5047 75.4685 96.5982 75.3697 96.6974 75.2769C105.537 67.5553 116.901 63.3425 128.638 63.436Z" fill="#194151"/>
<path d="M77.4534 38.9296L76.51 40.4647C75.7442 39.9872 74.8895 39.6702 73.9976 39.5328C73.1056 39.3953 72.1951 39.4404 71.3211 39.6652C67.5474 40.4647 65.5965 43.9586 66.436 47.7963C67.2995 51.7939 70.5696 53.9446 74.2234 53.1451C76.0047 52.8424 77.5971 51.8554 78.6607 50.3948L77.9092 46.9488L74.2554 47.7483L73.8876 46.0853L79.3723 44.8461L80.6675 50.7705C79.9966 51.8441 79.1076 52.7648 78.0581 53.4727C77.0085 54.1807 75.8219 54.6602 74.5752 54.8801C69.906 55.8955 65.5646 53.1851 64.4772 48.1961C63.4298 43.399 66.0763 38.9056 70.9134 37.8583C72.0196 37.5883 73.1688 37.5441 74.2925 37.7282C75.4161 37.9122 76.4912 38.3209 77.4534 38.9296Z" fill="#F3C74A"/>
<path d="M91.2371 33.9251C92.3611 33.725 93.514 33.7541 94.6265 34.0106C95.739 34.2671 96.7881 34.7457 97.7111 35.4178C98.634 36.0898 99.4116 36.9414 99.9973 37.9214C100.583 38.9014 100.965 39.9896 101.119 41.1208C101.333 42.2412 101.321 43.3931 101.083 44.5087C100.845 45.6243 100.387 46.6813 99.7357 47.6174C99.084 48.5536 98.2519 49.3501 97.2881 49.9602C96.3244 50.5703 95.2484 50.9817 94.1235 51.1703C92.9985 51.3588 91.8473 51.3207 90.7372 51.0582C89.6272 50.7957 88.5808 50.314 87.6595 49.6415C86.7382 48.969 85.9605 48.1193 85.3722 47.1421C84.7838 46.1649 84.3966 45.08 84.2333 43.9511C84.007 42.8304 84.0105 41.6754 84.2436 40.556C84.4766 39.4367 84.9344 38.3762 85.5892 37.4389C86.2439 36.5016 87.0821 35.7069 88.0529 35.103C89.0237 34.499 90.107 34.0983 91.2371 33.9251ZM93.8116 49.2999C97.4814 48.6843 99.792 45.3503 99.1364 41.4246C98.4808 37.499 95.2028 35.1084 91.5409 35.716C87.8791 36.3237 85.5685 39.7136 86.2161 43.5913C86.8637 47.469 90.1498 49.9155 93.8116 49.2999Z" fill="#F3C74A"/>
<path d="M113.64 31.0786C114.776 30.9839 115.92 31.1192 117.002 31.4765C118.085 31.8337 119.085 32.4055 119.942 33.1578C120.798 33.9101 121.495 34.8274 121.989 35.8549C122.483 36.8823 122.765 37.9989 122.818 39.1378C122.955 40.2865 122.858 41.4511 122.533 42.5612C122.208 43.6714 121.661 44.7041 120.925 45.597C120.19 46.4899 119.281 47.2245 118.253 47.7565C117.226 48.2885 116.102 48.6068 114.948 48.6922C113.794 48.7777 112.635 48.6284 111.541 48.2535C110.446 47.8786 109.439 47.2859 108.58 46.511C107.721 45.7361 107.028 44.7952 106.543 43.7451C106.058 42.695 105.79 41.5574 105.757 40.4011C105.639 39.267 105.752 38.1209 106.088 37.0315C106.424 35.9421 106.977 34.9318 107.713 34.0613C108.449 33.1907 109.354 32.4778 110.372 31.9653C111.391 31.4527 112.502 31.1512 113.64 31.0786ZM114.783 46.6293C118.493 46.3575 121.107 43.2553 120.811 39.2817C120.516 35.3081 117.477 32.6297 113.768 32.8856C110.058 33.1414 107.459 36.3075 107.747 40.2332C108.035 44.1588 111.081 46.9092 114.783 46.6293Z" fill="#F3C74A"/>
<path d="M129.518 31.1108L132.956 31.4227C138.665 31.9343 141.639 35.3483 141.167 40.5852C140.672 46.1258 137.05 48.6443 131.461 48.1406L128.023 47.8368L129.518 31.1108ZM131.997 46.4536C135.994 46.8134 138.793 44.7747 139.193 40.4013C139.568 36.2278 137.202 33.5574 133.188 33.2056L131.301 33.0377L130.118 46.2937L131.997 46.4536Z" fill="#F3C74A"/>
<path d="M152.864 48.9562C153.35 49.1724 153.86 49.3307 154.383 49.4279C155.687 49.6438 156.59 49.0442 156.87 47.3652L158.973 34.8047L160.883 35.1245L158.741 47.9168C158.317 50.4753 156.654 51.5626 154.311 51.1709C153.638 51.0688 152.982 50.8751 152.361 50.5952L152.864 48.9562Z" fill="#F3C74A"/>
<path d="M174.835 37.4197C175.955 37.6285 177.022 38.0609 177.972 38.6913C178.922 39.3216 179.735 40.1368 180.362 41.0883C180.99 42.0398 181.419 43.108 181.625 44.2291C181.83 45.3503 181.808 46.5013 181.559 47.6136C181.382 48.7539 180.977 49.8467 180.368 50.8265C179.759 51.8063 178.958 52.6529 178.013 53.3153C177.068 53.9778 175.999 54.4425 174.871 54.6815C173.742 54.9206 172.576 54.929 171.444 54.7064C170.312 54.4837 169.237 54.0345 168.282 53.3858C167.328 52.7371 166.515 51.9023 165.891 50.9314C165.268 49.9606 164.847 48.8737 164.654 47.7361C164.461 46.5985 164.5 45.4337 164.769 44.3116C164.958 43.1888 165.372 42.1157 165.985 41.1563C166.598 40.1969 167.398 39.3709 168.338 38.7276C169.277 38.0843 170.337 37.637 171.453 37.4123C172.569 37.1876 173.72 37.1901 174.835 37.4197ZM171.829 52.7145C175.474 53.4341 178.816 51.1155 179.584 47.2298C180.351 43.3442 178.129 39.9302 174.483 39.2346C170.837 38.539 167.495 40.8337 166.736 44.7273C165.976 48.621 168.183 51.971 171.829 52.6826V52.7145Z" fill="#F3C74A"/>
<path d="M188.587 40.5293L193.104 41.5287C196.222 42.2163 197.629 44.1991 197.054 46.7975C196.908 47.54 196.559 48.2274 196.045 48.7824C195.531 49.3374 194.872 49.7382 194.143 49.9397C194.891 50.3991 195.47 51.088 195.794 51.9035C196.119 52.7191 196.17 53.6175 195.942 54.4649C195.287 57.4152 192.744 58.6544 189.97 58.0308L184.957 56.9275L188.587 40.5293ZM190.01 56.2958C191.953 56.7276 193.52 56.096 194.007 53.9852C194.495 51.8745 193.248 50.6672 191.345 50.2515L188.587 49.6358L187.243 55.6802L190.01 56.2958ZM191.745 48.6764C192.107 48.7768 192.486 48.799 192.858 48.7417C193.229 48.6844 193.585 48.5489 193.9 48.344C194.215 48.1392 194.483 47.8697 194.686 47.5535C194.89 47.2373 195.023 46.8815 195.079 46.5097C195.188 46.1549 195.218 45.7804 195.166 45.4128C195.113 45.0453 194.98 44.6938 194.776 44.3836C194.572 44.0734 194.302 43.8122 193.986 43.6185C193.669 43.4249 193.313 43.3037 192.944 43.2637L190.114 42.632L188.906 48.0448L191.745 48.6764Z" fill="#F3C74A"/>
<path d="M201.698 58.2791C202.039 58.366 202.333 58.5834 202.515 58.8844C202.698 59.1853 202.755 59.5459 202.674 59.8885C202.593 60.2311 202.381 60.5284 202.084 60.7163C201.786 60.9043 201.427 60.9679 201.083 60.8935C200.908 60.8558 200.743 60.7837 200.597 60.6814C200.451 60.5792 200.326 60.4488 200.231 60.2979C200.136 60.147 200.071 59.9786 200.042 59.8026C200.012 59.6266 200.018 59.4465 200.059 59.2728C200.1 59.0991 200.175 58.9352 200.28 58.7909C200.385 58.6465 200.518 58.5245 200.67 58.432C200.823 58.3395 200.992 58.2783 201.169 58.2521C201.346 58.2258 201.526 58.235 201.698 58.2791ZM204.017 44.0156L205.952 44.4714L202.914 56.664L201.315 56.2883L204.017 44.0156Z" fill="#F3C74A"/>
<g style="mix-blend-mode:multiply">
<path d="M90.3096 65.8738L51.8127 71.0547C47.871 71.2546 46.0561 70.7669 45.9522 68.6561C45.8482 66.5534 49.0543 66.2016 52.9879 66.0097L91.213 62.5638C95.1467 62.3639 97.2574 61.4924 97.3614 63.6032C97.4813 65.7059 94.2432 65.6739 90.3096 65.8738Z" fill="#ECE9DC"/>
</g>
<g style="mix-blend-mode:multiply">
<path d="M208.895 73.1503L163.05 63.3321C158.477 62.0129 156.558 60.8536 157.142 58.8308C157.725 56.8081 161.523 57.7035 166.096 59.0227L211.029 70.3759C215.603 71.6951 218.313 71.6791 217.729 73.7019C217.146 75.7327 213.452 74.4695 208.895 73.1503Z" fill="#ECE9DC"/>
</g>
</g>
<defs>
<clipPath id="clip0">
<rect width="266" height="126" fill="white"/>
</clipPath>
</defs>
</svg>
