<svg width="249" height="275" viewBox="0 0 249 275" fill="none" xmlns="http://www.w3.org/2000/svg"><g clip-path="url(#clip0)"><path d="M207.034 140.57l-51.173-48.878a7.63 7.63 0 0 0-10.787.247L49.192 192.321a7.63 7.63 0 0 0 .248 10.787l51.172 48.879a7.631 7.631 0 0 0 10.788-.247l95.881-100.383a7.63 7.63 0 0 0-.247-10.787z" fill="#C0D5D0"/><path d="M196.216 144.643l-43.923-41.953a3.877 3.877 0 0 0-5.481.125l-86.68 90.75a3.876 3.876 0 0 0 .125 5.48l43.923 41.954a3.877 3.877 0 0 0 5.481-.125l86.681-90.75a3.877 3.877 0 0 0-.126-5.481z" stroke="#C0D5D0" stroke-width="5" stroke-miterlimit="10"/><path d="M139.594 157.855c-9.666-9.232-22.928-11.036-29.621-4.029-6.694 7.008-4.284 20.173 5.382 29.406 9.666 9.232 22.928 11.036 29.622 4.029 6.693-7.008 4.283-20.173-5.383-29.406z" fill="#C0D5D0"/><path d="M135.457 179.89a8.376 8.376 0 0 1-9.073 1.165l1.655-5.304c1.487.501 3.338.439 4.489-.77.993-1.039 1.073-1.978.257-2.743-2.342-2.244-9.121 5.26-14.788-.142-2.802-2.676-3.031-6.319-.718-9.548l-1.435-1.374 2.386-2.496 1.464 1.397a8.09 8.09 0 0 1 8.107-.558l-1.779 5.138c-1.118-.391-2.586-.775-3.855.56a1.718 1.718 0 0 0-.518 1.922c.083.222.21.424.375.594 2.393 2.289 9.169-5.317 14.565-.16 2.77 2.642 3.254 6.332 1.111 9.736l1.989 1.905-2.386 2.497-1.846-1.819z" fill="#C0D5D0"/><path d="M217.537 111.46L183.55 49.39a7.63 7.63 0 0 0-10.356-3.027L51.436 113.034a7.629 7.629 0 0 0-3.028 10.356l33.987 62.07a7.63 7.63 0 0 0 10.357 3.027l121.758-66.67a7.63 7.63 0 0 0 3.027-10.357z" fill="#C0D5D0" opacity=".48"/><path d="M217.12 104.622l-33.987-62.07a7.63 7.63 0 0 0-10.357-3.027l-121.758 66.67a7.63 7.63 0 0 0-3.027 10.357l33.987 62.069a7.63 7.63 0 0 0 10.356 3.028l121.758-66.67a7.63 7.63 0 0 0 3.028-10.357z" fill="#C0D5D0"/><path d="M205.577 105.232l-29.172-53.276a3.876 3.876 0 0 0-5.262-1.539L61.069 110.69a3.876 3.876 0 0 0-1.538 5.262l29.172 53.276a3.876 3.876 0 0 0 5.262 1.538l110.074-60.272a3.876 3.876 0 0 0 1.538-5.262z" stroke="#C0D5D0" stroke-width="5" stroke-miterlimit="10"/><path d="M147.611 100.696c-6.42-11.724-18.514-17.456-27.014-12.801-8.5 4.654-10.186 17.931-3.766 29.656 6.42 11.724 18.515 17.456 27.015 12.801 8.499-4.654 10.185-17.931 3.765-29.656z" fill="#C0D5D0"/><path d="M136.923 120.471a8.37 8.37 0 0 1-9.021-1.639l3.186-4.565c1.262.932 3.048 1.43 4.507.628 1.258-.689 1.607-1.606 1.079-2.537-1.555-2.842-10.304 2.248-14.029-4.587-1.859-3.395-.981-6.932 2.211-9.314l-.956-1.74 3.025-1.663.97 1.773a8.117 8.117 0 0 1 7.918 1.908l-3.251 4.365c-.951-.714-2.226-1.53-3.847-.642a1.71 1.71 0 0 0-.965.986 1.723 1.723 0 0 0 .07 1.378c1.589 2.902 10.332-2.299 13.93 4.253 1.834 3.364 1.153 7.009-1.905 9.603l1.322 2.419-3.031 1.659-1.213-2.285z" fill="#C0D5D0"/></g><defs><clipPath id="clip0"><path fill="#fff" transform="rotate(-61.524 166.087 98.858)" d="M0 0h224.928v160.377H0z"/></clipPath></defs></svg>