<svg width="369" height="391" viewBox="0 0 369 391" fill="none" xmlns="http://www.w3.org/2000/svg"><g clip-path="url(#clip0)"><path d="M201.92 101.976v225.968a30.068 30.068 0 0 1-8.798 21.253A30.034 30.034 0 0 1 171.881 358H31.089a30.033 30.033 0 0 1-21.24-8.803 30.066 30.066 0 0 1-8.8-21.253V101.976a30.065 30.065 0 0 1 8.807-21.238 30.03 30.03 0 0 1 21.233-8.795h2.283a30.424 30.424 0 0 0 21.542-8.929 30.457 30.457 0 0 0 8.908-21.561V35.97h77.609v5.482a30.48 30.48 0 0 0 8.91 21.558 30.451 30.451 0 0 0 21.54 8.932c7.963 0 15.6 3.163 21.233 8.795a30.068 30.068 0 0 1 8.806 21.238z" fill="#F58777"/><path d="M31.09 73.633a30.423 30.423 0 0 0 21.534-8.92 30.457 30.457 0 0 0 8.915-21.547v-5.482h77.609v5.482c0 16.832-108.059 30.467-108.059 30.467z" fill="#F58777" opacity=".77"/><path d="M149.534 0H55.319a5.023 5.023 0 0 0-5.022 5.025v29.667a5.023 5.023 0 0 0 5.022 5.025h94.215a5.024 5.024 0 0 0 5.022-5.025V5.025A5.024 5.024 0 0 0 149.534 0z" fill="#F8F6E8"/><path d="M67.337 41.03V15.04a1.325 1.325 0 0 0-1.29-1.337 1.323 1.323 0 0 0-1.323 1.325V41.03h2.613zM91.624 41.03V15.04a1.324 1.324 0 0 0-1.324-1.337 1.324 1.324 0 0 0-1.278 1.336V41.03h2.602zM115.877 41.03V15.04a1.332 1.332 0 0 0-.815-1.235 1.32 1.32 0 0 0-1.445.286 1.322 1.322 0 0 0-.388.937V41.03h2.648zM140.13 41.03V15.04a1.332 1.332 0 0 0-.815-1.235 1.32 1.32 0 0 0-1.445.286 1.322 1.322 0 0 0-.388.937V41.03h2.648z" fill="#C0D5D0"/><path d="M51.096 26.368h102.661a.799.799 0 0 1 .799.799v9.375a5.025 5.025 0 0 1-5.022 5.025H55.319a5.02 5.02 0 0 1-5.022-5.025v-9.364a.8.8 0 0 1 .8-.81z" fill="#F8F6E8"/><path d="M202 139.968H0v126.745h202V139.968z" fill="#F7C1B6"/></g><g clip-path="url(#clip1)"><path d="M274.632 113.771h77.736a6.532 6.532 0 0 1 4.61 1.908 6.509 6.509 0 0 1 1.91 4.607v200.055a11.643 11.643 0 0 1-3.418 8.244 11.666 11.666 0 0 1-8.251 3.415h-67.438a11.676 11.676 0 0 1-8.245-3.418 11.656 11.656 0 0 1-3.414-8.241V120.286a6.51 6.51 0 0 1 1.906-4.603 6.524 6.524 0 0 1 4.604-1.912z" fill="#F3C74A"/><path d="M355.308 279.561h-52.621c-9.431 0-17.076-7.123-17.076-15.916v-86.879c0-8.793 7.645-15.916 17.076-15.916h52.621a4.223 4.223 0 0 1 4.127 4.288v110.135a4.22 4.22 0 0 1-1.18 2.992 4.233 4.233 0 0 1-2.947 1.296z" fill="#F8EEC8"/><path d="M267.926 151.582v-33.1c0-3.598 2.167-6.515 4.839-6.515h81.088c2.673 0 4.839 2.917 4.839 6.515v11.782l-90.766 21.318z" fill="#F3C74A" opacity=".67"/><path d="M364.46 88H262.54a4.538 4.538 0 0 0-4.54 4.536v26.781a4.538 4.538 0 0 0 4.54 4.536h101.92a4.538 4.538 0 0 0 4.54-4.536V92.536A4.538 4.538 0 0 0 364.46 88z" fill="#F8F6E8"/><path d="M269.401 125.038v-23.462a1.178 1.178 0 0 0-.347-.852 1.197 1.197 0 0 0-2.046.842v23.472h2.393zM291.327 125.038v-23.462a1.215 1.215 0 0 0-.088-.461 1.208 1.208 0 0 0-.649-.653 1.192 1.192 0 0 0-.46-.092 1.196 1.196 0 0 0-1.176 1.206v23.462h2.373zM313.252 125.038v-23.462a1.189 1.189 0 0 0-.736-1.114 1.2 1.2 0 0 0-1.307.258 1.2 1.2 0 0 0-.35.846v23.472h2.393zM357.103 125.038v-23.462a1.189 1.189 0 0 0-.736-1.114 1.2 1.2 0 0 0-1.307.258 1.2 1.2 0 0 0-.35.846v23.472h2.393zM335.178 125.038v-23.462a1.215 1.215 0 0 0-.088-.461 1.208 1.208 0 0 0-.649-.653 1.197 1.197 0 0 0-1.657 1.104v23.472h2.394z" fill="#C0D5D0"/><path d="M258.722 111.802h109.556a.724.724 0 0 1 .722.722v8.463a4.54 4.54 0 0 1-4.54 4.536H262.54a4.54 4.54 0 0 1-4.54-4.536v-8.453a.717.717 0 0 1 .444-.676.719.719 0 0 1 .278-.056z" fill="#F8F6E8"/></g><g clip-path="url(#clip2)"><path d="M168.225 192.446h120.539a7.192 7.192 0 0 1 7.196 7.191v178.494c0 3.413-1.357 6.686-3.772 9.1a12.883 12.883 0 0 1-9.106 3.769H173.917c-3.415 0-6.69-1.356-9.105-3.769a12.867 12.867 0 0 1-3.772-9.1V199.637a7.191 7.191 0 0 1 7.185-7.191z" fill="#F3C74A"/><path d="M164.217 348.9h54.184a17.599 17.599 0 0 0 12.409-5.165 17.575 17.575 0 0 0 5.136-12.415v-95.886c0-4.655-1.847-9.119-5.136-12.415a17.599 17.599 0 0 0-12.409-5.165h-54.184a4.55 4.55 0 0 0-4.281 4.745v121.556a4.55 4.55 0 0 0 4.281 4.745z" fill="#F8EEC8"/><path d="M160.801 234.182v-36.536a7.19 7.19 0 0 1 2.104-5.081 7.198 7.198 0 0 1 5.081-2.11h120.493a7.208 7.208 0 0 1 5.088 2.106 7.176 7.176 0 0 1 2.108 5.085v13.006l-134.874 23.53z" fill="#F3C74A" opacity=".67"/><path d="M305.99 164H151.01a5.008 5.008 0 0 0-5.01 5.007v29.561a5.008 5.008 0 0 0 5.01 5.006h154.98a5.008 5.008 0 0 0 5.01-5.006v-29.561a5.008 5.008 0 0 0-5.01-5.007z" fill="#F8F6E8"/><path d="M158.581 204.883v-25.898a1.3 1.3 0 0 0-.383-.94 1.317 1.317 0 0 0-1.871-.004 1.317 1.317 0 0 0-.387.933v25.909h2.641zM182.775 204.883v-25.898a1.316 1.316 0 0 0-1.32-1.331c-.349.006-.68.149-.923.399a1.314 1.314 0 0 0-.375.932v25.898h2.618zM206.97 204.883v-25.898a1.319 1.319 0 0 0-1.321-1.331 1.32 1.32 0 0 0-1.321 1.32v25.909h2.642zM231.164 204.883v-25.898a1.3 1.3 0 0 0-.383-.94 1.317 1.317 0 0 0-1.871-.004 1.317 1.317 0 0 0-.387.933v25.909h2.641zM255.358 204.883v-25.898a1.316 1.316 0 0 0-1.32-1.331 1.32 1.32 0 0 0-1.321 1.32v25.909h2.641zM279.553 204.883v-25.898a1.3 1.3 0 0 0-.383-.94 1.319 1.319 0 0 0-.938-.391 1.319 1.319 0 0 0-1.298 1.331v25.898h2.619zM303.747 204.883v-25.898a1.332 1.332 0 0 0-.812-1.229 1.324 1.324 0 0 0-1.442.285 1.317 1.317 0 0 0-.387.933v25.909h2.641z" fill="#C0D5D0"/><path d="M146.797 190.273h163.395a.797.797 0 0 1 .797.796v9.342a5.01 5.01 0 0 1-5.01 5.007H151.01a5.006 5.006 0 0 1-5.01-5.007v-9.33a.805.805 0 0 1 .489-.746.795.795 0 0 1 .308-.062z" fill="#F8F6E8"/></g><defs><clipPath id="clip0"><path fill="#fff" d="M0 0h202v358H0z"/></clipPath><clipPath id="clip1"><path fill="#fff" transform="translate(258 88)" d="M0 0h111v244H0z"/></clipPath><clipPath id="clip2"><path fill="#fff" transform="translate(146 164)" d="M0 0h165v227H0z"/></clipPath></defs></svg>