<svg width="136" height="126" viewBox="0 0 136 126" fill="none" xmlns="http://www.w3.org/2000/svg"><g clip-path="url(#clip0)"><path d="M135.037 24.42c3.264-9.7-1.962-20.207-11.673-23.467-9.711-3.26-20.229 1.96-23.493 11.659L85.616 54.97c-3.264 9.7 1.962 20.206 11.672 23.467 9.711 3.26 20.229-1.96 23.494-11.66l14.255-42.358z" fill="#BFA6C2"/><path d="M93.203 32.418l35.166 11.807-7.712 22.914a18.532 18.532 0 0 1-9.329 10.69 18.57 18.57 0 0 1-14.164.97 18.543 18.543 0 0 1-10.702-9.32 18.51 18.51 0 0 1-.97-14.148l7.71-22.913z" fill="#966891"/><path d="M67.214 110.367c9.727-3.211 15.006-13.69 11.791-23.407-3.215-9.716-13.707-14.99-23.434-11.778L13.093 89.206C3.366 92.418-1.914 102.898 1.3 112.614c3.216 9.716 13.707 14.989 23.434 11.777l42.479-14.024z" fill="#BFA6C2"/><path d="M35.66 81.448l11.493 35.178-22.991 7.494a18.538 18.538 0 0 1-7.182.858 18.542 18.542 0 0 1-12.65-6.417 18.507 18.507 0 0 1-3.541-6.299 18.497 18.497 0 0 1 1.11-14.115 18.53 18.53 0 0 1 10.77-9.205l22.991-7.494z" fill="#966891"/><path d="M78.999 87.633a17.145 17.145 0 0 0-.96-2.296 18.45 18.45 0 0 1-10.817 9.453l-42.494 14.072a18.61 18.61 0 0 1-13.003-.533 18.58 18.58 0 0 1-9.467-8.92 18.442 18.442 0 0 0-.906 13.883 18.576 18.576 0 0 0 9.281 10.719 18.61 18.61 0 0 0 14.15 1.057l42.426-14.018a18.593 18.593 0 0 0 10.732-9.279A18.562 18.562 0 0 0 79 87.633zM122.682.864a19.89 19.89 0 0 0-2.433-.58 18.472 18.472 0 0 1 1.352 14.342L108.08 57.22a18.556 18.556 0 0 1-8.065 10.213 18.593 18.593 0 0 1-12.796 2.414 18.504 18.504 0 0 0 10.721 8.94 18.624 18.624 0 0 0 14.131-1.235 18.592 18.592 0 0 0 9.151-10.825l13.52-42.594a18.56 18.56 0 0 0-1.225-14.119 18.6 18.6 0 0 0-10.835-9.15z" fill="#BFA6C2" opacity=".43"/></g><defs><clipPath id="clip0"><path fill="#fff" d="M0 0h136v126H0z"/></clipPath></defs></svg>