<svg width="133" height="133" viewBox="0 0 133 133" fill="none" xmlns="http://www.w3.org/2000/svg"><g clip-path="url(#clip0)"><path d="M110.158 58.459c10.165-11.889 8.768-29.767-3.121-39.931C95.148 8.363 77.27 9.76 67.105 21.649L22.706 73.58c-10.165 11.889-8.767 29.767 3.122 39.932 11.888 10.164 29.766 8.767 39.931-3.122l44.399-51.93z" fill="#F8EEC8"/><path d="M46.313 46.157L89.57 83.005l-24.039 28.219a28.41 28.41 0 0 1-49.95-16.158 28.412 28.412 0 0 1 6.693-20.69l24.039-28.22z" fill="#F3C74A"/><path d="M116.187 34.165a28.219 28.219 0 0 1-6.672 16.054l-44.397 51.929a28.404 28.404 0 0 1-39.93 3.114 28.032 28.032 0 0 1-9.068-14.816 28.288 28.288 0 0 0 49.7 20.762l44.43-51.896a28.317 28.317 0 0 0 5.937-25.147z" fill="#F8EEC8"/></g><defs><clipPath id="clip0"><path fill="#fff" transform="rotate(45 44.314 106.985)" d="M0 0h62.6v125.341H0z"/></clipPath></defs></svg>