<svg width="68" height="71" viewBox="0 0 68 71" fill="none" xmlns="http://www.w3.org/2000/svg"><g clip-path="url(#clip0)"><path d="M52.509 31.183c5.788 1.337 11.566-2.282 12.905-8.081 1.34-5.8-2.267-11.586-8.055-12.922-5.788-1.337-11.566 2.281-12.906 8.081-1.339 5.8 2.268 11.585 8.056 12.922z" fill="#F3C74A"/><path d="M64.034 14.877a10.794 10.794 0 0 1-4.612 13.998 10.743 10.743 0 0 1-14.239-3.688 10.761 10.761 0 0 0 6.388 5.696 10.737 10.737 0 0 0 8.52-.778 10.777 10.777 0 0 0 5.265-6.761 10.799 10.799 0 0 0-1.322-8.467z" fill="#F3C74A" opacity=".53"/><path d="M47.839 12.724l12.673 17.051c.497-.257.393-.095.845-.444.451-.35.276-.282.67-.686l-12.674-17.05c-.497.256-.393.098-.845.447-.452.35-.276.282-.67.682z" fill="#F8EEC8" opacity=".58"/><path d="M18.854 61.845c10.413 2.404 20.808-4.105 23.217-14.54 2.41-10.434-4.078-20.842-14.492-23.246-10.413-2.405-20.808 4.104-23.217 14.539C1.952 49.032 8.44 59.44 18.854 61.845z" fill="#77A7AA"/><path d="M39.588 32.504a19.414 19.414 0 0 1-8.259 25.245 19.324 19.324 0 0 1-14.152 1.75 19.328 19.328 0 0 1-11.499-8.435 19.358 19.358 0 0 0 4.695 6.287 19.318 19.318 0 0 0 22.095 2.487c2.318-1.27 4.353-3 5.98-5.086a19.418 19.418 0 0 0 1.14-22.248z" fill="#9FB7B2" opacity=".26"/><path d="M31.93 25.316L8.526 55.55c.69.74.356.614 1.176 1.253.82.639.618.343 1.504.83L34.612 27.4c-.69-.739-.355-.613-1.193-1.257-.838-.643-.604-.34-1.49-.827z" fill="#6A9A9B" opacity=".6"/></g><defs><clipPath id="clip0"><path fill="#fff" transform="rotate(13.003 6.637 58.243)" d="M0 0h56v59H0z"/></clipPath></defs></svg>