<svg width="277" height="483" viewBox="0 0 277 483" fill="none" xmlns="http://www.w3.org/2000/svg"><g clip-path="url(#clip0)"><path opacity=".07" d="M235.528 25.543L90.163 12.273C67.86 10.235 48.128 26.665 46.091 48.97L12.054 421.8c-2.036 22.304 14.394 42.035 36.698 44.072l145.365 13.271c22.304 2.036 42.036-14.394 44.072-36.699l34.037-372.83c2.037-22.304-14.394-42.035-36.698-44.072z" fill="#5D5E5E"/><path d="M227.875 16.958L82.51 3.687C60.206 1.65 40.475 18.08 38.44 40.385L4.4 413.215c-2.036 22.304 14.394 42.036 36.698 44.072l145.365 13.271c22.304 2.036 42.036-14.394 44.072-36.698l34.038-372.83c2.036-22.304-14.395-42.036-36.699-44.072z" fill="#F8F6E8"/><path d="M256.59 33.73a40.278 40.278 0 0 1 5.126 23.632l-34.037 372.83a40.676 40.676 0 0 1-44.072 36.698L38.268 453.622a40.448 40.448 0 0 1-28.035-15.248 40.572 40.572 0 0 0 31.582 20.481l145.338 13.268a40.671 40.671 0 0 0 44.072-36.698l34.036-372.817a40.378 40.378 0 0 0-8.671-28.878z" fill="#D8D6CE"/><path d="M238.795 71.446L60.907 55.206a8.161 8.161 0 0 0-8.87 7.385L24.254 366.915a8.162 8.162 0 0 0 7.386 8.87l177.888 16.24a8.162 8.162 0 0 0 8.87-7.385l27.783-304.325a8.161 8.161 0 0 0-7.386-8.87z" fill="#194E66"/><path d="M169.58 38.287l-34.585-3.157a7.346 7.346 0 1 0-1.336 14.632l34.585 3.158a7.346 7.346 0 0 0 7.984-6.648 7.346 7.346 0 0 0-6.648-7.985zM114.964 445.534c13.224 1.207 24.923-8.534 26.13-21.758 1.207-13.223-8.534-24.922-21.758-26.129-13.223-1.207-24.922 8.534-26.13 21.758-1.207 13.223 8.535 24.922 21.758 26.129z" fill="#ECE9DC"/><path d="M102.287 71.94l-24.622-2.248c-5.936-.542-11.187 3.831-11.73 9.767l-2.247 24.622c-.542 5.936 3.83 11.187 9.767 11.729l24.622 2.248c5.936.542 11.187-3.831 11.729-9.767l2.248-24.622c.542-5.936-3.831-11.187-9.767-11.729z" fill="#783361"/><path d="M160.816 77.283l-24.622-2.247c-5.936-.542-11.188 3.83-11.729 9.766l-2.248 24.623c-.542 5.936 3.831 11.187 9.767 11.729l24.622 2.248c5.936.542 11.187-3.831 11.729-9.767l2.248-24.622c.542-5.936-3.831-11.188-9.767-11.73z" fill="#E75F67"/><path d="M219.345 82.627l-24.622-2.248c-5.936-.542-11.187 3.83-11.729 9.767l-2.248 24.622c-.542 5.936 3.831 11.187 9.767 11.729l24.622 2.248c5.936.542 11.187-3.831 11.729-9.767l2.248-24.622c.542-5.936-3.831-11.187-9.767-11.73zM96.917 130.762l-24.622-2.248c-5.936-.542-11.187 3.831-11.73 9.767l-2.247 24.622c-.542 5.936 3.83 11.187 9.767 11.729l24.622 2.248c5.936.542 11.187-3.831 11.729-9.767l2.248-24.622c.542-5.936-3.831-11.187-9.767-11.729z" fill="#C0D5D0"/><path d="M155.446 136.105l-24.622-2.248c-5.936-.542-11.188 3.831-11.73 9.767l-2.247 24.622c-.542 5.936 3.83 11.188 9.766 11.73l24.623 2.247c5.936.542 11.187-3.83 11.729-9.766l2.248-24.623c.542-5.936-3.831-11.187-9.767-11.729z" fill="#783361"/><path d="M213.975 141.449l-24.622-2.248c-5.936-.542-11.187 3.83-11.729 9.766l-2.248 24.623c-.542 5.936 3.831 11.187 9.767 11.729l24.622 2.248c5.936.542 11.187-3.831 11.729-9.767l2.248-24.622c.542-5.936-3.831-11.188-9.767-11.729zM91.546 189.597l-24.623-2.248c-5.936-.542-11.187 3.831-11.729 9.767l-2.248 24.622c-.542 5.936 3.831 11.187 9.767 11.729l24.622 2.248c5.936.542 11.188-3.831 11.73-9.767l2.247-24.622c.542-5.936-3.83-11.187-9.766-11.729z" fill="#966891"/><path d="M150.075 194.94l-24.622-2.248c-5.936-.542-11.188 3.831-11.73 9.767l-2.248 24.622c-.541 5.936 3.831 11.188 9.767 11.73l24.622 2.247c5.936.542 11.188-3.83 11.73-9.766l2.248-24.623c.542-5.936-3.831-11.187-9.767-11.729z" fill="#E75F67"/><path d="M208.604 200.284l-24.623-2.248c-5.936-.542-11.187 3.831-11.729 9.766l-2.248 24.623c-.542 5.936 3.831 11.187 9.767 11.729l24.622 2.248c5.936.542 11.188-3.831 11.73-9.767l2.247-24.622c.542-5.936-3.83-11.188-9.766-11.729z" fill="#C0D5D0"/><path d="M86.175 248.418l-24.622-2.247c-5.936-.542-11.187 3.83-11.73 9.766l-2.247 24.623c-.542 5.935 3.83 11.187 9.767 11.729l24.622 2.248c5.936.542 11.187-3.831 11.73-9.767l2.247-24.622c.542-5.936-3.83-11.188-9.767-11.73z" fill="#E75F67"/><path d="M144.705 253.762l-24.622-2.248c-5.936-.542-11.188 3.831-11.73 9.767l-2.248 24.622c-.542 5.936 3.831 11.187 9.767 11.729l24.622 2.248c5.936.542 11.188-3.831 11.73-9.767l2.247-24.622c.542-5.936-3.83-11.187-9.766-11.729z" fill="#966891"/><path d="M203.233 259.105l-24.622-2.248c-5.936-.542-11.187 3.831-11.729 9.767l-2.248 24.622c-.542 5.936 3.831 11.188 9.767 11.73l24.622 2.247c5.936.542 11.187-3.83 11.729-9.766L213 270.835c.542-5.936-3.831-11.188-9.767-11.73z" fill="#783361"/><path opacity=".17" d="M205.98 222.112c2.733-3.039 2.487-7.716-.549-10.446a7.396 7.396 0 0 0-10.446.558l-11.924 13.259c-2.733 3.039-2.487 7.716.549 10.446a7.397 7.397 0 0 0 10.445-.558l11.925-13.259z" fill="#C16C37"/><path d="M205.674 220.401a7.398 7.398 0 0 0-.549-10.447 7.396 7.396 0 0 0-10.445.559l-11.925 13.259a7.398 7.398 0 0 0 .549 10.446 7.397 7.397 0 0 0 10.446-.559l11.924-13.258z" fill="#F8EEC8"/><path d="M189.11 216.717l10.994 9.887-6.457 7.181a7.403 7.403 0 0 1-10.451.554 7.403 7.403 0 0 1-.554-10.451l6.458-7.18.01.009z" fill="#F3C74A"/><path d="M207.423 214.098a7.254 7.254 0 0 1-1.84 4.138l-11.942 13.275a7.383 7.383 0 0 1-7.39 2.204 7.381 7.381 0 0 1-5.326-5.578 7.39 7.39 0 0 0 8.919 8.082 7.386 7.386 0 0 0 3.97-2.345l11.941-13.262a7.35 7.35 0 0 0 1.668-6.514z" fill="#F8EEC8"/><path opacity=".17" d="M136.301 229.63c2.73 3.041 7.407 3.296 10.445.568a7.396 7.396 0 0 0 .559-10.445l-11.912-13.27c-2.73-3.041-7.407-3.296-10.445-.568a7.396 7.396 0 0 0-.559 10.445l11.912 13.27z" fill="#C16C37"/><path d="M138.046 229.509c2.73 3.041 7.407 3.296 10.445.568a7.396 7.396 0 0 0 .559-10.445l-11.912-13.27c-2.73-3.041-7.407-3.296-10.445-.568a7.396 7.396 0 0 0-.559 10.445l11.912 13.27z" fill="#BFA6C2"/><path d="M143.49 213.427l-11.014 9.887-6.451-7.187a7.398 7.398 0 0 1 .564-10.45 7.4 7.4 0 0 1 10.45.563l6.451 7.187z" fill="#783361"/><path d="M144.119 231.966a7.376 7.376 0 0 1-3.923-2.276l-11.862-13.316a7.424 7.424 0 0 1 .565-10.45 7.328 7.328 0 0 1 4.191-1.831 7.386 7.386 0 0 0-7.078 12.15l11.852 13.274a7.395 7.395 0 0 0 6.255 2.449z" fill="#473654" opacity=".16"/><path opacity=".17" d="M98.793 96.009a7.396 7.396 0 0 0 2.189-10.229c-2.22-3.427-6.8-4.403-10.23-2.18l-14.965 9.697a7.397 7.397 0 0 0-2.19 10.229 7.396 7.396 0 0 0 10.231 2.18l14.965-9.697z" fill="#C16C37"/><path d="M98.953 94.289a7.397 7.397 0 0 0 2.19-10.229 7.397 7.397 0 0 0-10.231-2.18l-14.965 9.697a7.397 7.397 0 0 0-2.19 10.229 7.396 7.396 0 0 0 10.231 2.18l14.965-9.697z" fill="#F7C1B6"/><path d="M83.908 86.409l8.063 12.442-8.104 5.252a7.4 7.4 0 1 1-8.049-12.42l8.105-5.252-.015-.022z" fill="#F58777"/><path d="M102.264 88.65a7.371 7.371 0 0 1-2.83 3.524l-14.97 9.7a7.385 7.385 0 0 1-11.438-6.504 7.387 7.387 0 0 0 10.9 8.882l14.982-9.698a7.402 7.402 0 0 0 3.356-5.904z" fill="#F8EEC8"/><path d="M149.62 97.373a7 7 0 1 0 1.273-13.941 7 7 0 0 0-1.273 13.941z" fill="#966891"/><path opacity=".21" d="M150.262 98.424a6.999 6.999 0 0 0 7.606-6.334 6.999 6.999 0 1 0-13.94-1.272 6.999 6.999 0 0 0 6.334 7.606z" fill="#966891"/><path d="M154.25 84.557a7 7 0 0 1-6.212 11.196 6.918 6.918 0 0 1-3.576-1.386 6.994 6.994 0 0 0 5.102 2.712 7 7 0 0 0 6.606-10.3 7 7 0 0 0-1.917-2.248l-.003.026z" fill="#966891"/><path opacity=".6" d="M156.949 88.64l-13.625 2.324a1.692 1.692 0 0 0-.057.625c.034.202.098.397.188.58l13.627-2.337.056-.611c.032-.36-.06-.234-.189-.581z" fill="#783361"/><path d="M141.356 114.874a7 7 0 1 0 1.271-13.941 7 7 0 0 0-1.271 13.941z" fill="#966891"/><path opacity=".21" d="M142.011 115.926a7 7 0 1 0 1.274-13.94 7 7 0 0 0-1.274 13.94z" fill="#966891"/><path d="M146.002 102.033a6.997 6.997 0 0 1-2.306 10.411 6.992 6.992 0 0 1-3.907.784 6.956 6.956 0 0 1-3.591-1.36 7.004 7.004 0 0 0 5.096 2.69 6.996 6.996 0 0 0 6.982-4.523 7.004 7.004 0 0 0-2.274-8.002z" fill="#966891"/><path opacity=".6" d="M148.493 110.308l-12.469-5.94c-.202.303-.19.17-.342.518-.087.187-.15.384-.188.587l12.467 5.953c.143-.155.263-.329.356-.517.09-.19.149-.393.176-.601z" fill="#783361"/><path d="M208.25 167.872a7.24 7.24 0 1 0 1.316-14.419 7.24 7.24 0 1 0-1.316 14.419z" fill="#C0D5D0" opacity=".29"/><path d="M208.563 166.64a7.239 7.239 0 0 0 7.868-6.551 7.24 7.24 0 0 0-6.551-7.868 7.239 7.239 0 0 0-7.868 6.551 7.239 7.239 0 0 0 6.551 7.868z" fill="#C0D5D0"/><path d="M216.536 158.65a7.237 7.237 0 0 1-8.037 6.11 7.25 7.25 0 0 1-3.422-1.362 7.273 7.273 0 0 1-2.864-4.916 7.23 7.23 0 0 0 12.534 5.867 7.239 7.239 0 0 0 1.789-5.699z" fill="#9FB7B2"/><path opacity=".6" d="M215.365 163.103l-11.549-8.378c-.266.271-.227.141-.457.455-.23.314-.115.231-.294.577l11.561 8.379c.267-.271.228-.141.444-.456.13-.175.229-.37.295-.577z" fill="#6A9A9B"/><path d="M189.345 174.395a7.239 7.239 0 0 0 7.868-6.551 7.24 7.24 0 1 0-14.419-1.316 7.239 7.239 0 0 0 6.551 7.867z" fill="#C0D5D0" opacity=".29"/><path d="M189.646 173.162a7.24 7.24 0 1 0 1.317-14.42 7.24 7.24 0 0 0-1.317 14.42z" fill="#C0D5D0"/><path d="M197.632 165.173a7.247 7.247 0 0 1-4.388 5.612 7.251 7.251 0 0 1-3.649.498 7.25 7.25 0 0 1-3.422-1.362 7.154 7.154 0 0 1-2.864-4.916 7.221 7.221 0 0 0 4.087 7.591 7.233 7.233 0 0 0 5.972.07 7.234 7.234 0 0 0 3.985-4.45 7.225 7.225 0 0 0 .279-3.043z" fill="#9FB7B2"/><path opacity=".6" d="M193.207 172.508l-4.642-13.515c-.367.061-.266-.024-.626.104s-.239.126-.577.296l4.614 13.512c.368-.06.253.023.627-.103.374-.127.279-.122.604-.294z" fill="#6A9A9B"/><path d="M78.99 283.79a7.24 7.24 0 1 0 1.315-14.42 7.24 7.24 0 0 0-1.316 14.42z" fill="#C0D5D0" opacity=".29"/><path d="M80.106 283.167a7.24 7.24 0 1 0 1.317-14.419 7.24 7.24 0 0 0-1.317 14.419z" fill="#F8EEC8"/><path d="M86.334 280.771a7.225 7.225 0 0 1-9.672-10.567 7.235 7.235 0 0 0-3.053 5.133 7.223 7.223 0 0 0 4.343 7.443 7.218 7.218 0 0 0 5.97-.133 7.222 7.222 0 0 0 2.412-1.876z" fill="#F3C74A"/><path d="M82.284 282.964l-1.778-14.166a2.08 2.08 0 0 0-.639-.058c-.393.044-.26.07-.619.171l1.778 14.166c.209.052.424.072.639.058.34-.049.261-.07.62-.171z" fill="#F3C74A"/><path d="M61.305 274.449a7.24 7.24 0 1 0 1.317-14.42 7.24 7.24 0 0 0-1.317 14.42z" fill="#C0D5D0" opacity=".29"/><path d="M62.409 273.826a7.24 7.24 0 1 0 1.315-14.42 7.24 7.24 0 0 0-1.315 14.42z" fill="#F8EEC8"/><path d="M68.636 271.43a7.224 7.224 0 0 1-9.428-1.078 7.227 7.227 0 0 1-.23-9.488 7.228 7.228 0 0 0 7.247 12.457 7.236 7.236 0 0 0 2.411-1.891z" fill="#F3C74A"/><path d="M60.278 273.215l6.703-12.599c-.3-.229-.169-.204-.501-.382a2.695 2.695 0 0 0-.611-.216l-6.718 12.612c.158.144.331.272.515.382.192.1.399.168.612.203zM153.713 151.707l-25.287-2.308-2.778 30.421 25.288 2.309 2.777-30.422z" fill="#F3C74A"/><path d="M126.399 178.802l11.865 1.084a1.615 1.615 0 0 0 1.172-.365 1.595 1.595 0 0 0 .57-1.086l1.952-21.376a1.6 1.6 0 0 0-1.451-1.742l-11.865-1.084a.855.855 0 0 0-.606.221.847.847 0 0 0-.272.585l-2.083 22.813a.825.825 0 0 0 .019.328.842.842 0 0 0 .699.622z" fill="#F8EEC8"/><path d="M127.657 157.229l.627-6.864a1.333 1.333 0 0 1 1.451-1.209l22.614 2.064a1.34 1.34 0 0 1 1.209 1.452l-.224 2.448-25.677 2.109z" fill="#F3C74A" opacity=".67"/><path d="M155.69 146.509l-28.267-2.581a1.337 1.337 0 0 0-1.452 1.209l-.434 4.762a1.336 1.336 0 0 0 1.208 1.452l28.267 2.581a1.337 1.337 0 0 0 1.452-1.209l.435-4.762a1.336 1.336 0 0 0-1.209-1.452z" fill="#F8F6E8"/><path d="M127.747 151.697l.444-4.868a.239.239 0 0 0-.055-.176.24.24 0 0 0-.163-.086.245.245 0 0 0-.184.049.249.249 0 0 0-.09.168l-.445 4.868.493.045zM132.283 152.111l.444-4.868a.239.239 0 0 0-.055-.176.262.262 0 0 0-.259-.08.23.23 0 0 0-.087.043.252.252 0 0 0-.063.075.234.234 0 0 0-.028.093l-.445 4.868.493.045zM136.845 152.528l.445-4.869a.266.266 0 0 0-.01-.093.252.252 0 0 0-.045-.082.24.24 0 0 0-.163-.086.228.228 0 0 0-.097.006.237.237 0 0 0-.149.117.24.24 0 0 0-.029.093l-.444 4.869.492.045zM141.354 152.94l.445-4.869a.24.24 0 0 0-.218-.261.245.245 0 0 0-.097.005.247.247 0 0 0-.149.118.234.234 0 0 0-.028.093l-.445 4.869.492.045zM145.891 153.354l.444-4.869a.24.24 0 0 0-.218-.261.245.245 0 0 0-.097.005.25.25 0 0 0-.149.118.239.239 0 0 0-.028.093l-.445 4.869.493.045zM150.427 153.768l.444-4.869a.226.226 0 0 0-.01-.093.22.22 0 0 0-.045-.082.24.24 0 0 0-.162-.086.243.243 0 0 0-.097.005.247.247 0 0 0-.15.118.239.239 0 0 0-.028.093l-.444 4.869.492.045zM154.963 154.182l.444-4.869a.242.242 0 0 0-.217-.261.226.226 0 0 0-.097.006.248.248 0 0 0-.15.117.257.257 0 0 0-.028.093l-.444 4.869.492.045z" fill="#C0D5D0"/><path d="M126.041 148.778l30.143 2.752a.402.402 0 0 1 .362.436 2.47 2.47 0 0 1-2.685 2.236l-26.019-2.375a2.47 2.47 0 0 1-2.236-2.686.399.399 0 0 1 .435-.363z" fill="#F8F6E8"/><path d="M143.389 268.463l-25.287-2.309-2.777 30.422 25.287 2.309 2.777-30.422z" fill="#783361"/><path d="M116.008 295.552l11.866 1.083a1.601 1.601 0 0 0 1.742-1.45l1.951-21.376a1.602 1.602 0 0 0-1.45-1.742l-11.866-1.084a.838.838 0 0 0-.8.486.84.84 0 0 0-.078.319l-2.083 22.813a.848.848 0 0 0 .162.625.842.842 0 0 0 .556.326z" fill="#BFA6C2"/><path d="M117.334 273.985l.625-6.851a1.334 1.334 0 0 1 1.452-1.209l22.613 2.065a1.333 1.333 0 0 1 1.209 1.451l-.223 2.448-25.676 2.096z" fill="#783361" opacity=".27"/><path d="M145.366 263.265l-28.267-2.581a1.335 1.335 0 0 0-1.451 1.209l-.435 4.762a1.336 1.336 0 0 0 1.209 1.452l28.266 2.581a1.337 1.337 0 0 0 1.452-1.209l.435-4.762a1.336 1.336 0 0 0-1.209-1.452z" fill="#F8F6E8"/><path d="M117.425 268.427l.445-4.869a.239.239 0 0 0-.218-.261.239.239 0 0 0-.246.123.219.219 0 0 0-.028.093l-.445 4.869.492.045zM121.961 268.841l.445-4.869a.24.24 0 0 0-.218-.261.245.245 0 0 0-.097.005.265.265 0 0 0-.087.044.239.239 0 0 0-.09.167l-.445 4.869.492.045zM126.497 269.255l.444-4.869a.24.24 0 0 0-.054-.176.242.242 0 0 0-.163-.085.245.245 0 0 0-.097.005.255.255 0 0 0-.087.044.237.237 0 0 0-.091.167l-.444 4.869.492.045zM131.033 269.669l.445-4.869a.242.242 0 0 0-.218-.261.228.228 0 0 0-.097.006.237.237 0 0 0-.149.117.24.24 0 0 0-.029.093l-.444 4.869.492.045zM135.569 270.083l.445-4.869a.245.245 0 0 0-.055-.175.219.219 0 0 0-.073-.059.235.235 0 0 0-.09-.027.244.244 0 0 0-.184.049.245.245 0 0 0-.09.167l-.445 4.869.492.045zM140.105 270.497l.445-4.868a.235.235 0 0 0-.128-.235.235.235 0 0 0-.09-.027.244.244 0 0 0-.184.049.237.237 0 0 0-.062.075.229.229 0 0 0-.028.093l-.445 4.868.492.045zM144.641 270.911l.445-4.868a.243.243 0 0 0-.218-.262.245.245 0 0 0-.247.124.246.246 0 0 0-.028.093l-.444 4.868.492.045z" fill="#C0D5D0"/><path d="M115.713 265.588l30.142 2.751a.402.402 0 0 1 .363.436 2.48 2.48 0 0 1-.925 1.651 2.47 2.47 0 0 1-1.821.513l-25.952-2.37a2.473 2.473 0 0 1-2.237-2.685.402.402 0 0 1 .436-.363l-.006.067z" fill="#F8F6E8"/><path d="M218.196 99.476l-25.287-2.309-2.778 30.422 25.288 2.309 2.777-30.422z" fill="#F58777"/><path d="M190.937 125.235l11.865 1.083a1.6 1.6 0 0 0 1.742-1.45l1.948-21.337a1.617 1.617 0 0 0-1.449-1.755l-11.866-1.083a.845.845 0 0 0-.616.223.85.85 0 0 0-.277.594l-2.077 22.76a.849.849 0 0 0 .73.965z" fill="#F7C1B6"/><path d="M192.276 103.655l.626-6.85a1.335 1.335 0 0 1 1.451-1.21l22.614 2.065a1.338 1.338 0 0 1 1.208 1.452l-.223 2.447-25.676 2.096z" fill="#F3C74A" opacity=".67"/><path d="M220.294 92.948l-28.267-2.581a1.335 1.335 0 0 0-1.451 1.209l-.435 4.762a1.336 1.336 0 0 0 1.209 1.452l28.267 2.58a1.335 1.335 0 0 0 1.451-1.209l.435-4.762a1.336 1.336 0 0 0-1.209-1.451z" fill="#F8F6E8"/><path d="M192.352 98.122l.443-4.855a.254.254 0 0 0-.229-.276.255.255 0 0 0-.263.231l-.443 4.856.492.044zM196.888 98.537l.443-4.856a.254.254 0 0 0-.229-.276.255.255 0 0 0-.263.231l-.443 4.856.492.044zM201.424 98.95l.444-4.855a.255.255 0 0 0-.23-.275.255.255 0 0 0-.263.23l-.443 4.856.492.045zM205.96 99.365l.443-4.855a.25.25 0 0 0-.058-.186.252.252 0 0 0-.171-.09.254.254 0 0 0-.263.23l-.443 4.856.492.045zM210.496 99.779l.443-4.855a.254.254 0 0 0-.229-.276.254.254 0 0 0-.263.23l-.443 4.856.492.045zM215.032 100.193l.443-4.855a.254.254 0 0 0-.229-.276.256.256 0 0 0-.178.063.258.258 0 0 0-.085.168l-.443 4.855.492.045zM219.568 100.607l.443-4.855a.255.255 0 0 0-.23-.276.253.253 0 0 0-.262.23l-.443 4.856.492.045z" fill="#C0D5D0"/><path d="M190.633 95.203l30.143 2.751a.4.4 0 0 1 .363.436 2.476 2.476 0 0 1-.888 1.656 2.466 2.466 0 0 1-1.796.553l-26.018-2.375a2.473 2.473 0 0 1-2.237-2.686.401.401 0 0 1 .436-.362l-.003.026z" fill="#F8F6E8"/><path d="M90.764 223.715l-1.117 12.238-29.65-2.707 1.117-12.238a4.46 4.46 0 0 1 4.835-4.038l.346.031a4.516 4.516 0 0 0 4.907-4.085l.074-.812 11.453 1.046-.074.811a4.517 4.517 0 0 0 4.085 4.907 4.46 4.46 0 0 1 4.025 4.847z" fill="#F58777"/><path d="M65.926 217.222a4.515 4.515 0 0 0 4.9-4.019l.075-.811 11.466 1.047-.074.811c-.22 2.421-16.367 2.972-16.367 2.972z" fill="#F58777" opacity=".77"/><path d="M83.746 207.891l-12.57-1.148a1.416 1.416 0 0 0-1.54 1.281l-.278 3.047a1.416 1.416 0 0 0 1.282 1.538l12.57 1.148a1.416 1.416 0 0 0 1.539-1.281l.278-3.046a1.416 1.416 0 0 0-1.281-1.539z" fill="#F8F6E8"/><path d="M71.726 212.91l.35-3.845a.191.191 0 0 0-.047-.142.192.192 0 0 0-.135-.062.184.184 0 0 0-.137.043.185.185 0 0 0-.066.126l-.351 3.845.386.035zM75.304 213.236l.35-3.844a.19.19 0 0 0-.042-.137.185.185 0 0 0-.126-.066.196.196 0 0 0-.077.003.195.195 0 0 0-.118.092.183.183 0 0 0-.022.073l-.35 3.844.385.035zM78.882 213.563l.351-3.844a.187.187 0 0 0-.17-.203.2.2 0 0 0-.216.168l-.35 3.844.385.035zM82.474 213.891l.35-3.844a.202.202 0 0 0-.323-.164.204.204 0 0 0-.075.127l-.351 3.845.399.036z" fill="#C0D5D0"/><path d="M69.715 210.54l14.766 1.348a.308.308 0 0 1 .278.334 1.95 1.95 0 0 1-2.12 1.765l-11.506-1.051a1.952 1.952 0 0 1-1.765-2.119.307.307 0 0 1 .334-.278l.013.001z" fill="#F8F6E8"/><path d="M90.267 229.316l-29.824-2.722-.613 6.717 29.823 2.723.614-6.718z" fill="#F7C1B6"/><path d="M96.471 164.884l-1.117 12.238-29.65-2.707 1.117-12.238a4.462 4.462 0 0 1 4.835-4.039l.293.027a4.514 4.514 0 0 0 4.907-4.086l.073-.811 11.467 1.047-.074.811a4.515 4.515 0 0 0 4.085 4.907 4.465 4.465 0 0 1 3.041 1.58 4.463 4.463 0 0 1 1.023 3.271z" fill="#F3C74A"/><path d="M71.633 158.391a4.514 4.514 0 0 0 4.907-4.086l.073-.811 11.467 1.047-.074.811c-.228 2.488-16.373 3.039-16.373 3.039z" fill="#F58777" opacity=".77"/><path d="M89.452 149.06l-12.57-1.148a1.416 1.416 0 0 0-1.539 1.281l-.278 3.046a1.416 1.416 0 0 0 1.281 1.539l12.57 1.148a1.416 1.416 0 0 0 1.54-1.282l.277-3.046a1.416 1.416 0 0 0-1.28-1.538z" fill="#F8F6E8"/><path d="M77.432 154.078l.35-3.844a.189.189 0 0 0-.046-.142.193.193 0 0 0-.136-.062.188.188 0 0 0-.203.169l-.35 3.844.385.035zM81.01 154.405l.351-3.844a.187.187 0 0 0-.169-.203.192.192 0 0 0-.145.036.187.187 0 0 0-.071.132l-.351 3.844.385.035zM84.589 154.732l.35-3.844a.187.187 0 0 0-.169-.204.205.205 0 0 0-.141.041.204.204 0 0 0-.075.127l-.351 3.845.386.035zM88.18 155.06l.351-3.845a.201.201 0 0 0-.324-.163.201.201 0 0 0-.075.127l-.351 3.844.399.037z" fill="#C0D5D0"/><path d="M75.422 151.709l14.765 1.348a.308.308 0 0 1 .278.334 1.946 1.946 0 0 1-1.382 1.69 1.936 1.936 0 0 1-.764.072l-11.48-1.048a1.951 1.951 0 0 1-1.764-2.12.307.307 0 0 1 .334-.278l.013.002z" fill="#F8F6E8"/><path d="M95.973 170.485l-29.823-2.723-.613 6.718 29.823 2.723.613-6.718z" fill="#F8EEC8"/><path d="M202.116 293.233l-1.117 12.238-29.584-2.701 1.118-12.238a4.46 4.46 0 0 1 4.835-4.038l.346.031a4.514 4.514 0 0 0 4.906-4.085l.074-.812 11.453 1.046-.072.798a4.514 4.514 0 0 0 4.085 4.907 4.46 4.46 0 0 1 3.956 4.854z" fill="#C0D5D0"/><path d="M177.278 286.74a4.516 4.516 0 0 0 4.907-4.085l.074-.812 11.466 1.047-.074.812c-.227 2.487-16.373 3.038-16.373 3.038z" fill="#F58777" opacity=".77"/><path d="M195.098 277.409l-12.571-1.148a1.417 1.417 0 0 0-1.539 1.281l-.278 3.047a1.416 1.416 0 0 0 1.282 1.538l12.57 1.148a1.416 1.416 0 0 0 1.539-1.281l.278-3.046a1.416 1.416 0 0 0-1.281-1.539z" fill="#F8F6E8"/><path d="M183.074 282.468l.351-3.845a.191.191 0 0 0-.108-.187.179.179 0 0 0-.075-.017.186.186 0 0 0-.203.169l-.351 3.844.386.036zM186.652 282.794l.351-3.844a.185.185 0 0 0-.043-.137.183.183 0 0 0-.126-.066.182.182 0 0 0-.145.037.188.188 0 0 0-.072.131l-.351 3.844.386.035zM190.23 283.121l.351-3.844a.188.188 0 0 0-.169-.204.203.203 0 0 0-.217.168l-.351 3.845.386.035zM193.822 283.449l.351-3.844a.203.203 0 0 0-.051-.139.202.202 0 0 0-.273-.025.204.204 0 0 0-.075.127l-.351 3.844.399.037z" fill="#C0D5D0"/><path d="M181.067 280.058l14.779 1.349a.311.311 0 0 1 .208.109.312.312 0 0 1 .07.225 1.951 1.951 0 0 1-2.12 1.765l-11.519-1.052a1.951 1.951 0 0 1-1.765-2.119.311.311 0 0 1 .109-.208.303.303 0 0 1 .225-.07l.013.001z" fill="#F8F6E8"/><path d="M201.619 298.834l-29.824-2.722-.613 6.717 29.823 2.723.614-6.718z" fill="#6A9A9B"/></g><defs><clipPath id="clip0"><path fill="#fff" transform="rotate(5.216 21.063 462.384)" d="M0 0h235.477v463.341H0z"/></clipPath></defs></svg>