<svg width="277" height="483" viewBox="0 0 277 483" fill="none" xmlns="http://www.w3.org/2000/svg">
<g clip-path="url(#clip0)">
<path opacity="0.07" d="M235.528 25.5434L90.1634 12.2724C67.8593 10.2362 48.1276 26.6665 46.0914 48.9705L12.054 421.801C10.0178 444.105 26.4481 463.836 48.7522 465.873L194.117 479.144C216.421 481.18 236.153 464.75 238.189 442.445L272.226 69.6154C274.263 47.3114 257.832 27.5797 235.528 25.5434Z" fill="#5D5E5E"/>
<path d="M227.875 16.958L82.5105 3.68693C60.2065 1.6507 40.4748 18.081 38.4386 40.385L4.40121 413.215C2.36497 435.519 18.7953 455.251 41.0993 457.287L186.464 470.558C208.768 472.594 228.5 456.164 230.536 433.86L264.574 61.0299C266.61 38.7259 250.179 18.9942 227.875 16.958Z" fill="#F8F6E8"/>
<g style="mix-blend-mode:multiply">
<g style="mix-blend-mode:multiply">
<path d="M256.59 33.7301C260.679 40.8967 262.468 49.1458 261.716 57.3622L227.679 430.192C226.67 440.89 221.469 450.755 213.211 457.631C204.954 464.507 194.311 467.836 183.607 466.89L38.2684 453.622C32.8054 453.115 27.5027 451.501 22.683 448.88C17.8632 446.258 13.6271 442.684 10.2325 438.374C13.4501 444.085 18.004 448.932 23.5042 452.499C29.0045 456.066 35.2872 458.247 41.8146 458.855L187.153 472.123C197.857 473.069 208.5 469.74 216.758 462.864C225.015 455.988 230.216 446.123 231.225 435.425L265.261 62.6083C266.208 52.2238 263.101 41.8755 256.59 33.7301Z" fill="#D8D6CE"/>
</g>
</g>
<path d="M238.795 71.4456L60.9069 55.2054C56.4181 54.7956 52.4471 58.1022 52.0373 62.5909L24.2541 366.915C23.8443 371.404 27.151 375.375 31.6397 375.785L209.528 392.025C214.017 392.435 217.988 389.128 218.398 384.64L246.181 80.3152C246.591 75.8265 243.284 71.8554 238.795 71.4456Z" fill="#194E66"/>
<g style="mix-blend-mode:multiply">
<path d="M169.58 38.2874L134.995 35.13C130.954 34.7611 127.38 37.7376 127.011 41.7782C126.642 45.8188 129.618 49.3933 133.659 49.7622L168.244 52.9197C172.285 53.2886 175.86 50.3121 176.228 46.2715C176.597 42.2309 173.621 38.6563 169.58 38.2874Z" fill="#ECE9DC"/>
</g>
<path d="M114.964 445.534C128.188 446.741 139.887 437 141.094 423.776C142.301 410.553 132.56 398.854 119.336 397.647C106.113 396.44 94.4139 406.181 93.2066 419.405C91.9994 432.628 101.741 444.327 114.964 445.534Z" fill="#ECE9DC"/>
<path d="M102.287 71.94L77.6651 69.6922C71.7291 69.1503 66.4777 73.523 65.9358 79.459L63.6879 104.081C63.146 110.017 67.5187 115.268 73.4547 115.81L98.0768 118.058C104.013 118.6 109.264 114.227 109.806 108.291L112.054 83.6693C112.596 77.7334 108.223 72.482 102.287 71.94Z" fill="#783361"/>
<path d="M160.816 77.2834L136.194 75.0356C130.258 74.4937 125.006 78.8664 124.465 84.8024L122.217 109.425C121.675 115.361 126.048 120.612 131.984 121.154L156.606 123.402C162.542 123.944 167.793 119.571 168.335 113.635L170.583 89.0127C171.125 83.0768 166.752 77.8254 160.816 77.2834Z" fill="#E75F67"/>
<path d="M219.345 82.6268L194.723 80.379C188.787 79.8371 183.536 84.2098 182.994 90.1458L180.746 114.768C180.204 120.704 184.577 125.955 190.513 126.497L215.135 128.745C221.071 129.287 226.322 124.914 226.864 118.978L229.112 94.3561C229.654 88.4201 225.281 83.1688 219.345 82.6268Z" fill="#C0D5D0"/>
<path d="M96.9171 130.762L72.2949 128.514C66.3589 127.972 61.1076 132.345 60.5656 138.281L58.3178 162.903C57.7758 168.839 62.1486 174.09 68.0846 174.632L92.7067 176.88C98.6427 177.422 103.894 173.049 104.436 167.113L106.684 142.491C107.226 136.555 102.853 131.304 96.9171 130.762Z" fill="#C0D5D0"/>
<path d="M155.446 136.105L130.824 133.857C124.888 133.315 119.636 137.688 119.094 143.624L116.847 168.246C116.305 174.182 120.677 179.434 126.613 179.976L151.236 182.223C157.172 182.765 162.423 178.393 162.965 172.457L165.213 147.834C165.755 141.898 161.382 136.647 155.446 136.105Z" fill="#783361"/>
<path d="M213.975 141.449L189.353 139.201C183.417 138.659 178.166 143.031 177.624 148.967L175.376 173.59C174.834 179.526 179.207 184.777 185.143 185.319L209.765 187.567C215.701 188.109 220.952 183.736 221.494 177.8L223.742 153.178C224.284 147.242 219.911 141.99 213.975 141.449Z" fill="#966891"/>
<path d="M91.5455 189.597L66.9234 187.349C60.9874 186.807 55.736 191.18 55.1941 197.116L52.9462 221.738C52.4043 227.674 56.777 232.925 62.713 233.467L87.3351 235.715C93.2711 236.257 98.5225 231.884 99.0644 225.948L101.312 201.326C101.854 195.39 97.4815 190.139 91.5455 189.597Z" fill="#966891"/>
<path d="M150.075 194.94L125.453 192.692C119.517 192.15 114.265 196.523 113.723 202.459L111.475 227.081C110.934 233.017 115.306 238.269 121.242 238.811L145.864 241.058C151.8 241.6 157.052 237.228 157.594 231.292L159.842 206.669C160.384 200.733 156.011 195.482 150.075 194.94Z" fill="#E75F67"/>
<path d="M208.604 200.284L183.981 198.036C178.045 197.494 172.794 201.867 172.252 207.802L170.004 232.425C169.462 238.361 173.835 243.612 179.771 244.154L204.393 246.402C210.329 246.944 215.581 242.571 216.123 236.635L218.37 212.013C218.912 206.077 214.54 200.825 208.604 200.284Z" fill="#C0D5D0"/>
<path d="M86.1753 248.418L61.5532 246.171C55.6172 245.629 50.3659 250.001 49.8239 255.937L47.5761 280.56C47.0342 286.495 51.4069 291.747 57.3429 292.289L81.965 294.537C87.901 295.079 93.1524 290.706 93.6943 284.77L95.9422 260.148C96.4841 254.212 92.1113 248.96 86.1753 248.418Z" fill="#E75F67"/>
<path d="M144.705 253.762L120.083 251.514C114.147 250.972 108.895 255.345 108.353 261.281L106.105 285.903C105.563 291.839 109.936 297.09 115.872 297.632L140.494 299.88C146.43 300.422 151.682 296.049 152.224 290.113L154.471 265.491C155.013 259.555 150.641 254.304 144.705 253.762Z" fill="#966891"/>
<path d="M203.233 259.105L178.611 256.857C172.675 256.315 167.424 260.688 166.882 266.624L164.634 291.246C164.092 297.182 168.465 302.434 174.401 302.976L199.023 305.223C204.959 305.765 210.21 301.393 210.752 295.457L213 270.835C213.542 264.899 209.169 259.647 203.233 259.105Z" fill="#783361"/>
<path opacity="0.17" d="M205.98 222.112C208.713 219.073 208.467 214.396 205.431 211.666C202.395 208.935 197.718 209.185 194.985 212.224L183.061 225.483C180.328 228.522 180.574 233.199 183.61 235.929C186.646 238.659 191.323 238.409 194.055 235.371L205.98 222.112Z" fill="#C16C37"/>
<path d="M205.674 220.401C208.407 217.362 208.161 212.685 205.125 209.954C202.089 207.224 197.412 207.474 194.68 210.513L182.755 223.772C180.023 226.81 180.268 231.487 183.304 234.218C186.34 236.948 191.017 236.698 193.75 233.659L205.674 220.401Z" fill="#F8EEC8"/>
<path d="M189.11 216.717L200.104 226.604L193.647 233.785C192.334 235.244 190.496 236.122 188.536 236.226C186.576 236.33 184.655 235.651 183.196 234.339C181.737 233.026 180.859 231.188 180.755 229.228C180.651 227.268 181.33 225.348 182.642 223.888L189.1 216.708L189.11 216.717Z" fill="#F3C74A"/>
<g style="mix-blend-mode:multiply">
<g style="mix-blend-mode:multiply">
<path d="M207.423 214.098C207.267 215.639 206.622 217.088 205.583 218.236L193.641 231.511C192.732 232.524 191.56 233.265 190.256 233.654C188.952 234.043 187.566 234.064 186.251 233.715C184.935 233.366 183.742 232.661 182.802 231.676C181.862 230.692 181.213 229.467 180.925 228.137C180.74 229.702 181.061 231.286 181.84 232.656C182.62 234.026 183.817 235.111 185.257 235.752C186.697 236.393 188.304 236.556 189.844 236.219C191.384 235.881 192.775 235.059 193.814 233.874L205.755 220.612C206.531 219.737 207.087 218.69 207.377 217.557C207.667 216.424 207.683 215.239 207.423 214.098Z" fill="#F8EEC8"/>
</g>
</g>
<path opacity="0.17" d="M136.301 229.63C139.031 232.671 143.708 232.926 146.746 230.198C149.785 227.47 150.035 222.794 147.305 219.753L135.393 206.483C132.663 203.442 127.986 203.187 124.948 205.915C121.909 208.643 121.659 213.319 124.389 216.36L136.301 229.63Z" fill="#C16C37"/>
<path d="M138.046 229.509C140.776 232.55 145.453 232.805 148.491 230.077C151.53 227.349 151.78 222.673 149.05 219.632L137.138 206.362C134.408 203.321 129.731 203.066 126.693 205.794C123.654 208.522 123.404 213.198 126.134 216.239L138.046 229.509Z" fill="#BFA6C2"/>
<path d="M143.49 213.427L132.476 223.314L126.025 216.127C124.714 214.667 124.037 212.745 124.143 210.785C124.248 208.826 125.128 206.988 126.589 205.677C128.049 204.366 129.97 203.689 131.93 203.794C133.89 203.9 135.727 204.78 137.039 206.24L143.49 213.427Z" fill="#783361"/>
<g style="mix-blend-mode:multiply">
<g style="mix-blend-mode:multiply" opacity="0.16">
<path d="M144.119 231.966C142.605 231.638 141.232 230.842 140.196 229.69L128.334 216.374C127.029 214.91 126.357 212.99 126.463 211.032C126.569 209.075 127.444 207.238 128.899 205.924C130.065 204.882 131.533 204.241 133.09 204.093C131.563 203.758 129.97 203.917 128.539 204.545C127.108 205.174 125.913 206.24 125.126 207.59C124.339 208.941 124.001 210.506 124.16 212.061C124.32 213.616 124.968 215.08 126.012 216.243L137.864 229.517C138.64 230.39 139.611 231.067 140.698 231.492C141.785 231.918 142.957 232.08 144.119 231.966Z" fill="#473654"/>
</g>
</g>
<path opacity="0.17" d="M98.793 96.0088C102.223 93.7863 103.203 89.2068 100.982 85.7801C98.762 82.3535 94.1816 81.3773 90.7518 83.5998L75.787 93.2972C72.3573 95.5197 71.377 100.099 73.5975 103.526C75.818 106.953 80.3984 107.929 83.8282 105.706L98.793 96.0088Z" fill="#C16C37"/>
<path d="M98.9531 94.2889C102.383 92.0663 103.363 87.4868 101.143 84.0601C98.9221 80.6335 94.3417 79.6573 90.912 81.8798L75.9472 91.5772C72.5174 93.7997 71.5371 98.3793 73.7576 101.806C75.9781 105.233 80.5586 106.209 83.9883 103.986L98.9531 94.2889Z" fill="#F7C1B6"/>
<path d="M83.9082 86.4086L91.9712 98.8512L83.8666 104.103C82.2196 105.17 80.2161 105.54 78.2968 105.13C76.3774 104.72 74.6996 103.564 73.6323 101.917C72.565 100.27 72.1957 98.2666 72.6057 96.3473C73.0156 94.428 74.1712 92.7501 75.8182 91.6828L83.9227 86.431L83.9082 86.4086Z" fill="#F58777"/>
<g style="mix-blend-mode:multiply">
<g style="mix-blend-mode:multiply">
<path d="M102.264 88.6504C101.713 90.0924 100.723 91.325 99.4337 92.1745L84.4647 101.874C83.3274 102.621 82.0055 103.041 80.6451 103.085C79.2846 103.129 77.9384 102.796 76.7552 102.123C75.5719 101.45 74.5975 100.464 73.9396 99.272C73.2817 98.0804 72.9659 96.7301 73.027 95.3703C72.4596 96.8261 72.3684 98.4243 72.7666 99.9352C73.1648 101.446 74.0318 102.792 75.2429 103.779C76.4541 104.766 77.9471 105.343 79.5072 105.428C81.0674 105.514 82.6143 105.102 83.9256 104.252L98.9079 94.5543C99.898 93.9095 100.719 93.0371 101.303 92.01C101.887 90.9829 102.216 89.8309 102.264 88.6504Z" fill="#F8EEC8"/>
</g>
</g>
<path d="M149.62 97.3732C153.47 97.7247 156.875 94.8889 157.227 91.0393C157.578 87.1897 154.742 83.7841 150.893 83.4327C147.043 83.0812 143.637 85.917 143.286 89.7666C142.935 93.6162 145.77 97.0218 149.62 97.3732Z" fill="#966891"/>
<path opacity="0.21" d="M150.262 98.4244C154.111 98.7758 157.517 95.94 157.868 92.0904C158.22 88.2409 155.384 84.8353 151.534 84.4838C147.685 84.1324 144.279 86.9682 143.928 90.8177C143.576 94.6673 146.412 98.0729 150.262 98.4244Z" fill="#966891"/>
<g style="mix-blend-mode:multiply">
<path d="M154.25 84.5574C155.069 85.6388 155.556 86.9349 155.652 88.288C155.748 89.6411 155.449 90.9929 154.791 92.179C154.132 93.365 153.144 94.3343 151.945 94.9689C150.746 95.6035 149.388 95.876 148.038 95.7533C146.739 95.6374 145.499 95.1569 144.462 94.3673C145.07 95.1564 145.84 95.8065 146.72 96.2742C147.6 96.7419 148.569 97.0164 149.564 97.0793C150.558 97.1421 151.554 96.992 152.486 96.6389C153.418 96.2858 154.263 95.7378 154.966 95.0316C155.669 94.3255 156.213 93.4774 156.562 92.544C156.911 91.6107 157.056 90.6137 156.989 89.6196C156.921 88.6256 156.642 87.6574 156.17 86.7798C155.698 85.9022 155.045 85.1355 154.253 84.5308L154.25 84.5574Z" fill="#966891"/>
</g>
<path opacity="0.6" d="M156.949 88.6399L143.324 90.9639C143.266 91.1668 143.247 91.3789 143.267 91.5891C143.301 91.7907 143.365 91.9863 143.455 92.1696L157.082 89.8324C157.115 89.4732 157.105 89.5796 157.138 89.2205C157.17 88.8613 157.078 88.987 156.949 88.6399Z" fill="#783361"/>
<path d="M141.356 114.874C145.205 115.225 148.611 112.389 148.962 108.54C149.314 104.69 146.478 101.285 142.628 100.933C138.779 100.582 135.373 103.418 135.022 107.267C134.67 111.117 137.506 114.522 141.356 114.874Z" fill="#966891"/>
<path opacity="0.21" d="M142.011 115.926C145.861 116.278 149.266 113.442 149.618 109.592C149.969 105.743 147.133 102.337 143.284 101.986C139.434 101.634 136.029 104.47 135.677 108.32C135.326 112.169 138.161 115.575 142.011 115.926Z" fill="#966891"/>
<g style="mix-blend-mode:multiply">
<path d="M146.002 102.033C146.821 103.114 147.308 104.41 147.404 105.763C147.5 107.116 147.2 108.468 146.542 109.654C145.884 110.84 144.895 111.809 143.696 112.444C142.497 113.079 141.14 113.351 139.789 113.228C138.488 113.121 137.244 112.649 136.198 111.868C136.808 112.652 137.577 113.298 138.456 113.762C139.335 114.226 140.302 114.497 141.294 114.558C142.285 114.619 143.279 114.469 144.208 114.116C145.136 113.764 145.98 113.217 146.681 112.514C147.383 111.81 147.926 110.965 148.276 110.035C148.625 109.105 148.773 108.111 148.709 107.12C148.644 106.128 148.37 105.162 147.903 104.285C147.436 103.408 146.788 102.64 146.002 102.033Z" fill="#966891"/>
</g>
<path opacity="0.6" d="M148.493 110.308L136.024 104.368C135.822 104.671 135.834 104.538 135.682 104.886C135.595 105.073 135.532 105.27 135.494 105.473L147.961 111.426C148.104 111.271 148.224 111.097 148.317 110.909C148.407 110.719 148.466 110.516 148.493 110.308Z" fill="#783361"/>
<g style="mix-blend-mode:multiply" opacity="0.29">
<path d="M208.25 167.872C212.232 168.236 215.754 165.303 216.118 161.321C216.481 157.339 213.548 153.816 209.566 153.453C205.584 153.089 202.062 156.023 201.698 160.004C201.335 163.986 204.268 167.509 208.25 167.872Z" fill="#C0D5D0"/>
</g>
<path d="M208.563 166.64C212.545 167.004 216.068 164.071 216.431 160.089C216.795 156.107 213.861 152.584 209.88 152.221C205.898 151.857 202.375 154.79 202.012 158.772C201.648 162.754 204.581 166.277 208.563 166.64Z" fill="#C0D5D0"/>
<g style="mix-blend-mode:multiply">
<path d="M216.536 158.65C216.351 159.884 215.849 161.049 215.08 162.033C214.311 163.016 213.301 163.784 212.148 164.262C210.995 164.739 209.738 164.911 208.499 164.76C207.26 164.608 206.081 164.139 205.077 163.398C204.294 162.813 203.637 162.076 203.145 161.231C202.653 160.387 202.336 159.452 202.213 158.482C202.064 159.502 202.135 160.541 202.42 161.531C202.706 162.521 203.2 163.438 203.869 164.221C204.538 165.005 205.367 165.636 206.3 166.073C207.233 166.509 208.249 166.741 209.279 166.753C210.309 166.766 211.33 166.557 212.273 166.142C213.216 165.728 214.059 165.116 214.747 164.349C215.434 163.581 215.949 162.676 216.258 161.693C216.566 160.71 216.661 159.672 216.536 158.65Z" fill="#9FB7B2"/>
</g>
<path opacity="0.6" d="M215.365 163.103L203.816 154.725C203.55 154.996 203.589 154.866 203.359 155.18C203.129 155.494 203.244 155.411 203.065 155.757L214.626 164.136C214.893 163.865 214.854 163.995 215.07 163.68C215.2 163.505 215.299 163.31 215.365 163.103Z" fill="#6A9A9B"/>
<g style="mix-blend-mode:multiply" opacity="0.29">
<path d="M189.345 174.395C193.327 174.759 196.85 171.826 197.213 167.844C197.577 163.862 194.644 160.34 190.662 159.976C186.68 159.613 183.157 162.546 182.794 166.528C182.43 170.509 185.364 174.032 189.345 174.395Z" fill="#C0D5D0"/>
</g>
<path d="M189.646 173.162C193.628 173.526 197.15 170.592 197.514 166.611C197.877 162.629 194.944 159.106 190.962 158.743C186.98 158.379 183.458 161.312 183.094 165.294C182.731 169.276 185.664 172.799 189.646 173.162Z" fill="#C0D5D0"/>
<g style="mix-blend-mode:multiply">
<path d="M197.632 165.173C197.446 166.407 196.945 167.572 196.176 168.556C195.407 169.539 194.397 170.307 193.244 170.785C192.091 171.262 190.834 171.434 189.595 171.283C188.356 171.131 187.177 170.662 186.173 169.921C185.385 169.341 184.724 168.605 184.232 167.76C183.739 166.914 183.425 165.977 183.309 165.005C183.16 166.025 183.23 167.064 183.516 168.054C183.801 169.044 184.295 169.961 184.965 170.744C185.634 171.528 186.463 172.159 187.396 172.596C188.329 173.032 189.344 173.265 190.374 173.277C191.405 173.289 192.425 173.08 193.368 172.666C194.311 172.251 195.155 171.639 195.842 170.872C196.529 170.104 197.045 169.199 197.353 168.216C197.662 167.233 197.757 166.195 197.632 165.173Z" fill="#9FB7B2"/>
</g>
<path opacity="0.6" d="M193.207 172.508L188.565 158.993C188.198 159.054 188.299 158.969 187.939 159.097C187.579 159.225 187.7 159.223 187.362 159.393L191.976 172.905C192.344 172.845 192.229 172.928 192.603 172.802C192.977 172.675 192.882 172.68 193.207 172.508Z" fill="#6A9A9B"/>
<g style="mix-blend-mode:multiply" opacity="0.29">
<path d="M78.9895 283.79C82.9713 284.153 86.4939 281.22 86.8574 277.238C87.2209 273.256 84.2877 269.734 80.3059 269.37C76.3241 269.007 72.8015 271.94 72.438 275.922C72.0745 279.903 75.0077 283.426 78.9895 283.79Z" fill="#C0D5D0"/>
</g>
<path d="M80.1062 283.167C84.088 283.531 87.6106 280.597 87.9741 276.616C88.3376 272.634 85.4044 269.111 81.4226 268.748C77.4408 268.384 73.9182 271.317 73.5547 275.299C73.1912 279.281 76.1244 282.804 80.1062 283.167Z" fill="#F8EEC8"/>
<g style="mix-blend-mode:multiply">
<path d="M86.3336 280.771C84.8969 281.772 83.146 282.216 81.4062 282.023C79.6664 281.83 78.0559 281.011 76.874 279.72C75.6921 278.428 75.0191 276.752 74.9801 275.002C74.9411 273.252 75.5387 271.547 76.6618 270.204C75.8166 270.793 75.1069 271.555 74.5803 272.44C74.0537 273.325 73.7225 274.313 73.6087 275.337C73.4949 276.36 73.6012 277.396 73.9205 278.375C74.2398 279.355 74.7648 280.254 75.4601 281.014C76.1555 281.774 77.0052 282.376 77.9524 282.78C78.8995 283.185 79.9222 283.382 80.9519 283.359C81.9815 283.337 82.9944 283.094 83.9226 282.647C84.8507 282.201 85.6728 281.561 86.3336 280.771Z" fill="#F3C74A"/>
</g>
<path d="M82.2841 282.964L80.5058 268.798C80.2973 268.746 80.0819 268.726 79.8673 268.74C79.4743 268.784 79.6061 268.81 79.2481 268.911L81.0264 283.077C81.2349 283.129 81.4503 283.149 81.6649 283.135C82.0047 283.086 81.9261 283.065 82.2841 282.964Z" fill="#F3C74A"/>
<g style="mix-blend-mode:multiply" opacity="0.29">
<path d="M61.3054 274.449C65.2872 274.813 68.8098 271.88 69.1733 267.898C69.5368 263.916 66.6036 260.393 62.6218 260.03C58.64 259.666 55.1174 262.6 54.7539 266.581C54.3904 270.563 57.3236 274.086 61.3054 274.449Z" fill="#C0D5D0"/>
</g>
<path d="M62.4089 273.826C66.3907 274.189 69.9133 271.256 70.2768 267.274C70.6404 263.292 67.7072 259.77 63.7253 259.406C59.7435 259.043 56.2209 261.976 55.8574 265.958C55.4939 269.94 58.4271 273.462 62.4089 273.826Z" fill="#F8EEC8"/>
<g style="mix-blend-mode:multiply">
<path d="M68.6363 271.43C67.1992 272.418 65.453 272.854 63.7201 272.655C61.9871 272.457 60.3843 271.639 59.2075 270.352C58.0306 269.064 57.3592 267.395 57.317 265.651C57.2748 263.907 57.8647 262.207 58.9779 260.864C58.1268 261.449 57.4111 262.211 56.879 263.096C56.3469 263.981 56.0109 264.971 55.8935 265.997C55.7761 267.023 55.8801 268.063 56.1985 269.045C56.517 270.028 57.0424 270.931 57.7393 271.694C58.4363 272.456 59.2886 273.06 60.2389 273.465C61.1891 273.871 62.2151 274.067 63.2478 274.042C64.2805 274.017 65.2959 273.771 66.2254 273.321C67.1549 272.87 67.977 272.225 68.6363 271.43Z" fill="#F3C74A"/>
</g>
<path d="M60.2781 273.215L66.9813 260.616C66.6803 260.387 66.8121 260.412 66.4796 260.234C66.2856 260.138 66.0806 260.065 65.869 260.018L59.1512 272.63C59.3095 272.774 59.482 272.902 59.6663 273.012C59.8582 273.112 60.0647 273.18 60.2781 273.215Z" fill="#F3C74A"/>
<path d="M153.713 151.707L128.426 149.399L125.648 179.82L150.936 182.129L153.713 151.707Z" fill="#F3C74A"/>
<path d="M126.399 178.802L138.264 179.886C138.474 179.905 138.685 179.882 138.886 179.82C139.087 179.757 139.274 179.656 139.436 179.521C139.597 179.386 139.731 179.221 139.829 179.035C139.927 178.849 139.987 178.645 140.006 178.435L141.958 157.059C141.996 156.635 141.865 156.214 141.593 155.887C141.321 155.561 140.931 155.355 140.507 155.317L128.642 154.233C128.531 154.229 128.421 154.245 128.317 154.283C128.213 154.321 128.117 154.379 128.036 154.454C127.954 154.529 127.888 154.619 127.841 154.719C127.795 154.819 127.768 154.928 127.764 155.039L125.681 177.852C125.665 177.961 125.672 178.073 125.7 178.18C125.727 178.287 125.776 178.388 125.843 178.476C125.909 178.564 125.993 178.639 126.088 178.695C126.184 178.751 126.289 178.787 126.399 178.802Z" fill="#F8EEC8"/>
<g style="mix-blend-mode:multiply" opacity="0.67">
<path d="M127.657 157.229L128.284 150.365C128.316 150.012 128.487 149.686 128.759 149.46C129.032 149.233 129.383 149.124 129.735 149.156L152.349 151.22C152.702 151.253 153.027 151.424 153.254 151.696C153.481 151.968 153.59 152.319 153.558 152.672L153.334 155.12L127.657 157.229Z" fill="#F3C74A"/>
</g>
<path d="M155.69 146.509L127.423 143.928C126.688 143.861 126.038 144.403 125.971 145.137L125.537 149.899C125.47 150.634 126.011 151.284 126.745 151.351L155.012 153.932C155.747 153.999 156.397 153.457 156.464 152.723L156.899 147.961C156.966 147.226 156.425 146.576 155.69 146.509Z" fill="#F8F6E8"/>
<g style="mix-blend-mode:multiply">
<path d="M127.747 151.697L128.191 146.829C128.197 146.765 128.177 146.702 128.136 146.653C128.096 146.604 128.037 146.573 127.973 146.567C127.941 146.563 127.908 146.564 127.876 146.573C127.845 146.581 127.815 146.596 127.789 146.616C127.764 146.637 127.742 146.662 127.727 146.691C127.711 146.719 127.702 146.751 127.699 146.784L127.254 151.652L127.747 151.697Z" fill="#C0D5D0"/>
</g>
<g style="mix-blend-mode:multiply">
<path d="M132.283 152.111L132.727 147.243C132.733 147.179 132.713 147.116 132.672 147.067C132.632 147.018 132.573 146.987 132.51 146.981C132.477 146.977 132.444 146.979 132.413 146.987C132.381 146.995 132.351 147.01 132.326 147.03C132.3 147.051 132.279 147.076 132.263 147.105C132.247 147.134 132.238 147.165 132.235 147.198L131.79 152.066L132.283 152.111Z" fill="#C0D5D0"/>
</g>
<g style="mix-blend-mode:multiply">
<path d="M136.845 152.528L137.29 147.659C137.292 147.628 137.289 147.596 137.28 147.566C137.27 147.536 137.255 147.508 137.235 147.484C137.215 147.459 137.19 147.439 137.162 147.425C137.134 147.41 137.103 147.401 137.072 147.398C137.04 147.393 137.007 147.395 136.975 147.404C136.943 147.412 136.914 147.427 136.888 147.447C136.862 147.467 136.841 147.493 136.826 147.521C136.81 147.55 136.8 147.582 136.797 147.614L136.353 152.483L136.845 152.528Z" fill="#C0D5D0"/>
</g>
<g style="mix-blend-mode:multiply">
<path d="M141.354 152.94L141.799 148.071C141.805 148.008 141.785 147.944 141.744 147.895C141.703 147.846 141.645 147.816 141.581 147.81C141.549 147.805 141.516 147.807 141.484 147.815C141.453 147.824 141.423 147.838 141.397 147.859C141.372 147.879 141.35 147.904 141.335 147.933C141.319 147.962 141.31 147.993 141.307 148.026L140.862 152.895L141.354 152.94Z" fill="#C0D5D0"/>
</g>
<g style="mix-blend-mode:multiply">
<path d="M145.891 153.354L146.335 148.485C146.341 148.422 146.321 148.358 146.28 148.309C146.24 148.26 146.181 148.23 146.117 148.224C146.085 148.219 146.052 148.221 146.02 148.229C145.989 148.238 145.959 148.253 145.934 148.273C145.908 148.293 145.887 148.318 145.871 148.347C145.855 148.376 145.846 148.408 145.843 148.44L145.398 153.309L145.891 153.354Z" fill="#C0D5D0"/>
</g>
<g style="mix-blend-mode:multiply">
<path d="M150.427 153.768L150.871 148.899C150.874 148.868 150.871 148.836 150.861 148.806C150.852 148.776 150.837 148.748 150.816 148.724C150.796 148.699 150.772 148.679 150.744 148.665C150.716 148.65 150.685 148.641 150.654 148.638C150.621 148.633 150.588 148.635 150.557 148.643C150.525 148.652 150.495 148.667 150.47 148.687C150.444 148.707 150.423 148.732 150.407 148.761C150.391 148.79 150.382 148.822 150.379 148.854L149.935 153.723L150.427 153.768Z" fill="#C0D5D0"/>
</g>
<g style="mix-blend-mode:multiply">
<path d="M154.963 154.182L155.407 149.313C155.413 149.25 155.393 149.187 155.353 149.138C155.312 149.089 155.253 149.058 155.19 149.052C155.157 149.047 155.124 149.049 155.093 149.058C155.061 149.066 155.031 149.081 155.006 149.101C154.98 149.121 154.959 149.147 154.943 149.175C154.928 149.204 154.918 149.236 154.915 149.268L154.471 154.137L154.963 154.182Z" fill="#C0D5D0"/>
</g>
<g style="mix-blend-mode:multiply">
<path d="M126.041 148.778L156.184 151.53C156.289 151.54 156.387 151.591 156.455 151.673C156.523 151.755 156.556 151.86 156.546 151.966C156.487 152.618 156.17 153.221 155.667 153.64C155.163 154.059 154.513 154.262 153.861 154.202L127.842 151.827C127.189 151.767 126.587 151.451 126.168 150.947C125.748 150.443 125.546 149.794 125.606 149.141C125.615 149.035 125.667 148.938 125.748 148.87C125.83 148.802 125.935 148.769 126.041 148.778Z" fill="#F8F6E8"/>
</g>
<path d="M143.389 268.463L118.102 266.154L115.325 296.576L140.612 298.885L143.389 268.463Z" fill="#783361"/>
<path d="M116.008 295.552L127.874 296.635C128.297 296.674 128.718 296.543 129.045 296.271C129.372 295.999 129.577 295.608 129.616 295.185L131.567 273.809C131.606 273.385 131.475 272.964 131.203 272.637C130.931 272.31 130.54 272.105 130.117 272.067L118.251 270.983C118.141 270.978 118.03 270.995 117.926 271.033C117.822 271.071 117.727 271.129 117.645 271.204C117.564 271.278 117.498 271.369 117.451 271.469C117.404 271.569 117.378 271.678 117.373 271.788L115.29 294.601C115.275 294.711 115.281 294.823 115.309 294.93C115.337 295.037 115.385 295.137 115.452 295.226C115.519 295.314 115.602 295.388 115.698 295.444C115.793 295.5 115.899 295.537 116.008 295.552Z" fill="#BFA6C2"/>
<g style="mix-blend-mode:multiply" opacity="0.27">
<path d="M117.334 273.985L117.959 267.134C117.991 266.781 118.162 266.456 118.435 266.229C118.707 266.002 119.058 265.893 119.411 265.925L142.024 267.99C142.377 268.022 142.703 268.193 142.929 268.465C143.156 268.737 143.265 269.089 143.233 269.441L143.01 271.889L117.334 273.985Z" fill="#783361"/>
</g>
<path d="M145.366 263.265L117.099 260.684C116.365 260.617 115.715 261.158 115.648 261.893L115.213 266.655C115.146 267.39 115.687 268.04 116.422 268.107L144.688 270.688C145.423 270.755 146.073 270.213 146.14 269.479L146.575 264.717C146.642 263.982 146.101 263.332 145.366 263.265Z" fill="#F8F6E8"/>
<g style="mix-blend-mode:multiply">
<path d="M117.425 268.427L117.87 263.558C117.876 263.494 117.856 263.431 117.815 263.382C117.774 263.333 117.716 263.302 117.652 263.297C117.62 263.292 117.587 263.294 117.555 263.302C117.523 263.311 117.494 263.325 117.468 263.346C117.442 263.366 117.421 263.391 117.406 263.42C117.39 263.449 117.38 263.48 117.378 263.513L116.933 268.382L117.425 268.427Z" fill="#C0D5D0"/>
</g>
<g style="mix-blend-mode:multiply">
<path d="M121.961 268.841L122.406 263.972C122.412 263.909 122.392 263.845 122.351 263.796C122.31 263.747 122.252 263.717 122.188 263.711C122.156 263.706 122.123 263.708 122.091 263.716C122.06 263.725 122.03 263.74 122.004 263.76C121.979 263.78 121.957 263.805 121.942 263.834C121.926 263.863 121.917 263.895 121.914 263.927L121.469 268.796L121.961 268.841Z" fill="#C0D5D0"/>
</g>
<g style="mix-blend-mode:multiply">
<path d="M126.497 269.255L126.941 264.386C126.947 264.323 126.928 264.26 126.887 264.21C126.846 264.161 126.787 264.131 126.724 264.125C126.692 264.12 126.659 264.122 126.627 264.13C126.595 264.139 126.566 264.154 126.54 264.174C126.514 264.194 126.493 264.219 126.477 264.248C126.462 264.277 126.452 264.309 126.449 264.341L126.005 269.21L126.497 269.255Z" fill="#C0D5D0"/>
</g>
<g style="mix-blend-mode:multiply">
<path d="M131.033 269.669L131.478 264.8C131.483 264.737 131.464 264.674 131.423 264.625C131.382 264.576 131.324 264.545 131.26 264.539C131.228 264.534 131.195 264.536 131.163 264.545C131.131 264.553 131.102 264.568 131.076 264.588C131.05 264.608 131.029 264.634 131.014 264.662C130.998 264.691 130.988 264.723 130.985 264.755L130.541 269.624L131.033 269.669Z" fill="#C0D5D0"/>
</g>
<g style="mix-blend-mode:multiply">
<path d="M135.569 270.083L136.014 265.214C136.017 265.183 136.013 265.151 136.004 265.121C135.995 265.091 135.979 265.063 135.959 265.039C135.939 265.014 135.914 264.994 135.886 264.98C135.858 264.965 135.828 264.956 135.796 264.953C135.764 264.948 135.731 264.95 135.699 264.959C135.668 264.967 135.638 264.982 135.612 265.002C135.587 265.022 135.565 265.048 135.55 265.076C135.534 265.105 135.524 265.137 135.522 265.169L135.077 270.038L135.569 270.083Z" fill="#C0D5D0"/>
</g>
<g style="mix-blend-mode:multiply">
<path d="M140.105 270.497L140.55 265.629C140.553 265.597 140.549 265.565 140.54 265.535C140.531 265.505 140.515 265.477 140.495 265.453C140.475 265.429 140.45 265.409 140.422 265.394C140.394 265.379 140.364 265.37 140.332 265.367C140.3 265.362 140.267 265.364 140.235 265.373C140.204 265.381 140.174 265.396 140.148 265.416C140.123 265.436 140.101 265.462 140.086 265.491C140.07 265.519 140.061 265.551 140.058 265.584L139.613 270.452L140.105 270.497Z" fill="#C0D5D0"/>
</g>
<g style="mix-blend-mode:multiply">
<path d="M144.641 270.911L145.086 266.043C145.091 265.979 145.072 265.916 145.031 265.867C144.99 265.818 144.931 265.787 144.868 265.781C144.836 265.777 144.803 265.778 144.771 265.787C144.739 265.795 144.71 265.81 144.684 265.83C144.658 265.851 144.637 265.876 144.621 265.905C144.606 265.933 144.596 265.965 144.593 265.998L144.149 270.866L144.641 270.911Z" fill="#C0D5D0"/>
</g>
<g style="mix-blend-mode:multiply">
<path d="M115.713 265.588L145.855 268.339C145.961 268.349 146.059 268.4 146.127 268.482C146.195 268.564 146.228 268.669 146.218 268.775C146.18 269.097 146.078 269.409 145.92 269.692C145.761 269.976 145.548 270.225 145.293 270.426C145.038 270.627 144.746 270.775 144.434 270.863C144.121 270.951 143.794 270.977 143.472 270.939L117.52 268.569C116.867 268.51 116.265 268.193 115.845 267.69C115.426 267.186 115.224 266.536 115.283 265.884C115.293 265.778 115.344 265.68 115.426 265.612C115.508 265.544 115.613 265.511 115.719 265.521L115.713 265.588Z" fill="#F8F6E8"/>
</g>
<path d="M218.196 99.4758L192.909 97.1673L190.131 127.589L215.419 129.898L218.196 99.4758Z" fill="#F58777"/>
<path d="M190.937 125.235L202.802 126.318C203.225 126.357 203.647 126.226 203.973 125.954C204.3 125.682 204.505 125.291 204.544 124.868L206.492 103.531C206.531 103.106 206.4 102.684 206.129 102.355C205.857 102.026 205.467 101.818 205.043 101.776L193.177 100.693C193.065 100.687 192.953 100.705 192.847 100.743C192.741 100.781 192.644 100.84 192.561 100.916C192.478 100.992 192.411 101.083 192.364 101.185C192.316 101.287 192.289 101.397 192.284 101.51L190.207 124.27C190.191 124.381 190.197 124.494 190.226 124.603C190.254 124.712 190.303 124.814 190.371 124.904C190.439 124.993 190.524 125.069 190.621 125.126C190.718 125.182 190.825 125.219 190.937 125.235Z" fill="#F7C1B6"/>
<g style="mix-blend-mode:multiply" opacity="0.67">
<path d="M192.276 103.655L192.902 96.8045C192.934 96.4517 193.105 96.1261 193.377 95.8994C193.649 95.6727 194 95.5635 194.353 95.5957L216.967 97.6602C217.319 97.6924 217.645 97.8634 217.872 98.1357C218.098 98.4079 218.208 98.759 218.175 99.1118L217.952 101.559L192.276 103.655Z" fill="#F3C74A"/>
</g>
<path d="M220.294 92.9475L192.027 90.3669C191.293 90.2998 190.643 90.841 190.576 91.5757L190.141 96.3378C190.074 97.0725 190.615 97.7224 191.35 97.7895L219.617 100.37C220.351 100.437 221.001 99.896 221.068 99.1613L221.503 94.3992C221.57 93.6645 221.029 93.0146 220.294 92.9475Z" fill="#F8F6E8"/>
<g style="mix-blend-mode:multiply">
<path d="M192.352 98.1224L192.795 93.2672C192.801 93.2001 192.781 93.1334 192.738 93.0817C192.695 93.03 192.633 92.9975 192.566 92.9914C192.501 92.9889 192.437 93.0114 192.388 93.0544C192.339 93.0974 192.309 93.1574 192.303 93.2222L191.86 98.0775L192.352 98.1224Z" fill="#C0D5D0"/>
</g>
<g style="mix-blend-mode:multiply">
<path d="M196.888 98.5365L197.331 93.6813C197.338 93.6142 197.317 93.5475 197.274 93.4958C197.231 93.4441 197.169 93.4116 197.102 93.4055C197.037 93.403 196.973 93.4255 196.924 93.4685C196.876 93.5115 196.845 93.5715 196.839 93.6363L196.396 98.4916L196.888 98.5365Z" fill="#C0D5D0"/>
</g>
<g style="mix-blend-mode:multiply">
<path d="M201.424 98.9506L201.868 94.0954C201.874 94.0284 201.853 93.9616 201.81 93.9099C201.767 93.8582 201.705 93.8257 201.638 93.8196C201.573 93.8171 201.509 93.8397 201.461 93.8826C201.412 93.9256 201.381 93.9857 201.375 94.0505L200.932 98.9057L201.424 98.9506Z" fill="#C0D5D0"/>
</g>
<g style="mix-blend-mode:multiply">
<path d="M205.96 99.3647L206.403 94.5095C206.409 94.4425 206.389 94.3758 206.345 94.324C206.302 94.2723 206.241 94.2398 206.174 94.2337C206.109 94.2312 206.045 94.2538 205.996 94.2967C205.947 94.3397 205.917 94.3998 205.911 94.4646L205.468 99.3198L205.96 99.3647Z" fill="#C0D5D0"/>
</g>
<g style="mix-blend-mode:multiply">
<path d="M210.496 99.7789L210.939 94.9236C210.945 94.8566 210.925 94.7899 210.882 94.7381C210.839 94.6864 210.777 94.6539 210.71 94.6478C210.645 94.6453 210.581 94.6679 210.532 94.7108C210.483 94.7538 210.453 94.8139 210.447 94.8787L210.004 99.7339L210.496 99.7789Z" fill="#C0D5D0"/>
</g>
<g style="mix-blend-mode:multiply">
<path d="M215.032 100.193L215.475 95.3377C215.482 95.2707 215.461 95.204 215.418 95.1522C215.375 95.1005 215.313 95.068 215.246 95.0619C215.181 95.0594 215.117 95.082 215.068 95.1249C215.02 95.1679 214.989 95.228 214.983 95.2928L214.54 100.148L215.032 100.193Z" fill="#C0D5D0"/>
</g>
<g style="mix-blend-mode:multiply">
<path d="M219.568 100.607L220.011 95.7518C220.017 95.6848 219.996 95.6181 219.953 95.5664C219.91 95.5146 219.848 95.4821 219.781 95.476C219.716 95.4735 219.653 95.4961 219.604 95.539C219.555 95.582 219.525 95.6421 219.519 95.7069L219.076 100.562L219.568 100.607Z" fill="#C0D5D0"/>
</g>
<g style="mix-blend-mode:multiply">
<path d="M190.633 95.2025L220.776 97.9543C220.882 97.964 220.979 98.0153 221.047 98.0969C221.115 98.1786 221.148 98.284 221.139 98.3898C221.072 99.0372 220.753 99.6324 220.251 100.046C219.749 100.46 219.103 100.659 218.455 100.599L192.437 98.224C191.784 98.1644 191.182 97.848 190.762 97.3444C190.343 96.8408 190.141 96.1911 190.2 95.5385C190.21 95.4326 190.261 95.335 190.343 95.267C190.425 95.199 190.53 95.1662 190.636 95.1759L190.633 95.2025Z" fill="#F8F6E8"/>
</g>
<path d="M90.7645 223.715L89.6473 235.953L59.997 233.246L61.1142 221.008C61.2216 219.832 61.7908 218.747 62.6972 217.99C63.6036 217.233 64.7731 216.866 65.9494 216.97L66.2953 217.001C66.8857 217.055 67.481 216.992 68.0471 216.816C68.6132 216.64 69.1391 216.354 69.5947 215.975C70.0503 215.595 70.4268 215.13 70.7025 214.605C70.9783 214.08 71.1479 213.506 71.2018 212.916L71.2759 212.104L82.729 213.15L82.6549 213.961C82.5461 215.154 82.9153 216.34 83.6815 217.261C84.4478 218.181 85.5481 218.759 86.7405 218.868C87.9162 218.979 89 219.551 89.7543 220.46C90.5086 221.368 90.8719 222.539 90.7645 223.715Z" fill="#F58777"/>
<g style="mix-blend-mode:multiply" opacity="0.77">
<path d="M65.9263 217.222C67.1073 217.33 68.2833 216.969 69.2003 216.217C70.1173 215.465 70.7015 214.383 70.8268 213.203L70.9009 212.392L82.3673 213.439L82.2932 214.25C82.0722 216.671 65.9263 217.222 65.9263 217.222Z" fill="#F58777"/>
</g>
<path d="M83.7456 207.891L71.1752 206.743C70.3964 206.672 69.7075 207.246 69.6364 208.024L69.3583 211.071C69.2872 211.849 69.8609 212.538 70.6396 212.609L83.2101 213.757C83.9888 213.828 84.6777 213.254 84.7488 212.476L85.0269 209.43C85.098 208.651 84.5243 207.962 83.7456 207.891Z" fill="#F8F6E8"/>
<g style="mix-blend-mode:multiply">
<path d="M71.7258 212.91L72.0767 209.065C72.0791 209.04 72.0762 209.014 72.0682 208.99C72.0602 208.965 72.0472 208.943 72.03 208.923C72.0129 208.904 71.992 208.889 71.9686 208.878C71.9453 208.867 71.9199 208.862 71.8942 208.861C71.8448 208.856 71.7956 208.872 71.7575 208.904C71.7194 208.935 71.6955 208.981 71.691 209.03L71.34 212.875L71.7258 212.91Z" fill="#C0D5D0"/>
</g>
<g style="mix-blend-mode:multiply">
<path d="M75.3039 213.236L75.6549 209.392C75.6594 209.343 75.6441 209.294 75.6123 209.255C75.5806 209.217 75.535 209.193 75.4856 209.189C75.4602 209.185 75.4343 209.186 75.4093 209.192C75.3844 209.199 75.361 209.21 75.3407 209.226C75.3204 209.241 75.3035 209.261 75.2912 209.284C75.2789 209.306 75.2714 209.331 75.2691 209.357L74.9181 213.201L75.3039 213.236Z" fill="#C0D5D0"/>
</g>
<g style="mix-blend-mode:multiply">
<path d="M78.882 213.563L79.233 209.719C79.2375 209.669 79.2222 209.62 79.1905 209.582C79.1588 209.544 79.1132 209.52 79.0638 209.516C79.0131 209.511 78.9625 209.526 78.9223 209.557C78.8821 209.588 78.8553 209.633 78.8473 209.684L78.4963 213.528L78.882 213.563Z" fill="#C0D5D0"/>
</g>
<g style="mix-blend-mode:multiply">
<path d="M82.474 213.891L82.8249 210.047C82.8262 209.996 82.808 209.946 82.7741 209.908C82.7402 209.87 82.6931 209.847 82.6424 209.842C82.5917 209.837 82.5411 209.852 82.5009 209.883C82.4607 209.915 82.4339 209.96 82.4259 210.01L82.0749 213.855L82.474 213.891Z" fill="#C0D5D0"/>
</g>
<g style="mix-blend-mode:multiply">
<path d="M69.7152 210.54L84.4805 211.888C84.5617 211.895 84.6365 211.935 84.6887 211.997C84.7408 212.06 84.7659 212.141 84.7585 212.222C84.7115 212.737 84.4618 213.212 84.0643 213.543C83.6669 213.874 83.1542 214.034 82.6391 213.987L71.1329 212.936C70.6178 212.889 70.1425 212.639 69.8115 212.242C69.4806 211.844 69.321 211.332 69.3681 210.817C69.3755 210.736 69.4148 210.661 69.4774 210.609C69.54 210.556 69.6208 210.531 69.7019 210.539L69.7152 210.54Z" fill="#F8F6E8"/>
</g>
<path d="M90.2666 229.316L60.4434 226.594L59.8301 233.311L89.6533 236.034L90.2666 229.316Z" fill="#F7C1B6"/>
<path d="M96.4711 164.884L95.3538 177.122L65.7035 174.415L66.8208 162.177C66.9281 161.001 67.4974 159.915 68.4037 159.158C69.3101 158.401 70.4796 158.035 71.656 158.138L71.9486 158.165C73.1411 158.274 74.3279 157.905 75.2481 157.138C76.1682 156.372 76.7463 155.272 76.8552 154.079L76.9293 153.268L88.3956 154.315L88.3216 155.126C88.2127 156.319 88.582 157.506 89.3482 158.426C90.1144 159.346 91.2148 159.924 92.4072 160.033C92.9932 160.083 93.5635 160.248 94.0854 160.519C94.6073 160.791 95.0704 161.162 95.4481 161.613C95.8258 162.064 96.1106 162.585 96.2861 163.146C96.4617 163.708 96.5246 164.298 96.4711 164.884Z" fill="#F3C74A"/>
<g style="mix-blend-mode:multiply" opacity="0.77">
<path d="M71.6326 158.391C72.8251 158.5 74.0119 158.131 74.9321 157.364C75.8522 156.598 76.4303 155.498 76.5392 154.305L76.6133 153.494L88.0797 154.541L88.0056 155.352C87.7785 157.84 71.6326 158.391 71.6326 158.391Z" fill="#F58777"/>
</g>
<path d="M89.4521 149.06L76.8817 147.912C76.103 147.841 75.414 148.415 75.343 149.193L75.0649 152.239C74.9938 153.018 75.5674 153.707 76.3461 153.778L88.9166 154.926C89.6953 154.997 90.3842 154.423 90.4553 153.644L90.7334 150.598C90.8045 149.82 90.2309 149.131 89.4521 149.06Z" fill="#F8F6E8"/>
<g style="mix-blend-mode:multiply">
<path d="M77.4318 154.078L77.7828 150.234C77.7852 150.209 77.7823 150.183 77.7742 150.158C77.7662 150.134 77.7532 150.111 77.7361 150.092C77.719 150.073 77.698 150.058 77.6747 150.047C77.6513 150.036 77.626 150.03 77.6002 150.03C77.5509 150.025 77.5017 150.041 77.4636 150.072C77.4255 150.104 77.4015 150.15 77.397 150.199L77.0461 154.043L77.4318 154.078Z" fill="#C0D5D0"/>
</g>
<g style="mix-blend-mode:multiply">
<path d="M81.0104 154.405L81.3614 150.561C81.3659 150.511 81.3506 150.462 81.3189 150.424C81.2871 150.386 81.2416 150.362 81.1922 150.358C81.1668 150.353 81.1408 150.355 81.1159 150.361C81.0909 150.367 81.0676 150.379 81.0473 150.394C81.0269 150.41 81.0101 150.43 80.9978 150.453C80.9854 150.475 80.9779 150.5 80.9756 150.526L80.6247 154.37L81.0104 154.405Z" fill="#C0D5D0"/>
</g>
<g style="mix-blend-mode:multiply">
<path d="M84.5886 154.732L84.9396 150.888C84.9441 150.838 84.9288 150.789 84.897 150.751C84.8653 150.713 84.8197 150.689 84.7703 150.684C84.7196 150.68 84.6691 150.694 84.6288 150.725C84.5886 150.757 84.5618 150.802 84.5538 150.852L84.2028 154.697L84.5886 154.732Z" fill="#C0D5D0"/>
</g>
<g style="mix-blend-mode:multiply">
<path d="M88.18 155.06L88.531 151.215C88.5322 151.165 88.514 151.115 88.4801 151.077C88.4462 151.039 88.3992 151.015 88.3485 151.011C88.2978 151.006 88.2472 151.021 88.207 151.052C88.1668 151.083 88.1399 151.129 88.1319 151.179L87.781 155.023L88.18 155.06Z" fill="#C0D5D0"/>
</g>
<g style="mix-blend-mode:multiply">
<path d="M75.4218 151.709L90.1871 153.057C90.2682 153.064 90.3431 153.103 90.3952 153.166C90.4474 153.229 90.4725 153.309 90.4651 153.391C90.4416 153.648 90.3673 153.898 90.2463 154.126C90.1254 154.355 89.9603 154.557 89.7606 154.72C89.561 154.884 89.3307 155.007 89.0832 155.081C88.8358 155.156 88.576 155.18 88.3191 155.153L76.8394 154.105C76.3243 154.058 75.849 153.808 75.5181 153.411C75.1871 153.013 75.0276 152.501 75.0746 151.985C75.082 151.904 75.1214 151.829 75.184 151.777C75.2466 151.725 75.3273 151.7 75.4085 151.707L75.4218 151.709Z" fill="#F8F6E8"/>
</g>
<path d="M95.9731 170.485L66.1499 167.762L65.5366 174.48L95.3598 177.203L95.9731 170.485Z" fill="#F8EEC8"/>
<path d="M202.116 293.233L200.999 305.471L171.415 302.77L172.533 290.532C172.64 289.356 173.209 288.271 174.116 287.514C175.022 286.757 176.192 286.39 177.368 286.494L177.714 286.525C178.906 286.634 180.093 286.265 181.013 285.499C181.933 284.732 182.511 283.632 182.62 282.44L182.694 281.628L194.147 282.674L194.075 283.472C193.966 284.664 194.335 285.851 195.101 286.771C195.867 287.692 196.968 288.27 198.16 288.379C199.325 288.506 200.393 289.087 201.133 289.995C201.874 290.903 202.227 292.066 202.116 293.233Z" fill="#C0D5D0"/>
<g style="mix-blend-mode:multiply" opacity="0.77">
<path d="M177.278 286.74C178.471 286.849 179.657 286.48 180.578 285.714C181.498 284.948 182.076 283.847 182.185 282.655L182.259 281.843L193.725 282.89L193.651 283.702C193.424 286.189 177.278 286.74 177.278 286.74Z" fill="#F58777"/>
</g>
<path d="M195.098 277.409L182.527 276.261C181.748 276.19 181.06 276.764 180.988 277.542L180.71 280.589C180.639 281.367 181.213 282.056 181.992 282.127L194.562 283.275C195.341 283.346 196.03 282.772 196.101 281.994L196.379 278.948C196.45 278.169 195.876 277.48 195.098 277.409Z" fill="#F8F6E8"/>
<g style="mix-blend-mode:multiply">
<path d="M183.074 282.468L183.425 278.623C183.427 278.598 183.424 278.572 183.416 278.548C183.408 278.523 183.395 278.501 183.378 278.481C183.361 278.462 183.34 278.447 183.317 278.436C183.293 278.425 183.268 278.419 183.242 278.419C183.193 278.414 183.144 278.43 183.106 278.461C183.068 278.493 183.044 278.539 183.039 278.588L182.688 282.432L183.074 282.468Z" fill="#C0D5D0"/>
</g>
<g style="mix-blend-mode:multiply">
<path d="M186.652 282.794L187.003 278.95C187.008 278.901 186.992 278.851 186.96 278.813C186.929 278.775 186.883 278.751 186.834 278.747C186.808 278.743 186.782 278.744 186.757 278.75C186.733 278.756 186.709 278.768 186.689 278.784C186.669 278.799 186.652 278.819 186.639 278.842C186.627 278.864 186.62 278.889 186.617 278.915L186.266 282.759L186.652 282.794Z" fill="#C0D5D0"/>
</g>
<g style="mix-blend-mode:multiply">
<path d="M190.23 283.121L190.581 279.277C190.586 279.227 190.57 279.178 190.539 279.14C190.507 279.102 190.461 279.078 190.412 279.073C190.361 279.069 190.311 279.083 190.27 279.115C190.23 279.146 190.203 279.191 190.195 279.241L189.844 283.086L190.23 283.121Z" fill="#C0D5D0"/>
</g>
<g style="mix-blend-mode:multiply">
<path d="M193.822 283.449L194.173 279.605C194.174 279.554 194.156 279.504 194.122 279.466C194.088 279.428 194.041 279.405 193.991 279.4C193.94 279.395 193.889 279.41 193.849 279.441C193.809 279.473 193.782 279.518 193.774 279.568L193.423 283.412L193.822 283.449Z" fill="#C0D5D0"/>
</g>
<g style="mix-blend-mode:multiply">
<path d="M181.067 280.058L195.846 281.407C195.927 281.415 196.002 281.454 196.054 281.516C196.106 281.579 196.131 281.66 196.124 281.741C196.077 282.256 195.827 282.731 195.43 283.062C195.032 283.393 194.52 283.553 194.004 283.506L182.485 282.454C181.97 282.407 181.495 282.157 181.164 281.76C180.833 281.362 180.673 280.85 180.72 280.335C180.728 280.254 180.767 280.179 180.829 280.127C180.892 280.074 180.973 280.049 181.054 280.057L181.067 280.058Z" fill="#F8F6E8"/>
</g>
<path d="M201.619 298.834L171.795 296.112L171.182 302.829L201.005 305.552L201.619 298.834Z" fill="#6A9A9B"/>
</g>
<defs>
<clipPath id="clip0">
<rect width="235.477" height="463.341" fill="white" transform="translate(42.1255) rotate(5.21633)"/>
</clipPath>
</defs>
</svg>
