<svg width="130" height="222" viewBox="0 0 130 222" fill="none" xmlns="http://www.w3.org/2000/svg"><g clip-path="url(#clip0)"><path d="M105.772 123.986c-.279.356-.564.716-.874 1.072-7.256 8.248-27.798 14.221-34.93 7.942-.117-.139-1.136-1.308-2.645-3.059-3.798-4.418-10.725-12.549-14.284-17.183-5.078-6.622-14.747-26.207-14.747-26.207l.296-.19-.331.106s-6.764-20.81-7.747-29.1c-.982-8.29-3.172-25.86-3.172-25.86l.18.118c-.457-8.438 15.141-20.86 24.9-23.04.45-.098.897-.18 1.349-.248a277.895 277.895 0 0 1 4.226 16.644c1.28 5.77 2.341 11.42 3.206 16.865a20.08 20.08 0 0 1-1.334.342 20.16 20.16 0 0 1-1.939.35c-2.082 1.263-7.136 4.653-6.252 7.153 1.1 3.132 10.977 22.81 11.372 25.034l-.006.04a.06.06 0 0 1 .035.007c1.272 1.871 8.53 24.287 9.921 27.325.925 2.005 3.393 1.871 4.946 1.558.35-.465.749-.928 1.12-1.377.31-.351.621-.683.943-1.007a281.596 281.596 0 0 1 13.228 10.952 276.788 276.788 0 0 1 12.539 11.763z" fill="#F58777"/><path d="M69.97 132.988c-.117-.139-1.136-1.307-2.645-3.059-3.798-4.417-10.725-12.549-14.284-17.182-5.078-6.623-14.747-26.207-14.747-26.207l.296-.19-.331.106s-6.766-20.799-7.749-29.089c-.982-8.29-3.172-25.86-3.172-25.86l.18.118c-.444-8.212 11.708 56.528 39.58 86.229 1.397 1.493 4.007.523 4.774-1.368 1.343-3.336 2.634-8.046 2.588-7.829-3.11 15.727 3.23 30.557-4.49 24.331z" fill="#F58777" opacity=".59"/><path d="M55.424 7.243c1.532 5.428 2.96 11.1 4.252 16.974 1.294 5.875 2.418 11.59 3.307 17.153.05.322-.002.652-.147.944 2.244.096 4.49-.11 6.68-.612a1.594 1.594 0 0 0 1.216-1.828c-.905-5.578-1.305-11.252-2.603-17.097-1.298-5.844-3.412-11.569-4.938-16.996a1.612 1.612 0 0 0-1.883-1.134 25.33 25.33 0 0 0-6.054 2.177c.077.13.134.272.17.42z" fill="#F58777"/><path d="M65.159 42.217c1.501.037 3-.135 4.453-.512a1.6 1.6 0 0 0 1.221-1.82c-.904-5.579-1.305-11.253-2.602-17.098-1.298-5.845-3.413-11.563-4.945-16.992-.23-.809 2.008 36.135 1.873 36.422z" fill="#F58777" opacity=".55"/><path d="M69.955 132.973a14.654 14.654 0 0 1-2.645-3.059c1.508 1.752 2.528 2.92 2.645 3.059zM80.697 99.434a322.36 322.36 0 0 1 13.431 11.159c4.495 3.94 8.771 7.967 12.788 11.917.239.228.404.523.471.847a25.01 25.01 0 0 0 5.041-4.39 1.604 1.604 0 0 0-.086-2.194c-4.015-3.955-7.69-8.311-12.188-12.27-4.498-3.958-9.59-7.321-14.019-10.798a1.588 1.588 0 0 0-2.18.191 25.363 25.363 0 0 0-3.6 5.328c.123.056.237.127.342.21zM47.393 40.245a106.06 106.06 0 0 1-14.913-6.352l20.341 19.282.202-.361c-.663-1.445-1.154-2.554-1.326-3.119-.87-2.468 4.048-5.801 6.167-7.107-1.317.078-4.28-.173-10.471-2.343z" fill="#F58777"/><path d="M109.274 122.027a15.998 15.998 0 0 0 3.306-3.03 1.604 1.604 0 0 0-.086-2.194c-4.015-3.956-7.683-8.316-12.181-12.275-4.498-3.958-9.59-7.321-14.018-10.804-.666-.533 22.919 27.991 22.979 28.303z" fill="#F58777" opacity=".55"/><path d="M86.419 139.798a9.642 9.642 0 0 1 3.75-4.984 1.129 1.129 0 0 0 .481-1.318 1.134 1.134 0 0 0-1.168-.776 7.914 7.914 0 0 0-4.097 1.474 7.987 7.987 0 0 0-3.333 6.97 7.991 7.991 0 0 0 4.123 6.534 1.257 1.257 0 0 0 1.511-.253 1.252 1.252 0 0 0 .138-1.526 9.584 9.584 0 0 1-1.405-6.121z" fill="#F58777"/><path d="M86.134 144.635c.452.23.883.499 1.288.805a7.986 7.986 0 0 1 1.62 11.126.848.848 0 0 0 1.008 1.281 7.993 7.993 0 0 0 1.766-13.73 7.984 7.984 0 0 0-5.22-1.627 1.132 1.132 0 0 0-1.077.89 1.128 1.128 0 0 0 .615 1.255z" fill="#F58777"/><path d="M85.902 160.812a9.622 9.622 0 0 1 3.75-4.984 1.137 1.137 0 0 0 .474-1.313 1.141 1.141 0 0 0-1.154-.787 7.993 7.993 0 0 0-3.33 14.975 1.257 1.257 0 0 0 1.511-.253 1.252 1.252 0 0 0 .138-1.526 9.547 9.547 0 0 1-1.389-6.112z" fill="#F58777"/><path d="M87.104 166.345c.453.229.884.498 1.287.806a8.014 8.014 0 0 1 2.536 9.56 8.428 8.428 0 0 1-.919 1.59.846.846 0 0 0 1.01 1.275 7.928 7.928 0 0 0 4.05-3.771 7.996 7.996 0 0 0-7.514-11.606 1.134 1.134 0 0 0-.45 2.146z" fill="#F58777"/><path d="M87.74 179.831a9.62 9.62 0 0 1 4.54-4.274 1.14 1.14 0 0 0-.317-2.188 7.988 7.988 0 0 0-8.208 4.93 7.993 7.993 0 0 0 2.414 9.266 1.242 1.242 0 0 0 1.533.013 1.245 1.245 0 0 0 .388-1.483 9.59 9.59 0 0 1-.35-6.264z" fill="#F58777"/><path d="M86.64 184.546c.411.299.794.633 1.144 1a8.005 8.005 0 0 1 .878 9.845 7.832 7.832 0 0 1-1.17 1.418.846.846 0 0 0 .785 1.433 7.996 7.996 0 0 0-.812-15.723 1.127 1.127 0 0 0-.824 2.027z" fill="#F58777"/><path d="M83.702 200.458a9.63 9.63 0 0 1 4.54-4.275 1.143 1.143 0 0 0 .694-1.217 1.14 1.14 0 0 0-1.01-.971 8.002 8.002 0 0 0-8.195 4.937 7.997 7.997 0 0 0 2.4 9.26 1.249 1.249 0 0 0 1.921-1.47 9.607 9.607 0 0 1-.35-6.264z" fill="#F58777"/><path d="M83.924 206.11c.412.294.795.627 1.144.994a8.012 8.012 0 0 1-.292 11.263.846.846 0 0 0 .785 1.433 7.996 7.996 0 0 0-.812-15.723 1.134 1.134 0 0 0-.825 2.033z" fill="#F58777"/></g><defs><clipPath id="clip0"><path fill="#fff" transform="rotate(8.879 16.13 207.754)" d="M0 0h97.982v209.005H0z"/></clipPath></defs></svg>