<svg width="130" height="222" viewBox="0 0 130 222" fill="none" xmlns="http://www.w3.org/2000/svg">
<g clip-path="url(#clip0)">
<path d="M106.36 124.145C106.081 124.5 105.795 124.86 105.486 125.216C98.229 133.464 77.6877 139.437 70.5559 133.158C70.4387 133.019 69.4191 131.851 67.9108 130.099C64.1126 125.682 57.1856 117.55 53.6266 112.917C48.548 106.294 38.8796 86.7097 38.8796 86.7097L39.175 86.5202L38.8444 86.6257C38.8444 86.6257 32.0799 65.8157 31.0976 57.5254C30.1154 49.2351 27.925 31.6648 27.925 31.6648L28.1057 31.7836C27.6479 23.3457 43.2468 10.9224 53.0046 8.74382C53.455 8.64503 53.9026 8.56394 54.3543 8.49556C55.8811 13.8023 57.3008 19.3701 58.5802 25.1395C59.8596 30.9089 60.9219 36.5598 61.7868 42.0048C61.3505 42.1299 60.9091 42.2482 60.4529 42.3461C59.8254 42.4957 59.1554 42.6085 58.5136 42.6955C56.4315 43.959 51.3773 47.3496 52.2613 49.8496C53.3608 52.9813 63.2381 72.6586 63.6336 74.883C63.6336 74.883 63.629 74.9125 63.6272 74.9243C63.6393 74.9224 63.6516 74.9244 63.6626 74.9298C64.9347 76.8018 72.1915 99.2169 73.5834 102.255C74.5085 104.26 76.976 104.126 78.529 103.813C78.8795 103.349 79.2781 102.885 79.6503 102.436C79.9588 102.086 80.2704 101.754 80.5928 101.429C84.9565 104.817 89.3859 108.481 93.8206 112.382C98.2552 116.282 102.45 120.248 106.36 124.145Z" fill="#F58777"/>
<g style="mix-blend-mode:multiply" opacity="0.59">
<g style="mix-blend-mode:multiply" opacity="0.59">
<path d="M70.5579 133.147C70.4407 133.007 69.4211 131.839 67.9128 130.088C64.1145 125.67 57.1876 117.539 53.6286 112.905C48.55 106.283 38.8816 86.6983 38.8816 86.6983L39.177 86.5089L38.8464 86.6143C38.8464 86.6143 32.08 65.8161 31.0978 57.5258C30.1155 49.2355 27.9251 31.6652 27.9251 31.6652L28.1059 31.784C27.6612 23.5717 39.8136 88.3118 67.6848 118.013C69.0826 119.506 71.6926 118.536 72.4593 116.644C73.8021 113.308 75.0935 108.599 75.0476 108.815C71.9383 124.543 78.2779 139.372 70.5579 133.147Z" fill="#F58777"/>
</g>
</g>
<path d="M56.0113 7.4014C57.5434 12.8297 58.9709 18.5015 60.2641 24.3757C61.5574 30.25 62.6822 35.9651 63.5709 41.5285C63.6201 41.8506 63.5687 42.1802 63.4235 42.472C65.6675 42.5683 67.9142 42.3626 70.1034 41.8604C70.5017 41.7696 70.8499 41.5294 71.0762 41.1892C71.3025 40.8491 71.3895 40.4351 71.3192 40.0327C70.4146 34.4547 70.0144 28.7804 68.7166 22.9356C67.4188 17.0908 65.3048 11.3662 63.7787 5.93878C63.6666 5.54661 63.41 5.21153 63.0605 5.00111C62.7111 4.7907 62.2949 4.72062 61.8959 4.80499C59.7933 5.2704 57.7587 6.00203 55.8412 6.98218C55.9183 7.11275 55.9757 7.25402 56.0113 7.4014Z" fill="#F58777"/>
<g style="mix-blend-mode:multiply" opacity="0.55">
<g style="mix-blend-mode:multiply" opacity="0.55">
<path d="M65.746 42.3757C67.2472 42.4125 68.7461 42.2401 70.1996 41.8633C70.5967 41.7723 70.9441 41.5332 71.171 41.1949C71.3978 40.8565 71.487 40.4443 71.4204 40.0424C70.5158 34.4645 70.1156 28.7901 68.8177 22.9453C67.5199 17.1005 65.405 11.3818 63.873 5.9535C63.643 5.14435 65.8815 42.0888 65.746 42.3757Z" fill="#F58777"/>
</g>
</g>
<path d="M70.5419 133.132C69.5232 132.239 68.6331 131.21 67.8967 130.073C69.4051 131.825 70.4247 132.993 70.5419 133.132Z" fill="#F58777"/>
<path d="M81.2846 99.5924C85.7239 103.077 90.2206 106.812 94.7156 110.752C99.2105 114.692 103.487 118.718 107.503 122.668C107.742 122.896 107.907 123.191 107.974 123.515C109.844 122.284 111.539 120.808 113.016 119.126C113.283 118.817 113.422 118.419 113.406 118.012C113.39 117.604 113.22 117.218 112.929 116.932C108.914 112.976 105.239 108.62 100.741 104.662C96.2431 100.703 91.1506 97.3401 86.7222 93.8635C86.4037 93.6095 85.9997 93.4877 85.5938 93.5232C85.188 93.5588 84.8114 93.749 84.5418 94.0545C83.1211 95.6705 81.9118 97.4607 80.9429 99.382C81.0646 99.4385 81.1793 99.5092 81.2846 99.5924Z" fill="#F58777"/>
<g style="mix-blend-mode:multiply">
<path d="M47.9804 40.4041C42.8547 38.67 37.8692 36.5462 33.0676 34.0513L53.4088 53.3335L53.6102 52.9724C52.9479 51.5279 52.4567 50.4182 52.2852 49.8537C51.4142 47.386 56.3326 44.0527 58.4515 42.7466C57.1345 42.8248 54.1715 42.5734 47.9804 40.4041Z" fill="#F58777"/>
</g>
<g style="mix-blend-mode:multiply" opacity="0.55">
<g style="mix-blend-mode:multiply" opacity="0.55">
<path d="M109.862 122.185C111.1 121.335 112.213 120.315 113.168 119.156C113.435 118.847 113.575 118.449 113.559 118.042C113.543 117.634 113.372 117.248 113.082 116.962C109.067 113.006 105.399 108.645 100.901 104.687C96.4025 100.728 91.3099 97.3651 86.8825 93.8826C86.2167 93.3497 109.802 121.874 109.862 122.185Z" fill="#F58777"/>
</g>
</g>
<path d="M87.006 139.956C87.6693 137.925 88.9886 136.172 90.7566 134.973C90.9731 134.839 91.1382 134.636 91.2255 134.397C91.3127 134.158 91.317 133.896 91.2377 133.655C91.1583 133.413 90.9999 133.205 90.7879 133.064C90.5759 132.923 90.3227 132.857 90.069 132.878C88.5926 132.977 87.1735 133.488 85.9726 134.352C84.8732 135.138 83.9907 136.189 83.4078 137.408C82.8249 138.627 82.5606 139.973 82.6395 141.322C82.7184 142.671 83.138 143.978 83.859 145.12C84.5801 146.263 85.5791 147.204 86.7626 147.856C87.0069 147.987 87.2878 148.033 87.5611 147.987C87.8345 147.942 88.085 147.807 88.2735 147.603C88.462 147.4 88.5778 147.14 88.6028 146.864C88.6278 146.588 88.5605 146.312 88.4116 146.078C87.2689 144.253 86.7738 142.097 87.006 139.956Z" fill="#F58777"/>
<path d="M86.7217 144.793C87.1735 145.023 87.6044 145.293 88.0095 145.598C89.692 146.864 90.8063 148.744 91.1098 150.828C91.4133 152.912 90.8814 155.031 89.6299 156.725C89.5219 156.874 89.4655 157.054 89.4692 157.238C89.4729 157.423 89.5365 157.601 89.6505 157.745C89.7644 157.89 89.9224 157.994 90.1006 158.041C90.2788 158.088 90.4674 158.075 90.6379 158.006C92.3722 157.282 93.7957 155.97 94.6586 154.3C95.5215 152.631 95.7684 150.711 95.356 148.877C94.9436 147.044 93.8983 145.414 92.4037 144.275C90.9091 143.136 89.0608 142.56 87.1836 142.648C86.9302 142.654 86.6862 142.745 86.4908 142.906C86.2955 143.068 86.1602 143.29 86.1068 143.538C86.0535 143.786 86.0851 144.045 86.1967 144.272C86.3082 144.5 86.4932 144.683 86.7217 144.793Z" fill="#F58777"/>
<path d="M86.4899 160.97C87.152 158.939 88.4716 157.185 90.2405 155.987C90.4537 155.851 90.6158 155.648 90.7014 155.411C90.787 155.173 90.7911 154.914 90.7132 154.673C90.6353 154.433 90.4797 154.225 90.2709 154.083C90.0621 153.94 89.8119 153.872 89.5597 153.887C87.8355 154.001 86.1945 154.67 84.8829 155.795C83.5712 156.92 82.6595 158.44 82.2844 160.126C81.9093 161.813 82.091 163.576 82.8023 165.151C83.5136 166.726 84.7162 168.027 86.2298 168.861C86.4741 168.992 86.7549 169.038 87.0283 168.993C87.3017 168.947 87.5522 168.812 87.7406 168.609C87.9291 168.405 88.0449 168.145 88.0699 167.869C88.0949 167.593 88.0277 167.317 87.8788 167.083C86.7412 165.26 86.2519 163.106 86.4899 160.97Z" fill="#F58777"/>
<path d="M87.6915 166.504C88.1446 166.732 88.5757 167.001 88.9792 167.309C90.4102 168.389 91.4376 169.918 91.8973 171.651C92.357 173.384 92.2224 175.221 91.5149 176.869C91.2674 177.431 90.9593 177.964 90.596 178.459C90.4904 178.609 90.436 178.788 90.4409 178.971C90.4459 179.154 90.5099 179.33 90.6235 179.474C90.737 179.618 90.894 179.72 91.0709 179.767C91.2478 179.814 91.4352 179.803 91.6049 179.734C93.3643 179.005 94.8021 177.666 95.6553 175.963C96.2884 174.715 96.5828 173.323 96.5093 171.925C96.4357 170.528 95.9968 169.174 95.2362 167.999C94.4757 166.825 93.4203 165.87 92.1753 165.231C90.9303 164.592 89.5394 164.29 88.1416 164.357C87.8914 164.37 87.6525 164.465 87.462 164.628C87.2716 164.791 87.1405 165.012 87.0891 165.257C87.0377 165.502 87.0689 165.757 87.1779 165.983C87.2868 166.209 87.4674 166.392 87.6915 166.504Z" fill="#F58777"/>
<path d="M88.3271 179.989C89.3239 178.1 90.9211 176.596 92.8669 175.715C93.1016 175.618 93.2973 175.446 93.423 175.225C93.5487 175.005 93.5972 174.749 93.5609 174.497C93.5245 174.246 93.4054 174.014 93.2223 173.839C93.0393 173.663 92.8027 173.553 92.5503 173.527C90.8332 173.352 89.1056 173.738 87.6261 174.627C86.1466 175.516 84.9946 176.86 84.3424 178.458C83.6902 180.056 83.5729 181.822 84.0081 183.492C84.4432 185.162 85.4074 186.647 86.7564 187.723C86.974 187.896 87.2429 187.991 87.5205 187.993C87.7982 187.996 88.0687 187.905 88.2893 187.737C88.5098 187.568 88.6677 187.33 88.738 187.062C88.8083 186.793 88.787 186.509 88.6774 186.254C87.8616 184.264 87.7382 182.057 88.3271 179.989Z" fill="#F58777"/>
<path d="M87.2281 184.705C87.6383 185.003 88.0207 185.338 88.3706 185.705C89.598 187.011 90.3517 188.691 90.511 190.475C90.6702 192.26 90.2258 194.047 89.249 195.55C88.9159 196.066 88.5233 196.542 88.0791 196.968C87.9458 197.097 87.8585 197.266 87.8308 197.45C87.803 197.633 87.8362 197.821 87.9253 197.983C88.0145 198.146 88.1546 198.275 88.3241 198.351C88.4937 198.426 88.6833 198.444 88.8639 198.401C90.6917 197.976 92.3117 196.921 93.4404 195.422C94.569 193.922 95.1345 192.074 95.0377 190.199C94.941 188.325 94.1882 186.545 92.9112 185.17C91.6342 183.794 89.9142 182.912 88.0523 182.677C87.8032 182.642 87.5493 182.69 87.3312 182.816C87.113 182.941 86.943 183.136 86.8482 183.369C86.7535 183.602 86.7394 183.86 86.8082 184.102C86.8771 184.344 87.0249 184.557 87.2281 184.705Z" fill="#F58777"/>
<path d="M84.2893 200.616C85.2865 198.727 86.8836 197.223 88.8291 196.341C89.0638 196.245 89.2595 196.072 89.3852 195.852C89.5109 195.631 89.5595 195.375 89.5231 195.124C89.4868 194.873 89.3676 194.641 89.1845 194.465C89.0015 194.289 88.765 194.18 88.5125 194.153C86.7971 193.983 85.0726 194.372 83.5961 195.262C82.1196 196.151 80.9699 197.494 80.3186 199.09C79.6672 200.686 79.549 202.45 79.9814 204.118C80.4139 205.787 81.374 207.271 82.7186 208.35C82.9362 208.523 83.2051 208.618 83.4828 208.62C83.7604 208.622 84.0309 208.532 84.2515 208.363C84.472 208.195 84.6299 207.957 84.7002 207.688C84.7705 207.42 84.7492 207.135 84.6396 206.88C83.8251 204.89 83.7018 202.684 84.2893 200.616Z" fill="#F58777"/>
<path d="M84.5118 206.268C84.9238 206.562 85.3067 206.895 85.6552 207.263C87.0995 208.8 87.879 210.845 87.8244 212.954C87.7698 215.062 86.8856 217.065 85.3636 218.525C85.2303 218.654 85.1431 218.824 85.1153 219.007C85.0876 219.191 85.1208 219.378 85.2099 219.541C85.2991 219.704 85.4392 219.833 85.6087 219.908C85.7783 219.984 85.9679 220.001 86.1485 219.959C87.9763 219.533 89.5963 218.478 90.725 216.979C91.8536 215.48 92.419 213.631 92.3223 211.757C92.2256 209.883 91.4728 208.102 90.1958 206.727C88.9188 205.352 87.1988 204.47 85.3369 204.235C85.088 204.202 84.8354 204.253 84.6185 204.379C84.4017 204.505 84.2328 204.7 84.1385 204.933C84.0441 205.165 84.0296 205.423 84.0971 205.664C84.1647 205.906 84.3105 206.118 84.5118 206.268Z" fill="#F58777"/>
</g>
<defs>
<clipPath id="clip0">
<rect width="97.9822" height="209.005" fill="white" transform="translate(32.8469 0.158203) rotate(8.87902)"/>
</clipPath>
</defs>
</svg>
