<svg width="119" height="159" viewBox="0 0 119 159" fill="none" xmlns="http://www.w3.org/2000/svg"><g clip-path="url(#clip0)"><path d="M30.927 11.601C26.66 5.194 18.009 3.458 11.6 7.724 5.194 11.99 3.458 20.642 7.724 27.049l64.46 96.82c4.266 6.407 12.918 8.144 19.325 3.878s8.144-12.918 3.878-19.326l-64.46-96.82z" fill="#F8F6E8"/><path d="M99.186 149.252a5.527 5.527 0 0 0 7.665 1.538 5.527 5.527 0 0 0 1.538-7.665l-12.644-18.992a5.528 5.528 0 1 0-9.204 6.128l12.645 18.991z" fill="#F8F6E8"/><path d="M11.673 7.831a13.895 13.895 0 0 0-2.99 2.691 13.994 13.994 0 0 1 17.045 5.11l64.46 96.821a13.986 13.986 0 0 1-.887 16.634 14 14 0 0 0 2.28-1.233 13.98 13.98 0 0 0 3.877-19.325l-64.46-96.82A13.979 13.979 0 0 0 11.673 7.83z" fill="#F8EEC8" opacity=".65"/><path d="M106.851 150.79a5.526 5.526 0 0 1-7.654-1.52l-8.868-13.321 9.204-6.127 8.868 13.32a5.53 5.53 0 0 1-1.55 7.648z" fill="#C0D5D0"/><path d="M97.754 130.876l7.841 11.778a5.545 5.545 0 0 1-1.535 7.669 5.465 5.465 0 0 1-2.19.838 5.516 5.516 0 0 0 7.509-4.92 5.526 5.526 0 0 0-.936-3.307l-8.846-13.285-1.843 1.227z" fill="#C0D5D0" opacity=".59"/><path d="M18.681 18.359a.863.863 0 0 1 1.196.24l75.808 113.865-1.435.955L18.442 19.554a.863.863 0 0 1 .24-1.195z" fill="#F3C74A"/><g opacity=".57" fill="#F3C74A"><path opacity=".57" d="M28.88 16.269l-14.896 9.918a.687.687 0 0 0-.191.952l.002.004c.21.316.637.401.952.191l14.897-9.918a.686.686 0 0 0 .191-.952l-.002-.004a.687.687 0 0 0-.952-.191zM37.257 28.85L22.36 38.768a.686.686 0 0 0-.191.952l.002.004c.21.316.637.401.952.191l14.897-9.918a.687.687 0 0 0 .191-.952l-.002-.004a.687.687 0 0 0-.952-.191zM45.35 41.62l-14.898 9.918a.687.687 0 0 0-.19.952l.002.004c.21.316.637.401.952.191l14.897-9.918a.687.687 0 0 0 .191-.952l-.003-.004a.687.687 0 0 0-.952-.191zM53.725 54.2L38.828 64.12a.687.687 0 0 0-.19.952l.002.004c.21.316.636.401.952.191l14.897-9.918a.687.687 0 0 0 .191-.952l-.003-.004a.686.686 0 0 0-.952-.191zM62.098 66.778l-14.897 9.918a.686.686 0 0 0-.19.951l.002.005c.21.315.637.401.952.19l14.897-9.917a.687.687 0 0 0 .191-.952l-.003-.004a.687.687 0 0 0-.952-.191zM70.475 79.359l-14.897 9.918a.687.687 0 0 0-.191.952l.003.004c.21.316.636.401.952.19l14.897-9.917a.687.687 0 0 0 .19-.952l-.002-.004a.687.687 0 0 0-.952-.191zM78.85 91.94l-14.896 9.918a.687.687 0 0 0-.191.952l.003.004c.21.316.636.401.952.191l14.897-9.918a.687.687 0 0 0 .19-.952l-.002-.004a.687.687 0 0 0-.952-.191z"/></g><g opacity=".57" fill="#F3C74A"><path opacity=".57" d="M29.305 25.288l-7.58 5.046a.686.686 0 0 0-.19.952l.003.005c.21.315.636.4.952.19l7.58-5.046a.687.687 0 0 0 .19-.951l-.003-.005a.687.687 0 0 0-.952-.19zM37.68 37.87l-7.579 5.046a.686.686 0 0 0-.19.952l.002.004c.21.316.636.401.952.191l7.58-5.046a.686.686 0 0 0 .19-.952l-.002-.004a.687.687 0 0 0-.952-.191zM45.903 50.554l-7.58 5.046a.687.687 0 0 0-.191.952l.003.004c.21.316.636.402.952.191l7.58-5.046a.687.687 0 0 0 .19-.952l-.002-.004a.687.687 0 0 0-.952-.191zM54.279 63.135l-7.58 5.046a.687.687 0 0 0-.191.952l.003.004c.21.316.636.401.952.191l7.58-5.046a.687.687 0 0 0 .19-.952l-.003-.004a.687.687 0 0 0-.951-.191zM62.651 75.712l-7.579 5.046a.686.686 0 0 0-.191.952l.003.004c.21.316.636.401.952.191l7.58-5.046a.686.686 0 0 0 .19-.952l-.003-.004a.687.687 0 0 0-.952-.191zM71.028 88.293l-7.58 5.046a.687.687 0 0 0-.19.952l.002.004c.21.316.637.401.952.191l7.58-5.046a.687.687 0 0 0 .19-.952l-.002-.004a.687.687 0 0 0-.952-.191zM79.404 100.874l-7.58 5.046a.687.687 0 0 0-.19.952l.002.004c.21.316.637.401.952.191l7.58-5.046a.687.687 0 0 0 .19-.952l-.002-.004a.686.686 0 0 0-.952-.191z"/></g><path d="M44.142 56.6a.862.862 0 0 1 1.195.24l50.443 75.766-1.435.955-50.443-75.766a.861.861 0 0 1 .24-1.195z" fill="#EA4143"/><path d="M95.318 123.351l-1.861 1.239 4.291 6.445 1.86-1.239-4.29-6.445z" fill="#F8EEC8"/></g><defs><clipPath id="clip0"><path fill="#fff" transform="rotate(-33.655 25.539 7.724)" d="M0 0h27.875v171.874H0z"/></clipPath></defs></svg>