<svg width="678" height="367" viewBox="0 0 678 367" fill="none" xmlns="http://www.w3.org/2000/svg"><path d="M371.705 168.323c.013-8.041-6.495-14.57-14.537-14.582-8.041-.013-14.57 6.495-14.582 14.537l-.077 48.84c-.013 8.041 6.496 14.57 14.537 14.583 8.041.012 14.57-6.496 14.583-14.538l.076-48.84z" fill="#E85F67"/><path d="M342.549 191.318l29.12.046-.041 26.17a14.558 14.558 0 0 1-14.583 14.537 14.558 14.558 0 0 1-14.537-14.583l.041-26.17z" fill="#F58878"/><path d="M357.26 154a14.084 14.084 0 0 0-2 .13 14.547 14.547 0 0 1 5.29 11.23l-.08 48.84a14.601 14.601 0 0 1-12.62 14.4 14.437 14.437 0 0 0 9.25 3.35 14.598 14.598 0 0 0 14.58-14.53l.08-48.84a14.6 14.6 0 0 0-14.5-14.58z" fill="#F7C2B7"/><path d="M336.39 112.15c22.335 0 40.44-18.106 40.44-40.44 0-22.334-18.105-40.44-40.44-40.44-22.334 0-40.44 18.106-40.44 40.44 0 22.334 18.106 40.44 40.44 40.44z" fill="#966992"/><path d="M364.82 42.8a40.428 40.428 0 0 1-32.967 65.278A40.43 40.43 0 0 1 304.5 96.4a40.423 40.423 0 0 0 44.513 13.544 40.425 40.425 0 0 0 27.784-37.321A40.42 40.42 0 0 0 364.82 42.8z" fill="#966992" opacity=".42"/><path d="M351.08 34.3l-39.93 69.06c1.64 1.33.91 1.16 2.8 2.26 1.89 1.1 1.38.54 3.35 1.29l39.93-69.06c-1.64-1.33-.91-1.16-2.8-2.25-1.89-1.09-1.37-.54-3.35-1.3z" fill="#966992" opacity=".6"/><path d="M19.28 34h8.91v77h-8.91V34zM95.51 94l27.72-60h11.33v77H126V46.88L99.91 104h-8.8L65 46.88V111h-8.54V34H67.9l27.61 60zM162.94 34h21.12c14 0 23 8.25 23 22.22 0 13.97-9.46 22.55-23 22.55h-12.21V111h-8.91V34zm20.35 36.85c9.24 0 14.63-5.72 14.63-14.63s-5.39-14.3-14.63-14.3h-11.44v28.94l11.44-.01zM229.82 34h19.58c15.73 0 24 7.92 24 21.34 0 9.13-4.51 17.49-13.42 20.35L279.1 111h-9.9l-17.38-33.43h-13.09V111h-8.91V34zm19.58 35.76c9 0 14.63-4.18 14.63-14.3 0-8.14-4.29-13.53-15.18-13.53h-10.12v27.83h10.67zM417.26 111L388 34h9.79L422 100.45 446.3 34h9.79l-29.26 77h-9.57zM476.77 34h8.9v77h-8.9V34zM514 34h8.91l42.46 62.92V34h8.8v77h-8.8l-42.46-62.7V111H514V34zM665.41 43.8l-5.71 5.94c-3.53-3.41-10.34-8.8-22.45-8.8-17.7 0-29.81 13.64-29.81 31.68 0 18.59 12.55 31.57 29.71 31.57 12.86 0 20.13-5.61 22.55-8V80h-17.16v-7.82h25.74V100c-8.37 8.47-18.37 12.43-31.46 12.43-21.9 0-38.73-16.39-38.73-39.82 0-22.55 16.4-40 38.95-40 15.29-.03 24.42 7.12 28.37 11.19zM134.39 214l27.72-60h11.33v77h-8.58v-64.12L138.79 224H130l-26.07-57.09V231h-8.59v-77h11.44l27.61 60zM201.82 154h36.52v8.14h-27.61v25.63h24.09v8h-24.09V223h28.82v8h-37.73v-77zM265 154h15.8c26.29 0 41.25 14.41 41.25 38.5 0 25.52-15.51 38.5-41.25 38.5H265v-77zm17.6 69.08c18.48 0 30.36-10.45 30.36-30.58 0-19.25-11.88-30.47-30.36-30.47h-8.69v61.05h8.69zM453.83 223.64a38.638 38.638 0 0 1-24.86 8.8c-22.55 0-39.05-17.16-39.05-39.93s17.05-39.93 38.83-39.93a38.216 38.216 0 0 1 23.87 8l-2.86 7.92a33.834 33.834 0 0 0-20.76-7.56c-17.05 0-29.81 13.64-29.81 31.57s12.21 31.57 30 31.57a33.823 33.823 0 0 0 21.89-8.25l2.75 7.81zM488.37 206l-9.24 25h-9l28.82-77h9l28.82 77h-9l-9.24-25h-30.16zm15.07-42.24l-12.32 34.54h24.75l-12.43-34.54zM557.89 154h8.91v69h28.82v8h-37.73v-77zM27.36 326l-9.24 25h-9l28.82-77h9l28.82 77h-9l-9.26-25H27.36zm15.07-42.2l-12.32 34.54h24.75L42.43 283.8zM96.88 274h15.84C139 274 154 288.42 154 312.51 154 338 138.46 351 112.72 351H96.88v-77zm17.6 69.08c18.48 0 30.36-10.45 30.36-30.58 0-19.25-11.88-30.47-30.36-30.47h-8.69v61l8.69.05zM178 274h8.91v33.77h40.92V274h8.91v77h-8.91v-35.08h-40.97V351H178v-77zM265.07 274h36.52v8.14H274v25.63h24.09v8H274V343h28.8v8h-37.73v-77zM328.21 274h19.58c15.73 0 24 7.92 24 21.34 0 9.13-4.51 17.49-13.42 20.35L377.49 351h-9.9l-17.38-33.44h-13.09V351h-8.91v-77zm19.58 35.75c9 0 14.63-4.18 14.63-14.3 0-8.14-4.29-13.53-15.18-13.53h-10.12v27.83h10.67zM399.38 274h36.52v8.14h-27.61v25.63h24.09v8h-24.09V343h28.82v8h-37.73v-77zM462.41 274h8.91l42.46 62.92V274h8.8v77h-8.8l-42.46-62.7V351h-8.91v-77zM610.47 343.64a38.638 38.638 0 0 1-24.86 8.8c-22.55 0-39.05-17.16-39.05-39.93s17.05-39.94 38.83-39.94a38.214 38.214 0 0 1 23.87 8l-2.86 7.92a33.836 33.836 0 0 0-20.79-7.59c-17.05 0-29.81 13.64-29.81 31.57s12.21 31.57 30 31.57a33.823 33.823 0 0 0 21.89-8.25l2.78 7.85zM634.12 274h36.52v8.14H643v25.63h24.09v8H643V343h28.82v8h-37.7v-77z" fill="#184E67"/></svg>