<svg width="199" height="72" viewBox="0 0 199 72" fill="none" xmlns="http://www.w3.org/2000/svg">
<g clip-path="url(#clip0)">
<path d="M107.941 23.3735C107.941 22.6855 108.565 22.0645 109.25 22.0645H111.73C112.42 22.0645 113.044 22.6808 113.044 23.3735V50.6057C113.044 51.2936 112.42 51.9099 111.73 51.9099H109.25C108.56 51.9099 107.941 51.2936 107.941 50.6057V23.3735Z" fill="white"/>
<path d="M163.587 22.0508C171.102 22.0508 176.905 27.6119 176.905 35.0983C176.905 35.6 176.834 36.5268 176.762 37.0237C176.694 37.7355 176.119 38.2372 175.476 38.2372H154.528C154.816 43.0147 158.945 47.1235 164.666 47.1235C167.673 47.1235 169.966 46.1488 171.803 44.7872C172.436 44.3143 172.805 44.2951 173.289 44.7395C173.812 45.222 174.392 45.7953 174.915 46.2826C175.519 46.832 175.735 47.2955 175.054 48.0551C173.596 49.689 169.798 52.0014 164.858 52.0014C156.197 52.0014 149.531 45.2268 149.531 37.0285C149.531 28.9735 155.291 22.0556 163.952 22.0556L163.587 22.0508ZM171.966 34.2431C171.755 30.1058 167.654 26.4031 163.285 26.4031C158.494 26.4031 154.926 30.1918 154.638 34.2431H171.966Z" fill="white"/>
<path d="M198.76 48.4471L196.693 46.407C196.535 46.2446 196.022 46.0631 195.494 46.5122C195.494 46.5122 194.439 47.482 192.646 47.482C191.408 47.482 190.401 47.0329 189.667 46.2781C188.938 45.5184 188.473 44.4244 188.454 43.058C188.454 42.9815 188.44 42.9146 188.416 42.843V26.1693H195.983C196.746 26.1693 197.293 25.553 197.293 24.8602V23.3505C197.293 22.5909 196.741 22.0414 195.983 22.0414H188.411V14.4547C188.411 13.7667 187.859 13.1504 187.169 13.1504L184.963 13.3845C184.272 13.4753 183.649 14.0056 183.649 14.6888V22.0462H180.061C179.303 22.0462 178.752 22.5956 178.752 23.3553V24.865C178.752 25.553 179.303 26.174 180.061 26.174H183.649V43.2921H183.677C183.735 45.3942 184.526 46.9995 185.001 47.7925C185.433 48.471 186.373 49.7991 187.869 50.8597C187.893 50.8741 187.917 50.8932 187.946 50.9123C188.646 51.3184 190.19 52.0064 192.588 52.0016H192.607C195.101 52.0016 197.216 51.0891 198.741 49.6319C198.899 49.479 198.995 49.264 199 49.0443C199.005 48.8197 198.914 48.6047 198.76 48.4471Z" fill="white"/>
<path d="M101.678 22.0839H98.9873L98.6708 22.0887C98.0713 22.0887 97.6684 22.4422 97.4718 22.8435L88.0671 45.0688L78.8255 22.7958C78.6241 22.3945 78.226 22.0409 77.6266 22.0409L77.31 22.0361H74.5476C73.5117 22.0361 73.0993 22.7241 73.5117 23.6175L74.0057 24.7402L85.2759 50.5821C85.5253 51.1841 86.0145 51.8864 86.7051 51.8864H89.4483C90.1389 51.8864 90.6281 51.1793 90.8775 50.5821L102.234 24.7928L102.723 23.6701C103.131 22.7767 102.714 22.0839 101.678 22.0839Z" fill="white"/>
<path d="M136.817 51.9958H126.784C124.204 51.9958 122.952 50.1995 122.952 48.4652C122.952 45.6895 126.017 44.2992 126.017 44.2992C126.017 44.2992 129.297 46.3153 133.124 46.3153C140.491 46.3153 145.493 40.5536 145.493 34.2328C145.493 29.5078 142.625 26.7607 142.625 26.7607L146.418 25.6906C146.903 25.6189 147.186 24.9978 147.186 24.5105V23.3352C147.186 22.5756 146.629 22.0166 145.862 22.0166H132.635C125.389 22.0166 120.856 27.7784 120.856 34.2328C120.856 38.3272 123.087 41.1747 123.087 41.1747C123.087 41.1747 118.42 43.8788 118.42 49.1532C118.42 53.4578 121.696 55.2637 123.509 55.751V55.9612C122.808 56.3769 119.47 58.2545 119.47 62.4157C119.47 66.9974 123.509 71.9948 132.846 71.9948C141.277 71.9948 147.267 66.5101 147.267 60.7531C147.267 54.7143 142.668 51.9958 136.817 51.9958ZM133.124 26.5075C137.311 26.5075 140.706 29.8948 140.706 34.0656C140.706 38.2412 137.311 41.619 133.124 41.619C128.942 41.619 125.547 38.2412 125.547 34.0656C125.552 29.89 128.942 26.5075 133.124 26.5075ZM132.774 67.4895C128.031 67.4895 124.41 65.0577 124.41 61.7278C124.41 57.6286 129.081 56.3817 129.081 56.3817H136.812C141.69 56.3817 142.107 59.9935 142.107 60.8965C142.112 64.9192 137.373 67.4895 132.774 67.4895Z" fill="white"/>
<path d="M107.562 13.9573C107.562 12.2947 108.862 11 110.469 11C112.143 11 113.442 12.2947 113.442 13.9573C113.442 15.5578 112.143 16.8525 110.469 16.8525C108.867 16.8525 107.562 15.5578 107.562 13.9573Z" fill="white"/>
</g>
<g clip-path="url(#clip1)">
<path d="M52.8193 31.5474C58.6074 32.884 64.3854 29.2658 65.7247 23.4659C67.064 17.666 63.4575 11.8807 57.6693 10.5441C51.8812 9.20755 46.1032 12.8258 44.7639 18.6256C43.4246 24.4255 47.0311 30.2108 52.8193 31.5474Z" fill="#F3C74A"/>
<g opacity="0.53">
<g style="mix-blend-mode:multiply" opacity="0.53">
<path d="M64.345 15.2415C65.4938 17.7237 65.6565 20.5516 64.8 23.1514C63.9436 25.7511 62.1321 27.9278 59.7333 29.2398C57.3346 30.5519 54.5282 30.9008 51.8838 30.2159C49.2393 29.531 46.955 27.8635 45.4944 25.5519C46.1132 26.8889 46.9993 28.0842 48.098 29.064C49.1967 30.0438 50.4846 30.7871 51.8819 31.2481C53.2793 31.709 54.7565 31.8777 56.2221 31.7438C57.6877 31.6098 59.1105 31.1761 60.4026 30.4694C61.6947 29.7627 62.8286 28.798 63.734 27.6351C64.6395 26.4722 65.2974 25.1357 65.6669 23.7084C66.0364 22.2811 66.1098 20.7932 65.8824 19.3369C65.655 17.8805 65.1318 16.4867 64.345 15.2415Z" fill="#F3C74A"/>
</g>
</g>
<g style="mix-blend-mode:multiply" opacity="0.58">
<g style="mix-blend-mode:multiply" opacity="0.58">
<path d="M48.1496 13.088L60.8229 30.1389C61.32 29.882 61.2158 30.0438 61.6674 29.6946C62.119 29.3454 61.9439 29.4128 62.3376 29.0093L49.6642 11.9585C49.1672 12.2154 49.2705 12.0571 48.8189 12.4063C48.3673 12.7555 48.5424 12.6881 48.1496 13.088Z" fill="#F8EEC8"/>
</g>
</g>
<path d="M19.1647 62.2093C29.5779 64.614 39.9727 58.1046 42.3822 47.6703C44.7917 37.2359 38.3034 26.8279 27.8902 24.4233C17.477 22.0187 7.08212 28.528 4.67263 38.9624C2.26314 49.3967 8.75144 59.8047 19.1647 62.2093Z" fill="#77A7AA"/>
<g style="mix-blend-mode:multiply" opacity="0.26">
<g style="mix-blend-mode:multiply" opacity="0.26">
<path d="M39.8986 32.8683C41.9875 37.3359 42.2961 42.4349 40.7616 47.1257C39.2272 51.8166 35.9651 55.7461 31.6405 58.1132C27.316 60.4802 22.2545 61.1065 17.4882 59.8643C12.7218 58.6222 8.60937 55.6051 5.98938 51.4283C7.1093 53.8235 8.70703 55.9633 10.6842 57.7158C12.6613 59.4683 14.976 60.7964 17.4856 61.6183C19.9953 62.4403 22.6468 62.7387 25.2769 62.4952C27.907 62.2516 30.4599 61.4713 32.7785 60.2022C35.0971 58.9332 37.1322 57.2023 38.7586 55.1161C40.3849 53.0299 41.568 50.6327 42.2351 48.072C42.9021 45.5113 43.0389 42.8413 42.6371 40.2266C42.2353 37.6119 41.3033 35.1077 39.8986 32.8683Z" fill="#9FB7B2"/>
</g>
</g>
<g style="mix-blend-mode:multiply" opacity="0.6">
<g style="mix-blend-mode:multiply" opacity="0.6">
<path d="M32.2404 25.6802L8.83725 55.9139C9.52715 56.6531 9.19263 56.5275 10.0132 57.1667C10.8337 57.806 10.6312 57.5102 11.5166 57.9971L34.9233 27.7642C34.2334 27.025 34.5679 27.1506 33.7298 26.5073C32.8916 25.864 33.1258 26.1671 32.2404 25.6802Z" fill="#6A9A9B"/>
</g>
</g>
</g>
<defs>
<clipPath id="clip0">
<rect width="183" height="61" fill="white" transform="translate(16 11)"/>
</clipPath>
<clipPath id="clip1">
<rect width="56" height="59" fill="white" transform="translate(13.5857 0.364258) rotate(13.0028)"/>
</clipPath>
</defs>
</svg>
