<svg width="382" height="128" viewBox="0 0 382 128" fill="none" xmlns="http://www.w3.org/2000/svg"><g clip-path="url(#clip0)"><path d="M62.53 54.42c0 17.26-13.99 31.27-31.26 31.27C13.99 85.69 0 71.68 0 54.42c0-17.28 13.99-31.28 31.27-31.28 17.26 0 31.26 14 31.26 31.28z" fill="#1496BB"/><path d="M92.95 20.29c0 9.05-7.33 16.37-16.36 16.37s-16.36-7.32-16.36-16.37c0-9.04 7.33-16.37 16.36-16.37s16.36 7.34 16.36 16.37z" fill="#F26D21"/><path d="M191.71 25.9c0-1.44 1.3-2.74 2.73-2.74h5.17c1.44 0 2.74 1.29 2.74 2.74v57c0 1.44-1.3 2.73-2.74 2.73h-5.17c-1.44 0-2.73-1.29-2.73-2.73v-57zM307.74 23.13c15.67 0 27.77 11.64 27.77 27.31 0 1.05-.15 2.99-.3 4.03-.14 1.49-1.34 2.54-2.68 2.54h-43.68c.6 10 9.21 18.6 21.14 18.6 6.27 0 11.05-2.04 14.88-4.89 1.32-.99 2.09-1.03 3.1-.1 1.09 1.01 2.3 2.21 3.39 3.23 1.26 1.15 1.71 2.12.29 3.71-3.04 3.42-10.96 8.26-21.26 8.26-18.06 0-31.96-14.18-31.96-31.34 0-16.86 12.01-31.34 30.07-31.34l-.76-.01zm17.47 25.52c-.44-8.66-8.99-16.41-18.1-16.41-9.99 0-17.43 7.93-18.03 16.41h36.13zM381.08 78.38l-4.31-4.27c-.33-.34-1.4-.72-2.5.22 0 0-2.2 2.03-5.94 2.03-2.58 0-4.68-.94-6.21-2.52-1.52-1.59-2.49-3.88-2.53-6.74 0-.16-.03-.3-.08-.45v-34.9h15.78c1.59 0 2.73-1.29 2.73-2.74v-3.16c0-1.59-1.15-2.74-2.73-2.74H359.5V7.23c0-1.44-1.15-2.73-2.59-2.73l-4.6.49c-1.44.19-2.74 1.3-2.74 2.73v15.4h-7.48c-1.58 0-2.73 1.15-2.73 2.74v3.16c0 1.44 1.15 2.74 2.73 2.74h7.48v35.83h.06c.12 4.4 1.77 7.76 2.76 9.42.9 1.42 2.86 4.2 5.98 6.42.05.03.1.07.16.11 1.46.85 4.68 2.29 9.68 2.28h.04c5.2 0 9.61-1.91 12.79-4.96.33-.32.53-.77.54-1.23.01-.47-.18-.92-.5-1.25zM178.65 23.2h-5.61l-.66.01c-1.25 0-2.09.74-2.5 1.58l-19.61 46.52L131 24.69c-.42-.84-1.25-1.58-2.5-1.58l-.66-.01h-5.76c-2.16 0-3.02 1.44-2.16 3.31l1.03 2.35 23.5 54.09c.52 1.26 1.54 2.73 2.98 2.73h5.72c1.44 0 2.46-1.48 2.98-2.73l23.68-53.98 1.02-2.35c.85-1.87-.02-3.32-2.18-3.32zM251.92 85.81H231c-5.38 0-7.99-3.76-7.99-7.39 0-5.81 6.39-8.72 6.39-8.72s6.84 4.22 14.82 4.22c15.36 0 25.79-12.06 25.79-25.29 0-9.89-5.98-15.64-5.98-15.64l7.91-2.24c1.01-.15 1.6-1.45 1.6-2.47v-2.46c0-1.59-1.16-2.76-2.76-2.76H243.2c-15.11 0-24.56 12.06-24.56 25.57 0 8.57 4.65 14.53 4.65 14.53s-9.73 5.66-9.73 16.7c0 9.01 6.83 12.79 10.61 13.81v.44c-1.46.87-8.42 4.8-8.42 13.51 0 9.59 8.42 20.05 27.89 20.05 17.58 0 30.07-11.48 30.07-23.53 0-12.64-9.59-18.33-21.79-18.33zm-7.7-53.35c8.73 0 15.81 7.09 15.81 15.82 0 8.74-7.08 15.81-15.81 15.81-8.72 0-15.8-7.07-15.8-15.81.01-8.74 7.08-15.82 15.8-15.82zm-.73 85.78c-9.89 0-17.44-5.09-17.44-12.06 0-8.58 9.74-11.19 9.74-11.19h16.12c10.17 0 11.04 7.56 11.04 9.45.01 8.42-9.87 13.8-19.46 13.8zM190.92 6.19c0-3.48 2.71-6.19 6.06-6.19 3.49 0 6.2 2.71 6.2 6.19 0 3.35-2.71 6.06-6.2 6.06-3.34 0-6.06-2.71-6.06-6.06z" fill="#092F40"/></g><defs><clipPath id="clip0"><path fill="#fff" d="M0 0h381.58v127.68H0z"/></clipPath></defs></svg>