<svg width="382" height="128" viewBox="0 0 382 128" fill="none" xmlns="http://www.w3.org/2000/svg">
<g clip-path="url(#clip0)">
<path d="M62.53 54.42C62.53 71.68 48.54 85.69 31.27 85.69C13.99 85.69 0 71.68 0 54.42C0 37.14 13.99 23.14 31.27 23.14C48.53 23.14 62.53 37.14 62.53 54.42Z" fill="#1496BB"/>
<path d="M92.95 20.29C92.95 29.34 85.62 36.66 76.59 36.66C67.56 36.66 60.23 29.34 60.23 20.29C60.23 11.25 67.56 3.92 76.59 3.92C85.62 3.92 92.95 11.26 92.95 20.29Z" fill="#F26D21"/>
<path d="M191.71 25.9C191.71 24.46 193.01 23.16 194.44 23.16H199.61C201.05 23.16 202.35 24.45 202.35 25.9V82.9C202.35 84.34 201.05 85.63 199.61 85.63H194.44C193 85.63 191.71 84.34 191.71 82.9V25.9Z" fill="#092F40"/>
<path d="M307.74 23.13C323.41 23.13 335.51 34.77 335.51 50.44C335.51 51.49 335.36 53.43 335.21 54.47C335.07 55.96 333.87 57.01 332.53 57.01H288.85C289.45 67.01 298.06 75.61 309.99 75.61C316.26 75.61 321.04 73.57 324.87 70.72C326.19 69.73 326.96 69.69 327.97 70.62C329.06 71.63 330.27 72.83 331.36 73.85C332.62 75 333.07 75.97 331.65 77.56C328.61 80.98 320.69 85.82 310.39 85.82C292.33 85.82 278.43 71.64 278.43 54.48C278.43 37.62 290.44 23.14 308.5 23.14L307.74 23.13ZM325.21 48.65C324.77 39.99 316.22 32.24 307.11 32.24C297.12 32.24 289.68 40.17 289.08 48.65H325.21Z" fill="#092F40"/>
<path d="M381.08 78.38L376.77 74.11C376.44 73.77 375.37 73.39 374.27 74.33C374.27 74.33 372.07 76.36 368.33 76.36C365.75 76.36 363.65 75.42 362.12 73.84C360.6 72.25 359.63 69.96 359.59 67.1C359.59 66.94 359.56 66.8 359.51 66.65V31.75H375.29C376.88 31.75 378.02 30.46 378.02 29.01V25.85C378.02 24.26 376.87 23.11 375.29 23.11H359.5V7.23C359.5 5.79 358.35 4.5 356.91 4.5L352.31 4.99C350.87 5.18 349.57 6.29 349.57 7.72V23.12H342.09C340.51 23.12 339.36 24.27 339.36 25.86V29.02C339.36 30.46 340.51 31.76 342.09 31.76H349.57V67.59H349.63C349.75 71.99 351.4 75.35 352.39 77.01C353.29 78.43 355.25 81.21 358.37 83.43C358.42 83.46 358.47 83.5 358.53 83.54C359.99 84.39 363.21 85.83 368.21 85.82H368.25C373.45 85.82 377.86 83.91 381.04 80.86C381.37 80.54 381.57 80.09 381.58 79.63C381.59 79.16 381.4 78.71 381.08 78.38Z" fill="#092F40"/>
<path d="M178.65 23.2H173.04L172.38 23.21C171.13 23.21 170.29 23.95 169.88 24.79L150.27 71.31L131 24.69C130.58 23.85 129.75 23.11 128.5 23.11L127.84 23.1H122.08C119.92 23.1 119.06 24.54 119.92 26.41L120.95 28.76L144.45 82.85C144.97 84.11 145.99 85.58 147.43 85.58H153.15C154.59 85.58 155.61 84.1 156.13 82.85L179.81 28.87L180.83 26.52C181.68 24.65 180.81 23.2 178.65 23.2Z" fill="#092F40"/>
<path d="M251.92 85.81H231C225.62 85.81 223.01 82.05 223.01 78.42C223.01 72.61 229.4 69.7 229.4 69.7C229.4 69.7 236.24 73.92 244.22 73.92C259.58 73.92 270.01 61.86 270.01 48.63C270.01 38.74 264.03 32.99 264.03 32.99L271.94 30.75C272.95 30.6 273.54 29.3 273.54 28.28V25.82C273.54 24.23 272.38 23.06 270.78 23.06H243.2C228.09 23.06 218.64 35.12 218.64 48.63C218.64 57.2 223.29 63.16 223.29 63.16C223.29 63.16 213.56 68.82 213.56 79.86C213.56 88.87 220.39 92.65 224.17 93.67V94.11C222.71 94.98 215.75 98.91 215.75 107.62C215.75 117.21 224.17 127.67 243.64 127.67C261.22 127.67 273.71 116.19 273.71 104.14C273.71 91.5 264.12 85.81 251.92 85.81ZM244.22 32.46C252.95 32.46 260.03 39.55 260.03 48.28C260.03 57.02 252.95 64.09 244.22 64.09C235.5 64.09 228.42 57.02 228.42 48.28C228.43 39.54 235.5 32.46 244.22 32.46ZM243.49 118.24C233.6 118.24 226.05 113.15 226.05 106.18C226.05 97.6 235.79 94.99 235.79 94.99H251.91C262.08 94.99 262.95 102.55 262.95 104.44C262.96 112.86 253.08 118.24 243.49 118.24Z" fill="#092F40"/>
<path d="M190.92 6.19C190.92 2.71 193.63 0 196.98 0C200.47 0 203.18 2.71 203.18 6.19C203.18 9.54 200.47 12.25 196.98 12.25C193.64 12.25 190.92 9.54 190.92 6.19Z" fill="#092F40"/>
</g>
<defs>
<clipPath id="clip0">
<rect width="381.58" height="127.68" fill="white"/>
</clipPath>
</defs>
</svg>
